<svg xmlns="http://www.w3.org/2000/svg" version="1.1" xmlns:xllink="http://www.w3.org/1999/xlink" width="1000" height="1000">
<ellipse cx="405.0223031544592" cy="463.7444507645704" rx="5.60" ry="5.60" style="fill:rgb(255,255,0);stroke:rgb(0,0,0);stroke-width:0.50;"/>
<ellipse cx="268.00418058240996" cy="532.532683081424" rx="5.60" ry="5.60" style="fill:rgb(255,255,0);stroke:rgb(0,0,0);stroke-width:0.50;"/>
<ellipse cx="430.32760989464737" cy="527.0816814942641" rx="5.60" ry="5.60" style="fill:rgb(255,255,0);stroke:rgb(0,0,0);stroke-width:0.50;"/>
<ellipse cx="315.49834209168205" cy="377.3841925722273" rx="5.60" ry="5.60" style="fill:rgb(255,255,0);stroke:rgb(0,0,0);stroke-width:0.50;"/>
<ellipse cx="365.7678050125213" cy="680.0537728599832" rx="5.60" ry="5.60" style="fill:rgb(255,255,0);stroke:rgb(0,0,0);stroke-width:0.50;"/>
<ellipse cx="622.4415060568251" cy="648.557809257512" rx="5.60" ry="5.60" style="fill:rgb(255,255,0);stroke:rgb(0,0,0);stroke-width:0.50;"/>
<ellipse cx="523.6075314960591" cy="654.7946053195822" rx="5.60" ry="5.60" style="fill:rgb(255,255,0);stroke:rgb(0,0,0);stroke-width:0.50;"/>
<ellipse cx="488.55927071489646" cy="533.4994716235334" rx="5.60" ry="5.60" style="fill:rgb(255,255,0);stroke:rgb(0,0,0);stroke-width:0.50;"/>
<ellipse cx="504.2610643723798" cy="411.81500513227206" rx="5.60" ry="5.60" style="fill:rgb(255,255,0);stroke:rgb(0,0,0);stroke-width:0.50;"/>
<ellipse cx="540.1224081751858" cy="754.9009272359843" rx="5.60" ry="5.60" style="fill:rgb(255,255,0);stroke:rgb(0,0,0);stroke-width:0.50;"/>
<ellipse cx="489.9570749376263" cy="159.10305969672982" rx="5.60" ry="5.60" style="fill:rgb(255,255,0);stroke:rgb(0,0,0);stroke-width:0.50;"/>
<ellipse cx="347.7846816196735" cy="206.98826685003007" rx="5.60" ry="5.60" style="fill:rgb(255,255,0);stroke:rgb(0,0,0);stroke-width:0.50;"/>
<ellipse cx="263.18535751583613" cy="447.1465880032682" rx="5.60" ry="5.60" style="fill:rgb(255,255,0);stroke:rgb(0,0,0);stroke-width:0.50;"/>
<ellipse cx="222.96983980851007" cy="307.3523701167976" rx="5.60" ry="5.60" style="fill:rgb(255,255,0);stroke:rgb(0,0,0);stroke-width:0.50;"/>
<ellipse cx="285.3290784891233" cy="677.3770381933297" rx="5.60" ry="5.60" style="fill:rgb(255,255,0);stroke:rgb(0,0,0);stroke-width:0.50;"/>
<ellipse cx="117.35587008911011" cy="533.9963041961464" rx="5.60" ry="5.60" style="fill:rgb(255,255,0);stroke:rgb(0,0,0);stroke-width:0.50;"/>
<ellipse cx="752.4876719957638" cy="439.6981365850369" rx="5.60" ry="5.60" style="fill:rgb(255,255,0);stroke:rgb(0,0,0);stroke-width:0.50;"/>
<ellipse cx="440.23118590863464" cy="608.0637926159114" rx="5.60" ry="5.60" style="fill:rgb(255,255,0);stroke:rgb(0,0,0);stroke-width:0.50;"/>
<ellipse cx="403.34708768243536" cy="772.1766897180552" rx="5.60" ry="5.60" style="fill:rgb(255,255,0);stroke:rgb(0,0,0);stroke-width:0.50;"/>
<ellipse cx="745.9739540098194" cy="616.7519305559707" rx="5.60" ry="5.60" style="fill:rgb(255,255,0);stroke:rgb(0,0,0);stroke-width:0.50;"/>
<ellipse cx="562.0556175240298" cy="306.6369845820538" rx="5.60" ry="5.60" style="fill:rgb(255,255,0);stroke:rgb(0,0,0);stroke-width:0.50;"/>
<ellipse cx="654.6323540269731" cy="516.2003691498" rx="5.60" ry="5.60" style="fill:rgb(255,255,0);stroke:rgb(0,0,0);stroke-width:0.50;"/>
<ellipse cx="602.4151376165399" cy="417.81431016988745" rx="5.60" ry="5.60" style="fill:rgb(255,255,0);stroke:rgb(0,0,0);stroke-width:0.50;"/>
<ellipse cx="583.5601113408818" cy="517.6882873754782" rx="5.60" ry="5.60" style="fill:rgb(255,255,0);stroke:rgb(0,0,0);stroke-width:0.50;"/>
<ellipse cx="845.2991336888128" cy="354.88718040694005" rx="5.60" ry="5.60" style="fill:rgb(255,255,0);stroke:rgb(0,0,0);stroke-width:0.50;"/>
<ellipse cx="606.2882135950681" cy="796.2594958470584" rx="5.60" ry="5.60" style="fill:rgb(255,255,0);stroke:rgb(0,0,0);stroke-width:0.50;"/>
<ellipse cx="427.06044255975803" cy="327.6218975976823" rx="5.60" ry="5.60" style="fill:rgb(255,255,0);stroke:rgb(0,0,0);stroke-width:0.50;"/>
<ellipse cx="748.2902830150754" cy="283.93510642627416" rx="5.60" ry="5.60" style="fill:rgb(255,255,0);stroke:rgb(0,0,0);stroke-width:0.50;"/>
<ellipse cx="759.7932293324005" cy="735.0271669321962" rx="5.60" ry="5.60" style="fill:rgb(255,255,0);stroke:rgb(0,0,0);stroke-width:0.50;"/>
<ellipse cx="840.0256312032412" cy="513.9622489574382" rx="5.60" ry="5.60" style="fill:rgb(255,255,0);stroke:rgb(0,0,0);stroke-width:0.50;"/>
<ellipse cx="980.6652435500985" cy="517.330522334551" rx="5.60" ry="5.60" style="fill:rgb(255,255,0);stroke:rgb(0,0,0);stroke-width:0.50;"/>
<ellipse cx="731.6206025902821" cy="500.0863871502237" rx="5.60" ry="5.60" style="fill:rgb(255,255,0);stroke:rgb(0,0,0);stroke-width:0.50;"/>
<ellipse cx="924.1380016825848" cy="655.2524044635747" rx="5.60" ry="5.60" style="fill:rgb(255,255,0);stroke:rgb(0,0,0);stroke-width:0.50;"/>
<ellipse cx="666.7753546270661" cy="267.6238439330059" rx="5.60" ry="5.60" style="fill:rgb(255,255,0);stroke:rgb(0,0,0);stroke-width:0.50;"/>
<line x1="405.0223031544592" y1="463.7444507645704" x2="268.00418058240996" y2="532.532683081424" style="stroke:rgb(0,0,255);stroke-width:1"/>
<line x1="268.00418058240996" y1="532.532683081424" x2="405.0223031544592" y2="463.7444507645704" style="stroke:rgb(0,0,255);stroke-width:1"/>
<line x1="405.0223031544592" y1="463.7444507645704" x2="430.32760989464737" y2="527.0816814942641" style="stroke:rgb(0,0,255);stroke-width:1"/>
<line x1="430.32760989464737" y1="527.0816814942641" x2="405.0223031544592" y2="463.7444507645704" style="stroke:rgb(0,0,255);stroke-width:1"/>
<line x1="405.0223031544592" y1="463.7444507645704" x2="315.49834209168205" y2="377.3841925722273" style="stroke:rgb(0,0,255);stroke-width:1"/>
<line x1="315.49834209168205" y1="377.3841925722273" x2="405.0223031544592" y2="463.7444507645704" style="stroke:rgb(0,0,255);stroke-width:1"/>
<line x1="405.0223031544592" y1="463.7444507645704" x2="365.7678050125213" y2="680.0537728599832" style="stroke:rgb(0,0,255);stroke-width:1"/>
<line x1="365.7678050125213" y1="680.0537728599832" x2="405.0223031544592" y2="463.7444507645704" style="stroke:rgb(0,0,255);stroke-width:1"/>
<line x1="405.0223031544592" y1="463.7444507645704" x2="622.4415060568251" y2="648.557809257512" style="stroke:rgb(0,0,255);stroke-width:1"/>
<line x1="622.4415060568251" y1="648.557809257512" x2="405.0223031544592" y2="463.7444507645704" style="stroke:rgb(0,0,255);stroke-width:1"/>
<line x1="405.0223031544592" y1="463.7444507645704" x2="523.6075314960591" y2="654.7946053195822" style="stroke:rgb(0,0,255);stroke-width:1"/>
<line x1="523.6075314960591" y1="654.7946053195822" x2="405.0223031544592" y2="463.7444507645704" style="stroke:rgb(0,0,255);stroke-width:1"/>
<line x1="405.0223031544592" y1="463.7444507645704" x2="488.55927071489646" y2="533.4994716235334" style="stroke:rgb(0,0,255);stroke-width:1"/>
<line x1="488.55927071489646" y1="533.4994716235334" x2="405.0223031544592" y2="463.7444507645704" style="stroke:rgb(0,0,255);stroke-width:1"/>
<line x1="405.0223031544592" y1="463.7444507645704" x2="504.2610643723798" y2="411.81500513227206" style="stroke:rgb(0,0,255);stroke-width:1"/>
<line x1="504.2610643723798" y1="411.81500513227206" x2="405.0223031544592" y2="463.7444507645704" style="stroke:rgb(0,0,255);stroke-width:1"/>
<line x1="405.0223031544592" y1="463.7444507645704" x2="540.1224081751858" y2="754.9009272359843" style="stroke:rgb(0,0,255);stroke-width:1"/>
<line x1="540.1224081751858" y1="754.9009272359843" x2="405.0223031544592" y2="463.7444507645704" style="stroke:rgb(0,0,255);stroke-width:1"/>
<line x1="405.0223031544592" y1="463.7444507645704" x2="489.9570749376263" y2="159.10305969672982" style="stroke:rgb(0,0,255);stroke-width:1"/>
<line x1="489.9570749376263" y1="159.10305969672982" x2="405.0223031544592" y2="463.7444507645704" style="stroke:rgb(0,0,255);stroke-width:1"/>
<line x1="405.0223031544592" y1="463.7444507645704" x2="347.7846816196735" y2="206.98826685003007" style="stroke:rgb(0,0,255);stroke-width:1"/>
<line x1="347.7846816196735" y1="206.98826685003007" x2="405.0223031544592" y2="463.7444507645704" style="stroke:rgb(0,0,255);stroke-width:1"/>
<line x1="405.0223031544592" y1="463.7444507645704" x2="263.18535751583613" y2="447.1465880032682" style="stroke:rgb(0,0,255);stroke-width:1"/>
<line x1="263.18535751583613" y1="447.1465880032682" x2="405.0223031544592" y2="463.7444507645704" style="stroke:rgb(0,0,255);stroke-width:1"/>
<line x1="405.0223031544592" y1="463.7444507645704" x2="222.96983980851007" y2="307.3523701167976" style="stroke:rgb(0,0,255);stroke-width:1"/>
<line x1="222.96983980851007" y1="307.3523701167976" x2="405.0223031544592" y2="463.7444507645704" style="stroke:rgb(0,0,255);stroke-width:1"/>
<line x1="405.0223031544592" y1="463.7444507645704" x2="285.3290784891233" y2="677.3770381933297" style="stroke:rgb(0,0,255);stroke-width:1"/>
<line x1="285.3290784891233" y1="677.3770381933297" x2="405.0223031544592" y2="463.7444507645704" style="stroke:rgb(0,0,255);stroke-width:1"/>
<line x1="405.0223031544592" y1="463.7444507645704" x2="117.35587008911011" y2="533.9963041961464" style="stroke:rgb(0,0,255);stroke-width:1"/>
<line x1="117.35587008911011" y1="533.9963041961464" x2="405.0223031544592" y2="463.7444507645704" style="stroke:rgb(0,0,255);stroke-width:1"/>
<line x1="405.0223031544592" y1="463.7444507645704" x2="752.4876719957638" y2="439.6981365850369" style="stroke:rgb(0,0,255);stroke-width:1"/>
<line x1="752.4876719957638" y1="439.6981365850369" x2="405.0223031544592" y2="463.7444507645704" style="stroke:rgb(0,0,255);stroke-width:1"/>
<line x1="268.00418058240996" y1="532.532683081424" x2="430.32760989464737" y2="527.0816814942641" style="stroke:rgb(0,0,255);stroke-width:1"/>
<line x1="430.32760989464737" y1="527.0816814942641" x2="268.00418058240996" y2="532.532683081424" style="stroke:rgb(0,0,255);stroke-width:1"/>
<line x1="268.00418058240996" y1="532.532683081424" x2="315.49834209168205" y2="377.3841925722273" style="stroke:rgb(0,0,255);stroke-width:1"/>
<line x1="315.49834209168205" y1="377.3841925722273" x2="268.00418058240996" y2="532.532683081424" style="stroke:rgb(0,0,255);stroke-width:1"/>
<line x1="268.00418058240996" y1="532.532683081424" x2="488.55927071489646" y2="533.4994716235334" style="stroke:rgb(0,0,255);stroke-width:1"/>
<line x1="488.55927071489646" y1="533.4994716235334" x2="268.00418058240996" y2="532.532683081424" style="stroke:rgb(0,0,255);stroke-width:1"/>
<line x1="268.00418058240996" y1="532.532683081424" x2="263.18535751583613" y2="447.1465880032682" style="stroke:rgb(0,0,255);stroke-width:1"/>
<line x1="263.18535751583613" y1="447.1465880032682" x2="268.00418058240996" y2="532.532683081424" style="stroke:rgb(0,0,255);stroke-width:1"/>
<line x1="268.00418058240996" y1="532.532683081424" x2="222.96983980851007" y2="307.3523701167976" style="stroke:rgb(0,0,255);stroke-width:1"/>
<line x1="222.96983980851007" y1="307.3523701167976" x2="268.00418058240996" y2="532.532683081424" style="stroke:rgb(0,0,255);stroke-width:1"/>
<line x1="268.00418058240996" y1="532.532683081424" x2="285.3290784891233" y2="677.3770381933297" style="stroke:rgb(0,0,255);stroke-width:1"/>
<line x1="285.3290784891233" y1="677.3770381933297" x2="268.00418058240996" y2="532.532683081424" style="stroke:rgb(0,0,255);stroke-width:1"/>
<line x1="268.00418058240996" y1="532.532683081424" x2="117.35587008911011" y2="533.9963041961464" style="stroke:rgb(0,0,255);stroke-width:1"/>
<line x1="117.35587008911011" y1="533.9963041961464" x2="268.00418058240996" y2="532.532683081424" style="stroke:rgb(0,0,255);stroke-width:1"/>
<line x1="268.00418058240996" y1="532.532683081424" x2="440.23118590863464" y2="608.0637926159114" style="stroke:rgb(0,0,255);stroke-width:1"/>
<line x1="440.23118590863464" y1="608.0637926159114" x2="268.00418058240996" y2="532.532683081424" style="stroke:rgb(0,0,255);stroke-width:1"/>
<line x1="430.32760989464737" y1="527.0816814942641" x2="315.49834209168205" y2="377.3841925722273" style="stroke:rgb(0,0,255);stroke-width:1"/>
<line x1="315.49834209168205" y1="377.3841925722273" x2="430.32760989464737" y2="527.0816814942641" style="stroke:rgb(0,0,255);stroke-width:1"/>
<line x1="430.32760989464737" y1="527.0816814942641" x2="488.55927071489646" y2="533.4994716235334" style="stroke:rgb(0,0,255);stroke-width:1"/>
<line x1="488.55927071489646" y1="533.4994716235334" x2="430.32760989464737" y2="527.0816814942641" style="stroke:rgb(0,0,255);stroke-width:1"/>
<line x1="430.32760989464737" y1="527.0816814942641" x2="504.2610643723798" y2="411.81500513227206" style="stroke:rgb(0,0,255);stroke-width:1"/>
<line x1="504.2610643723798" y1="411.81500513227206" x2="430.32760989464737" y2="527.0816814942641" style="stroke:rgb(0,0,255);stroke-width:1"/>
<line x1="430.32760989464737" y1="527.0816814942641" x2="403.34708768243536" y2="772.1766897180552" style="stroke:rgb(0,0,255);stroke-width:1"/>
<line x1="403.34708768243536" y1="772.1766897180552" x2="430.32760989464737" y2="527.0816814942641" style="stroke:rgb(0,0,255);stroke-width:1"/>
<line x1="430.32760989464737" y1="527.0816814942641" x2="263.18535751583613" y2="447.1465880032682" style="stroke:rgb(0,0,255);stroke-width:1"/>
<line x1="263.18535751583613" y1="447.1465880032682" x2="430.32760989464737" y2="527.0816814942641" style="stroke:rgb(0,0,255);stroke-width:1"/>
<line x1="430.32760989464737" y1="527.0816814942641" x2="745.9739540098194" y2="616.7519305559707" style="stroke:rgb(0,0,255);stroke-width:1"/>
<line x1="745.9739540098194" y1="616.7519305559707" x2="430.32760989464737" y2="527.0816814942641" style="stroke:rgb(0,0,255);stroke-width:1"/>
<line x1="430.32760989464737" y1="527.0816814942641" x2="562.0556175240298" y2="306.6369845820538" style="stroke:rgb(0,0,255);stroke-width:1"/>
<line x1="562.0556175240298" y1="306.6369845820538" x2="430.32760989464737" y2="527.0816814942641" style="stroke:rgb(0,0,255);stroke-width:1"/>
<line x1="430.32760989464737" y1="527.0816814942641" x2="654.6323540269731" y2="516.2003691498" style="stroke:rgb(0,0,255);stroke-width:1"/>
<line x1="654.6323540269731" y1="516.2003691498" x2="430.32760989464737" y2="527.0816814942641" style="stroke:rgb(0,0,255);stroke-width:1"/>
<line x1="315.49834209168205" y1="377.3841925722273" x2="488.55927071489646" y2="533.4994716235334" style="stroke:rgb(0,0,255);stroke-width:1"/>
<line x1="488.55927071489646" y1="533.4994716235334" x2="315.49834209168205" y2="377.3841925722273" style="stroke:rgb(0,0,255);stroke-width:1"/>
<line x1="315.49834209168205" y1="377.3841925722273" x2="347.7846816196735" y2="206.98826685003007" style="stroke:rgb(0,0,255);stroke-width:1"/>
<line x1="347.7846816196735" y1="206.98826685003007" x2="315.49834209168205" y2="377.3841925722273" style="stroke:rgb(0,0,255);stroke-width:1"/>
<line x1="315.49834209168205" y1="377.3841925722273" x2="263.18535751583613" y2="447.1465880032682" style="stroke:rgb(0,0,255);stroke-width:1"/>
<line x1="263.18535751583613" y1="447.1465880032682" x2="315.49834209168205" y2="377.3841925722273" style="stroke:rgb(0,0,255);stroke-width:1"/>
<line x1="365.7678050125213" y1="680.0537728599832" x2="523.6075314960591" y2="654.7946053195822" style="stroke:rgb(0,0,255);stroke-width:1"/>
<line x1="523.6075314960591" y1="654.7946053195822" x2="365.7678050125213" y2="680.0537728599832" style="stroke:rgb(0,0,255);stroke-width:1"/>
<line x1="365.7678050125213" y1="680.0537728599832" x2="540.1224081751858" y2="754.9009272359843" style="stroke:rgb(0,0,255);stroke-width:1"/>
<line x1="540.1224081751858" y1="754.9009272359843" x2="365.7678050125213" y2="680.0537728599832" style="stroke:rgb(0,0,255);stroke-width:1"/>
<line x1="622.4415060568251" y1="648.557809257512" x2="523.6075314960591" y2="654.7946053195822" style="stroke:rgb(0,0,255);stroke-width:1"/>
<line x1="523.6075314960591" y1="654.7946053195822" x2="622.4415060568251" y2="648.557809257512" style="stroke:rgb(0,0,255);stroke-width:1"/>
<line x1="622.4415060568251" y1="648.557809257512" x2="540.1224081751858" y2="754.9009272359843" style="stroke:rgb(0,0,255);stroke-width:1"/>
<line x1="540.1224081751858" y1="754.9009272359843" x2="622.4415060568251" y2="648.557809257512" style="stroke:rgb(0,0,255);stroke-width:1"/>
<line x1="622.4415060568251" y1="648.557809257512" x2="602.4151376165399" y2="417.81431016988745" style="stroke:rgb(0,0,255);stroke-width:1"/>
<line x1="602.4151376165399" y1="417.81431016988745" x2="622.4415060568251" y2="648.557809257512" style="stroke:rgb(0,0,255);stroke-width:1"/>
<line x1="523.6075314960591" y1="654.7946053195822" x2="602.4151376165399" y2="417.81431016988745" style="stroke:rgb(0,0,255);stroke-width:1"/>
<line x1="602.4151376165399" y1="417.81431016988745" x2="523.6075314960591" y2="654.7946053195822" style="stroke:rgb(0,0,255);stroke-width:1"/>
<line x1="504.2610643723798" y1="411.81500513227206" x2="440.23118590863464" y2="608.0637926159114" style="stroke:rgb(0,0,255);stroke-width:1"/>
<line x1="440.23118590863464" y1="608.0637926159114" x2="504.2610643723798" y2="411.81500513227206" style="stroke:rgb(0,0,255);stroke-width:1"/>
<line x1="504.2610643723798" y1="411.81500513227206" x2="654.6323540269731" y2="516.2003691498" style="stroke:rgb(0,0,255);stroke-width:1"/>
<line x1="654.6323540269731" y1="516.2003691498" x2="504.2610643723798" y2="411.81500513227206" style="stroke:rgb(0,0,255);stroke-width:1"/>
<line x1="504.2610643723798" y1="411.81500513227206" x2="583.5601113408818" y2="517.6882873754782" style="stroke:rgb(0,0,255);stroke-width:1"/>
<line x1="583.5601113408818" y1="517.6882873754782" x2="504.2610643723798" y2="411.81500513227206" style="stroke:rgb(0,0,255);stroke-width:1"/>
<line x1="403.34708768243536" y1="772.1766897180552" x2="583.5601113408818" y2="517.6882873754782" style="stroke:rgb(0,0,255);stroke-width:1"/>
<line x1="583.5601113408818" y1="517.6882873754782" x2="403.34708768243536" y2="772.1766897180552" style="stroke:rgb(0,0,255);stroke-width:1"/>
<line x1="263.18535751583613" y1="447.1465880032682" x2="583.5601113408818" y2="517.6882873754782" style="stroke:rgb(0,0,255);stroke-width:1"/>
<line x1="583.5601113408818" y1="517.6882873754782" x2="263.18535751583613" y2="447.1465880032682" style="stroke:rgb(0,0,255);stroke-width:1"/>
<line x1="845.2991336888128" y1="354.88718040694005" x2="654.6323540269731" y2="516.2003691498" style="stroke:rgb(0,0,255);stroke-width:1"/>
<line x1="654.6323540269731" y1="516.2003691498" x2="845.2991336888128" y2="354.88718040694005" style="stroke:rgb(0,0,255);stroke-width:1"/>
<line x1="845.2991336888128" y1="354.88718040694005" x2="583.5601113408818" y2="517.6882873754782" style="stroke:rgb(0,0,255);stroke-width:1"/>
<line x1="583.5601113408818" y1="517.6882873754782" x2="845.2991336888128" y2="354.88718040694005" style="stroke:rgb(0,0,255);stroke-width:1"/>
<line x1="606.2882135950681" y1="796.2594958470584" x2="654.6323540269731" y2="516.2003691498" style="stroke:rgb(0,0,255);stroke-width:1"/>
<line x1="654.6323540269731" y1="516.2003691498" x2="606.2882135950681" y2="796.2594958470584" style="stroke:rgb(0,0,255);stroke-width:1"/>
<line x1="606.2882135950681" y1="796.2594958470584" x2="583.5601113408818" y2="517.6882873754782" style="stroke:rgb(0,0,255);stroke-width:1"/>
<line x1="583.5601113408818" y1="517.6882873754782" x2="606.2882135950681" y2="796.2594958470584" style="stroke:rgb(0,0,255);stroke-width:1"/>
<line x1="427.06044255975803" y1="327.6218975976823" x2="654.6323540269731" y2="516.2003691498" style="stroke:rgb(0,0,255);stroke-width:1"/>
<line x1="654.6323540269731" y1="516.2003691498" x2="427.06044255975803" y2="327.6218975976823" style="stroke:rgb(0,0,255);stroke-width:1"/>
<line x1="427.06044255975803" y1="327.6218975976823" x2="583.5601113408818" y2="517.6882873754782" style="stroke:rgb(0,0,255);stroke-width:1"/>
<line x1="583.5601113408818" y1="517.6882873754782" x2="427.06044255975803" y2="327.6218975976823" style="stroke:rgb(0,0,255);stroke-width:1"/>
<line x1="285.3290784891233" y1="677.3770381933297" x2="583.5601113408818" y2="517.6882873754782" style="stroke:rgb(0,0,255);stroke-width:1"/>
<line x1="583.5601113408818" y1="517.6882873754782" x2="285.3290784891233" y2="677.3770381933297" style="stroke:rgb(0,0,255);stroke-width:1"/>
<line x1="748.2902830150754" y1="283.93510642627416" x2="654.6323540269731" y2="516.2003691498" style="stroke:rgb(0,0,255);stroke-width:1"/>
<line x1="654.6323540269731" y1="516.2003691498" x2="748.2902830150754" y2="283.93510642627416" style="stroke:rgb(0,0,255);stroke-width:1"/>
<line x1="748.2902830150754" y1="283.93510642627416" x2="583.5601113408818" y2="517.6882873754782" style="stroke:rgb(0,0,255);stroke-width:1"/>
<line x1="583.5601113408818" y1="517.6882873754782" x2="748.2902830150754" y2="283.93510642627416" style="stroke:rgb(0,0,255);stroke-width:1"/>
<line x1="759.7932293324005" y1="735.0271669321962" x2="654.6323540269731" y2="516.2003691498" style="stroke:rgb(0,0,255);stroke-width:1"/>
<line x1="654.6323540269731" y1="516.2003691498" x2="759.7932293324005" y2="735.0271669321962" style="stroke:rgb(0,0,255);stroke-width:1"/>
<line x1="759.7932293324005" y1="735.0271669321962" x2="583.5601113408818" y2="517.6882873754782" style="stroke:rgb(0,0,255);stroke-width:1"/>
<line x1="583.5601113408818" y1="517.6882873754782" x2="759.7932293324005" y2="735.0271669321962" style="stroke:rgb(0,0,255);stroke-width:1"/>
<line x1="840.0256312032412" y1="513.9622489574382" x2="980.6652435500985" y2="517.330522334551" style="stroke:rgb(0,0,255);stroke-width:1"/>
<line x1="980.6652435500985" y1="517.330522334551" x2="840.0256312032412" y2="513.9622489574382" style="stroke:rgb(0,0,255);stroke-width:1"/>
<line x1="840.0256312032412" y1="513.9622489574382" x2="745.9739540098194" y2="616.7519305559707" style="stroke:rgb(0,0,255);stroke-width:1"/>
<line x1="745.9739540098194" y1="616.7519305559707" x2="840.0256312032412" y2="513.9622489574382" style="stroke:rgb(0,0,255);stroke-width:1"/>
<line x1="840.0256312032412" y1="513.9622489574382" x2="731.6206025902821" y2="500.0863871502237" style="stroke:rgb(0,0,255);stroke-width:1"/>
<line x1="731.6206025902821" y1="500.0863871502237" x2="840.0256312032412" y2="513.9622489574382" style="stroke:rgb(0,0,255);stroke-width:1"/>
<line x1="840.0256312032412" y1="513.9622489574382" x2="654.6323540269731" y2="516.2003691498" style="stroke:rgb(0,0,255);stroke-width:1"/>
<line x1="654.6323540269731" y1="516.2003691498" x2="840.0256312032412" y2="513.9622489574382" style="stroke:rgb(0,0,255);stroke-width:1"/>
<line x1="840.0256312032412" y1="513.9622489574382" x2="583.5601113408818" y2="517.6882873754782" style="stroke:rgb(0,0,255);stroke-width:1"/>
<line x1="583.5601113408818" y1="517.6882873754782" x2="840.0256312032412" y2="513.9622489574382" style="stroke:rgb(0,0,255);stroke-width:1"/>
<line x1="924.1380016825848" y1="655.2524044635747" x2="980.6652435500985" y2="517.330522334551" style="stroke:rgb(0,0,255);stroke-width:1"/>
<line x1="980.6652435500985" y1="517.330522334551" x2="924.1380016825848" y2="655.2524044635747" style="stroke:rgb(0,0,255);stroke-width:1"/>
<line x1="924.1380016825848" y1="655.2524044635747" x2="745.9739540098194" y2="616.7519305559707" style="stroke:rgb(0,0,255);stroke-width:1"/>
<line x1="745.9739540098194" y1="616.7519305559707" x2="924.1380016825848" y2="655.2524044635747" style="stroke:rgb(0,0,255);stroke-width:1"/>
<line x1="924.1380016825848" y1="655.2524044635747" x2="752.4876719957638" y2="439.6981365850369" style="stroke:rgb(0,0,255);stroke-width:1"/>
<line x1="752.4876719957638" y1="439.6981365850369" x2="924.1380016825848" y2="655.2524044635747" style="stroke:rgb(0,0,255);stroke-width:1"/>
<line x1="980.6652435500985" y1="517.330522334551" x2="752.4876719957638" y2="439.6981365850369" style="stroke:rgb(0,0,255);stroke-width:1"/>
<line x1="752.4876719957638" y1="439.6981365850369" x2="980.6652435500985" y2="517.330522334551" style="stroke:rgb(0,0,255);stroke-width:1"/>
<line x1="666.7753546270661" y1="267.6238439330059" x2="731.6206025902821" y2="500.0863871502237" style="stroke:rgb(0,0,255);stroke-width:1"/>
<line x1="731.6206025902821" y1="500.0863871502237" x2="666.7753546270661" y2="267.6238439330059" style="stroke:rgb(0,0,255);stroke-width:1"/>
<line x1="666.7753546270661" y1="267.6238439330059" x2="583.5601113408818" y2="517.6882873754782" style="stroke:rgb(0,0,255);stroke-width:1"/>
<line x1="583.5601113408818" y1="517.6882873754782" x2="666.7753546270661" y2="267.6238439330059" style="stroke:rgb(0,0,255);stroke-width:1"/>
<line x1="745.9739540098194" y1="616.7519305559707" x2="583.5601113408818" y2="517.6882873754782" style="stroke:rgb(0,0,255);stroke-width:1"/>
<line x1="583.5601113408818" y1="517.6882873754782" x2="745.9739540098194" y2="616.7519305559707" style="stroke:rgb(0,0,255);stroke-width:1"/>
<line x1="562.0556175240298" y1="306.6369845820538" x2="752.4876719957638" y2="439.6981365850369" style="stroke:rgb(0,0,255);stroke-width:1"/>
<line x1="752.4876719957638" y1="439.6981365850369" x2="562.0556175240298" y2="306.6369845820538" style="stroke:rgb(0,0,255);stroke-width:1"/>
<line x1="562.0556175240298" y1="306.6369845820538" x2="583.5601113408818" y2="517.6882873754782" style="stroke:rgb(0,0,255);stroke-width:1"/>
<line x1="583.5601113408818" y1="517.6882873754782" x2="562.0556175240298" y2="306.6369845820538" style="stroke:rgb(0,0,255);stroke-width:1"/>
<line x1="731.6206025902821" y1="500.0863871502237" x2="654.6323540269731" y2="516.2003691498" style="stroke:rgb(0,0,255);stroke-width:1"/>
<line x1="654.6323540269731" y1="516.2003691498" x2="731.6206025902821" y2="500.0863871502237" style="stroke:rgb(0,0,255);stroke-width:1"/>
<line x1="731.6206025902821" y1="500.0863871502237" x2="583.5601113408818" y2="517.6882873754782" style="stroke:rgb(0,0,255);stroke-width:1"/>
<line x1="583.5601113408818" y1="517.6882873754782" x2="731.6206025902821" y2="500.0863871502237" style="stroke:rgb(0,0,255);stroke-width:1"/>
<line x1="440.23118590863464" y1="608.0637926159114" x2="654.6323540269731" y2="516.2003691498" style="stroke:rgb(0,0,255);stroke-width:1"/>
<line x1="654.6323540269731" y1="516.2003691498" x2="440.23118590863464" y2="608.0637926159114" style="stroke:rgb(0,0,255);stroke-width:1"/>
<line x1="440.23118590863464" y1="608.0637926159114" x2="583.5601113408818" y2="517.6882873754782" style="stroke:rgb(0,0,255);stroke-width:1"/>
<line x1="583.5601113408818" y1="517.6882873754782" x2="440.23118590863464" y2="608.0637926159114" style="stroke:rgb(0,0,255);stroke-width:1"/>
<line x1="752.4876719957638" y1="439.6981365850369" x2="654.6323540269731" y2="516.2003691498" style="stroke:rgb(0,0,255);stroke-width:1"/>
<line x1="654.6323540269731" y1="516.2003691498" x2="752.4876719957638" y2="439.6981365850369" style="stroke:rgb(0,0,255);stroke-width:1"/>
<line x1="752.4876719957638" y1="439.6981365850369" x2="583.5601113408818" y2="517.6882873754782" style="stroke:rgb(0,0,255);stroke-width:1"/>
<line x1="583.5601113408818" y1="517.6882873754782" x2="752.4876719957638" y2="439.6981365850369" style="stroke:rgb(0,0,255);stroke-width:1"/>
<line x1="654.6323540269731" y1="516.2003691498" x2="583.5601113408818" y2="517.6882873754782" style="stroke:rgb(0,0,255);stroke-width:1"/>
<line x1="583.5601113408818" y1="517.6882873754782" x2="654.6323540269731" y2="516.2003691498" style="stroke:rgb(0,0,255);stroke-width:1"/>
</svg>
