<svg xmlns="http://www.w3.org/2000/svg" version="1.1" xmlns:xllink="http://www.w3.org/1999/xlink" width="1000" height="1000">
<ellipse cx="605.0223031544592" cy="547.7444507645704" rx="5.60" ry="5.60" style="fill:rgb(255,255,0);stroke:rgb(0,0,0);stroke-width:0.50;"/>
<ellipse cx="501.00418058240996" cy="490.53268308142395" rx="5.60" ry="5.60" style="fill:rgb(255,255,0);stroke:rgb(0,0,0);stroke-width:0.50;"/>
<ellipse cx="581.3276098946474" cy="539.0816814942641" rx="5.60" ry="5.60" style="fill:rgb(255,255,0);stroke:rgb(0,0,0);stroke-width:0.50;"/>
<ellipse cx="494.49834209168205" cy="450.3841925722273" rx="5.60" ry="5.60" style="fill:rgb(255,255,0);stroke:rgb(0,0,0);stroke-width:0.50;"/>
<ellipse cx="499.7678050125213" cy="464.05377285998316" rx="5.60" ry="5.60" style="fill:rgb(255,255,0);stroke:rgb(0,0,0);stroke-width:0.50;"/>
<ellipse cx="607.4415060568251" cy="484.557809257512" rx="5.60" ry="5.60" style="fill:rgb(255,255,0);stroke:rgb(0,0,0);stroke-width:0.50;"/>
<ellipse cx="607.6075314960591" cy="540.7946053195822" rx="5.60" ry="5.60" style="fill:rgb(255,255,0);stroke:rgb(0,0,0);stroke-width:0.50;"/>
<ellipse cx="600.5592707148965" cy="520.4994716235334" rx="5.60" ry="5.60" style="fill:rgb(255,255,0);stroke:rgb(0,0,0);stroke-width:0.50;"/>
<ellipse cx="520.2610643723798" cy="465.81500513227206" rx="5.60" ry="5.60" style="fill:rgb(255,255,0);stroke:rgb(0,0,0);stroke-width:0.50;"/>
<ellipse cx="564.1224081751858" cy="544.9009272359843" rx="5.60" ry="5.60" style="fill:rgb(255,255,0);stroke:rgb(0,0,0);stroke-width:0.50;"/>
<ellipse cx="569.9570749376263" cy="453.1030596967298" rx="5.60" ry="5.60" style="fill:rgb(255,255,0);stroke:rgb(0,0,0);stroke-width:0.50;"/>
<ellipse cx="547.7846816196735" cy="464.9882668500301" rx="5.60" ry="5.60" style="fill:rgb(255,255,0);stroke:rgb(0,0,0);stroke-width:0.50;"/>
<ellipse cx="503.18535751583613" cy="519.1465880032682" rx="5.60" ry="5.60" style="fill:rgb(255,255,0);stroke:rgb(0,0,0);stroke-width:0.50;"/>
<ellipse cx="502.9698398085101" cy="457.3523701167976" rx="5.60" ry="5.60" style="fill:rgb(255,255,0);stroke:rgb(0,0,0);stroke-width:0.50;"/>
<ellipse cx="525.3290784891233" cy="545.3770381933297" rx="5.60" ry="5.60" style="fill:rgb(255,255,0);stroke:rgb(0,0,0);stroke-width:0.50;"/>
<ellipse cx="493.3558700891101" cy="533.9963041961464" rx="5.60" ry="5.60" style="fill:rgb(255,255,0);stroke:rgb(0,0,0);stroke-width:0.50;"/>
<ellipse cx="586.4876719957638" cy="463.6981365850369" rx="5.60" ry="5.60" style="fill:rgb(255,255,0);stroke:rgb(0,0,0);stroke-width:0.50;"/>
<ellipse cx="496.23118590863464" cy="542.0637926159114" rx="5.60" ry="5.60" style="fill:rgb(255,255,0);stroke:rgb(0,0,0);stroke-width:0.50;"/>
<ellipse cx="499.34708768243536" cy="548.1766897180552" rx="5.60" ry="5.60" style="fill:rgb(255,255,0);stroke:rgb(0,0,0);stroke-width:0.50;"/>
<ellipse cx="609.9739540098194" cy="463.7519305559707" rx="5.60" ry="5.60" style="fill:rgb(255,255,0);stroke:rgb(0,0,0);stroke-width:0.50;"/>
<ellipse cx="490.0556175240298" cy="456.6369845820538" rx="5.60" ry="5.60" style="fill:rgb(255,255,0);stroke:rgb(0,0,0);stroke-width:0.50;"/>
<ellipse cx="508.6323540269731" cy="540.2003691498" rx="5.60" ry="5.60" style="fill:rgb(255,255,0);stroke:rgb(0,0,0);stroke-width:0.50;"/>
<ellipse cx="490.41513761653994" cy="477.81431016988745" rx="5.60" ry="5.60" style="fill:rgb(255,255,0);stroke:rgb(0,0,0);stroke-width:0.50;"/>
<ellipse cx="535.5601113408818" cy="457.6882873754782" rx="5.60" ry="5.60" style="fill:rgb(255,255,0);stroke:rgb(0,0,0);stroke-width:0.50;"/>
<ellipse cx="596.2991336888128" cy="462.88718040694005" rx="5.60" ry="5.60" style="fill:rgb(255,255,0);stroke:rgb(0,0,0);stroke-width:0.50;"/>
<ellipse cx="552.2882135950681" cy="538.2594958470584" rx="5.60" ry="5.60" style="fill:rgb(255,255,0);stroke:rgb(0,0,0);stroke-width:0.50;"/>
<ellipse cx="499.06044255975803" cy="510.6218975976823" rx="5.60" ry="5.60" style="fill:rgb(255,255,0);stroke:rgb(0,0,0);stroke-width:0.50;"/>
<ellipse cx="596.2902830150754" cy="451.93510642627416" rx="5.60" ry="5.60" style="fill:rgb(255,255,0);stroke:rgb(0,0,0);stroke-width:0.50;"/>
<ellipse cx="599.7932293324005" cy="543.0271669321962" rx="5.60" ry="5.60" style="fill:rgb(255,255,0);stroke:rgb(0,0,0);stroke-width:0.50;"/>
<ellipse cx="608.0256312032412" cy="453.9622489574382" rx="5.60" ry="5.60" style="fill:rgb(255,255,0);stroke:rgb(0,0,0);stroke-width:0.50;"/>
<ellipse cx="604.6652435500985" cy="503.33052233455095" rx="5.60" ry="5.60" style="fill:rgb(255,255,0);stroke:rgb(0,0,0);stroke-width:0.50;"/>
<ellipse cx="539.6206025902821" cy="548.0863871502237" rx="5.60" ry="5.60" style="fill:rgb(255,255,0);stroke:rgb(0,0,0);stroke-width:0.50;"/>
<ellipse cx="593.1380016825848" cy="548.2524044635747" rx="5.60" ry="5.60" style="fill:rgb(255,255,0);stroke:rgb(0,0,0);stroke-width:0.50;"/>
<ellipse cx="558.7753546270661" cy="465.6238439330059" rx="5.60" ry="5.60" style="fill:rgb(255,255,0);stroke:rgb(0,0,0);stroke-width:0.50;"/>
<line x1="605.0223031544592" y1="547.7444507645704" x2="501.00418058240996" y2="490.53268308142395" style="stroke:rgb(0,0,255);stroke-width:1"/>
<line x1="501.00418058240996" y1="490.53268308142395" x2="605.0223031544592" y2="547.7444507645704" style="stroke:rgb(0,0,255);stroke-width:1"/>
<line x1="605.0223031544592" y1="547.7444507645704" x2="581.3276098946474" y2="539.0816814942641" style="stroke:rgb(0,0,255);stroke-width:1"/>
<line x1="581.3276098946474" y1="539.0816814942641" x2="605.0223031544592" y2="547.7444507645704" style="stroke:rgb(0,0,255);stroke-width:1"/>
<line x1="605.0223031544592" y1="547.7444507645704" x2="494.49834209168205" y2="450.3841925722273" style="stroke:rgb(0,0,255);stroke-width:1"/>
<line x1="494.49834209168205" y1="450.3841925722273" x2="605.0223031544592" y2="547.7444507645704" style="stroke:rgb(0,0,255);stroke-width:1"/>
<line x1="605.0223031544592" y1="547.7444507645704" x2="499.7678050125213" y2="464.05377285998316" style="stroke:rgb(0,0,255);stroke-width:1"/>
<line x1="499.7678050125213" y1="464.05377285998316" x2="605.0223031544592" y2="547.7444507645704" style="stroke:rgb(0,0,255);stroke-width:1"/>
<line x1="605.0223031544592" y1="547.7444507645704" x2="607.4415060568251" y2="484.557809257512" style="stroke:rgb(0,0,255);stroke-width:1"/>
<line x1="607.4415060568251" y1="484.557809257512" x2="605.0223031544592" y2="547.7444507645704" style="stroke:rgb(0,0,255);stroke-width:1"/>
<line x1="605.0223031544592" y1="547.7444507645704" x2="607.6075314960591" y2="540.7946053195822" style="stroke:rgb(0,0,255);stroke-width:1"/>
<line x1="607.6075314960591" y1="540.7946053195822" x2="605.0223031544592" y2="547.7444507645704" style="stroke:rgb(0,0,255);stroke-width:1"/>
<line x1="605.0223031544592" y1="547.7444507645704" x2="600.5592707148965" y2="520.4994716235334" style="stroke:rgb(0,0,255);stroke-width:1"/>
<line x1="600.5592707148965" y1="520.4994716235334" x2="605.0223031544592" y2="547.7444507645704" style="stroke:rgb(0,0,255);stroke-width:1"/>
<line x1="605.0223031544592" y1="547.7444507645704" x2="520.2610643723798" y2="465.81500513227206" style="stroke:rgb(0,0,255);stroke-width:1"/>
<line x1="520.2610643723798" y1="465.81500513227206" x2="605.0223031544592" y2="547.7444507645704" style="stroke:rgb(0,0,255);stroke-width:1"/>
<line x1="605.0223031544592" y1="547.7444507645704" x2="564.1224081751858" y2="544.9009272359843" style="stroke:rgb(0,0,255);stroke-width:1"/>
<line x1="564.1224081751858" y1="544.9009272359843" x2="605.0223031544592" y2="547.7444507645704" style="stroke:rgb(0,0,255);stroke-width:1"/>
<line x1="605.0223031544592" y1="547.7444507645704" x2="569.9570749376263" y2="453.1030596967298" style="stroke:rgb(0,0,255);stroke-width:1"/>
<line x1="569.9570749376263" y1="453.1030596967298" x2="605.0223031544592" y2="547.7444507645704" style="stroke:rgb(0,0,255);stroke-width:1"/>
<line x1="605.0223031544592" y1="547.7444507645704" x2="547.7846816196735" y2="464.9882668500301" style="stroke:rgb(0,0,255);stroke-width:1"/>
<line x1="547.7846816196735" y1="464.9882668500301" x2="605.0223031544592" y2="547.7444507645704" style="stroke:rgb(0,0,255);stroke-width:1"/>
<line x1="605.0223031544592" y1="547.7444507645704" x2="503.18535751583613" y2="519.1465880032682" style="stroke:rgb(0,0,255);stroke-width:1"/>
<line x1="503.18535751583613" y1="519.1465880032682" x2="605.0223031544592" y2="547.7444507645704" style="stroke:rgb(0,0,255);stroke-width:1"/>
<line x1="605.0223031544592" y1="547.7444507645704" x2="502.9698398085101" y2="457.3523701167976" style="stroke:rgb(0,0,255);stroke-width:1"/>
<line x1="502.9698398085101" y1="457.3523701167976" x2="605.0223031544592" y2="547.7444507645704" style="stroke:rgb(0,0,255);stroke-width:1"/>
<line x1="605.0223031544592" y1="547.7444507645704" x2="525.3290784891233" y2="545.3770381933297" style="stroke:rgb(0,0,255);stroke-width:1"/>
<line x1="525.3290784891233" y1="545.3770381933297" x2="605.0223031544592" y2="547.7444507645704" style="stroke:rgb(0,0,255);stroke-width:1"/>
<line x1="605.0223031544592" y1="547.7444507645704" x2="493.3558700891101" y2="533.9963041961464" style="stroke:rgb(0,0,255);stroke-width:1"/>
<line x1="493.3558700891101" y1="533.9963041961464" x2="605.0223031544592" y2="547.7444507645704" style="stroke:rgb(0,0,255);stroke-width:1"/>
<line x1="605.0223031544592" y1="547.7444507645704" x2="586.4876719957638" y2="463.6981365850369" style="stroke:rgb(0,0,255);stroke-width:1"/>
<line x1="586.4876719957638" y1="463.6981365850369" x2="605.0223031544592" y2="547.7444507645704" style="stroke:rgb(0,0,255);stroke-width:1"/>
<line x1="501.00418058240996" y1="490.53268308142395" x2="581.3276098946474" y2="539.0816814942641" style="stroke:rgb(0,0,255);stroke-width:1"/>
<line x1="581.3276098946474" y1="539.0816814942641" x2="501.00418058240996" y2="490.53268308142395" style="stroke:rgb(0,0,255);stroke-width:1"/>
<line x1="501.00418058240996" y1="490.53268308142395" x2="494.49834209168205" y2="450.3841925722273" style="stroke:rgb(0,0,255);stroke-width:1"/>
<line x1="494.49834209168205" y1="450.3841925722273" x2="501.00418058240996" y2="490.53268308142395" style="stroke:rgb(0,0,255);stroke-width:1"/>
<line x1="501.00418058240996" y1="490.53268308142395" x2="600.5592707148965" y2="520.4994716235334" style="stroke:rgb(0,0,255);stroke-width:1"/>
<line x1="600.5592707148965" y1="520.4994716235334" x2="501.00418058240996" y2="490.53268308142395" style="stroke:rgb(0,0,255);stroke-width:1"/>
<line x1="501.00418058240996" y1="490.53268308142395" x2="503.18535751583613" y2="519.1465880032682" style="stroke:rgb(0,0,255);stroke-width:1"/>
<line x1="503.18535751583613" y1="519.1465880032682" x2="501.00418058240996" y2="490.53268308142395" style="stroke:rgb(0,0,255);stroke-width:1"/>
<line x1="501.00418058240996" y1="490.53268308142395" x2="502.9698398085101" y2="457.3523701167976" style="stroke:rgb(0,0,255);stroke-width:1"/>
<line x1="502.9698398085101" y1="457.3523701167976" x2="501.00418058240996" y2="490.53268308142395" style="stroke:rgb(0,0,255);stroke-width:1"/>
<line x1="501.00418058240996" y1="490.53268308142395" x2="525.3290784891233" y2="545.3770381933297" style="stroke:rgb(0,0,255);stroke-width:1"/>
<line x1="525.3290784891233" y1="545.3770381933297" x2="501.00418058240996" y2="490.53268308142395" style="stroke:rgb(0,0,255);stroke-width:1"/>
<line x1="501.00418058240996" y1="490.53268308142395" x2="493.3558700891101" y2="533.9963041961464" style="stroke:rgb(0,0,255);stroke-width:1"/>
<line x1="493.3558700891101" y1="533.9963041961464" x2="501.00418058240996" y2="490.53268308142395" style="stroke:rgb(0,0,255);stroke-width:1"/>
<line x1="501.00418058240996" y1="490.53268308142395" x2="496.23118590863464" y2="542.0637926159114" style="stroke:rgb(0,0,255);stroke-width:1"/>
<line x1="496.23118590863464" y1="542.0637926159114" x2="501.00418058240996" y2="490.53268308142395" style="stroke:rgb(0,0,255);stroke-width:1"/>
<line x1="581.3276098946474" y1="539.0816814942641" x2="494.49834209168205" y2="450.3841925722273" style="stroke:rgb(0,0,255);stroke-width:1"/>
<line x1="494.49834209168205" y1="450.3841925722273" x2="581.3276098946474" y2="539.0816814942641" style="stroke:rgb(0,0,255);stroke-width:1"/>
<line x1="581.3276098946474" y1="539.0816814942641" x2="600.5592707148965" y2="520.4994716235334" style="stroke:rgb(0,0,255);stroke-width:1"/>
<line x1="600.5592707148965" y1="520.4994716235334" x2="581.3276098946474" y2="539.0816814942641" style="stroke:rgb(0,0,255);stroke-width:1"/>
<line x1="581.3276098946474" y1="539.0816814942641" x2="520.2610643723798" y2="465.81500513227206" style="stroke:rgb(0,0,255);stroke-width:1"/>
<line x1="520.2610643723798" y1="465.81500513227206" x2="581.3276098946474" y2="539.0816814942641" style="stroke:rgb(0,0,255);stroke-width:1"/>
<line x1="581.3276098946474" y1="539.0816814942641" x2="499.34708768243536" y2="548.1766897180552" style="stroke:rgb(0,0,255);stroke-width:1"/>
<line x1="499.34708768243536" y1="548.1766897180552" x2="581.3276098946474" y2="539.0816814942641" style="stroke:rgb(0,0,255);stroke-width:1"/>
<line x1="581.3276098946474" y1="539.0816814942641" x2="503.18535751583613" y2="519.1465880032682" style="stroke:rgb(0,0,255);stroke-width:1"/>
<line x1="503.18535751583613" y1="519.1465880032682" x2="581.3276098946474" y2="539.0816814942641" style="stroke:rgb(0,0,255);stroke-width:1"/>
<line x1="581.3276098946474" y1="539.0816814942641" x2="609.9739540098194" y2="463.7519305559707" style="stroke:rgb(0,0,255);stroke-width:1"/>
<line x1="609.9739540098194" y1="463.7519305559707" x2="581.3276098946474" y2="539.0816814942641" style="stroke:rgb(0,0,255);stroke-width:1"/>
<line x1="581.3276098946474" y1="539.0816814942641" x2="490.0556175240298" y2="456.6369845820538" style="stroke:rgb(0,0,255);stroke-width:1"/>
<line x1="490.0556175240298" y1="456.6369845820538" x2="581.3276098946474" y2="539.0816814942641" style="stroke:rgb(0,0,255);stroke-width:1"/>
<line x1="581.3276098946474" y1="539.0816814942641" x2="508.6323540269731" y2="540.2003691498" style="stroke:rgb(0,0,255);stroke-width:1"/>
<line x1="508.6323540269731" y1="540.2003691498" x2="581.3276098946474" y2="539.0816814942641" style="stroke:rgb(0,0,255);stroke-width:1"/>
<line x1="494.49834209168205" y1="450.3841925722273" x2="600.5592707148965" y2="520.4994716235334" style="stroke:rgb(0,0,255);stroke-width:1"/>
<line x1="600.5592707148965" y1="520.4994716235334" x2="494.49834209168205" y2="450.3841925722273" style="stroke:rgb(0,0,255);stroke-width:1"/>
<line x1="494.49834209168205" y1="450.3841925722273" x2="547.7846816196735" y2="464.9882668500301" style="stroke:rgb(0,0,255);stroke-width:1"/>
<line x1="547.7846816196735" y1="464.9882668500301" x2="494.49834209168205" y2="450.3841925722273" style="stroke:rgb(0,0,255);stroke-width:1"/>
<line x1="494.49834209168205" y1="450.3841925722273" x2="503.18535751583613" y2="519.1465880032682" style="stroke:rgb(0,0,255);stroke-width:1"/>
<line x1="503.18535751583613" y1="519.1465880032682" x2="494.49834209168205" y2="450.3841925722273" style="stroke:rgb(0,0,255);stroke-width:1"/>
<line x1="499.7678050125213" y1="464.05377285998316" x2="607.6075314960591" y2="540.7946053195822" style="stroke:rgb(0,0,255);stroke-width:1"/>
<line x1="607.6075314960591" y1="540.7946053195822" x2="499.7678050125213" y2="464.05377285998316" style="stroke:rgb(0,0,255);stroke-width:1"/>
<line x1="499.7678050125213" y1="464.05377285998316" x2="564.1224081751858" y2="544.9009272359843" style="stroke:rgb(0,0,255);stroke-width:1"/>
<line x1="564.1224081751858" y1="544.9009272359843" x2="499.7678050125213" y2="464.05377285998316" style="stroke:rgb(0,0,255);stroke-width:1"/>
<line x1="607.4415060568251" y1="484.557809257512" x2="607.6075314960591" y2="540.7946053195822" style="stroke:rgb(0,0,255);stroke-width:1"/>
<line x1="607.6075314960591" y1="540.7946053195822" x2="607.4415060568251" y2="484.557809257512" style="stroke:rgb(0,0,255);stroke-width:1"/>
<line x1="607.4415060568251" y1="484.557809257512" x2="564.1224081751858" y2="544.9009272359843" style="stroke:rgb(0,0,255);stroke-width:1"/>
<line x1="564.1224081751858" y1="544.9009272359843" x2="607.4415060568251" y2="484.557809257512" style="stroke:rgb(0,0,255);stroke-width:1"/>
<line x1="607.4415060568251" y1="484.557809257512" x2="490.41513761653994" y2="477.81431016988745" style="stroke:rgb(0,0,255);stroke-width:1"/>
<line x1="490.41513761653994" y1="477.81431016988745" x2="607.4415060568251" y2="484.557809257512" style="stroke:rgb(0,0,255);stroke-width:1"/>
<line x1="607.6075314960591" y1="540.7946053195822" x2="490.41513761653994" y2="477.81431016988745" style="stroke:rgb(0,0,255);stroke-width:1"/>
<line x1="490.41513761653994" y1="477.81431016988745" x2="607.6075314960591" y2="540.7946053195822" style="stroke:rgb(0,0,255);stroke-width:1"/>
<line x1="520.2610643723798" y1="465.81500513227206" x2="496.23118590863464" y2="542.0637926159114" style="stroke:rgb(0,0,255);stroke-width:1"/>
<line x1="496.23118590863464" y1="542.0637926159114" x2="520.2610643723798" y2="465.81500513227206" style="stroke:rgb(0,0,255);stroke-width:1"/>
<line x1="520.2610643723798" y1="465.81500513227206" x2="508.6323540269731" y2="540.2003691498" style="stroke:rgb(0,0,255);stroke-width:1"/>
<line x1="508.6323540269731" y1="540.2003691498" x2="520.2610643723798" y2="465.81500513227206" style="stroke:rgb(0,0,255);stroke-width:1"/>
<line x1="520.2610643723798" y1="465.81500513227206" x2="535.5601113408818" y2="457.6882873754782" style="stroke:rgb(0,0,255);stroke-width:1"/>
<line x1="535.5601113408818" y1="457.6882873754782" x2="520.2610643723798" y2="465.81500513227206" style="stroke:rgb(0,0,255);stroke-width:1"/>
<line x1="499.34708768243536" y1="548.1766897180552" x2="535.5601113408818" y2="457.6882873754782" style="stroke:rgb(0,0,255);stroke-width:1"/>
<line x1="535.5601113408818" y1="457.6882873754782" x2="499.34708768243536" y2="548.1766897180552" style="stroke:rgb(0,0,255);stroke-width:1"/>
<line x1="503.18535751583613" y1="519.1465880032682" x2="535.5601113408818" y2="457.6882873754782" style="stroke:rgb(0,0,255);stroke-width:1"/>
<line x1="535.5601113408818" y1="457.6882873754782" x2="503.18535751583613" y2="519.1465880032682" style="stroke:rgb(0,0,255);stroke-width:1"/>
<line x1="596.2991336888128" y1="462.88718040694005" x2="508.6323540269731" y2="540.2003691498" style="stroke:rgb(0,0,255);stroke-width:1"/>
<line x1="508.6323540269731" y1="540.2003691498" x2="596.2991336888128" y2="462.88718040694005" style="stroke:rgb(0,0,255);stroke-width:1"/>
<line x1="596.2991336888128" y1="462.88718040694005" x2="535.5601113408818" y2="457.6882873754782" style="stroke:rgb(0,0,255);stroke-width:1"/>
<line x1="535.5601113408818" y1="457.6882873754782" x2="596.2991336888128" y2="462.88718040694005" style="stroke:rgb(0,0,255);stroke-width:1"/>
<line x1="552.2882135950681" y1="538.2594958470584" x2="508.6323540269731" y2="540.2003691498" style="stroke:rgb(0,0,255);stroke-width:1"/>
<line x1="508.6323540269731" y1="540.2003691498" x2="552.2882135950681" y2="538.2594958470584" style="stroke:rgb(0,0,255);stroke-width:1"/>
<line x1="552.2882135950681" y1="538.2594958470584" x2="535.5601113408818" y2="457.6882873754782" style="stroke:rgb(0,0,255);stroke-width:1"/>
<line x1="535.5601113408818" y1="457.6882873754782" x2="552.2882135950681" y2="538.2594958470584" style="stroke:rgb(0,0,255);stroke-width:1"/>
<line x1="499.06044255975803" y1="510.6218975976823" x2="508.6323540269731" y2="540.2003691498" style="stroke:rgb(0,0,255);stroke-width:1"/>
<line x1="508.6323540269731" y1="540.2003691498" x2="499.06044255975803" y2="510.6218975976823" style="stroke:rgb(0,0,255);stroke-width:1"/>
<line x1="499.06044255975803" y1="510.6218975976823" x2="535.5601113408818" y2="457.6882873754782" style="stroke:rgb(0,0,255);stroke-width:1"/>
<line x1="535.5601113408818" y1="457.6882873754782" x2="499.06044255975803" y2="510.6218975976823" style="stroke:rgb(0,0,255);stroke-width:1"/>
<line x1="525.3290784891233" y1="545.3770381933297" x2="535.5601113408818" y2="457.6882873754782" style="stroke:rgb(0,0,255);stroke-width:1"/>
<line x1="535.5601113408818" y1="457.6882873754782" x2="525.3290784891233" y2="545.3770381933297" style="stroke:rgb(0,0,255);stroke-width:1"/>
<line x1="596.2902830150754" y1="451.93510642627416" x2="508.6323540269731" y2="540.2003691498" style="stroke:rgb(0,0,255);stroke-width:1"/>
<line x1="508.6323540269731" y1="540.2003691498" x2="596.2902830150754" y2="451.93510642627416" style="stroke:rgb(0,0,255);stroke-width:1"/>
<line x1="596.2902830150754" y1="451.93510642627416" x2="535.5601113408818" y2="457.6882873754782" style="stroke:rgb(0,0,255);stroke-width:1"/>
<line x1="535.5601113408818" y1="457.6882873754782" x2="596.2902830150754" y2="451.93510642627416" style="stroke:rgb(0,0,255);stroke-width:1"/>
<line x1="599.7932293324005" y1="543.0271669321962" x2="508.6323540269731" y2="540.2003691498" style="stroke:rgb(0,0,255);stroke-width:1"/>
<line x1="508.6323540269731" y1="540.2003691498" x2="599.7932293324005" y2="543.0271669321962" style="stroke:rgb(0,0,255);stroke-width:1"/>
<line x1="599.7932293324005" y1="543.0271669321962" x2="535.5601113408818" y2="457.6882873754782" style="stroke:rgb(0,0,255);stroke-width:1"/>
<line x1="535.5601113408818" y1="457.6882873754782" x2="599.7932293324005" y2="543.0271669321962" style="stroke:rgb(0,0,255);stroke-width:1"/>
<line x1="608.0256312032412" y1="453.9622489574382" x2="604.6652435500985" y2="503.33052233455095" style="stroke:rgb(0,0,255);stroke-width:1"/>
<line x1="604.6652435500985" y1="503.33052233455095" x2="608.0256312032412" y2="453.9622489574382" style="stroke:rgb(0,0,255);stroke-width:1"/>
<line x1="608.0256312032412" y1="453.9622489574382" x2="609.9739540098194" y2="463.7519305559707" style="stroke:rgb(0,0,255);stroke-width:1"/>
<line x1="609.9739540098194" y1="463.7519305559707" x2="608.0256312032412" y2="453.9622489574382" style="stroke:rgb(0,0,255);stroke-width:1"/>
<line x1="608.0256312032412" y1="453.9622489574382" x2="539.6206025902821" y2="548.0863871502237" style="stroke:rgb(0,0,255);stroke-width:1"/>
<line x1="539.6206025902821" y1="548.0863871502237" x2="608.0256312032412" y2="453.9622489574382" style="stroke:rgb(0,0,255);stroke-width:1"/>
<line x1="608.0256312032412" y1="453.9622489574382" x2="508.6323540269731" y2="540.2003691498" style="stroke:rgb(0,0,255);stroke-width:1"/>
<line x1="508.6323540269731" y1="540.2003691498" x2="608.0256312032412" y2="453.9622489574382" style="stroke:rgb(0,0,255);stroke-width:1"/>
<line x1="608.0256312032412" y1="453.9622489574382" x2="535.5601113408818" y2="457.6882873754782" style="stroke:rgb(0,0,255);stroke-width:1"/>
<line x1="535.5601113408818" y1="457.6882873754782" x2="608.0256312032412" y2="453.9622489574382" style="stroke:rgb(0,0,255);stroke-width:1"/>
<line x1="593.1380016825848" y1="548.2524044635747" x2="604.6652435500985" y2="503.33052233455095" style="stroke:rgb(0,0,255);stroke-width:1"/>
<line x1="604.6652435500985" y1="503.33052233455095" x2="593.1380016825848" y2="548.2524044635747" style="stroke:rgb(0,0,255);stroke-width:1"/>
<line x1="593.1380016825848" y1="548.2524044635747" x2="609.9739540098194" y2="463.7519305559707" style="stroke:rgb(0,0,255);stroke-width:1"/>
<line x1="609.9739540098194" y1="463.7519305559707" x2="593.1380016825848" y2="548.2524044635747" style="stroke:rgb(0,0,255);stroke-width:1"/>
<line x1="593.1380016825848" y1="548.2524044635747" x2="586.4876719957638" y2="463.6981365850369" style="stroke:rgb(0,0,255);stroke-width:1"/>
<line x1="586.4876719957638" y1="463.6981365850369" x2="593.1380016825848" y2="548.2524044635747" style="stroke:rgb(0,0,255);stroke-width:1"/>
<line x1="604.6652435500985" y1="503.33052233455095" x2="586.4876719957638" y2="463.6981365850369" style="stroke:rgb(0,0,255);stroke-width:1"/>
<line x1="586.4876719957638" y1="463.6981365850369" x2="604.6652435500985" y2="503.33052233455095" style="stroke:rgb(0,0,255);stroke-width:1"/>
<line x1="558.7753546270661" y1="465.6238439330059" x2="539.6206025902821" y2="548.0863871502237" style="stroke:rgb(0,0,255);stroke-width:1"/>
<line x1="539.6206025902821" y1="548.0863871502237" x2="558.7753546270661" y2="465.6238439330059" style="stroke:rgb(0,0,255);stroke-width:1"/>
<line x1="558.7753546270661" y1="465.6238439330059" x2="535.5601113408818" y2="457.6882873754782" style="stroke:rgb(0,0,255);stroke-width:1"/>
<line x1="535.5601113408818" y1="457.6882873754782" x2="558.7753546270661" y2="465.6238439330059" style="stroke:rgb(0,0,255);stroke-width:1"/>
<line x1="609.9739540098194" y1="463.7519305559707" x2="535.5601113408818" y2="457.6882873754782" style="stroke:rgb(0,0,255);stroke-width:1"/>
<line x1="535.5601113408818" y1="457.6882873754782" x2="609.9739540098194" y2="463.7519305559707" style="stroke:rgb(0,0,255);stroke-width:1"/>
<line x1="490.0556175240298" y1="456.6369845820538" x2="586.4876719957638" y2="463.6981365850369" style="stroke:rgb(0,0,255);stroke-width:1"/>
<line x1="586.4876719957638" y1="463.6981365850369" x2="490.0556175240298" y2="456.6369845820538" style="stroke:rgb(0,0,255);stroke-width:1"/>
<line x1="490.0556175240298" y1="456.6369845820538" x2="535.5601113408818" y2="457.6882873754782" style="stroke:rgb(0,0,255);stroke-width:1"/>
<line x1="535.5601113408818" y1="457.6882873754782" x2="490.0556175240298" y2="456.6369845820538" style="stroke:rgb(0,0,255);stroke-width:1"/>
<line x1="539.6206025902821" y1="548.0863871502237" x2="508.6323540269731" y2="540.2003691498" style="stroke:rgb(0,0,255);stroke-width:1"/>
<line x1="508.6323540269731" y1="540.2003691498" x2="539.6206025902821" y2="548.0863871502237" style="stroke:rgb(0,0,255);stroke-width:1"/>
<line x1="539.6206025902821" y1="548.0863871502237" x2="535.5601113408818" y2="457.6882873754782" style="stroke:rgb(0,0,255);stroke-width:1"/>
<line x1="535.5601113408818" y1="457.6882873754782" x2="539.6206025902821" y2="548.0863871502237" style="stroke:rgb(0,0,255);stroke-width:1"/>
<line x1="496.23118590863464" y1="542.0637926159114" x2="508.6323540269731" y2="540.2003691498" style="stroke:rgb(0,0,255);stroke-width:1"/>
<line x1="508.6323540269731" y1="540.2003691498" x2="496.23118590863464" y2="542.0637926159114" style="stroke:rgb(0,0,255);stroke-width:1"/>
<line x1="496.23118590863464" y1="542.0637926159114" x2="535.5601113408818" y2="457.6882873754782" style="stroke:rgb(0,0,255);stroke-width:1"/>
<line x1="535.5601113408818" y1="457.6882873754782" x2="496.23118590863464" y2="542.0637926159114" style="stroke:rgb(0,0,255);stroke-width:1"/>
<line x1="586.4876719957638" y1="463.6981365850369" x2="508.6323540269731" y2="540.2003691498" style="stroke:rgb(0,0,255);stroke-width:1"/>
<line x1="508.6323540269731" y1="540.2003691498" x2="586.4876719957638" y2="463.6981365850369" style="stroke:rgb(0,0,255);stroke-width:1"/>
<line x1="586.4876719957638" y1="463.6981365850369" x2="535.5601113408818" y2="457.6882873754782" style="stroke:rgb(0,0,255);stroke-width:1"/>
<line x1="535.5601113408818" y1="457.6882873754782" x2="586.4876719957638" y2="463.6981365850369" style="stroke:rgb(0,0,255);stroke-width:1"/>
<line x1="508.6323540269731" y1="540.2003691498" x2="535.5601113408818" y2="457.6882873754782" style="stroke:rgb(0,0,255);stroke-width:1"/>
<line x1="535.5601113408818" y1="457.6882873754782" x2="508.6323540269731" y2="540.2003691498" style="stroke:rgb(0,0,255);stroke-width:1"/>
</svg>
