<svg xmlns="http://www.w3.org/2000/svg" version="1.1" xmlns:xllink="http://www.w3.org/1999/xlink" width="1000" height="1000">
<ellipse cx="449.0223031544592" cy="472.7444507645704" rx="5.60" ry="5.60" style="fill:rgb(255,255,0);stroke:rgb(0,0,0);stroke-width:0.50;"/>
<ellipse cx="304.00418058240996" cy="529.532683081424" rx="5.60" ry="5.60" style="fill:rgb(255,255,0);stroke:rgb(0,0,0);stroke-width:0.50;"/>
<ellipse cx="449.32760989464737" cy="542.0816814942641" rx="5.60" ry="5.60" style="fill:rgb(255,255,0);stroke:rgb(0,0,0);stroke-width:0.50;"/>
<ellipse cx="346.49834209168205" cy="417.3841925722273" rx="5.60" ry="5.60" style="fill:rgb(255,255,0);stroke:rgb(0,0,0);stroke-width:0.50;"/>
<ellipse cx="369.7678050125213" cy="623.0537728599832" rx="5.60" ry="5.60" style="fill:rgb(255,255,0);stroke:rgb(0,0,0);stroke-width:0.50;"/>
<ellipse cx="682.4415060568251" cy="603.557809257512" rx="5.60" ry="5.60" style="fill:rgb(255,255,0);stroke:rgb(0,0,0);stroke-width:0.50;"/>
<ellipse cx="575.6075314960591" cy="681.7946053195822" rx="5.60" ry="5.60" style="fill:rgb(255,255,0);stroke:rgb(0,0,0);stroke-width:0.50;"/>
<ellipse cx="532.5592707148965" cy="584.4994716235334" rx="5.60" ry="5.60" style="fill:rgb(255,255,0);stroke:rgb(0,0,0);stroke-width:0.50;"/>
<ellipse cx="500.2610643723798" cy="390.81500513227206" rx="5.60" ry="5.60" style="fill:rgb(255,255,0);stroke:rgb(0,0,0);stroke-width:0.50;"/>
<ellipse cx="600.1224081751858" cy="763.9009272359843" rx="5.60" ry="5.60" style="fill:rgb(255,255,0);stroke:rgb(0,0,0);stroke-width:0.50;"/>
<ellipse cx="573.9570749376263" cy="180.10305969672982" rx="5.60" ry="5.60" style="fill:rgb(255,255,0);stroke:rgb(0,0,0);stroke-width:0.50;"/>
<ellipse cx="431.7846816196735" cy="197.98826685003007" rx="5.60" ry="5.60" style="fill:rgb(255,255,0);stroke:rgb(0,0,0);stroke-width:0.50;"/>
<ellipse cx="259.18535751583613" cy="462.1465880032682" rx="5.60" ry="5.60" style="fill:rgb(255,255,0);stroke:rgb(0,0,0);stroke-width:0.50;"/>
<ellipse cx="306.9698398085101" cy="262.3523701167976" rx="5.60" ry="5.60" style="fill:rgb(255,255,0);stroke:rgb(0,0,0);stroke-width:0.50;"/>
<ellipse cx="369.3290784891233" cy="698.3770381933297" rx="5.60" ry="5.60" style="fill:rgb(255,255,0);stroke:rgb(0,0,0);stroke-width:0.50;"/>
<ellipse cx="169.3558700891101" cy="590.9963041961464" rx="5.60" ry="5.60" style="fill:rgb(255,255,0);stroke:rgb(0,0,0);stroke-width:0.50;"/>
<ellipse cx="734.4876719957638" cy="454.6981365850369" rx="5.60" ry="5.60" style="fill:rgb(255,255,0);stroke:rgb(0,0,0);stroke-width:0.50;"/>
<ellipse cx="444.23118590863464" cy="635.0637926159114" rx="5.60" ry="5.60" style="fill:rgb(255,255,0);stroke:rgb(0,0,0);stroke-width:0.50;"/>
<ellipse cx="351.34708768243536" cy="775.1766897180552" rx="5.60" ry="5.60" style="fill:rgb(255,255,0);stroke:rgb(0,0,0);stroke-width:0.50;"/>
<ellipse cx="789.9739540098194" cy="592.7519305559707" rx="5.60" ry="5.60" style="fill:rgb(255,255,0);stroke:rgb(0,0,0);stroke-width:0.50;"/>
<ellipse cx="478.0556175240298" cy="309.6369845820538" rx="5.60" ry="5.60" style="fill:rgb(255,255,0);stroke:rgb(0,0,0);stroke-width:0.50;"/>
<ellipse cx="632.6323540269731" cy="471.20036914980005" rx="5.60" ry="5.60" style="fill:rgb(255,255,0);stroke:rgb(0,0,0);stroke-width:0.50;"/>
<ellipse cx="566.4151376165399" cy="426.81431016988745" rx="5.60" ry="5.60" style="fill:rgb(255,255,0);stroke:rgb(0,0,0);stroke-width:0.50;"/>
<ellipse cx="571.5601113408818" cy="514.6882873754782" rx="5.60" ry="5.60" style="fill:rgb(255,255,0);stroke:rgb(0,0,0);stroke-width:0.50;"/>
<ellipse cx="809.2991336888128" cy="339.88718040694005" rx="5.60" ry="5.60" style="fill:rgb(255,255,0);stroke:rgb(0,0,0);stroke-width:0.50;"/>
<ellipse cx="538.2882135950681" cy="775.2594958470584" rx="5.60" ry="5.60" style="fill:rgb(255,255,0);stroke:rgb(0,0,0);stroke-width:0.50;"/>
<ellipse cx="343.06044255975803" cy="342.6218975976823" rx="5.60" ry="5.60" style="fill:rgb(255,255,0);stroke:rgb(0,0,0);stroke-width:0.50;"/>
<ellipse cx="720.2902830150754" cy="256.93510642627416" rx="5.60" ry="5.60" style="fill:rgb(255,255,0);stroke:rgb(0,0,0);stroke-width:0.50;"/>
<ellipse cx="755.7932293324005" cy="696.0271669321962" rx="5.60" ry="5.60" style="fill:rgb(255,255,0);stroke:rgb(0,0,0);stroke-width:0.50;"/>
<ellipse cx="844.0256312032412" cy="468.9622489574382" rx="5.60" ry="5.60" style="fill:rgb(255,255,0);stroke:rgb(0,0,0);stroke-width:0.50;"/>
<ellipse cx="960.6652435500985" cy="550.330522334551" rx="5.60" ry="5.60" style="fill:rgb(255,255,0);stroke:rgb(0,0,0);stroke-width:0.50;"/>
<ellipse cx="687.6206025902821" cy="545.0863871502237" rx="5.60" ry="5.60" style="fill:rgb(255,255,0);stroke:rgb(0,0,0);stroke-width:0.50;"/>
<ellipse cx="861.1380016825848" cy="718.2524044635747" rx="5.60" ry="5.60" style="fill:rgb(255,255,0);stroke:rgb(0,0,0);stroke-width:0.50;"/>
<ellipse cx="650.7753546270661" cy="318.6238439330059" rx="5.60" ry="5.60" style="fill:rgb(255,255,0);stroke:rgb(0,0,0);stroke-width:0.50;"/>
<line x1="449.0223031544592" y1="472.7444507645704" x2="304.00418058240996" y2="529.532683081424" style="stroke:rgb(0,0,255);stroke-width:1"/>
<line x1="304.00418058240996" y1="529.532683081424" x2="449.0223031544592" y2="472.7444507645704" style="stroke:rgb(0,0,255);stroke-width:1"/>
<line x1="449.0223031544592" y1="472.7444507645704" x2="449.32760989464737" y2="542.0816814942641" style="stroke:rgb(0,0,255);stroke-width:1"/>
<line x1="449.32760989464737" y1="542.0816814942641" x2="449.0223031544592" y2="472.7444507645704" style="stroke:rgb(0,0,255);stroke-width:1"/>
<line x1="449.0223031544592" y1="472.7444507645704" x2="346.49834209168205" y2="417.3841925722273" style="stroke:rgb(0,0,255);stroke-width:1"/>
<line x1="346.49834209168205" y1="417.3841925722273" x2="449.0223031544592" y2="472.7444507645704" style="stroke:rgb(0,0,255);stroke-width:1"/>
<line x1="449.0223031544592" y1="472.7444507645704" x2="369.7678050125213" y2="623.0537728599832" style="stroke:rgb(0,0,255);stroke-width:1"/>
<line x1="369.7678050125213" y1="623.0537728599832" x2="449.0223031544592" y2="472.7444507645704" style="stroke:rgb(0,0,255);stroke-width:1"/>
<line x1="449.0223031544592" y1="472.7444507645704" x2="682.4415060568251" y2="603.557809257512" style="stroke:rgb(0,0,255);stroke-width:1"/>
<line x1="682.4415060568251" y1="603.557809257512" x2="449.0223031544592" y2="472.7444507645704" style="stroke:rgb(0,0,255);stroke-width:1"/>
<line x1="449.0223031544592" y1="472.7444507645704" x2="575.6075314960591" y2="681.7946053195822" style="stroke:rgb(0,0,255);stroke-width:1"/>
<line x1="575.6075314960591" y1="681.7946053195822" x2="449.0223031544592" y2="472.7444507645704" style="stroke:rgb(0,0,255);stroke-width:1"/>
<line x1="449.0223031544592" y1="472.7444507645704" x2="532.5592707148965" y2="584.4994716235334" style="stroke:rgb(0,0,255);stroke-width:1"/>
<line x1="532.5592707148965" y1="584.4994716235334" x2="449.0223031544592" y2="472.7444507645704" style="stroke:rgb(0,0,255);stroke-width:1"/>
<line x1="449.0223031544592" y1="472.7444507645704" x2="500.2610643723798" y2="390.81500513227206" style="stroke:rgb(0,0,255);stroke-width:1"/>
<line x1="500.2610643723798" y1="390.81500513227206" x2="449.0223031544592" y2="472.7444507645704" style="stroke:rgb(0,0,255);stroke-width:1"/>
<line x1="449.0223031544592" y1="472.7444507645704" x2="600.1224081751858" y2="763.9009272359843" style="stroke:rgb(0,0,255);stroke-width:1"/>
<line x1="600.1224081751858" y1="763.9009272359843" x2="449.0223031544592" y2="472.7444507645704" style="stroke:rgb(0,0,255);stroke-width:1"/>
<line x1="449.0223031544592" y1="472.7444507645704" x2="573.9570749376263" y2="180.10305969672982" style="stroke:rgb(0,0,255);stroke-width:1"/>
<line x1="573.9570749376263" y1="180.10305969672982" x2="449.0223031544592" y2="472.7444507645704" style="stroke:rgb(0,0,255);stroke-width:1"/>
<line x1="449.0223031544592" y1="472.7444507645704" x2="431.7846816196735" y2="197.98826685003007" style="stroke:rgb(0,0,255);stroke-width:1"/>
<line x1="431.7846816196735" y1="197.98826685003007" x2="449.0223031544592" y2="472.7444507645704" style="stroke:rgb(0,0,255);stroke-width:1"/>
<line x1="449.0223031544592" y1="472.7444507645704" x2="259.18535751583613" y2="462.1465880032682" style="stroke:rgb(0,0,255);stroke-width:1"/>
<line x1="259.18535751583613" y1="462.1465880032682" x2="449.0223031544592" y2="472.7444507645704" style="stroke:rgb(0,0,255);stroke-width:1"/>
<line x1="449.0223031544592" y1="472.7444507645704" x2="306.9698398085101" y2="262.3523701167976" style="stroke:rgb(0,0,255);stroke-width:1"/>
<line x1="306.9698398085101" y1="262.3523701167976" x2="449.0223031544592" y2="472.7444507645704" style="stroke:rgb(0,0,255);stroke-width:1"/>
<line x1="449.0223031544592" y1="472.7444507645704" x2="369.3290784891233" y2="698.3770381933297" style="stroke:rgb(0,0,255);stroke-width:1"/>
<line x1="369.3290784891233" y1="698.3770381933297" x2="449.0223031544592" y2="472.7444507645704" style="stroke:rgb(0,0,255);stroke-width:1"/>
<line x1="449.0223031544592" y1="472.7444507645704" x2="169.3558700891101" y2="590.9963041961464" style="stroke:rgb(0,0,255);stroke-width:1"/>
<line x1="169.3558700891101" y1="590.9963041961464" x2="449.0223031544592" y2="472.7444507645704" style="stroke:rgb(0,0,255);stroke-width:1"/>
<line x1="449.0223031544592" y1="472.7444507645704" x2="734.4876719957638" y2="454.6981365850369" style="stroke:rgb(0,0,255);stroke-width:1"/>
<line x1="734.4876719957638" y1="454.6981365850369" x2="449.0223031544592" y2="472.7444507645704" style="stroke:rgb(0,0,255);stroke-width:1"/>
<line x1="304.00418058240996" y1="529.532683081424" x2="449.32760989464737" y2="542.0816814942641" style="stroke:rgb(0,0,255);stroke-width:1"/>
<line x1="449.32760989464737" y1="542.0816814942641" x2="304.00418058240996" y2="529.532683081424" style="stroke:rgb(0,0,255);stroke-width:1"/>
<line x1="304.00418058240996" y1="529.532683081424" x2="346.49834209168205" y2="417.3841925722273" style="stroke:rgb(0,0,255);stroke-width:1"/>
<line x1="346.49834209168205" y1="417.3841925722273" x2="304.00418058240996" y2="529.532683081424" style="stroke:rgb(0,0,255);stroke-width:1"/>
<line x1="304.00418058240996" y1="529.532683081424" x2="532.5592707148965" y2="584.4994716235334" style="stroke:rgb(0,0,255);stroke-width:1"/>
<line x1="532.5592707148965" y1="584.4994716235334" x2="304.00418058240996" y2="529.532683081424" style="stroke:rgb(0,0,255);stroke-width:1"/>
<line x1="304.00418058240996" y1="529.532683081424" x2="259.18535751583613" y2="462.1465880032682" style="stroke:rgb(0,0,255);stroke-width:1"/>
<line x1="259.18535751583613" y1="462.1465880032682" x2="304.00418058240996" y2="529.532683081424" style="stroke:rgb(0,0,255);stroke-width:1"/>
<line x1="304.00418058240996" y1="529.532683081424" x2="306.9698398085101" y2="262.3523701167976" style="stroke:rgb(0,0,255);stroke-width:1"/>
<line x1="306.9698398085101" y1="262.3523701167976" x2="304.00418058240996" y2="529.532683081424" style="stroke:rgb(0,0,255);stroke-width:1"/>
<line x1="304.00418058240996" y1="529.532683081424" x2="369.3290784891233" y2="698.3770381933297" style="stroke:rgb(0,0,255);stroke-width:1"/>
<line x1="369.3290784891233" y1="698.3770381933297" x2="304.00418058240996" y2="529.532683081424" style="stroke:rgb(0,0,255);stroke-width:1"/>
<line x1="304.00418058240996" y1="529.532683081424" x2="169.3558700891101" y2="590.9963041961464" style="stroke:rgb(0,0,255);stroke-width:1"/>
<line x1="169.3558700891101" y1="590.9963041961464" x2="304.00418058240996" y2="529.532683081424" style="stroke:rgb(0,0,255);stroke-width:1"/>
<line x1="304.00418058240996" y1="529.532683081424" x2="444.23118590863464" y2="635.0637926159114" style="stroke:rgb(0,0,255);stroke-width:1"/>
<line x1="444.23118590863464" y1="635.0637926159114" x2="304.00418058240996" y2="529.532683081424" style="stroke:rgb(0,0,255);stroke-width:1"/>
<line x1="449.32760989464737" y1="542.0816814942641" x2="346.49834209168205" y2="417.3841925722273" style="stroke:rgb(0,0,255);stroke-width:1"/>
<line x1="346.49834209168205" y1="417.3841925722273" x2="449.32760989464737" y2="542.0816814942641" style="stroke:rgb(0,0,255);stroke-width:1"/>
<line x1="449.32760989464737" y1="542.0816814942641" x2="532.5592707148965" y2="584.4994716235334" style="stroke:rgb(0,0,255);stroke-width:1"/>
<line x1="532.5592707148965" y1="584.4994716235334" x2="449.32760989464737" y2="542.0816814942641" style="stroke:rgb(0,0,255);stroke-width:1"/>
<line x1="449.32760989464737" y1="542.0816814942641" x2="500.2610643723798" y2="390.81500513227206" style="stroke:rgb(0,0,255);stroke-width:1"/>
<line x1="500.2610643723798" y1="390.81500513227206" x2="449.32760989464737" y2="542.0816814942641" style="stroke:rgb(0,0,255);stroke-width:1"/>
<line x1="449.32760989464737" y1="542.0816814942641" x2="351.34708768243536" y2="775.1766897180552" style="stroke:rgb(0,0,255);stroke-width:1"/>
<line x1="351.34708768243536" y1="775.1766897180552" x2="449.32760989464737" y2="542.0816814942641" style="stroke:rgb(0,0,255);stroke-width:1"/>
<line x1="449.32760989464737" y1="542.0816814942641" x2="259.18535751583613" y2="462.1465880032682" style="stroke:rgb(0,0,255);stroke-width:1"/>
<line x1="259.18535751583613" y1="462.1465880032682" x2="449.32760989464737" y2="542.0816814942641" style="stroke:rgb(0,0,255);stroke-width:1"/>
<line x1="449.32760989464737" y1="542.0816814942641" x2="789.9739540098194" y2="592.7519305559707" style="stroke:rgb(0,0,255);stroke-width:1"/>
<line x1="789.9739540098194" y1="592.7519305559707" x2="449.32760989464737" y2="542.0816814942641" style="stroke:rgb(0,0,255);stroke-width:1"/>
<line x1="449.32760989464737" y1="542.0816814942641" x2="478.0556175240298" y2="309.6369845820538" style="stroke:rgb(0,0,255);stroke-width:1"/>
<line x1="478.0556175240298" y1="309.6369845820538" x2="449.32760989464737" y2="542.0816814942641" style="stroke:rgb(0,0,255);stroke-width:1"/>
<line x1="449.32760989464737" y1="542.0816814942641" x2="632.6323540269731" y2="471.20036914980005" style="stroke:rgb(0,0,255);stroke-width:1"/>
<line x1="632.6323540269731" y1="471.20036914980005" x2="449.32760989464737" y2="542.0816814942641" style="stroke:rgb(0,0,255);stroke-width:1"/>
<line x1="346.49834209168205" y1="417.3841925722273" x2="532.5592707148965" y2="584.4994716235334" style="stroke:rgb(0,0,255);stroke-width:1"/>
<line x1="532.5592707148965" y1="584.4994716235334" x2="346.49834209168205" y2="417.3841925722273" style="stroke:rgb(0,0,255);stroke-width:1"/>
<line x1="346.49834209168205" y1="417.3841925722273" x2="431.7846816196735" y2="197.98826685003007" style="stroke:rgb(0,0,255);stroke-width:1"/>
<line x1="431.7846816196735" y1="197.98826685003007" x2="346.49834209168205" y2="417.3841925722273" style="stroke:rgb(0,0,255);stroke-width:1"/>
<line x1="346.49834209168205" y1="417.3841925722273" x2="259.18535751583613" y2="462.1465880032682" style="stroke:rgb(0,0,255);stroke-width:1"/>
<line x1="259.18535751583613" y1="462.1465880032682" x2="346.49834209168205" y2="417.3841925722273" style="stroke:rgb(0,0,255);stroke-width:1"/>
<line x1="369.7678050125213" y1="623.0537728599832" x2="575.6075314960591" y2="681.7946053195822" style="stroke:rgb(0,0,255);stroke-width:1"/>
<line x1="575.6075314960591" y1="681.7946053195822" x2="369.7678050125213" y2="623.0537728599832" style="stroke:rgb(0,0,255);stroke-width:1"/>
<line x1="369.7678050125213" y1="623.0537728599832" x2="600.1224081751858" y2="763.9009272359843" style="stroke:rgb(0,0,255);stroke-width:1"/>
<line x1="600.1224081751858" y1="763.9009272359843" x2="369.7678050125213" y2="623.0537728599832" style="stroke:rgb(0,0,255);stroke-width:1"/>
<line x1="682.4415060568251" y1="603.557809257512" x2="575.6075314960591" y2="681.7946053195822" style="stroke:rgb(0,0,255);stroke-width:1"/>
<line x1="575.6075314960591" y1="681.7946053195822" x2="682.4415060568251" y2="603.557809257512" style="stroke:rgb(0,0,255);stroke-width:1"/>
<line x1="682.4415060568251" y1="603.557809257512" x2="600.1224081751858" y2="763.9009272359843" style="stroke:rgb(0,0,255);stroke-width:1"/>
<line x1="600.1224081751858" y1="763.9009272359843" x2="682.4415060568251" y2="603.557809257512" style="stroke:rgb(0,0,255);stroke-width:1"/>
<line x1="682.4415060568251" y1="603.557809257512" x2="566.4151376165399" y2="426.81431016988745" style="stroke:rgb(0,0,255);stroke-width:1"/>
<line x1="566.4151376165399" y1="426.81431016988745" x2="682.4415060568251" y2="603.557809257512" style="stroke:rgb(0,0,255);stroke-width:1"/>
<line x1="575.6075314960591" y1="681.7946053195822" x2="566.4151376165399" y2="426.81431016988745" style="stroke:rgb(0,0,255);stroke-width:1"/>
<line x1="566.4151376165399" y1="426.81431016988745" x2="575.6075314960591" y2="681.7946053195822" style="stroke:rgb(0,0,255);stroke-width:1"/>
<line x1="500.2610643723798" y1="390.81500513227206" x2="444.23118590863464" y2="635.0637926159114" style="stroke:rgb(0,0,255);stroke-width:1"/>
<line x1="444.23118590863464" y1="635.0637926159114" x2="500.2610643723798" y2="390.81500513227206" style="stroke:rgb(0,0,255);stroke-width:1"/>
<line x1="500.2610643723798" y1="390.81500513227206" x2="632.6323540269731" y2="471.20036914980005" style="stroke:rgb(0,0,255);stroke-width:1"/>
<line x1="632.6323540269731" y1="471.20036914980005" x2="500.2610643723798" y2="390.81500513227206" style="stroke:rgb(0,0,255);stroke-width:1"/>
<line x1="500.2610643723798" y1="390.81500513227206" x2="571.5601113408818" y2="514.6882873754782" style="stroke:rgb(0,0,255);stroke-width:1"/>
<line x1="571.5601113408818" y1="514.6882873754782" x2="500.2610643723798" y2="390.81500513227206" style="stroke:rgb(0,0,255);stroke-width:1"/>
<line x1="351.34708768243536" y1="775.1766897180552" x2="571.5601113408818" y2="514.6882873754782" style="stroke:rgb(0,0,255);stroke-width:1"/>
<line x1="571.5601113408818" y1="514.6882873754782" x2="351.34708768243536" y2="775.1766897180552" style="stroke:rgb(0,0,255);stroke-width:1"/>
<line x1="259.18535751583613" y1="462.1465880032682" x2="571.5601113408818" y2="514.6882873754782" style="stroke:rgb(0,0,255);stroke-width:1"/>
<line x1="571.5601113408818" y1="514.6882873754782" x2="259.18535751583613" y2="462.1465880032682" style="stroke:rgb(0,0,255);stroke-width:1"/>
<line x1="809.2991336888128" y1="339.88718040694005" x2="632.6323540269731" y2="471.20036914980005" style="stroke:rgb(0,0,255);stroke-width:1"/>
<line x1="632.6323540269731" y1="471.20036914980005" x2="809.2991336888128" y2="339.88718040694005" style="stroke:rgb(0,0,255);stroke-width:1"/>
<line x1="809.2991336888128" y1="339.88718040694005" x2="571.5601113408818" y2="514.6882873754782" style="stroke:rgb(0,0,255);stroke-width:1"/>
<line x1="571.5601113408818" y1="514.6882873754782" x2="809.2991336888128" y2="339.88718040694005" style="stroke:rgb(0,0,255);stroke-width:1"/>
<line x1="538.2882135950681" y1="775.2594958470584" x2="632.6323540269731" y2="471.20036914980005" style="stroke:rgb(0,0,255);stroke-width:1"/>
<line x1="632.6323540269731" y1="471.20036914980005" x2="538.2882135950681" y2="775.2594958470584" style="stroke:rgb(0,0,255);stroke-width:1"/>
<line x1="538.2882135950681" y1="775.2594958470584" x2="571.5601113408818" y2="514.6882873754782" style="stroke:rgb(0,0,255);stroke-width:1"/>
<line x1="571.5601113408818" y1="514.6882873754782" x2="538.2882135950681" y2="775.2594958470584" style="stroke:rgb(0,0,255);stroke-width:1"/>
<line x1="343.06044255975803" y1="342.6218975976823" x2="632.6323540269731" y2="471.20036914980005" style="stroke:rgb(0,0,255);stroke-width:1"/>
<line x1="632.6323540269731" y1="471.20036914980005" x2="343.06044255975803" y2="342.6218975976823" style="stroke:rgb(0,0,255);stroke-width:1"/>
<line x1="343.06044255975803" y1="342.6218975976823" x2="571.5601113408818" y2="514.6882873754782" style="stroke:rgb(0,0,255);stroke-width:1"/>
<line x1="571.5601113408818" y1="514.6882873754782" x2="343.06044255975803" y2="342.6218975976823" style="stroke:rgb(0,0,255);stroke-width:1"/>
<line x1="369.3290784891233" y1="698.3770381933297" x2="571.5601113408818" y2="514.6882873754782" style="stroke:rgb(0,0,255);stroke-width:1"/>
<line x1="571.5601113408818" y1="514.6882873754782" x2="369.3290784891233" y2="698.3770381933297" style="stroke:rgb(0,0,255);stroke-width:1"/>
<line x1="720.2902830150754" y1="256.93510642627416" x2="632.6323540269731" y2="471.20036914980005" style="stroke:rgb(0,0,255);stroke-width:1"/>
<line x1="632.6323540269731" y1="471.20036914980005" x2="720.2902830150754" y2="256.93510642627416" style="stroke:rgb(0,0,255);stroke-width:1"/>
<line x1="720.2902830150754" y1="256.93510642627416" x2="571.5601113408818" y2="514.6882873754782" style="stroke:rgb(0,0,255);stroke-width:1"/>
<line x1="571.5601113408818" y1="514.6882873754782" x2="720.2902830150754" y2="256.93510642627416" style="stroke:rgb(0,0,255);stroke-width:1"/>
<line x1="755.7932293324005" y1="696.0271669321962" x2="632.6323540269731" y2="471.20036914980005" style="stroke:rgb(0,0,255);stroke-width:1"/>
<line x1="632.6323540269731" y1="471.20036914980005" x2="755.7932293324005" y2="696.0271669321962" style="stroke:rgb(0,0,255);stroke-width:1"/>
<line x1="755.7932293324005" y1="696.0271669321962" x2="571.5601113408818" y2="514.6882873754782" style="stroke:rgb(0,0,255);stroke-width:1"/>
<line x1="571.5601113408818" y1="514.6882873754782" x2="755.7932293324005" y2="696.0271669321962" style="stroke:rgb(0,0,255);stroke-width:1"/>
<line x1="844.0256312032412" y1="468.9622489574382" x2="960.6652435500985" y2="550.330522334551" style="stroke:rgb(0,0,255);stroke-width:1"/>
<line x1="960.6652435500985" y1="550.330522334551" x2="844.0256312032412" y2="468.9622489574382" style="stroke:rgb(0,0,255);stroke-width:1"/>
<line x1="844.0256312032412" y1="468.9622489574382" x2="789.9739540098194" y2="592.7519305559707" style="stroke:rgb(0,0,255);stroke-width:1"/>
<line x1="789.9739540098194" y1="592.7519305559707" x2="844.0256312032412" y2="468.9622489574382" style="stroke:rgb(0,0,255);stroke-width:1"/>
<line x1="844.0256312032412" y1="468.9622489574382" x2="687.6206025902821" y2="545.0863871502237" style="stroke:rgb(0,0,255);stroke-width:1"/>
<line x1="687.6206025902821" y1="545.0863871502237" x2="844.0256312032412" y2="468.9622489574382" style="stroke:rgb(0,0,255);stroke-width:1"/>
<line x1="844.0256312032412" y1="468.9622489574382" x2="632.6323540269731" y2="471.20036914980005" style="stroke:rgb(0,0,255);stroke-width:1"/>
<line x1="632.6323540269731" y1="471.20036914980005" x2="844.0256312032412" y2="468.9622489574382" style="stroke:rgb(0,0,255);stroke-width:1"/>
<line x1="844.0256312032412" y1="468.9622489574382" x2="571.5601113408818" y2="514.6882873754782" style="stroke:rgb(0,0,255);stroke-width:1"/>
<line x1="571.5601113408818" y1="514.6882873754782" x2="844.0256312032412" y2="468.9622489574382" style="stroke:rgb(0,0,255);stroke-width:1"/>
<line x1="861.1380016825848" y1="718.2524044635747" x2="960.6652435500985" y2="550.330522334551" style="stroke:rgb(0,0,255);stroke-width:1"/>
<line x1="960.6652435500985" y1="550.330522334551" x2="861.1380016825848" y2="718.2524044635747" style="stroke:rgb(0,0,255);stroke-width:1"/>
<line x1="861.1380016825848" y1="718.2524044635747" x2="789.9739540098194" y2="592.7519305559707" style="stroke:rgb(0,0,255);stroke-width:1"/>
<line x1="789.9739540098194" y1="592.7519305559707" x2="861.1380016825848" y2="718.2524044635747" style="stroke:rgb(0,0,255);stroke-width:1"/>
<line x1="861.1380016825848" y1="718.2524044635747" x2="734.4876719957638" y2="454.6981365850369" style="stroke:rgb(0,0,255);stroke-width:1"/>
<line x1="734.4876719957638" y1="454.6981365850369" x2="861.1380016825848" y2="718.2524044635747" style="stroke:rgb(0,0,255);stroke-width:1"/>
<line x1="960.6652435500985" y1="550.330522334551" x2="734.4876719957638" y2="454.6981365850369" style="stroke:rgb(0,0,255);stroke-width:1"/>
<line x1="734.4876719957638" y1="454.6981365850369" x2="960.6652435500985" y2="550.330522334551" style="stroke:rgb(0,0,255);stroke-width:1"/>
<line x1="650.7753546270661" y1="318.6238439330059" x2="687.6206025902821" y2="545.0863871502237" style="stroke:rgb(0,0,255);stroke-width:1"/>
<line x1="687.6206025902821" y1="545.0863871502237" x2="650.7753546270661" y2="318.6238439330059" style="stroke:rgb(0,0,255);stroke-width:1"/>
<line x1="650.7753546270661" y1="318.6238439330059" x2="571.5601113408818" y2="514.6882873754782" style="stroke:rgb(0,0,255);stroke-width:1"/>
<line x1="571.5601113408818" y1="514.6882873754782" x2="650.7753546270661" y2="318.6238439330059" style="stroke:rgb(0,0,255);stroke-width:1"/>
<line x1="789.9739540098194" y1="592.7519305559707" x2="571.5601113408818" y2="514.6882873754782" style="stroke:rgb(0,0,255);stroke-width:1"/>
<line x1="571.5601113408818" y1="514.6882873754782" x2="789.9739540098194" y2="592.7519305559707" style="stroke:rgb(0,0,255);stroke-width:1"/>
<line x1="478.0556175240298" y1="309.6369845820538" x2="734.4876719957638" y2="454.6981365850369" style="stroke:rgb(0,0,255);stroke-width:1"/>
<line x1="734.4876719957638" y1="454.6981365850369" x2="478.0556175240298" y2="309.6369845820538" style="stroke:rgb(0,0,255);stroke-width:1"/>
<line x1="478.0556175240298" y1="309.6369845820538" x2="571.5601113408818" y2="514.6882873754782" style="stroke:rgb(0,0,255);stroke-width:1"/>
<line x1="571.5601113408818" y1="514.6882873754782" x2="478.0556175240298" y2="309.6369845820538" style="stroke:rgb(0,0,255);stroke-width:1"/>
<line x1="687.6206025902821" y1="545.0863871502237" x2="632.6323540269731" y2="471.20036914980005" style="stroke:rgb(0,0,255);stroke-width:1"/>
<line x1="632.6323540269731" y1="471.20036914980005" x2="687.6206025902821" y2="545.0863871502237" style="stroke:rgb(0,0,255);stroke-width:1"/>
<line x1="687.6206025902821" y1="545.0863871502237" x2="571.5601113408818" y2="514.6882873754782" style="stroke:rgb(0,0,255);stroke-width:1"/>
<line x1="571.5601113408818" y1="514.6882873754782" x2="687.6206025902821" y2="545.0863871502237" style="stroke:rgb(0,0,255);stroke-width:1"/>
<line x1="444.23118590863464" y1="635.0637926159114" x2="632.6323540269731" y2="471.20036914980005" style="stroke:rgb(0,0,255);stroke-width:1"/>
<line x1="632.6323540269731" y1="471.20036914980005" x2="444.23118590863464" y2="635.0637926159114" style="stroke:rgb(0,0,255);stroke-width:1"/>
<line x1="444.23118590863464" y1="635.0637926159114" x2="571.5601113408818" y2="514.6882873754782" style="stroke:rgb(0,0,255);stroke-width:1"/>
<line x1="571.5601113408818" y1="514.6882873754782" x2="444.23118590863464" y2="635.0637926159114" style="stroke:rgb(0,0,255);stroke-width:1"/>
<line x1="734.4876719957638" y1="454.6981365850369" x2="632.6323540269731" y2="471.20036914980005" style="stroke:rgb(0,0,255);stroke-width:1"/>
<line x1="632.6323540269731" y1="471.20036914980005" x2="734.4876719957638" y2="454.6981365850369" style="stroke:rgb(0,0,255);stroke-width:1"/>
<line x1="734.4876719957638" y1="454.6981365850369" x2="571.5601113408818" y2="514.6882873754782" style="stroke:rgb(0,0,255);stroke-width:1"/>
<line x1="571.5601113408818" y1="514.6882873754782" x2="734.4876719957638" y2="454.6981365850369" style="stroke:rgb(0,0,255);stroke-width:1"/>
<line x1="632.6323540269731" y1="471.20036914980005" x2="571.5601113408818" y2="514.6882873754782" style="stroke:rgb(0,0,255);stroke-width:1"/>
<line x1="571.5601113408818" y1="514.6882873754782" x2="632.6323540269731" y2="471.20036914980005" style="stroke:rgb(0,0,255);stroke-width:1"/>
</svg>
