<svg xmlns="http://www.w3.org/2000/svg" version="1.1" xmlns:xllink="http://www.w3.org/1999/xlink" width="1000" height="1000">
<ellipse cx="345.0223031544592" cy="535.7444507645704" rx="5.60" ry="5.60" style="fill:rgb(255,255,0);stroke:rgb(0,0,0);stroke-width:0.50;"/>
<ellipse cx="288.00418058240996" cy="484.532683081424" rx="5.60" ry="5.60" style="fill:rgb(255,255,0);stroke:rgb(0,0,0);stroke-width:0.50;"/>
<ellipse cx="510.32760989464737" cy="461.0816814942641" rx="5.60" ry="5.60" style="fill:rgb(255,255,0);stroke:rgb(0,0,0);stroke-width:0.50;"/>
<ellipse cx="278.49834209168205" cy="377.3841925722273" rx="5.60" ry="5.60" style="fill:rgb(255,255,0);stroke:rgb(0,0,0);stroke-width:0.50;"/>
<ellipse cx="200.7678050125213" cy="722.0537728599832" rx="5.60" ry="5.60" style="fill:rgb(255,255,0);stroke:rgb(0,0,0);stroke-width:0.50;"/>
<ellipse cx="438.4415060568251" cy="810.557809257512" rx="5.60" ry="5.60" style="fill:rgb(255,255,0);stroke:rgb(0,0,0);stroke-width:0.50;"/>
<ellipse cx="347.6075314960591" cy="731.7946053195822" rx="5.60" ry="5.60" style="fill:rgb(255,255,0);stroke:rgb(0,0,0);stroke-width:0.50;"/>
<ellipse cx="368.55927071489646" cy="323.4994716235334" rx="5.60" ry="5.60" style="fill:rgb(255,255,0);stroke:rgb(0,0,0);stroke-width:0.50;"/>
<ellipse cx="528.2610643723798" cy="369.81500513227206" rx="5.60" ry="5.60" style="fill:rgb(255,255,0);stroke:rgb(0,0,0);stroke-width:0.50;"/>
<ellipse cx="276.1224081751858" cy="804.9009272359843" rx="5.60" ry="5.60" style="fill:rgb(255,255,0);stroke:rgb(0,0,0);stroke-width:0.50;"/>
<ellipse cx="345.9570749376263" cy="207.10305969672982" rx="5.60" ry="5.60" style="fill:rgb(255,255,0);stroke:rgb(0,0,0);stroke-width:0.50;"/>
<ellipse cx="131.7846816196735" cy="342.9882668500301" rx="5.60" ry="5.60" style="fill:rgb(255,255,0);stroke:rgb(0,0,0);stroke-width:0.50;"/>
<ellipse cx="423.18535751583613" cy="429.1465880032682" rx="5.60" ry="5.60" style="fill:rgb(255,255,0);stroke:rgb(0,0,0);stroke-width:0.50;"/>
<ellipse cx="94.96983980851007" cy="499.3523701167976" rx="5.60" ry="5.60" style="fill:rgb(255,255,0);stroke:rgb(0,0,0);stroke-width:0.50;"/>
<ellipse cx="424.3290784891233" cy="581.3770381933297" rx="5.60" ry="5.60" style="fill:rgb(255,255,0);stroke:rgb(0,0,0);stroke-width:0.50;"/>
<ellipse cx="141.3558700891101" cy="588.9963041961464" rx="5.60" ry="5.60" style="fill:rgb(255,255,0);stroke:rgb(0,0,0);stroke-width:0.50;"/>
<ellipse cx="702.4876719957638" cy="540.6981365850369" rx="5.60" ry="5.60" style="fill:rgb(255,255,0);stroke:rgb(0,0,0);stroke-width:0.50;"/>
<ellipse cx="536.2311859086346" cy="538.0637926159114" rx="5.60" ry="5.60" style="fill:rgb(255,255,0);stroke:rgb(0,0,0);stroke-width:0.50;"/>
<ellipse cx="595.3470876824354" cy="694.1766897180552" rx="5.60" ry="5.60" style="fill:rgb(255,255,0);stroke:rgb(0,0,0);stroke-width:0.50;"/>
<ellipse cx="772.9739540098194" cy="580.7519305559707" rx="5.60" ry="5.60" style="fill:rgb(255,255,0);stroke:rgb(0,0,0);stroke-width:0.50;"/>
<ellipse cx="626.0556175240298" cy="324.6369845820538" rx="5.60" ry="5.60" style="fill:rgb(255,255,0);stroke:rgb(0,0,0);stroke-width:0.50;"/>
<ellipse cx="734.6323540269731" cy="444.20036914980005" rx="5.60" ry="5.60" style="fill:rgb(255,255,0);stroke:rgb(0,0,0);stroke-width:0.50;"/>
<ellipse cx="482.41513761653994" cy="675.8143101698874" rx="5.60" ry="5.60" style="fill:rgb(255,255,0);stroke:rgb(0,0,0);stroke-width:0.50;"/>
<ellipse cx="663.5601113408818" cy="457.68828737547824" rx="5.60" ry="5.60" style="fill:rgb(255,255,0);stroke:rgb(0,0,0);stroke-width:0.50;"/>
<ellipse cx="859.2991336888128" cy="324.88718040694005" rx="5.60" ry="5.60" style="fill:rgb(255,255,0);stroke:rgb(0,0,0);stroke-width:0.50;"/>
<ellipse cx="686.2882135950681" cy="688.2594958470584" rx="5.60" ry="5.60" style="fill:rgb(255,255,0);stroke:rgb(0,0,0);stroke-width:0.50;"/>
<ellipse cx="603.060442559758" cy="219.62189759768228" rx="5.60" ry="5.60" style="fill:rgb(255,255,0);stroke:rgb(0,0,0);stroke-width:0.50;"/>
<ellipse cx="732.2902830150754" cy="259.93510642627416" rx="5.60" ry="5.60" style="fill:rgb(255,255,0);stroke:rgb(0,0,0);stroke-width:0.50;"/>
<ellipse cx="775.7932293324005" cy="688.0271669321962" rx="5.60" ry="5.60" style="fill:rgb(255,255,0);stroke:rgb(0,0,0);stroke-width:0.50;"/>
<ellipse cx="887.0256312032412" cy="487.9622489574382" rx="5.60" ry="5.60" style="fill:rgb(255,255,0);stroke:rgb(0,0,0);stroke-width:0.50;"/>
<ellipse cx="988.6652435500985" cy="571.330522334551" rx="5.60" ry="5.60" style="fill:rgb(255,255,0);stroke:rgb(0,0,0);stroke-width:0.50;"/>
<ellipse cx="912.6206025902821" cy="391.0863871502237" rx="5.60" ry="5.60" style="fill:rgb(255,255,0);stroke:rgb(0,0,0);stroke-width:0.50;"/>
<ellipse cx="914.1380016825848" cy="687.2524044635747" rx="5.60" ry="5.60" style="fill:rgb(255,255,0);stroke:rgb(0,0,0);stroke-width:0.50;"/>
<ellipse cx="847.7753546270661" cy="220.6238439330059" rx="5.60" ry="5.60" style="fill:rgb(255,255,0);stroke:rgb(0,0,0);stroke-width:0.50;"/>
<line x1="345.0223031544592" y1="535.7444507645704" x2="288.00418058240996" y2="484.532683081424" style="stroke:rgb(0,0,255);stroke-width:1"/>
<line x1="288.00418058240996" y1="484.532683081424" x2="345.0223031544592" y2="535.7444507645704" style="stroke:rgb(0,0,255);stroke-width:1"/>
<line x1="345.0223031544592" y1="535.7444507645704" x2="510.32760989464737" y2="461.0816814942641" style="stroke:rgb(0,0,255);stroke-width:1"/>
<line x1="510.32760989464737" y1="461.0816814942641" x2="345.0223031544592" y2="535.7444507645704" style="stroke:rgb(0,0,255);stroke-width:1"/>
<line x1="345.0223031544592" y1="535.7444507645704" x2="278.49834209168205" y2="377.3841925722273" style="stroke:rgb(0,0,255);stroke-width:1"/>
<line x1="278.49834209168205" y1="377.3841925722273" x2="345.0223031544592" y2="535.7444507645704" style="stroke:rgb(0,0,255);stroke-width:1"/>
<line x1="345.0223031544592" y1="535.7444507645704" x2="200.7678050125213" y2="722.0537728599832" style="stroke:rgb(0,0,255);stroke-width:1"/>
<line x1="200.7678050125213" y1="722.0537728599832" x2="345.0223031544592" y2="535.7444507645704" style="stroke:rgb(0,0,255);stroke-width:1"/>
<line x1="345.0223031544592" y1="535.7444507645704" x2="438.4415060568251" y2="810.557809257512" style="stroke:rgb(0,0,255);stroke-width:1"/>
<line x1="438.4415060568251" y1="810.557809257512" x2="345.0223031544592" y2="535.7444507645704" style="stroke:rgb(0,0,255);stroke-width:1"/>
<line x1="345.0223031544592" y1="535.7444507645704" x2="347.6075314960591" y2="731.7946053195822" style="stroke:rgb(0,0,255);stroke-width:1"/>
<line x1="347.6075314960591" y1="731.7946053195822" x2="345.0223031544592" y2="535.7444507645704" style="stroke:rgb(0,0,255);stroke-width:1"/>
<line x1="345.0223031544592" y1="535.7444507645704" x2="368.55927071489646" y2="323.4994716235334" style="stroke:rgb(0,0,255);stroke-width:1"/>
<line x1="368.55927071489646" y1="323.4994716235334" x2="345.0223031544592" y2="535.7444507645704" style="stroke:rgb(0,0,255);stroke-width:1"/>
<line x1="345.0223031544592" y1="535.7444507645704" x2="528.2610643723798" y2="369.81500513227206" style="stroke:rgb(0,0,255);stroke-width:1"/>
<line x1="528.2610643723798" y1="369.81500513227206" x2="345.0223031544592" y2="535.7444507645704" style="stroke:rgb(0,0,255);stroke-width:1"/>
<line x1="345.0223031544592" y1="535.7444507645704" x2="276.1224081751858" y2="804.9009272359843" style="stroke:rgb(0,0,255);stroke-width:1"/>
<line x1="276.1224081751858" y1="804.9009272359843" x2="345.0223031544592" y2="535.7444507645704" style="stroke:rgb(0,0,255);stroke-width:1"/>
<line x1="345.0223031544592" y1="535.7444507645704" x2="345.9570749376263" y2="207.10305969672982" style="stroke:rgb(0,0,255);stroke-width:1"/>
<line x1="345.9570749376263" y1="207.10305969672982" x2="345.0223031544592" y2="535.7444507645704" style="stroke:rgb(0,0,255);stroke-width:1"/>
<line x1="345.0223031544592" y1="535.7444507645704" x2="131.7846816196735" y2="342.9882668500301" style="stroke:rgb(0,0,255);stroke-width:1"/>
<line x1="131.7846816196735" y1="342.9882668500301" x2="345.0223031544592" y2="535.7444507645704" style="stroke:rgb(0,0,255);stroke-width:1"/>
<line x1="345.0223031544592" y1="535.7444507645704" x2="423.18535751583613" y2="429.1465880032682" style="stroke:rgb(0,0,255);stroke-width:1"/>
<line x1="423.18535751583613" y1="429.1465880032682" x2="345.0223031544592" y2="535.7444507645704" style="stroke:rgb(0,0,255);stroke-width:1"/>
<line x1="345.0223031544592" y1="535.7444507645704" x2="94.96983980851007" y2="499.3523701167976" style="stroke:rgb(0,0,255);stroke-width:1"/>
<line x1="94.96983980851007" y1="499.3523701167976" x2="345.0223031544592" y2="535.7444507645704" style="stroke:rgb(0,0,255);stroke-width:1"/>
<line x1="345.0223031544592" y1="535.7444507645704" x2="424.3290784891233" y2="581.3770381933297" style="stroke:rgb(0,0,255);stroke-width:1"/>
<line x1="424.3290784891233" y1="581.3770381933297" x2="345.0223031544592" y2="535.7444507645704" style="stroke:rgb(0,0,255);stroke-width:1"/>
<line x1="345.0223031544592" y1="535.7444507645704" x2="141.3558700891101" y2="588.9963041961464" style="stroke:rgb(0,0,255);stroke-width:1"/>
<line x1="141.3558700891101" y1="588.9963041961464" x2="345.0223031544592" y2="535.7444507645704" style="stroke:rgb(0,0,255);stroke-width:1"/>
<line x1="345.0223031544592" y1="535.7444507645704" x2="702.4876719957638" y2="540.6981365850369" style="stroke:rgb(0,0,255);stroke-width:1"/>
<line x1="702.4876719957638" y1="540.6981365850369" x2="345.0223031544592" y2="535.7444507645704" style="stroke:rgb(0,0,255);stroke-width:1"/>
<line x1="288.00418058240996" y1="484.532683081424" x2="510.32760989464737" y2="461.0816814942641" style="stroke:rgb(0,0,255);stroke-width:1"/>
<line x1="510.32760989464737" y1="461.0816814942641" x2="288.00418058240996" y2="484.532683081424" style="stroke:rgb(0,0,255);stroke-width:1"/>
<line x1="288.00418058240996" y1="484.532683081424" x2="278.49834209168205" y2="377.3841925722273" style="stroke:rgb(0,0,255);stroke-width:1"/>
<line x1="278.49834209168205" y1="377.3841925722273" x2="288.00418058240996" y2="484.532683081424" style="stroke:rgb(0,0,255);stroke-width:1"/>
<line x1="288.00418058240996" y1="484.532683081424" x2="368.55927071489646" y2="323.4994716235334" style="stroke:rgb(0,0,255);stroke-width:1"/>
<line x1="368.55927071489646" y1="323.4994716235334" x2="288.00418058240996" y2="484.532683081424" style="stroke:rgb(0,0,255);stroke-width:1"/>
<line x1="288.00418058240996" y1="484.532683081424" x2="423.18535751583613" y2="429.1465880032682" style="stroke:rgb(0,0,255);stroke-width:1"/>
<line x1="423.18535751583613" y1="429.1465880032682" x2="288.00418058240996" y2="484.532683081424" style="stroke:rgb(0,0,255);stroke-width:1"/>
<line x1="288.00418058240996" y1="484.532683081424" x2="94.96983980851007" y2="499.3523701167976" style="stroke:rgb(0,0,255);stroke-width:1"/>
<line x1="94.96983980851007" y1="499.3523701167976" x2="288.00418058240996" y2="484.532683081424" style="stroke:rgb(0,0,255);stroke-width:1"/>
<line x1="288.00418058240996" y1="484.532683081424" x2="424.3290784891233" y2="581.3770381933297" style="stroke:rgb(0,0,255);stroke-width:1"/>
<line x1="424.3290784891233" y1="581.3770381933297" x2="288.00418058240996" y2="484.532683081424" style="stroke:rgb(0,0,255);stroke-width:1"/>
<line x1="288.00418058240996" y1="484.532683081424" x2="141.3558700891101" y2="588.9963041961464" style="stroke:rgb(0,0,255);stroke-width:1"/>
<line x1="141.3558700891101" y1="588.9963041961464" x2="288.00418058240996" y2="484.532683081424" style="stroke:rgb(0,0,255);stroke-width:1"/>
<line x1="288.00418058240996" y1="484.532683081424" x2="536.2311859086346" y2="538.0637926159114" style="stroke:rgb(0,0,255);stroke-width:1"/>
<line x1="536.2311859086346" y1="538.0637926159114" x2="288.00418058240996" y2="484.532683081424" style="stroke:rgb(0,0,255);stroke-width:1"/>
<line x1="510.32760989464737" y1="461.0816814942641" x2="278.49834209168205" y2="377.3841925722273" style="stroke:rgb(0,0,255);stroke-width:1"/>
<line x1="278.49834209168205" y1="377.3841925722273" x2="510.32760989464737" y2="461.0816814942641" style="stroke:rgb(0,0,255);stroke-width:1"/>
<line x1="510.32760989464737" y1="461.0816814942641" x2="368.55927071489646" y2="323.4994716235334" style="stroke:rgb(0,0,255);stroke-width:1"/>
<line x1="368.55927071489646" y1="323.4994716235334" x2="510.32760989464737" y2="461.0816814942641" style="stroke:rgb(0,0,255);stroke-width:1"/>
<line x1="510.32760989464737" y1="461.0816814942641" x2="528.2610643723798" y2="369.81500513227206" style="stroke:rgb(0,0,255);stroke-width:1"/>
<line x1="528.2610643723798" y1="369.81500513227206" x2="510.32760989464737" y2="461.0816814942641" style="stroke:rgb(0,0,255);stroke-width:1"/>
<line x1="510.32760989464737" y1="461.0816814942641" x2="595.3470876824354" y2="694.1766897180552" style="stroke:rgb(0,0,255);stroke-width:1"/>
<line x1="595.3470876824354" y1="694.1766897180552" x2="510.32760989464737" y2="461.0816814942641" style="stroke:rgb(0,0,255);stroke-width:1"/>
<line x1="510.32760989464737" y1="461.0816814942641" x2="423.18535751583613" y2="429.1465880032682" style="stroke:rgb(0,0,255);stroke-width:1"/>
<line x1="423.18535751583613" y1="429.1465880032682" x2="510.32760989464737" y2="461.0816814942641" style="stroke:rgb(0,0,255);stroke-width:1"/>
<line x1="510.32760989464737" y1="461.0816814942641" x2="772.9739540098194" y2="580.7519305559707" style="stroke:rgb(0,0,255);stroke-width:1"/>
<line x1="772.9739540098194" y1="580.7519305559707" x2="510.32760989464737" y2="461.0816814942641" style="stroke:rgb(0,0,255);stroke-width:1"/>
<line x1="510.32760989464737" y1="461.0816814942641" x2="626.0556175240298" y2="324.6369845820538" style="stroke:rgb(0,0,255);stroke-width:1"/>
<line x1="626.0556175240298" y1="324.6369845820538" x2="510.32760989464737" y2="461.0816814942641" style="stroke:rgb(0,0,255);stroke-width:1"/>
<line x1="510.32760989464737" y1="461.0816814942641" x2="734.6323540269731" y2="444.20036914980005" style="stroke:rgb(0,0,255);stroke-width:1"/>
<line x1="734.6323540269731" y1="444.20036914980005" x2="510.32760989464737" y2="461.0816814942641" style="stroke:rgb(0,0,255);stroke-width:1"/>
<line x1="278.49834209168205" y1="377.3841925722273" x2="368.55927071489646" y2="323.4994716235334" style="stroke:rgb(0,0,255);stroke-width:1"/>
<line x1="368.55927071489646" y1="323.4994716235334" x2="278.49834209168205" y2="377.3841925722273" style="stroke:rgb(0,0,255);stroke-width:1"/>
<line x1="278.49834209168205" y1="377.3841925722273" x2="131.7846816196735" y2="342.9882668500301" style="stroke:rgb(0,0,255);stroke-width:1"/>
<line x1="131.7846816196735" y1="342.9882668500301" x2="278.49834209168205" y2="377.3841925722273" style="stroke:rgb(0,0,255);stroke-width:1"/>
<line x1="278.49834209168205" y1="377.3841925722273" x2="423.18535751583613" y2="429.1465880032682" style="stroke:rgb(0,0,255);stroke-width:1"/>
<line x1="423.18535751583613" y1="429.1465880032682" x2="278.49834209168205" y2="377.3841925722273" style="stroke:rgb(0,0,255);stroke-width:1"/>
<line x1="200.7678050125213" y1="722.0537728599832" x2="347.6075314960591" y2="731.7946053195822" style="stroke:rgb(0,0,255);stroke-width:1"/>
<line x1="347.6075314960591" y1="731.7946053195822" x2="200.7678050125213" y2="722.0537728599832" style="stroke:rgb(0,0,255);stroke-width:1"/>
<line x1="200.7678050125213" y1="722.0537728599832" x2="276.1224081751858" y2="804.9009272359843" style="stroke:rgb(0,0,255);stroke-width:1"/>
<line x1="276.1224081751858" y1="804.9009272359843" x2="200.7678050125213" y2="722.0537728599832" style="stroke:rgb(0,0,255);stroke-width:1"/>
<line x1="438.4415060568251" y1="810.557809257512" x2="347.6075314960591" y2="731.7946053195822" style="stroke:rgb(0,0,255);stroke-width:1"/>
<line x1="347.6075314960591" y1="731.7946053195822" x2="438.4415060568251" y2="810.557809257512" style="stroke:rgb(0,0,255);stroke-width:1"/>
<line x1="438.4415060568251" y1="810.557809257512" x2="276.1224081751858" y2="804.9009272359843" style="stroke:rgb(0,0,255);stroke-width:1"/>
<line x1="276.1224081751858" y1="804.9009272359843" x2="438.4415060568251" y2="810.557809257512" style="stroke:rgb(0,0,255);stroke-width:1"/>
<line x1="438.4415060568251" y1="810.557809257512" x2="482.41513761653994" y2="675.8143101698874" style="stroke:rgb(0,0,255);stroke-width:1"/>
<line x1="482.41513761653994" y1="675.8143101698874" x2="438.4415060568251" y2="810.557809257512" style="stroke:rgb(0,0,255);stroke-width:1"/>
<line x1="347.6075314960591" y1="731.7946053195822" x2="482.41513761653994" y2="675.8143101698874" style="stroke:rgb(0,0,255);stroke-width:1"/>
<line x1="482.41513761653994" y1="675.8143101698874" x2="347.6075314960591" y2="731.7946053195822" style="stroke:rgb(0,0,255);stroke-width:1"/>
<line x1="528.2610643723798" y1="369.81500513227206" x2="536.2311859086346" y2="538.0637926159114" style="stroke:rgb(0,0,255);stroke-width:1"/>
<line x1="536.2311859086346" y1="538.0637926159114" x2="528.2610643723798" y2="369.81500513227206" style="stroke:rgb(0,0,255);stroke-width:1"/>
<line x1="528.2610643723798" y1="369.81500513227206" x2="734.6323540269731" y2="444.20036914980005" style="stroke:rgb(0,0,255);stroke-width:1"/>
<line x1="734.6323540269731" y1="444.20036914980005" x2="528.2610643723798" y2="369.81500513227206" style="stroke:rgb(0,0,255);stroke-width:1"/>
<line x1="528.2610643723798" y1="369.81500513227206" x2="663.5601113408818" y2="457.68828737547824" style="stroke:rgb(0,0,255);stroke-width:1"/>
<line x1="663.5601113408818" y1="457.68828737547824" x2="528.2610643723798" y2="369.81500513227206" style="stroke:rgb(0,0,255);stroke-width:1"/>
<line x1="595.3470876824354" y1="694.1766897180552" x2="663.5601113408818" y2="457.68828737547824" style="stroke:rgb(0,0,255);stroke-width:1"/>
<line x1="663.5601113408818" y1="457.68828737547824" x2="595.3470876824354" y2="694.1766897180552" style="stroke:rgb(0,0,255);stroke-width:1"/>
<line x1="423.18535751583613" y1="429.1465880032682" x2="663.5601113408818" y2="457.68828737547824" style="stroke:rgb(0,0,255);stroke-width:1"/>
<line x1="663.5601113408818" y1="457.68828737547824" x2="423.18535751583613" y2="429.1465880032682" style="stroke:rgb(0,0,255);stroke-width:1"/>
<line x1="859.2991336888128" y1="324.88718040694005" x2="734.6323540269731" y2="444.20036914980005" style="stroke:rgb(0,0,255);stroke-width:1"/>
<line x1="734.6323540269731" y1="444.20036914980005" x2="859.2991336888128" y2="324.88718040694005" style="stroke:rgb(0,0,255);stroke-width:1"/>
<line x1="859.2991336888128" y1="324.88718040694005" x2="663.5601113408818" y2="457.68828737547824" style="stroke:rgb(0,0,255);stroke-width:1"/>
<line x1="663.5601113408818" y1="457.68828737547824" x2="859.2991336888128" y2="324.88718040694005" style="stroke:rgb(0,0,255);stroke-width:1"/>
<line x1="686.2882135950681" y1="688.2594958470584" x2="734.6323540269731" y2="444.20036914980005" style="stroke:rgb(0,0,255);stroke-width:1"/>
<line x1="734.6323540269731" y1="444.20036914980005" x2="686.2882135950681" y2="688.2594958470584" style="stroke:rgb(0,0,255);stroke-width:1"/>
<line x1="686.2882135950681" y1="688.2594958470584" x2="663.5601113408818" y2="457.68828737547824" style="stroke:rgb(0,0,255);stroke-width:1"/>
<line x1="663.5601113408818" y1="457.68828737547824" x2="686.2882135950681" y2="688.2594958470584" style="stroke:rgb(0,0,255);stroke-width:1"/>
<line x1="603.060442559758" y1="219.62189759768228" x2="734.6323540269731" y2="444.20036914980005" style="stroke:rgb(0,0,255);stroke-width:1"/>
<line x1="734.6323540269731" y1="444.20036914980005" x2="603.060442559758" y2="219.62189759768228" style="stroke:rgb(0,0,255);stroke-width:1"/>
<line x1="603.060442559758" y1="219.62189759768228" x2="663.5601113408818" y2="457.68828737547824" style="stroke:rgb(0,0,255);stroke-width:1"/>
<line x1="663.5601113408818" y1="457.68828737547824" x2="603.060442559758" y2="219.62189759768228" style="stroke:rgb(0,0,255);stroke-width:1"/>
<line x1="424.3290784891233" y1="581.3770381933297" x2="663.5601113408818" y2="457.68828737547824" style="stroke:rgb(0,0,255);stroke-width:1"/>
<line x1="663.5601113408818" y1="457.68828737547824" x2="424.3290784891233" y2="581.3770381933297" style="stroke:rgb(0,0,255);stroke-width:1"/>
<line x1="732.2902830150754" y1="259.93510642627416" x2="734.6323540269731" y2="444.20036914980005" style="stroke:rgb(0,0,255);stroke-width:1"/>
<line x1="734.6323540269731" y1="444.20036914980005" x2="732.2902830150754" y2="259.93510642627416" style="stroke:rgb(0,0,255);stroke-width:1"/>
<line x1="732.2902830150754" y1="259.93510642627416" x2="663.5601113408818" y2="457.68828737547824" style="stroke:rgb(0,0,255);stroke-width:1"/>
<line x1="663.5601113408818" y1="457.68828737547824" x2="732.2902830150754" y2="259.93510642627416" style="stroke:rgb(0,0,255);stroke-width:1"/>
<line x1="775.7932293324005" y1="688.0271669321962" x2="734.6323540269731" y2="444.20036914980005" style="stroke:rgb(0,0,255);stroke-width:1"/>
<line x1="734.6323540269731" y1="444.20036914980005" x2="775.7932293324005" y2="688.0271669321962" style="stroke:rgb(0,0,255);stroke-width:1"/>
<line x1="775.7932293324005" y1="688.0271669321962" x2="663.5601113408818" y2="457.68828737547824" style="stroke:rgb(0,0,255);stroke-width:1"/>
<line x1="663.5601113408818" y1="457.68828737547824" x2="775.7932293324005" y2="688.0271669321962" style="stroke:rgb(0,0,255);stroke-width:1"/>
<line x1="887.0256312032412" y1="487.9622489574382" x2="988.6652435500985" y2="571.330522334551" style="stroke:rgb(0,0,255);stroke-width:1"/>
<line x1="988.6652435500985" y1="571.330522334551" x2="887.0256312032412" y2="487.9622489574382" style="stroke:rgb(0,0,255);stroke-width:1"/>
<line x1="887.0256312032412" y1="487.9622489574382" x2="772.9739540098194" y2="580.7519305559707" style="stroke:rgb(0,0,255);stroke-width:1"/>
<line x1="772.9739540098194" y1="580.7519305559707" x2="887.0256312032412" y2="487.9622489574382" style="stroke:rgb(0,0,255);stroke-width:1"/>
<line x1="887.0256312032412" y1="487.9622489574382" x2="912.6206025902821" y2="391.0863871502237" style="stroke:rgb(0,0,255);stroke-width:1"/>
<line x1="912.6206025902821" y1="391.0863871502237" x2="887.0256312032412" y2="487.9622489574382" style="stroke:rgb(0,0,255);stroke-width:1"/>
<line x1="887.0256312032412" y1="487.9622489574382" x2="734.6323540269731" y2="444.20036914980005" style="stroke:rgb(0,0,255);stroke-width:1"/>
<line x1="734.6323540269731" y1="444.20036914980005" x2="887.0256312032412" y2="487.9622489574382" style="stroke:rgb(0,0,255);stroke-width:1"/>
<line x1="887.0256312032412" y1="487.9622489574382" x2="663.5601113408818" y2="457.68828737547824" style="stroke:rgb(0,0,255);stroke-width:1"/>
<line x1="663.5601113408818" y1="457.68828737547824" x2="887.0256312032412" y2="487.9622489574382" style="stroke:rgb(0,0,255);stroke-width:1"/>
<line x1="914.1380016825848" y1="687.2524044635747" x2="988.6652435500985" y2="571.330522334551" style="stroke:rgb(0,0,255);stroke-width:1"/>
<line x1="988.6652435500985" y1="571.330522334551" x2="914.1380016825848" y2="687.2524044635747" style="stroke:rgb(0,0,255);stroke-width:1"/>
<line x1="914.1380016825848" y1="687.2524044635747" x2="772.9739540098194" y2="580.7519305559707" style="stroke:rgb(0,0,255);stroke-width:1"/>
<line x1="772.9739540098194" y1="580.7519305559707" x2="914.1380016825848" y2="687.2524044635747" style="stroke:rgb(0,0,255);stroke-width:1"/>
<line x1="914.1380016825848" y1="687.2524044635747" x2="702.4876719957638" y2="540.6981365850369" style="stroke:rgb(0,0,255);stroke-width:1"/>
<line x1="702.4876719957638" y1="540.6981365850369" x2="914.1380016825848" y2="687.2524044635747" style="stroke:rgb(0,0,255);stroke-width:1"/>
<line x1="988.6652435500985" y1="571.330522334551" x2="702.4876719957638" y2="540.6981365850369" style="stroke:rgb(0,0,255);stroke-width:1"/>
<line x1="702.4876719957638" y1="540.6981365850369" x2="988.6652435500985" y2="571.330522334551" style="stroke:rgb(0,0,255);stroke-width:1"/>
<line x1="847.7753546270661" y1="220.6238439330059" x2="912.6206025902821" y2="391.0863871502237" style="stroke:rgb(0,0,255);stroke-width:1"/>
<line x1="912.6206025902821" y1="391.0863871502237" x2="847.7753546270661" y2="220.6238439330059" style="stroke:rgb(0,0,255);stroke-width:1"/>
<line x1="847.7753546270661" y1="220.6238439330059" x2="663.5601113408818" y2="457.68828737547824" style="stroke:rgb(0,0,255);stroke-width:1"/>
<line x1="663.5601113408818" y1="457.68828737547824" x2="847.7753546270661" y2="220.6238439330059" style="stroke:rgb(0,0,255);stroke-width:1"/>
<line x1="772.9739540098194" y1="580.7519305559707" x2="663.5601113408818" y2="457.68828737547824" style="stroke:rgb(0,0,255);stroke-width:1"/>
<line x1="663.5601113408818" y1="457.68828737547824" x2="772.9739540098194" y2="580.7519305559707" style="stroke:rgb(0,0,255);stroke-width:1"/>
<line x1="626.0556175240298" y1="324.6369845820538" x2="702.4876719957638" y2="540.6981365850369" style="stroke:rgb(0,0,255);stroke-width:1"/>
<line x1="702.4876719957638" y1="540.6981365850369" x2="626.0556175240298" y2="324.6369845820538" style="stroke:rgb(0,0,255);stroke-width:1"/>
<line x1="626.0556175240298" y1="324.6369845820538" x2="663.5601113408818" y2="457.68828737547824" style="stroke:rgb(0,0,255);stroke-width:1"/>
<line x1="663.5601113408818" y1="457.68828737547824" x2="626.0556175240298" y2="324.6369845820538" style="stroke:rgb(0,0,255);stroke-width:1"/>
<line x1="912.6206025902821" y1="391.0863871502237" x2="734.6323540269731" y2="444.20036914980005" style="stroke:rgb(0,0,255);stroke-width:1"/>
<line x1="734.6323540269731" y1="444.20036914980005" x2="912.6206025902821" y2="391.0863871502237" style="stroke:rgb(0,0,255);stroke-width:1"/>
<line x1="912.6206025902821" y1="391.0863871502237" x2="663.5601113408818" y2="457.68828737547824" style="stroke:rgb(0,0,255);stroke-width:1"/>
<line x1="663.5601113408818" y1="457.68828737547824" x2="912.6206025902821" y2="391.0863871502237" style="stroke:rgb(0,0,255);stroke-width:1"/>
<line x1="536.2311859086346" y1="538.0637926159114" x2="734.6323540269731" y2="444.20036914980005" style="stroke:rgb(0,0,255);stroke-width:1"/>
<line x1="734.6323540269731" y1="444.20036914980005" x2="536.2311859086346" y2="538.0637926159114" style="stroke:rgb(0,0,255);stroke-width:1"/>
<line x1="536.2311859086346" y1="538.0637926159114" x2="663.5601113408818" y2="457.68828737547824" style="stroke:rgb(0,0,255);stroke-width:1"/>
<line x1="663.5601113408818" y1="457.68828737547824" x2="536.2311859086346" y2="538.0637926159114" style="stroke:rgb(0,0,255);stroke-width:1"/>
<line x1="702.4876719957638" y1="540.6981365850369" x2="734.6323540269731" y2="444.20036914980005" style="stroke:rgb(0,0,255);stroke-width:1"/>
<line x1="734.6323540269731" y1="444.20036914980005" x2="702.4876719957638" y2="540.6981365850369" style="stroke:rgb(0,0,255);stroke-width:1"/>
<line x1="702.4876719957638" y1="540.6981365850369" x2="663.5601113408818" y2="457.68828737547824" style="stroke:rgb(0,0,255);stroke-width:1"/>
<line x1="663.5601113408818" y1="457.68828737547824" x2="702.4876719957638" y2="540.6981365850369" style="stroke:rgb(0,0,255);stroke-width:1"/>
<line x1="734.6323540269731" y1="444.20036914980005" x2="663.5601113408818" y2="457.68828737547824" style="stroke:rgb(0,0,255);stroke-width:1"/>
<line x1="663.5601113408818" y1="457.68828737547824" x2="734.6323540269731" y2="444.20036914980005" style="stroke:rgb(0,0,255);stroke-width:1"/>
</svg>
