<svg xmlns="http://www.w3.org/2000/svg" version="1.1" xmlns:xllink="http://www.w3.org/1999/xlink" width="1000" height="1000">
<ellipse cx="621.0223031544592" cy="571.7444507645704" rx="5.60" ry="5.60" style="fill:rgb(255,255,0);stroke:rgb(0,0,0);stroke-width:0.50;"/>
<ellipse cx="461.00418058240996" cy="544.532683081424" rx="5.60" ry="5.60" style="fill:rgb(255,255,0);stroke:rgb(0,0,0);stroke-width:0.50;"/>
<ellipse cx="565.3276098946474" cy="557.0816814942641" rx="5.60" ry="5.60" style="fill:rgb(255,255,0);stroke:rgb(0,0,0);stroke-width:0.50;"/>
<ellipse cx="422.49834209168205" cy="354.3841925722273" rx="5.60" ry="5.60" style="fill:rgb(255,255,0);stroke:rgb(0,0,0);stroke-width:0.50;"/>
<ellipse cx="451.7678050125213" cy="470.05377285998316" rx="5.60" ry="5.60" style="fill:rgb(255,255,0);stroke:rgb(0,0,0);stroke-width:0.50;"/>
<ellipse cx="743.4415060568251" cy="490.557809257512" rx="5.60" ry="5.60" style="fill:rgb(255,255,0);stroke:rgb(0,0,0);stroke-width:0.50;"/>
<ellipse cx="759.6075314960591" cy="630.7946053195822" rx="5.60" ry="5.60" style="fill:rgb(255,255,0);stroke:rgb(0,0,0);stroke-width:0.50;"/>
<ellipse cx="736.5592707148965" cy="575.4994716235334" rx="5.60" ry="5.60" style="fill:rgb(255,255,0);stroke:rgb(0,0,0);stroke-width:0.50;"/>
<ellipse cx="480.2610643723798" cy="405.81500513227206" rx="5.60" ry="5.60" style="fill:rgb(255,255,0);stroke:rgb(0,0,0);stroke-width:0.50;"/>
<ellipse cx="612.1224081751858" cy="664.9009272359843" rx="5.60" ry="5.60" style="fill:rgb(255,255,0);stroke:rgb(0,0,0);stroke-width:0.50;"/>
<ellipse cx="657.9570749376263" cy="333.1030596967298" rx="5.60" ry="5.60" style="fill:rgb(255,255,0);stroke:rgb(0,0,0);stroke-width:0.50;"/>
<ellipse cx="539.7846816196735" cy="344.9882668500301" rx="5.60" ry="5.60" style="fill:rgb(255,255,0);stroke:rgb(0,0,0);stroke-width:0.50;"/>
<ellipse cx="343.18535751583613" cy="531.1465880032682" rx="5.60" ry="5.60" style="fill:rgb(255,255,0);stroke:rgb(0,0,0);stroke-width:0.50;"/>
<ellipse cx="462.9698398085101" cy="337.3523701167976" rx="5.60" ry="5.60" style="fill:rgb(255,255,0);stroke:rgb(0,0,0);stroke-width:0.50;"/>
<ellipse cx="429.3290784891233" cy="665.3770381933297" rx="5.60" ry="5.60" style="fill:rgb(255,255,0);stroke:rgb(0,0,0);stroke-width:0.50;"/>
<ellipse cx="333.3558700891101" cy="587.9963041961464" rx="5.60" ry="5.60" style="fill:rgb(255,255,0);stroke:rgb(0,0,0);stroke-width:0.50;"/>
<ellipse cx="618.4876719957638" cy="433.6981365850369" rx="5.60" ry="5.60" style="fill:rgb(255,255,0);stroke:rgb(0,0,0);stroke-width:0.50;"/>
<ellipse cx="336.23118590863464" cy="632.0637926159114" rx="5.60" ry="5.60" style="fill:rgb(255,255,0);stroke:rgb(0,0,0);stroke-width:0.50;"/>
<ellipse cx="339.34708768243536" cy="668.1766897180552" rx="5.60" ry="5.60" style="fill:rgb(255,255,0);stroke:rgb(0,0,0);stroke-width:0.50;"/>
<ellipse cx="769.9739540098194" cy="445.7519305559707" rx="5.60" ry="5.60" style="fill:rgb(255,255,0);stroke:rgb(0,0,0);stroke-width:0.50;"/>
<ellipse cx="330.0556175240298" cy="342.6369845820538" rx="5.60" ry="5.60" style="fill:rgb(255,255,0);stroke:rgb(0,0,0);stroke-width:0.50;"/>
<ellipse cx="540.6323540269731" cy="546.2003691498" rx="5.60" ry="5.60" style="fill:rgb(255,255,0);stroke:rgb(0,0,0);stroke-width:0.50;"/>
<ellipse cx="378.41513761653994" cy="429.81431016988745" rx="5.60" ry="5.60" style="fill:rgb(255,255,0);stroke:rgb(0,0,0);stroke-width:0.50;"/>
<ellipse cx="535.5601113408818" cy="445.6882873754782" rx="5.60" ry="5.60" style="fill:rgb(255,255,0);stroke:rgb(0,0,0);stroke-width:0.50;"/>
<ellipse cx="756.2991336888128" cy="390.88718040694005" rx="5.60" ry="5.60" style="fill:rgb(255,255,0);stroke:rgb(0,0,0);stroke-width:0.50;"/>
<ellipse cx="552.2882135950681" cy="658.2594958470584" rx="5.60" ry="5.60" style="fill:rgb(255,255,0);stroke:rgb(0,0,0);stroke-width:0.50;"/>
<ellipse cx="339.06044255975803" cy="477.6218975976823" rx="5.60" ry="5.60" style="fill:rgb(255,255,0);stroke:rgb(0,0,0);stroke-width:0.50;"/>
<ellipse cx="708.2902830150754" cy="331.93510642627416" rx="5.60" ry="5.60" style="fill:rgb(255,255,0);stroke:rgb(0,0,0);stroke-width:0.50;"/>
<ellipse cx="711.7932293324005" cy="663.0271669321962" rx="5.60" ry="5.60" style="fill:rgb(255,255,0);stroke:rgb(0,0,0);stroke-width:0.50;"/>
<ellipse cx="768.0256312032412" cy="345.9622489574382" rx="5.60" ry="5.60" style="fill:rgb(255,255,0);stroke:rgb(0,0,0);stroke-width:0.50;"/>
<ellipse cx="764.6652435500985" cy="533.330522334551" rx="5.60" ry="5.60" style="fill:rgb(255,255,0);stroke:rgb(0,0,0);stroke-width:0.50;"/>
<ellipse cx="507.62060259028215" cy="656.0863871502237" rx="5.60" ry="5.60" style="fill:rgb(255,255,0);stroke:rgb(0,0,0);stroke-width:0.50;"/>
<ellipse cx="681.1380016825848" cy="668.2524044635747" rx="5.60" ry="5.60" style="fill:rgb(255,255,0);stroke:rgb(0,0,0);stroke-width:0.50;"/>
<ellipse cx="598.7753546270661" cy="345.6238439330059" rx="5.60" ry="5.60" style="fill:rgb(255,255,0);stroke:rgb(0,0,0);stroke-width:0.50;"/>
<line x1="621.0223031544592" y1="571.7444507645704" x2="461.00418058240996" y2="544.532683081424" style="stroke:rgb(0,0,255);stroke-width:1"/>
<line x1="461.00418058240996" y1="544.532683081424" x2="621.0223031544592" y2="571.7444507645704" style="stroke:rgb(0,0,255);stroke-width:1"/>
<line x1="621.0223031544592" y1="571.7444507645704" x2="565.3276098946474" y2="557.0816814942641" style="stroke:rgb(0,0,255);stroke-width:1"/>
<line x1="565.3276098946474" y1="557.0816814942641" x2="621.0223031544592" y2="571.7444507645704" style="stroke:rgb(0,0,255);stroke-width:1"/>
<line x1="621.0223031544592" y1="571.7444507645704" x2="422.49834209168205" y2="354.3841925722273" style="stroke:rgb(0,0,255);stroke-width:1"/>
<line x1="422.49834209168205" y1="354.3841925722273" x2="621.0223031544592" y2="571.7444507645704" style="stroke:rgb(0,0,255);stroke-width:1"/>
<line x1="621.0223031544592" y1="571.7444507645704" x2="451.7678050125213" y2="470.05377285998316" style="stroke:rgb(0,0,255);stroke-width:1"/>
<line x1="451.7678050125213" y1="470.05377285998316" x2="621.0223031544592" y2="571.7444507645704" style="stroke:rgb(0,0,255);stroke-width:1"/>
<line x1="621.0223031544592" y1="571.7444507645704" x2="743.4415060568251" y2="490.557809257512" style="stroke:rgb(0,0,255);stroke-width:1"/>
<line x1="743.4415060568251" y1="490.557809257512" x2="621.0223031544592" y2="571.7444507645704" style="stroke:rgb(0,0,255);stroke-width:1"/>
<line x1="621.0223031544592" y1="571.7444507645704" x2="759.6075314960591" y2="630.7946053195822" style="stroke:rgb(0,0,255);stroke-width:1"/>
<line x1="759.6075314960591" y1="630.7946053195822" x2="621.0223031544592" y2="571.7444507645704" style="stroke:rgb(0,0,255);stroke-width:1"/>
<line x1="621.0223031544592" y1="571.7444507645704" x2="736.5592707148965" y2="575.4994716235334" style="stroke:rgb(0,0,255);stroke-width:1"/>
<line x1="736.5592707148965" y1="575.4994716235334" x2="621.0223031544592" y2="571.7444507645704" style="stroke:rgb(0,0,255);stroke-width:1"/>
<line x1="621.0223031544592" y1="571.7444507645704" x2="480.2610643723798" y2="405.81500513227206" style="stroke:rgb(0,0,255);stroke-width:1"/>
<line x1="480.2610643723798" y1="405.81500513227206" x2="621.0223031544592" y2="571.7444507645704" style="stroke:rgb(0,0,255);stroke-width:1"/>
<line x1="621.0223031544592" y1="571.7444507645704" x2="612.1224081751858" y2="664.9009272359843" style="stroke:rgb(0,0,255);stroke-width:1"/>
<line x1="612.1224081751858" y1="664.9009272359843" x2="621.0223031544592" y2="571.7444507645704" style="stroke:rgb(0,0,255);stroke-width:1"/>
<line x1="621.0223031544592" y1="571.7444507645704" x2="657.9570749376263" y2="333.1030596967298" style="stroke:rgb(0,0,255);stroke-width:1"/>
<line x1="657.9570749376263" y1="333.1030596967298" x2="621.0223031544592" y2="571.7444507645704" style="stroke:rgb(0,0,255);stroke-width:1"/>
<line x1="621.0223031544592" y1="571.7444507645704" x2="539.7846816196735" y2="344.9882668500301" style="stroke:rgb(0,0,255);stroke-width:1"/>
<line x1="539.7846816196735" y1="344.9882668500301" x2="621.0223031544592" y2="571.7444507645704" style="stroke:rgb(0,0,255);stroke-width:1"/>
<line x1="621.0223031544592" y1="571.7444507645704" x2="343.18535751583613" y2="531.1465880032682" style="stroke:rgb(0,0,255);stroke-width:1"/>
<line x1="343.18535751583613" y1="531.1465880032682" x2="621.0223031544592" y2="571.7444507645704" style="stroke:rgb(0,0,255);stroke-width:1"/>
<line x1="621.0223031544592" y1="571.7444507645704" x2="462.9698398085101" y2="337.3523701167976" style="stroke:rgb(0,0,255);stroke-width:1"/>
<line x1="462.9698398085101" y1="337.3523701167976" x2="621.0223031544592" y2="571.7444507645704" style="stroke:rgb(0,0,255);stroke-width:1"/>
<line x1="621.0223031544592" y1="571.7444507645704" x2="429.3290784891233" y2="665.3770381933297" style="stroke:rgb(0,0,255);stroke-width:1"/>
<line x1="429.3290784891233" y1="665.3770381933297" x2="621.0223031544592" y2="571.7444507645704" style="stroke:rgb(0,0,255);stroke-width:1"/>
<line x1="621.0223031544592" y1="571.7444507645704" x2="333.3558700891101" y2="587.9963041961464" style="stroke:rgb(0,0,255);stroke-width:1"/>
<line x1="333.3558700891101" y1="587.9963041961464" x2="621.0223031544592" y2="571.7444507645704" style="stroke:rgb(0,0,255);stroke-width:1"/>
<line x1="621.0223031544592" y1="571.7444507645704" x2="618.4876719957638" y2="433.6981365850369" style="stroke:rgb(0,0,255);stroke-width:1"/>
<line x1="618.4876719957638" y1="433.6981365850369" x2="621.0223031544592" y2="571.7444507645704" style="stroke:rgb(0,0,255);stroke-width:1"/>
<line x1="461.00418058240996" y1="544.532683081424" x2="565.3276098946474" y2="557.0816814942641" style="stroke:rgb(0,0,255);stroke-width:1"/>
<line x1="565.3276098946474" y1="557.0816814942641" x2="461.00418058240996" y2="544.532683081424" style="stroke:rgb(0,0,255);stroke-width:1"/>
<line x1="461.00418058240996" y1="544.532683081424" x2="422.49834209168205" y2="354.3841925722273" style="stroke:rgb(0,0,255);stroke-width:1"/>
<line x1="422.49834209168205" y1="354.3841925722273" x2="461.00418058240996" y2="544.532683081424" style="stroke:rgb(0,0,255);stroke-width:1"/>
<line x1="461.00418058240996" y1="544.532683081424" x2="736.5592707148965" y2="575.4994716235334" style="stroke:rgb(0,0,255);stroke-width:1"/>
<line x1="736.5592707148965" y1="575.4994716235334" x2="461.00418058240996" y2="544.532683081424" style="stroke:rgb(0,0,255);stroke-width:1"/>
<line x1="461.00418058240996" y1="544.532683081424" x2="343.18535751583613" y2="531.1465880032682" style="stroke:rgb(0,0,255);stroke-width:1"/>
<line x1="343.18535751583613" y1="531.1465880032682" x2="461.00418058240996" y2="544.532683081424" style="stroke:rgb(0,0,255);stroke-width:1"/>
<line x1="461.00418058240996" y1="544.532683081424" x2="462.9698398085101" y2="337.3523701167976" style="stroke:rgb(0,0,255);stroke-width:1"/>
<line x1="462.9698398085101" y1="337.3523701167976" x2="461.00418058240996" y2="544.532683081424" style="stroke:rgb(0,0,255);stroke-width:1"/>
<line x1="461.00418058240996" y1="544.532683081424" x2="429.3290784891233" y2="665.3770381933297" style="stroke:rgb(0,0,255);stroke-width:1"/>
<line x1="429.3290784891233" y1="665.3770381933297" x2="461.00418058240996" y2="544.532683081424" style="stroke:rgb(0,0,255);stroke-width:1"/>
<line x1="461.00418058240996" y1="544.532683081424" x2="333.3558700891101" y2="587.9963041961464" style="stroke:rgb(0,0,255);stroke-width:1"/>
<line x1="333.3558700891101" y1="587.9963041961464" x2="461.00418058240996" y2="544.532683081424" style="stroke:rgb(0,0,255);stroke-width:1"/>
<line x1="461.00418058240996" y1="544.532683081424" x2="336.23118590863464" y2="632.0637926159114" style="stroke:rgb(0,0,255);stroke-width:1"/>
<line x1="336.23118590863464" y1="632.0637926159114" x2="461.00418058240996" y2="544.532683081424" style="stroke:rgb(0,0,255);stroke-width:1"/>
<line x1="565.3276098946474" y1="557.0816814942641" x2="422.49834209168205" y2="354.3841925722273" style="stroke:rgb(0,0,255);stroke-width:1"/>
<line x1="422.49834209168205" y1="354.3841925722273" x2="565.3276098946474" y2="557.0816814942641" style="stroke:rgb(0,0,255);stroke-width:1"/>
<line x1="565.3276098946474" y1="557.0816814942641" x2="736.5592707148965" y2="575.4994716235334" style="stroke:rgb(0,0,255);stroke-width:1"/>
<line x1="736.5592707148965" y1="575.4994716235334" x2="565.3276098946474" y2="557.0816814942641" style="stroke:rgb(0,0,255);stroke-width:1"/>
<line x1="565.3276098946474" y1="557.0816814942641" x2="480.2610643723798" y2="405.81500513227206" style="stroke:rgb(0,0,255);stroke-width:1"/>
<line x1="480.2610643723798" y1="405.81500513227206" x2="565.3276098946474" y2="557.0816814942641" style="stroke:rgb(0,0,255);stroke-width:1"/>
<line x1="565.3276098946474" y1="557.0816814942641" x2="339.34708768243536" y2="668.1766897180552" style="stroke:rgb(0,0,255);stroke-width:1"/>
<line x1="339.34708768243536" y1="668.1766897180552" x2="565.3276098946474" y2="557.0816814942641" style="stroke:rgb(0,0,255);stroke-width:1"/>
<line x1="565.3276098946474" y1="557.0816814942641" x2="343.18535751583613" y2="531.1465880032682" style="stroke:rgb(0,0,255);stroke-width:1"/>
<line x1="343.18535751583613" y1="531.1465880032682" x2="565.3276098946474" y2="557.0816814942641" style="stroke:rgb(0,0,255);stroke-width:1"/>
<line x1="565.3276098946474" y1="557.0816814942641" x2="769.9739540098194" y2="445.7519305559707" style="stroke:rgb(0,0,255);stroke-width:1"/>
<line x1="769.9739540098194" y1="445.7519305559707" x2="565.3276098946474" y2="557.0816814942641" style="stroke:rgb(0,0,255);stroke-width:1"/>
<line x1="565.3276098946474" y1="557.0816814942641" x2="330.0556175240298" y2="342.6369845820538" style="stroke:rgb(0,0,255);stroke-width:1"/>
<line x1="330.0556175240298" y1="342.6369845820538" x2="565.3276098946474" y2="557.0816814942641" style="stroke:rgb(0,0,255);stroke-width:1"/>
<line x1="565.3276098946474" y1="557.0816814942641" x2="540.6323540269731" y2="546.2003691498" style="stroke:rgb(0,0,255);stroke-width:1"/>
<line x1="540.6323540269731" y1="546.2003691498" x2="565.3276098946474" y2="557.0816814942641" style="stroke:rgb(0,0,255);stroke-width:1"/>
<line x1="422.49834209168205" y1="354.3841925722273" x2="736.5592707148965" y2="575.4994716235334" style="stroke:rgb(0,0,255);stroke-width:1"/>
<line x1="736.5592707148965" y1="575.4994716235334" x2="422.49834209168205" y2="354.3841925722273" style="stroke:rgb(0,0,255);stroke-width:1"/>
<line x1="422.49834209168205" y1="354.3841925722273" x2="539.7846816196735" y2="344.9882668500301" style="stroke:rgb(0,0,255);stroke-width:1"/>
<line x1="539.7846816196735" y1="344.9882668500301" x2="422.49834209168205" y2="354.3841925722273" style="stroke:rgb(0,0,255);stroke-width:1"/>
<line x1="422.49834209168205" y1="354.3841925722273" x2="343.18535751583613" y2="531.1465880032682" style="stroke:rgb(0,0,255);stroke-width:1"/>
<line x1="343.18535751583613" y1="531.1465880032682" x2="422.49834209168205" y2="354.3841925722273" style="stroke:rgb(0,0,255);stroke-width:1"/>
<line x1="451.7678050125213" y1="470.05377285998316" x2="759.6075314960591" y2="630.7946053195822" style="stroke:rgb(0,0,255);stroke-width:1"/>
<line x1="759.6075314960591" y1="630.7946053195822" x2="451.7678050125213" y2="470.05377285998316" style="stroke:rgb(0,0,255);stroke-width:1"/>
<line x1="451.7678050125213" y1="470.05377285998316" x2="612.1224081751858" y2="664.9009272359843" style="stroke:rgb(0,0,255);stroke-width:1"/>
<line x1="612.1224081751858" y1="664.9009272359843" x2="451.7678050125213" y2="470.05377285998316" style="stroke:rgb(0,0,255);stroke-width:1"/>
<line x1="743.4415060568251" y1="490.557809257512" x2="759.6075314960591" y2="630.7946053195822" style="stroke:rgb(0,0,255);stroke-width:1"/>
<line x1="759.6075314960591" y1="630.7946053195822" x2="743.4415060568251" y2="490.557809257512" style="stroke:rgb(0,0,255);stroke-width:1"/>
<line x1="743.4415060568251" y1="490.557809257512" x2="612.1224081751858" y2="664.9009272359843" style="stroke:rgb(0,0,255);stroke-width:1"/>
<line x1="612.1224081751858" y1="664.9009272359843" x2="743.4415060568251" y2="490.557809257512" style="stroke:rgb(0,0,255);stroke-width:1"/>
<line x1="743.4415060568251" y1="490.557809257512" x2="378.41513761653994" y2="429.81431016988745" style="stroke:rgb(0,0,255);stroke-width:1"/>
<line x1="378.41513761653994" y1="429.81431016988745" x2="743.4415060568251" y2="490.557809257512" style="stroke:rgb(0,0,255);stroke-width:1"/>
<line x1="759.6075314960591" y1="630.7946053195822" x2="378.41513761653994" y2="429.81431016988745" style="stroke:rgb(0,0,255);stroke-width:1"/>
<line x1="378.41513761653994" y1="429.81431016988745" x2="759.6075314960591" y2="630.7946053195822" style="stroke:rgb(0,0,255);stroke-width:1"/>
<line x1="480.2610643723798" y1="405.81500513227206" x2="336.23118590863464" y2="632.0637926159114" style="stroke:rgb(0,0,255);stroke-width:1"/>
<line x1="336.23118590863464" y1="632.0637926159114" x2="480.2610643723798" y2="405.81500513227206" style="stroke:rgb(0,0,255);stroke-width:1"/>
<line x1="480.2610643723798" y1="405.81500513227206" x2="540.6323540269731" y2="546.2003691498" style="stroke:rgb(0,0,255);stroke-width:1"/>
<line x1="540.6323540269731" y1="546.2003691498" x2="480.2610643723798" y2="405.81500513227206" style="stroke:rgb(0,0,255);stroke-width:1"/>
<line x1="480.2610643723798" y1="405.81500513227206" x2="535.5601113408818" y2="445.6882873754782" style="stroke:rgb(0,0,255);stroke-width:1"/>
<line x1="535.5601113408818" y1="445.6882873754782" x2="480.2610643723798" y2="405.81500513227206" style="stroke:rgb(0,0,255);stroke-width:1"/>
<line x1="339.34708768243536" y1="668.1766897180552" x2="535.5601113408818" y2="445.6882873754782" style="stroke:rgb(0,0,255);stroke-width:1"/>
<line x1="535.5601113408818" y1="445.6882873754782" x2="339.34708768243536" y2="668.1766897180552" style="stroke:rgb(0,0,255);stroke-width:1"/>
<line x1="343.18535751583613" y1="531.1465880032682" x2="535.5601113408818" y2="445.6882873754782" style="stroke:rgb(0,0,255);stroke-width:1"/>
<line x1="535.5601113408818" y1="445.6882873754782" x2="343.18535751583613" y2="531.1465880032682" style="stroke:rgb(0,0,255);stroke-width:1"/>
<line x1="756.2991336888128" y1="390.88718040694005" x2="540.6323540269731" y2="546.2003691498" style="stroke:rgb(0,0,255);stroke-width:1"/>
<line x1="540.6323540269731" y1="546.2003691498" x2="756.2991336888128" y2="390.88718040694005" style="stroke:rgb(0,0,255);stroke-width:1"/>
<line x1="756.2991336888128" y1="390.88718040694005" x2="535.5601113408818" y2="445.6882873754782" style="stroke:rgb(0,0,255);stroke-width:1"/>
<line x1="535.5601113408818" y1="445.6882873754782" x2="756.2991336888128" y2="390.88718040694005" style="stroke:rgb(0,0,255);stroke-width:1"/>
<line x1="552.2882135950681" y1="658.2594958470584" x2="540.6323540269731" y2="546.2003691498" style="stroke:rgb(0,0,255);stroke-width:1"/>
<line x1="540.6323540269731" y1="546.2003691498" x2="552.2882135950681" y2="658.2594958470584" style="stroke:rgb(0,0,255);stroke-width:1"/>
<line x1="552.2882135950681" y1="658.2594958470584" x2="535.5601113408818" y2="445.6882873754782" style="stroke:rgb(0,0,255);stroke-width:1"/>
<line x1="535.5601113408818" y1="445.6882873754782" x2="552.2882135950681" y2="658.2594958470584" style="stroke:rgb(0,0,255);stroke-width:1"/>
<line x1="339.06044255975803" y1="477.6218975976823" x2="540.6323540269731" y2="546.2003691498" style="stroke:rgb(0,0,255);stroke-width:1"/>
<line x1="540.6323540269731" y1="546.2003691498" x2="339.06044255975803" y2="477.6218975976823" style="stroke:rgb(0,0,255);stroke-width:1"/>
<line x1="339.06044255975803" y1="477.6218975976823" x2="535.5601113408818" y2="445.6882873754782" style="stroke:rgb(0,0,255);stroke-width:1"/>
<line x1="535.5601113408818" y1="445.6882873754782" x2="339.06044255975803" y2="477.6218975976823" style="stroke:rgb(0,0,255);stroke-width:1"/>
<line x1="429.3290784891233" y1="665.3770381933297" x2="535.5601113408818" y2="445.6882873754782" style="stroke:rgb(0,0,255);stroke-width:1"/>
<line x1="535.5601113408818" y1="445.6882873754782" x2="429.3290784891233" y2="665.3770381933297" style="stroke:rgb(0,0,255);stroke-width:1"/>
<line x1="708.2902830150754" y1="331.93510642627416" x2="540.6323540269731" y2="546.2003691498" style="stroke:rgb(0,0,255);stroke-width:1"/>
<line x1="540.6323540269731" y1="546.2003691498" x2="708.2902830150754" y2="331.93510642627416" style="stroke:rgb(0,0,255);stroke-width:1"/>
<line x1="708.2902830150754" y1="331.93510642627416" x2="535.5601113408818" y2="445.6882873754782" style="stroke:rgb(0,0,255);stroke-width:1"/>
<line x1="535.5601113408818" y1="445.6882873754782" x2="708.2902830150754" y2="331.93510642627416" style="stroke:rgb(0,0,255);stroke-width:1"/>
<line x1="711.7932293324005" y1="663.0271669321962" x2="540.6323540269731" y2="546.2003691498" style="stroke:rgb(0,0,255);stroke-width:1"/>
<line x1="540.6323540269731" y1="546.2003691498" x2="711.7932293324005" y2="663.0271669321962" style="stroke:rgb(0,0,255);stroke-width:1"/>
<line x1="711.7932293324005" y1="663.0271669321962" x2="535.5601113408818" y2="445.6882873754782" style="stroke:rgb(0,0,255);stroke-width:1"/>
<line x1="535.5601113408818" y1="445.6882873754782" x2="711.7932293324005" y2="663.0271669321962" style="stroke:rgb(0,0,255);stroke-width:1"/>
<line x1="768.0256312032412" y1="345.9622489574382" x2="764.6652435500985" y2="533.330522334551" style="stroke:rgb(0,0,255);stroke-width:1"/>
<line x1="764.6652435500985" y1="533.330522334551" x2="768.0256312032412" y2="345.9622489574382" style="stroke:rgb(0,0,255);stroke-width:1"/>
<line x1="768.0256312032412" y1="345.9622489574382" x2="769.9739540098194" y2="445.7519305559707" style="stroke:rgb(0,0,255);stroke-width:1"/>
<line x1="769.9739540098194" y1="445.7519305559707" x2="768.0256312032412" y2="345.9622489574382" style="stroke:rgb(0,0,255);stroke-width:1"/>
<line x1="768.0256312032412" y1="345.9622489574382" x2="507.62060259028215" y2="656.0863871502237" style="stroke:rgb(0,0,255);stroke-width:1"/>
<line x1="507.62060259028215" y1="656.0863871502237" x2="768.0256312032412" y2="345.9622489574382" style="stroke:rgb(0,0,255);stroke-width:1"/>
<line x1="768.0256312032412" y1="345.9622489574382" x2="540.6323540269731" y2="546.2003691498" style="stroke:rgb(0,0,255);stroke-width:1"/>
<line x1="540.6323540269731" y1="546.2003691498" x2="768.0256312032412" y2="345.9622489574382" style="stroke:rgb(0,0,255);stroke-width:1"/>
<line x1="768.0256312032412" y1="345.9622489574382" x2="535.5601113408818" y2="445.6882873754782" style="stroke:rgb(0,0,255);stroke-width:1"/>
<line x1="535.5601113408818" y1="445.6882873754782" x2="768.0256312032412" y2="345.9622489574382" style="stroke:rgb(0,0,255);stroke-width:1"/>
<line x1="681.1380016825848" y1="668.2524044635747" x2="764.6652435500985" y2="533.330522334551" style="stroke:rgb(0,0,255);stroke-width:1"/>
<line x1="764.6652435500985" y1="533.330522334551" x2="681.1380016825848" y2="668.2524044635747" style="stroke:rgb(0,0,255);stroke-width:1"/>
<line x1="681.1380016825848" y1="668.2524044635747" x2="769.9739540098194" y2="445.7519305559707" style="stroke:rgb(0,0,255);stroke-width:1"/>
<line x1="769.9739540098194" y1="445.7519305559707" x2="681.1380016825848" y2="668.2524044635747" style="stroke:rgb(0,0,255);stroke-width:1"/>
<line x1="681.1380016825848" y1="668.2524044635747" x2="618.4876719957638" y2="433.6981365850369" style="stroke:rgb(0,0,255);stroke-width:1"/>
<line x1="618.4876719957638" y1="433.6981365850369" x2="681.1380016825848" y2="668.2524044635747" style="stroke:rgb(0,0,255);stroke-width:1"/>
<line x1="764.6652435500985" y1="533.330522334551" x2="618.4876719957638" y2="433.6981365850369" style="stroke:rgb(0,0,255);stroke-width:1"/>
<line x1="618.4876719957638" y1="433.6981365850369" x2="764.6652435500985" y2="533.330522334551" style="stroke:rgb(0,0,255);stroke-width:1"/>
<line x1="598.7753546270661" y1="345.6238439330059" x2="507.62060259028215" y2="656.0863871502237" style="stroke:rgb(0,0,255);stroke-width:1"/>
<line x1="507.62060259028215" y1="656.0863871502237" x2="598.7753546270661" y2="345.6238439330059" style="stroke:rgb(0,0,255);stroke-width:1"/>
<line x1="598.7753546270661" y1="345.6238439330059" x2="535.5601113408818" y2="445.6882873754782" style="stroke:rgb(0,0,255);stroke-width:1"/>
<line x1="535.5601113408818" y1="445.6882873754782" x2="598.7753546270661" y2="345.6238439330059" style="stroke:rgb(0,0,255);stroke-width:1"/>
<line x1="769.9739540098194" y1="445.7519305559707" x2="535.5601113408818" y2="445.6882873754782" style="stroke:rgb(0,0,255);stroke-width:1"/>
<line x1="535.5601113408818" y1="445.6882873754782" x2="769.9739540098194" y2="445.7519305559707" style="stroke:rgb(0,0,255);stroke-width:1"/>
<line x1="330.0556175240298" y1="342.6369845820538" x2="618.4876719957638" y2="433.6981365850369" style="stroke:rgb(0,0,255);stroke-width:1"/>
<line x1="618.4876719957638" y1="433.6981365850369" x2="330.0556175240298" y2="342.6369845820538" style="stroke:rgb(0,0,255);stroke-width:1"/>
<line x1="330.0556175240298" y1="342.6369845820538" x2="535.5601113408818" y2="445.6882873754782" style="stroke:rgb(0,0,255);stroke-width:1"/>
<line x1="535.5601113408818" y1="445.6882873754782" x2="330.0556175240298" y2="342.6369845820538" style="stroke:rgb(0,0,255);stroke-width:1"/>
<line x1="507.62060259028215" y1="656.0863871502237" x2="540.6323540269731" y2="546.2003691498" style="stroke:rgb(0,0,255);stroke-width:1"/>
<line x1="540.6323540269731" y1="546.2003691498" x2="507.62060259028215" y2="656.0863871502237" style="stroke:rgb(0,0,255);stroke-width:1"/>
<line x1="507.62060259028215" y1="656.0863871502237" x2="535.5601113408818" y2="445.6882873754782" style="stroke:rgb(0,0,255);stroke-width:1"/>
<line x1="535.5601113408818" y1="445.6882873754782" x2="507.62060259028215" y2="656.0863871502237" style="stroke:rgb(0,0,255);stroke-width:1"/>
<line x1="336.23118590863464" y1="632.0637926159114" x2="540.6323540269731" y2="546.2003691498" style="stroke:rgb(0,0,255);stroke-width:1"/>
<line x1="540.6323540269731" y1="546.2003691498" x2="336.23118590863464" y2="632.0637926159114" style="stroke:rgb(0,0,255);stroke-width:1"/>
<line x1="336.23118590863464" y1="632.0637926159114" x2="535.5601113408818" y2="445.6882873754782" style="stroke:rgb(0,0,255);stroke-width:1"/>
<line x1="535.5601113408818" y1="445.6882873754782" x2="336.23118590863464" y2="632.0637926159114" style="stroke:rgb(0,0,255);stroke-width:1"/>
<line x1="618.4876719957638" y1="433.6981365850369" x2="540.6323540269731" y2="546.2003691498" style="stroke:rgb(0,0,255);stroke-width:1"/>
<line x1="540.6323540269731" y1="546.2003691498" x2="618.4876719957638" y2="433.6981365850369" style="stroke:rgb(0,0,255);stroke-width:1"/>
<line x1="618.4876719957638" y1="433.6981365850369" x2="535.5601113408818" y2="445.6882873754782" style="stroke:rgb(0,0,255);stroke-width:1"/>
<line x1="535.5601113408818" y1="445.6882873754782" x2="618.4876719957638" y2="433.6981365850369" style="stroke:rgb(0,0,255);stroke-width:1"/>
<line x1="540.6323540269731" y1="546.2003691498" x2="535.5601113408818" y2="445.6882873754782" style="stroke:rgb(0,0,255);stroke-width:1"/>
<line x1="535.5601113408818" y1="445.6882873754782" x2="540.6323540269731" y2="546.2003691498" style="stroke:rgb(0,0,255);stroke-width:1"/>
</svg>
