<svg xmlns="http://www.w3.org/2000/svg" version="1.1" xmlns:xllink="http://www.w3.org/1999/xlink" width="1000" height="1000">
<ellipse cx="673.0223031544592" cy="610.7444507645704" rx="5.60" ry="5.60" style="fill:rgb(255,255,0);stroke:rgb(0,0,0);stroke-width:0.50;"/>
<ellipse cx="449.00418058240996" cy="511.53268308142395" rx="5.60" ry="5.60" style="fill:rgb(255,255,0);stroke:rgb(0,0,0);stroke-width:0.50;"/>
<ellipse cx="593.3276098946474" cy="596.0816814942641" rx="5.60" ry="5.60" style="fill:rgb(255,255,0);stroke:rgb(0,0,0);stroke-width:0.50;"/>
<ellipse cx="426.49834209168205" cy="369.3841925722273" rx="5.60" ry="5.60" style="fill:rgb(255,255,0);stroke:rgb(0,0,0);stroke-width:0.50;"/>
<ellipse cx="399.7678050125213" cy="431.05377285998316" rx="5.60" ry="5.60" style="fill:rgb(255,255,0);stroke:rgb(0,0,0);stroke-width:0.50;"/>
<ellipse cx="715.4415060568251" cy="475.557809257512" rx="5.60" ry="5.60" style="fill:rgb(255,255,0);stroke:rgb(0,0,0);stroke-width:0.50;"/>
<ellipse cx="715.6075314960591" cy="591.7946053195822" rx="5.60" ry="5.60" style="fill:rgb(255,255,0);stroke:rgb(0,0,0);stroke-width:0.50;"/>
<ellipse cx="708.5592707148965" cy="548.4994716235334" rx="5.60" ry="5.60" style="fill:rgb(255,255,0);stroke:rgb(0,0,0);stroke-width:0.50;"/>
<ellipse cx="484.2610643723798" cy="384.81500513227206" rx="5.60" ry="5.60" style="fill:rgb(255,255,0);stroke:rgb(0,0,0);stroke-width:0.50;"/>
<ellipse cx="592.1224081751858" cy="625.9009272359843" rx="5.60" ry="5.60" style="fill:rgb(255,255,0);stroke:rgb(0,0,0);stroke-width:0.50;"/>
<ellipse cx="621.9570749376263" cy="372.1030596967298" rx="5.60" ry="5.60" style="fill:rgb(255,255,0);stroke:rgb(0,0,0);stroke-width:0.50;"/>
<ellipse cx="551.7846816196735" cy="383.9882668500301" rx="5.60" ry="5.60" style="fill:rgb(255,255,0);stroke:rgb(0,0,0);stroke-width:0.50;"/>
<ellipse cx="395.18535751583613" cy="558.1465880032682" rx="5.60" ry="5.60" style="fill:rgb(255,255,0);stroke:rgb(0,0,0);stroke-width:0.50;"/>
<ellipse cx="450.9698398085101" cy="376.3523701167976" rx="5.60" ry="5.60" style="fill:rgb(255,255,0);stroke:rgb(0,0,0);stroke-width:0.50;"/>
<ellipse cx="481.3290784891233" cy="626.3770381933297" rx="5.60" ry="5.60" style="fill:rgb(255,255,0);stroke:rgb(0,0,0);stroke-width:0.50;"/>
<ellipse cx="385.3558700891101" cy="590.9963041961464" rx="5.60" ry="5.60" style="fill:rgb(255,255,0);stroke:rgb(0,0,0);stroke-width:0.50;"/>
<ellipse cx="638.4876719957638" cy="400.6981365850369" rx="5.60" ry="5.60" style="fill:rgb(255,255,0);stroke:rgb(0,0,0);stroke-width:0.50;"/>
<ellipse cx="388.23118590863464" cy="617.0637926159114" rx="5.60" ry="5.60" style="fill:rgb(255,255,0);stroke:rgb(0,0,0);stroke-width:0.50;"/>
<ellipse cx="391.34708768243536" cy="629.1766897180552" rx="5.60" ry="5.60" style="fill:rgb(255,255,0);stroke:rgb(0,0,0);stroke-width:0.50;"/>
<ellipse cx="717.9739540098194" cy="436.7519305559707" rx="5.60" ry="5.60" style="fill:rgb(255,255,0);stroke:rgb(0,0,0);stroke-width:0.50;"/>
<ellipse cx="382.0556175240298" cy="381.6369845820538" rx="5.60" ry="5.60" style="fill:rgb(255,255,0);stroke:rgb(0,0,0);stroke-width:0.50;"/>
<ellipse cx="496.6323540269731" cy="585.2003691498" rx="5.60" ry="5.60" style="fill:rgb(255,255,0);stroke:rgb(0,0,0);stroke-width:0.50;"/>
<ellipse cx="382.41513761653994" cy="468.81431016988745" rx="5.60" ry="5.60" style="fill:rgb(255,255,0);stroke:rgb(0,0,0);stroke-width:0.50;"/>
<ellipse cx="515.5601113408818" cy="406.6882873754782" rx="5.60" ry="5.60" style="fill:rgb(255,255,0);stroke:rgb(0,0,0);stroke-width:0.50;"/>
<ellipse cx="704.2991336888128" cy="393.88718040694005" rx="5.60" ry="5.60" style="fill:rgb(255,255,0);stroke:rgb(0,0,0);stroke-width:0.50;"/>
<ellipse cx="548.2882135950681" cy="619.2594958470584" rx="5.60" ry="5.60" style="fill:rgb(255,255,0);stroke:rgb(0,0,0);stroke-width:0.50;"/>
<ellipse cx="391.06044255975803" cy="507.6218975976823" rx="5.60" ry="5.60" style="fill:rgb(255,255,0);stroke:rgb(0,0,0);stroke-width:0.50;"/>
<ellipse cx="672.2902830150754" cy="370.93510642627416" rx="5.60" ry="5.60" style="fill:rgb(255,255,0);stroke:rgb(0,0,0);stroke-width:0.50;"/>
<ellipse cx="659.7932293324005" cy="624.0271669321962" rx="5.60" ry="5.60" style="fill:rgb(255,255,0);stroke:rgb(0,0,0);stroke-width:0.50;"/>
<ellipse cx="716.0256312032412" cy="372.9622489574382" rx="5.60" ry="5.60" style="fill:rgb(255,255,0);stroke:rgb(0,0,0);stroke-width:0.50;"/>
<ellipse cx="712.6652435500985" cy="512.330522334551" rx="5.60" ry="5.60" style="fill:rgb(255,255,0);stroke:rgb(0,0,0);stroke-width:0.50;"/>
<ellipse cx="519.6206025902821" cy="629.0863871502237" rx="5.60" ry="5.60" style="fill:rgb(255,255,0);stroke:rgb(0,0,0);stroke-width:0.50;"/>
<ellipse cx="637.1380016825848" cy="629.2524044635747" rx="5.60" ry="5.60" style="fill:rgb(255,255,0);stroke:rgb(0,0,0);stroke-width:0.50;"/>
<ellipse cx="578.7753546270661" cy="384.6238439330059" rx="5.60" ry="5.60" style="fill:rgb(255,255,0);stroke:rgb(0,0,0);stroke-width:0.50;"/>
<line x1="673.0223031544592" y1="610.7444507645704" x2="449.00418058240996" y2="511.53268308142395" style="stroke:rgb(0,0,255);stroke-width:1"/>
<line x1="449.00418058240996" y1="511.53268308142395" x2="673.0223031544592" y2="610.7444507645704" style="stroke:rgb(0,0,255);stroke-width:1"/>
<line x1="673.0223031544592" y1="610.7444507645704" x2="593.3276098946474" y2="596.0816814942641" style="stroke:rgb(0,0,255);stroke-width:1"/>
<line x1="593.3276098946474" y1="596.0816814942641" x2="673.0223031544592" y2="610.7444507645704" style="stroke:rgb(0,0,255);stroke-width:1"/>
<line x1="673.0223031544592" y1="610.7444507645704" x2="426.49834209168205" y2="369.3841925722273" style="stroke:rgb(0,0,255);stroke-width:1"/>
<line x1="426.49834209168205" y1="369.3841925722273" x2="673.0223031544592" y2="610.7444507645704" style="stroke:rgb(0,0,255);stroke-width:1"/>
<line x1="673.0223031544592" y1="610.7444507645704" x2="399.7678050125213" y2="431.05377285998316" style="stroke:rgb(0,0,255);stroke-width:1"/>
<line x1="399.7678050125213" y1="431.05377285998316" x2="673.0223031544592" y2="610.7444507645704" style="stroke:rgb(0,0,255);stroke-width:1"/>
<line x1="673.0223031544592" y1="610.7444507645704" x2="715.4415060568251" y2="475.557809257512" style="stroke:rgb(0,0,255);stroke-width:1"/>
<line x1="715.4415060568251" y1="475.557809257512" x2="673.0223031544592" y2="610.7444507645704" style="stroke:rgb(0,0,255);stroke-width:1"/>
<line x1="673.0223031544592" y1="610.7444507645704" x2="715.6075314960591" y2="591.7946053195822" style="stroke:rgb(0,0,255);stroke-width:1"/>
<line x1="715.6075314960591" y1="591.7946053195822" x2="673.0223031544592" y2="610.7444507645704" style="stroke:rgb(0,0,255);stroke-width:1"/>
<line x1="673.0223031544592" y1="610.7444507645704" x2="708.5592707148965" y2="548.4994716235334" style="stroke:rgb(0,0,255);stroke-width:1"/>
<line x1="708.5592707148965" y1="548.4994716235334" x2="673.0223031544592" y2="610.7444507645704" style="stroke:rgb(0,0,255);stroke-width:1"/>
<line x1="673.0223031544592" y1="610.7444507645704" x2="484.2610643723798" y2="384.81500513227206" style="stroke:rgb(0,0,255);stroke-width:1"/>
<line x1="484.2610643723798" y1="384.81500513227206" x2="673.0223031544592" y2="610.7444507645704" style="stroke:rgb(0,0,255);stroke-width:1"/>
<line x1="673.0223031544592" y1="610.7444507645704" x2="592.1224081751858" y2="625.9009272359843" style="stroke:rgb(0,0,255);stroke-width:1"/>
<line x1="592.1224081751858" y1="625.9009272359843" x2="673.0223031544592" y2="610.7444507645704" style="stroke:rgb(0,0,255);stroke-width:1"/>
<line x1="673.0223031544592" y1="610.7444507645704" x2="621.9570749376263" y2="372.1030596967298" style="stroke:rgb(0,0,255);stroke-width:1"/>
<line x1="621.9570749376263" y1="372.1030596967298" x2="673.0223031544592" y2="610.7444507645704" style="stroke:rgb(0,0,255);stroke-width:1"/>
<line x1="673.0223031544592" y1="610.7444507645704" x2="551.7846816196735" y2="383.9882668500301" style="stroke:rgb(0,0,255);stroke-width:1"/>
<line x1="551.7846816196735" y1="383.9882668500301" x2="673.0223031544592" y2="610.7444507645704" style="stroke:rgb(0,0,255);stroke-width:1"/>
<line x1="673.0223031544592" y1="610.7444507645704" x2="395.18535751583613" y2="558.1465880032682" style="stroke:rgb(0,0,255);stroke-width:1"/>
<line x1="395.18535751583613" y1="558.1465880032682" x2="673.0223031544592" y2="610.7444507645704" style="stroke:rgb(0,0,255);stroke-width:1"/>
<line x1="673.0223031544592" y1="610.7444507645704" x2="450.9698398085101" y2="376.3523701167976" style="stroke:rgb(0,0,255);stroke-width:1"/>
<line x1="450.9698398085101" y1="376.3523701167976" x2="673.0223031544592" y2="610.7444507645704" style="stroke:rgb(0,0,255);stroke-width:1"/>
<line x1="673.0223031544592" y1="610.7444507645704" x2="481.3290784891233" y2="626.3770381933297" style="stroke:rgb(0,0,255);stroke-width:1"/>
<line x1="481.3290784891233" y1="626.3770381933297" x2="673.0223031544592" y2="610.7444507645704" style="stroke:rgb(0,0,255);stroke-width:1"/>
<line x1="673.0223031544592" y1="610.7444507645704" x2="385.3558700891101" y2="590.9963041961464" style="stroke:rgb(0,0,255);stroke-width:1"/>
<line x1="385.3558700891101" y1="590.9963041961464" x2="673.0223031544592" y2="610.7444507645704" style="stroke:rgb(0,0,255);stroke-width:1"/>
<line x1="673.0223031544592" y1="610.7444507645704" x2="638.4876719957638" y2="400.6981365850369" style="stroke:rgb(0,0,255);stroke-width:1"/>
<line x1="638.4876719957638" y1="400.6981365850369" x2="673.0223031544592" y2="610.7444507645704" style="stroke:rgb(0,0,255);stroke-width:1"/>
<line x1="449.00418058240996" y1="511.53268308142395" x2="593.3276098946474" y2="596.0816814942641" style="stroke:rgb(0,0,255);stroke-width:1"/>
<line x1="593.3276098946474" y1="596.0816814942641" x2="449.00418058240996" y2="511.53268308142395" style="stroke:rgb(0,0,255);stroke-width:1"/>
<line x1="449.00418058240996" y1="511.53268308142395" x2="426.49834209168205" y2="369.3841925722273" style="stroke:rgb(0,0,255);stroke-width:1"/>
<line x1="426.49834209168205" y1="369.3841925722273" x2="449.00418058240996" y2="511.53268308142395" style="stroke:rgb(0,0,255);stroke-width:1"/>
<line x1="449.00418058240996" y1="511.53268308142395" x2="708.5592707148965" y2="548.4994716235334" style="stroke:rgb(0,0,255);stroke-width:1"/>
<line x1="708.5592707148965" y1="548.4994716235334" x2="449.00418058240996" y2="511.53268308142395" style="stroke:rgb(0,0,255);stroke-width:1"/>
<line x1="449.00418058240996" y1="511.53268308142395" x2="395.18535751583613" y2="558.1465880032682" style="stroke:rgb(0,0,255);stroke-width:1"/>
<line x1="395.18535751583613" y1="558.1465880032682" x2="449.00418058240996" y2="511.53268308142395" style="stroke:rgb(0,0,255);stroke-width:1"/>
<line x1="449.00418058240996" y1="511.53268308142395" x2="450.9698398085101" y2="376.3523701167976" style="stroke:rgb(0,0,255);stroke-width:1"/>
<line x1="450.9698398085101" y1="376.3523701167976" x2="449.00418058240996" y2="511.53268308142395" style="stroke:rgb(0,0,255);stroke-width:1"/>
<line x1="449.00418058240996" y1="511.53268308142395" x2="481.3290784891233" y2="626.3770381933297" style="stroke:rgb(0,0,255);stroke-width:1"/>
<line x1="481.3290784891233" y1="626.3770381933297" x2="449.00418058240996" y2="511.53268308142395" style="stroke:rgb(0,0,255);stroke-width:1"/>
<line x1="449.00418058240996" y1="511.53268308142395" x2="385.3558700891101" y2="590.9963041961464" style="stroke:rgb(0,0,255);stroke-width:1"/>
<line x1="385.3558700891101" y1="590.9963041961464" x2="449.00418058240996" y2="511.53268308142395" style="stroke:rgb(0,0,255);stroke-width:1"/>
<line x1="449.00418058240996" y1="511.53268308142395" x2="388.23118590863464" y2="617.0637926159114" style="stroke:rgb(0,0,255);stroke-width:1"/>
<line x1="388.23118590863464" y1="617.0637926159114" x2="449.00418058240996" y2="511.53268308142395" style="stroke:rgb(0,0,255);stroke-width:1"/>
<line x1="593.3276098946474" y1="596.0816814942641" x2="426.49834209168205" y2="369.3841925722273" style="stroke:rgb(0,0,255);stroke-width:1"/>
<line x1="426.49834209168205" y1="369.3841925722273" x2="593.3276098946474" y2="596.0816814942641" style="stroke:rgb(0,0,255);stroke-width:1"/>
<line x1="593.3276098946474" y1="596.0816814942641" x2="708.5592707148965" y2="548.4994716235334" style="stroke:rgb(0,0,255);stroke-width:1"/>
<line x1="708.5592707148965" y1="548.4994716235334" x2="593.3276098946474" y2="596.0816814942641" style="stroke:rgb(0,0,255);stroke-width:1"/>
<line x1="593.3276098946474" y1="596.0816814942641" x2="484.2610643723798" y2="384.81500513227206" style="stroke:rgb(0,0,255);stroke-width:1"/>
<line x1="484.2610643723798" y1="384.81500513227206" x2="593.3276098946474" y2="596.0816814942641" style="stroke:rgb(0,0,255);stroke-width:1"/>
<line x1="593.3276098946474" y1="596.0816814942641" x2="391.34708768243536" y2="629.1766897180552" style="stroke:rgb(0,0,255);stroke-width:1"/>
<line x1="391.34708768243536" y1="629.1766897180552" x2="593.3276098946474" y2="596.0816814942641" style="stroke:rgb(0,0,255);stroke-width:1"/>
<line x1="593.3276098946474" y1="596.0816814942641" x2="395.18535751583613" y2="558.1465880032682" style="stroke:rgb(0,0,255);stroke-width:1"/>
<line x1="395.18535751583613" y1="558.1465880032682" x2="593.3276098946474" y2="596.0816814942641" style="stroke:rgb(0,0,255);stroke-width:1"/>
<line x1="593.3276098946474" y1="596.0816814942641" x2="717.9739540098194" y2="436.7519305559707" style="stroke:rgb(0,0,255);stroke-width:1"/>
<line x1="717.9739540098194" y1="436.7519305559707" x2="593.3276098946474" y2="596.0816814942641" style="stroke:rgb(0,0,255);stroke-width:1"/>
<line x1="593.3276098946474" y1="596.0816814942641" x2="382.0556175240298" y2="381.6369845820538" style="stroke:rgb(0,0,255);stroke-width:1"/>
<line x1="382.0556175240298" y1="381.6369845820538" x2="593.3276098946474" y2="596.0816814942641" style="stroke:rgb(0,0,255);stroke-width:1"/>
<line x1="593.3276098946474" y1="596.0816814942641" x2="496.6323540269731" y2="585.2003691498" style="stroke:rgb(0,0,255);stroke-width:1"/>
<line x1="496.6323540269731" y1="585.2003691498" x2="593.3276098946474" y2="596.0816814942641" style="stroke:rgb(0,0,255);stroke-width:1"/>
<line x1="426.49834209168205" y1="369.3841925722273" x2="708.5592707148965" y2="548.4994716235334" style="stroke:rgb(0,0,255);stroke-width:1"/>
<line x1="708.5592707148965" y1="548.4994716235334" x2="426.49834209168205" y2="369.3841925722273" style="stroke:rgb(0,0,255);stroke-width:1"/>
<line x1="426.49834209168205" y1="369.3841925722273" x2="551.7846816196735" y2="383.9882668500301" style="stroke:rgb(0,0,255);stroke-width:1"/>
<line x1="551.7846816196735" y1="383.9882668500301" x2="426.49834209168205" y2="369.3841925722273" style="stroke:rgb(0,0,255);stroke-width:1"/>
<line x1="426.49834209168205" y1="369.3841925722273" x2="395.18535751583613" y2="558.1465880032682" style="stroke:rgb(0,0,255);stroke-width:1"/>
<line x1="395.18535751583613" y1="558.1465880032682" x2="426.49834209168205" y2="369.3841925722273" style="stroke:rgb(0,0,255);stroke-width:1"/>
<line x1="399.7678050125213" y1="431.05377285998316" x2="715.6075314960591" y2="591.7946053195822" style="stroke:rgb(0,0,255);stroke-width:1"/>
<line x1="715.6075314960591" y1="591.7946053195822" x2="399.7678050125213" y2="431.05377285998316" style="stroke:rgb(0,0,255);stroke-width:1"/>
<line x1="399.7678050125213" y1="431.05377285998316" x2="592.1224081751858" y2="625.9009272359843" style="stroke:rgb(0,0,255);stroke-width:1"/>
<line x1="592.1224081751858" y1="625.9009272359843" x2="399.7678050125213" y2="431.05377285998316" style="stroke:rgb(0,0,255);stroke-width:1"/>
<line x1="715.4415060568251" y1="475.557809257512" x2="715.6075314960591" y2="591.7946053195822" style="stroke:rgb(0,0,255);stroke-width:1"/>
<line x1="715.6075314960591" y1="591.7946053195822" x2="715.4415060568251" y2="475.557809257512" style="stroke:rgb(0,0,255);stroke-width:1"/>
<line x1="715.4415060568251" y1="475.557809257512" x2="592.1224081751858" y2="625.9009272359843" style="stroke:rgb(0,0,255);stroke-width:1"/>
<line x1="592.1224081751858" y1="625.9009272359843" x2="715.4415060568251" y2="475.557809257512" style="stroke:rgb(0,0,255);stroke-width:1"/>
<line x1="715.4415060568251" y1="475.557809257512" x2="382.41513761653994" y2="468.81431016988745" style="stroke:rgb(0,0,255);stroke-width:1"/>
<line x1="382.41513761653994" y1="468.81431016988745" x2="715.4415060568251" y2="475.557809257512" style="stroke:rgb(0,0,255);stroke-width:1"/>
<line x1="715.6075314960591" y1="591.7946053195822" x2="382.41513761653994" y2="468.81431016988745" style="stroke:rgb(0,0,255);stroke-width:1"/>
<line x1="382.41513761653994" y1="468.81431016988745" x2="715.6075314960591" y2="591.7946053195822" style="stroke:rgb(0,0,255);stroke-width:1"/>
<line x1="484.2610643723798" y1="384.81500513227206" x2="388.23118590863464" y2="617.0637926159114" style="stroke:rgb(0,0,255);stroke-width:1"/>
<line x1="388.23118590863464" y1="617.0637926159114" x2="484.2610643723798" y2="384.81500513227206" style="stroke:rgb(0,0,255);stroke-width:1"/>
<line x1="484.2610643723798" y1="384.81500513227206" x2="496.6323540269731" y2="585.2003691498" style="stroke:rgb(0,0,255);stroke-width:1"/>
<line x1="496.6323540269731" y1="585.2003691498" x2="484.2610643723798" y2="384.81500513227206" style="stroke:rgb(0,0,255);stroke-width:1"/>
<line x1="484.2610643723798" y1="384.81500513227206" x2="515.5601113408818" y2="406.6882873754782" style="stroke:rgb(0,0,255);stroke-width:1"/>
<line x1="515.5601113408818" y1="406.6882873754782" x2="484.2610643723798" y2="384.81500513227206" style="stroke:rgb(0,0,255);stroke-width:1"/>
<line x1="391.34708768243536" y1="629.1766897180552" x2="515.5601113408818" y2="406.6882873754782" style="stroke:rgb(0,0,255);stroke-width:1"/>
<line x1="515.5601113408818" y1="406.6882873754782" x2="391.34708768243536" y2="629.1766897180552" style="stroke:rgb(0,0,255);stroke-width:1"/>
<line x1="395.18535751583613" y1="558.1465880032682" x2="515.5601113408818" y2="406.6882873754782" style="stroke:rgb(0,0,255);stroke-width:1"/>
<line x1="515.5601113408818" y1="406.6882873754782" x2="395.18535751583613" y2="558.1465880032682" style="stroke:rgb(0,0,255);stroke-width:1"/>
<line x1="704.2991336888128" y1="393.88718040694005" x2="496.6323540269731" y2="585.2003691498" style="stroke:rgb(0,0,255);stroke-width:1"/>
<line x1="496.6323540269731" y1="585.2003691498" x2="704.2991336888128" y2="393.88718040694005" style="stroke:rgb(0,0,255);stroke-width:1"/>
<line x1="704.2991336888128" y1="393.88718040694005" x2="515.5601113408818" y2="406.6882873754782" style="stroke:rgb(0,0,255);stroke-width:1"/>
<line x1="515.5601113408818" y1="406.6882873754782" x2="704.2991336888128" y2="393.88718040694005" style="stroke:rgb(0,0,255);stroke-width:1"/>
<line x1="548.2882135950681" y1="619.2594958470584" x2="496.6323540269731" y2="585.2003691498" style="stroke:rgb(0,0,255);stroke-width:1"/>
<line x1="496.6323540269731" y1="585.2003691498" x2="548.2882135950681" y2="619.2594958470584" style="stroke:rgb(0,0,255);stroke-width:1"/>
<line x1="548.2882135950681" y1="619.2594958470584" x2="515.5601113408818" y2="406.6882873754782" style="stroke:rgb(0,0,255);stroke-width:1"/>
<line x1="515.5601113408818" y1="406.6882873754782" x2="548.2882135950681" y2="619.2594958470584" style="stroke:rgb(0,0,255);stroke-width:1"/>
<line x1="391.06044255975803" y1="507.6218975976823" x2="496.6323540269731" y2="585.2003691498" style="stroke:rgb(0,0,255);stroke-width:1"/>
<line x1="496.6323540269731" y1="585.2003691498" x2="391.06044255975803" y2="507.6218975976823" style="stroke:rgb(0,0,255);stroke-width:1"/>
<line x1="391.06044255975803" y1="507.6218975976823" x2="515.5601113408818" y2="406.6882873754782" style="stroke:rgb(0,0,255);stroke-width:1"/>
<line x1="515.5601113408818" y1="406.6882873754782" x2="391.06044255975803" y2="507.6218975976823" style="stroke:rgb(0,0,255);stroke-width:1"/>
<line x1="481.3290784891233" y1="626.3770381933297" x2="515.5601113408818" y2="406.6882873754782" style="stroke:rgb(0,0,255);stroke-width:1"/>
<line x1="515.5601113408818" y1="406.6882873754782" x2="481.3290784891233" y2="626.3770381933297" style="stroke:rgb(0,0,255);stroke-width:1"/>
<line x1="672.2902830150754" y1="370.93510642627416" x2="496.6323540269731" y2="585.2003691498" style="stroke:rgb(0,0,255);stroke-width:1"/>
<line x1="496.6323540269731" y1="585.2003691498" x2="672.2902830150754" y2="370.93510642627416" style="stroke:rgb(0,0,255);stroke-width:1"/>
<line x1="672.2902830150754" y1="370.93510642627416" x2="515.5601113408818" y2="406.6882873754782" style="stroke:rgb(0,0,255);stroke-width:1"/>
<line x1="515.5601113408818" y1="406.6882873754782" x2="672.2902830150754" y2="370.93510642627416" style="stroke:rgb(0,0,255);stroke-width:1"/>
<line x1="659.7932293324005" y1="624.0271669321962" x2="496.6323540269731" y2="585.2003691498" style="stroke:rgb(0,0,255);stroke-width:1"/>
<line x1="496.6323540269731" y1="585.2003691498" x2="659.7932293324005" y2="624.0271669321962" style="stroke:rgb(0,0,255);stroke-width:1"/>
<line x1="659.7932293324005" y1="624.0271669321962" x2="515.5601113408818" y2="406.6882873754782" style="stroke:rgb(0,0,255);stroke-width:1"/>
<line x1="515.5601113408818" y1="406.6882873754782" x2="659.7932293324005" y2="624.0271669321962" style="stroke:rgb(0,0,255);stroke-width:1"/>
<line x1="716.0256312032412" y1="372.9622489574382" x2="712.6652435500985" y2="512.330522334551" style="stroke:rgb(0,0,255);stroke-width:1"/>
<line x1="712.6652435500985" y1="512.330522334551" x2="716.0256312032412" y2="372.9622489574382" style="stroke:rgb(0,0,255);stroke-width:1"/>
<line x1="716.0256312032412" y1="372.9622489574382" x2="717.9739540098194" y2="436.7519305559707" style="stroke:rgb(0,0,255);stroke-width:1"/>
<line x1="717.9739540098194" y1="436.7519305559707" x2="716.0256312032412" y2="372.9622489574382" style="stroke:rgb(0,0,255);stroke-width:1"/>
<line x1="716.0256312032412" y1="372.9622489574382" x2="519.6206025902821" y2="629.0863871502237" style="stroke:rgb(0,0,255);stroke-width:1"/>
<line x1="519.6206025902821" y1="629.0863871502237" x2="716.0256312032412" y2="372.9622489574382" style="stroke:rgb(0,0,255);stroke-width:1"/>
<line x1="716.0256312032412" y1="372.9622489574382" x2="496.6323540269731" y2="585.2003691498" style="stroke:rgb(0,0,255);stroke-width:1"/>
<line x1="496.6323540269731" y1="585.2003691498" x2="716.0256312032412" y2="372.9622489574382" style="stroke:rgb(0,0,255);stroke-width:1"/>
<line x1="716.0256312032412" y1="372.9622489574382" x2="515.5601113408818" y2="406.6882873754782" style="stroke:rgb(0,0,255);stroke-width:1"/>
<line x1="515.5601113408818" y1="406.6882873754782" x2="716.0256312032412" y2="372.9622489574382" style="stroke:rgb(0,0,255);stroke-width:1"/>
<line x1="637.1380016825848" y1="629.2524044635747" x2="712.6652435500985" y2="512.330522334551" style="stroke:rgb(0,0,255);stroke-width:1"/>
<line x1="712.6652435500985" y1="512.330522334551" x2="637.1380016825848" y2="629.2524044635747" style="stroke:rgb(0,0,255);stroke-width:1"/>
<line x1="637.1380016825848" y1="629.2524044635747" x2="717.9739540098194" y2="436.7519305559707" style="stroke:rgb(0,0,255);stroke-width:1"/>
<line x1="717.9739540098194" y1="436.7519305559707" x2="637.1380016825848" y2="629.2524044635747" style="stroke:rgb(0,0,255);stroke-width:1"/>
<line x1="637.1380016825848" y1="629.2524044635747" x2="638.4876719957638" y2="400.6981365850369" style="stroke:rgb(0,0,255);stroke-width:1"/>
<line x1="638.4876719957638" y1="400.6981365850369" x2="637.1380016825848" y2="629.2524044635747" style="stroke:rgb(0,0,255);stroke-width:1"/>
<line x1="712.6652435500985" y1="512.330522334551" x2="638.4876719957638" y2="400.6981365850369" style="stroke:rgb(0,0,255);stroke-width:1"/>
<line x1="638.4876719957638" y1="400.6981365850369" x2="712.6652435500985" y2="512.330522334551" style="stroke:rgb(0,0,255);stroke-width:1"/>
<line x1="578.7753546270661" y1="384.6238439330059" x2="519.6206025902821" y2="629.0863871502237" style="stroke:rgb(0,0,255);stroke-width:1"/>
<line x1="519.6206025902821" y1="629.0863871502237" x2="578.7753546270661" y2="384.6238439330059" style="stroke:rgb(0,0,255);stroke-width:1"/>
<line x1="578.7753546270661" y1="384.6238439330059" x2="515.5601113408818" y2="406.6882873754782" style="stroke:rgb(0,0,255);stroke-width:1"/>
<line x1="515.5601113408818" y1="406.6882873754782" x2="578.7753546270661" y2="384.6238439330059" style="stroke:rgb(0,0,255);stroke-width:1"/>
<line x1="717.9739540098194" y1="436.7519305559707" x2="515.5601113408818" y2="406.6882873754782" style="stroke:rgb(0,0,255);stroke-width:1"/>
<line x1="515.5601113408818" y1="406.6882873754782" x2="717.9739540098194" y2="436.7519305559707" style="stroke:rgb(0,0,255);stroke-width:1"/>
<line x1="382.0556175240298" y1="381.6369845820538" x2="638.4876719957638" y2="400.6981365850369" style="stroke:rgb(0,0,255);stroke-width:1"/>
<line x1="638.4876719957638" y1="400.6981365850369" x2="382.0556175240298" y2="381.6369845820538" style="stroke:rgb(0,0,255);stroke-width:1"/>
<line x1="382.0556175240298" y1="381.6369845820538" x2="515.5601113408818" y2="406.6882873754782" style="stroke:rgb(0,0,255);stroke-width:1"/>
<line x1="515.5601113408818" y1="406.6882873754782" x2="382.0556175240298" y2="381.6369845820538" style="stroke:rgb(0,0,255);stroke-width:1"/>
<line x1="519.6206025902821" y1="629.0863871502237" x2="496.6323540269731" y2="585.2003691498" style="stroke:rgb(0,0,255);stroke-width:1"/>
<line x1="496.6323540269731" y1="585.2003691498" x2="519.6206025902821" y2="629.0863871502237" style="stroke:rgb(0,0,255);stroke-width:1"/>
<line x1="519.6206025902821" y1="629.0863871502237" x2="515.5601113408818" y2="406.6882873754782" style="stroke:rgb(0,0,255);stroke-width:1"/>
<line x1="515.5601113408818" y1="406.6882873754782" x2="519.6206025902821" y2="629.0863871502237" style="stroke:rgb(0,0,255);stroke-width:1"/>
<line x1="388.23118590863464" y1="617.0637926159114" x2="496.6323540269731" y2="585.2003691498" style="stroke:rgb(0,0,255);stroke-width:1"/>
<line x1="496.6323540269731" y1="585.2003691498" x2="388.23118590863464" y2="617.0637926159114" style="stroke:rgb(0,0,255);stroke-width:1"/>
<line x1="388.23118590863464" y1="617.0637926159114" x2="515.5601113408818" y2="406.6882873754782" style="stroke:rgb(0,0,255);stroke-width:1"/>
<line x1="515.5601113408818" y1="406.6882873754782" x2="388.23118590863464" y2="617.0637926159114" style="stroke:rgb(0,0,255);stroke-width:1"/>
<line x1="638.4876719957638" y1="400.6981365850369" x2="496.6323540269731" y2="585.2003691498" style="stroke:rgb(0,0,255);stroke-width:1"/>
<line x1="496.6323540269731" y1="585.2003691498" x2="638.4876719957638" y2="400.6981365850369" style="stroke:rgb(0,0,255);stroke-width:1"/>
<line x1="638.4876719957638" y1="400.6981365850369" x2="515.5601113408818" y2="406.6882873754782" style="stroke:rgb(0,0,255);stroke-width:1"/>
<line x1="515.5601113408818" y1="406.6882873754782" x2="638.4876719957638" y2="400.6981365850369" style="stroke:rgb(0,0,255);stroke-width:1"/>
<line x1="496.6323540269731" y1="585.2003691498" x2="515.5601113408818" y2="406.6882873754782" style="stroke:rgb(0,0,255);stroke-width:1"/>
<line x1="515.5601113408818" y1="406.6882873754782" x2="496.6323540269731" y2="585.2003691498" style="stroke:rgb(0,0,255);stroke-width:1"/>
</svg>
