<svg xmlns="http://www.w3.org/2000/svg" version="1.1" xmlns:xllink="http://www.w3.org/1999/xlink" width="1000" height="1000">
<ellipse cx="377.0223031544592" cy="490.7444507645704" rx="5.60" ry="5.60" style="fill:rgb(255,255,0);stroke:rgb(0,0,0);stroke-width:0.50;"/>
<ellipse cx="240.00418058240996" cy="493.532683081424" rx="5.60" ry="5.60" style="fill:rgb(255,255,0);stroke:rgb(0,0,0);stroke-width:0.50;"/>
<ellipse cx="490.32760989464737" cy="536.0816814942641" rx="5.60" ry="5.60" style="fill:rgb(255,255,0);stroke:rgb(0,0,0);stroke-width:0.50;"/>
<ellipse cx="303.49834209168205" cy="374.3841925722273" rx="5.60" ry="5.60" style="fill:rgb(255,255,0);stroke:rgb(0,0,0);stroke-width:0.50;"/>
<ellipse cx="299.7678050125213" cy="737.0537728599832" rx="5.60" ry="5.60" style="fill:rgb(255,255,0);stroke:rgb(0,0,0);stroke-width:0.50;"/>
<ellipse cx="562.4415060568251" cy="651.557809257512" rx="5.60" ry="5.60" style="fill:rgb(255,255,0);stroke:rgb(0,0,0);stroke-width:0.50;"/>
<ellipse cx="479.6075314960591" cy="675.7946053195822" rx="5.60" ry="5.60" style="fill:rgb(255,255,0);stroke:rgb(0,0,0);stroke-width:0.50;"/>
<ellipse cx="452.55927071489646" cy="464.4994716235334" rx="5.60" ry="5.60" style="fill:rgb(255,255,0);stroke:rgb(0,0,0);stroke-width:0.50;"/>
<ellipse cx="492.2610643723798" cy="390.81500513227206" rx="5.60" ry="5.60" style="fill:rgb(255,255,0);stroke:rgb(0,0,0);stroke-width:0.50;"/>
<ellipse cx="480.1224081751858" cy="793.9009272359843" rx="5.60" ry="5.60" style="fill:rgb(255,255,0);stroke:rgb(0,0,0);stroke-width:0.50;"/>
<ellipse cx="405.9570749376263" cy="168.10305969672982" rx="5.60" ry="5.60" style="fill:rgb(255,255,0);stroke:rgb(0,0,0);stroke-width:0.50;"/>
<ellipse cx="263.7846816196735" cy="245.98826685003007" rx="5.60" ry="5.60" style="fill:rgb(255,255,0);stroke:rgb(0,0,0);stroke-width:0.50;"/>
<ellipse cx="323.18535751583613" cy="480.1465880032682" rx="5.60" ry="5.60" style="fill:rgb(255,255,0);stroke:rgb(0,0,0);stroke-width:0.50;"/>
<ellipse cx="130.96983980851007" cy="364.3523701167976" rx="5.60" ry="5.60" style="fill:rgb(255,255,0);stroke:rgb(0,0,0);stroke-width:0.50;"/>
<ellipse cx="281.3290784891233" cy="620.3770381933297" rx="5.60" ry="5.60" style="fill:rgb(255,255,0);stroke:rgb(0,0,0);stroke-width:0.50;"/>
<ellipse cx="113.35587008911011" cy="565.9963041961464" rx="5.60" ry="5.60" style="fill:rgb(255,255,0);stroke:rgb(0,0,0);stroke-width:0.50;"/>
<ellipse cx="716.4876719957638" cy="435.6981365850369" rx="5.60" ry="5.60" style="fill:rgb(255,255,0);stroke:rgb(0,0,0);stroke-width:0.50;"/>
<ellipse cx="428.23118590863464" cy="587.0637926159114" rx="5.60" ry="5.60" style="fill:rgb(255,255,0);stroke:rgb(0,0,0);stroke-width:0.50;"/>
<ellipse cx="415.34708768243536" cy="751.1766897180552" rx="5.60" ry="5.60" style="fill:rgb(255,255,0);stroke:rgb(0,0,0);stroke-width:0.50;"/>
<ellipse cx="733.9739540098194" cy="643.7519305559707" rx="5.60" ry="5.60" style="fill:rgb(255,255,0);stroke:rgb(0,0,0);stroke-width:0.50;"/>
<ellipse cx="598.0556175240298" cy="309.6369845820538" rx="5.60" ry="5.60" style="fill:rgb(255,255,0);stroke:rgb(0,0,0);stroke-width:0.50;"/>
<ellipse cx="674.6323540269731" cy="513.2003691498" rx="5.60" ry="5.60" style="fill:rgb(255,255,0);stroke:rgb(0,0,0);stroke-width:0.50;"/>
<ellipse cx="582.4151376165399" cy="444.81431016988745" rx="5.60" ry="5.60" style="fill:rgb(255,255,0);stroke:rgb(0,0,0);stroke-width:0.50;"/>
<ellipse cx="603.5601113408818" cy="520.6882873754782" rx="5.60" ry="5.60" style="fill:rgb(255,255,0);stroke:rgb(0,0,0);stroke-width:0.50;"/>
<ellipse cx="841.2991336888128" cy="387.88718040694005" rx="5.60" ry="5.60" style="fill:rgb(255,255,0);stroke:rgb(0,0,0);stroke-width:0.50;"/>
<ellipse cx="658.2882135950681" cy="763.2594958470584" rx="5.60" ry="5.60" style="fill:rgb(255,255,0);stroke:rgb(0,0,0);stroke-width:0.50;"/>
<ellipse cx="519.060442559758" cy="282.6218975976823" rx="5.60" ry="5.60" style="fill:rgb(255,255,0);stroke:rgb(0,0,0);stroke-width:0.50;"/>
<ellipse cx="792.2902830150754" cy="298.93510642627416" rx="5.60" ry="5.60" style="fill:rgb(255,255,0);stroke:rgb(0,0,0);stroke-width:0.50;"/>
<ellipse cx="763.7932293324005" cy="738.0271669321962" rx="5.60" ry="5.60" style="fill:rgb(255,255,0);stroke:rgb(0,0,0);stroke-width:0.50;"/>
<ellipse cx="843.0256312032412" cy="576.9622489574382" rx="5.60" ry="5.60" style="fill:rgb(255,255,0);stroke:rgb(0,0,0);stroke-width:0.50;"/>
<ellipse cx="976.6652435500985" cy="460.330522334551" rx="5.60" ry="5.60" style="fill:rgb(255,255,0);stroke:rgb(0,0,0);stroke-width:0.50;"/>
<ellipse cx="775.6206025902821" cy="492.0863871502237" rx="5.60" ry="5.60" style="fill:rgb(255,255,0);stroke:rgb(0,0,0);stroke-width:0.50;"/>
<ellipse cx="951.1380016825848" cy="606.2524044635747" rx="5.60" ry="5.60" style="fill:rgb(255,255,0);stroke:rgb(0,0,0);stroke-width:0.50;"/>
<ellipse cx="694.7753546270661" cy="252.6238439330059" rx="5.60" ry="5.60" style="fill:rgb(255,255,0);stroke:rgb(0,0,0);stroke-width:0.50;"/>
<line x1="377.0223031544592" y1="490.7444507645704" x2="240.00418058240996" y2="493.532683081424" style="stroke:rgb(0,0,255);stroke-width:1"/>
<line x1="240.00418058240996" y1="493.532683081424" x2="377.0223031544592" y2="490.7444507645704" style="stroke:rgb(0,0,255);stroke-width:1"/>
<line x1="377.0223031544592" y1="490.7444507645704" x2="490.32760989464737" y2="536.0816814942641" style="stroke:rgb(0,0,255);stroke-width:1"/>
<line x1="490.32760989464737" y1="536.0816814942641" x2="377.0223031544592" y2="490.7444507645704" style="stroke:rgb(0,0,255);stroke-width:1"/>
<line x1="377.0223031544592" y1="490.7444507645704" x2="303.49834209168205" y2="374.3841925722273" style="stroke:rgb(0,0,255);stroke-width:1"/>
<line x1="303.49834209168205" y1="374.3841925722273" x2="377.0223031544592" y2="490.7444507645704" style="stroke:rgb(0,0,255);stroke-width:1"/>
<line x1="377.0223031544592" y1="490.7444507645704" x2="299.7678050125213" y2="737.0537728599832" style="stroke:rgb(0,0,255);stroke-width:1"/>
<line x1="299.7678050125213" y1="737.0537728599832" x2="377.0223031544592" y2="490.7444507645704" style="stroke:rgb(0,0,255);stroke-width:1"/>
<line x1="377.0223031544592" y1="490.7444507645704" x2="562.4415060568251" y2="651.557809257512" style="stroke:rgb(0,0,255);stroke-width:1"/>
<line x1="562.4415060568251" y1="651.557809257512" x2="377.0223031544592" y2="490.7444507645704" style="stroke:rgb(0,0,255);stroke-width:1"/>
<line x1="377.0223031544592" y1="490.7444507645704" x2="479.6075314960591" y2="675.7946053195822" style="stroke:rgb(0,0,255);stroke-width:1"/>
<line x1="479.6075314960591" y1="675.7946053195822" x2="377.0223031544592" y2="490.7444507645704" style="stroke:rgb(0,0,255);stroke-width:1"/>
<line x1="377.0223031544592" y1="490.7444507645704" x2="452.55927071489646" y2="464.4994716235334" style="stroke:rgb(0,0,255);stroke-width:1"/>
<line x1="452.55927071489646" y1="464.4994716235334" x2="377.0223031544592" y2="490.7444507645704" style="stroke:rgb(0,0,255);stroke-width:1"/>
<line x1="377.0223031544592" y1="490.7444507645704" x2="492.2610643723798" y2="390.81500513227206" style="stroke:rgb(0,0,255);stroke-width:1"/>
<line x1="492.2610643723798" y1="390.81500513227206" x2="377.0223031544592" y2="490.7444507645704" style="stroke:rgb(0,0,255);stroke-width:1"/>
<line x1="377.0223031544592" y1="490.7444507645704" x2="480.1224081751858" y2="793.9009272359843" style="stroke:rgb(0,0,255);stroke-width:1"/>
<line x1="480.1224081751858" y1="793.9009272359843" x2="377.0223031544592" y2="490.7444507645704" style="stroke:rgb(0,0,255);stroke-width:1"/>
<line x1="377.0223031544592" y1="490.7444507645704" x2="405.9570749376263" y2="168.10305969672982" style="stroke:rgb(0,0,255);stroke-width:1"/>
<line x1="405.9570749376263" y1="168.10305969672982" x2="377.0223031544592" y2="490.7444507645704" style="stroke:rgb(0,0,255);stroke-width:1"/>
<line x1="377.0223031544592" y1="490.7444507645704" x2="263.7846816196735" y2="245.98826685003007" style="stroke:rgb(0,0,255);stroke-width:1"/>
<line x1="263.7846816196735" y1="245.98826685003007" x2="377.0223031544592" y2="490.7444507645704" style="stroke:rgb(0,0,255);stroke-width:1"/>
<line x1="377.0223031544592" y1="490.7444507645704" x2="323.18535751583613" y2="480.1465880032682" style="stroke:rgb(0,0,255);stroke-width:1"/>
<line x1="323.18535751583613" y1="480.1465880032682" x2="377.0223031544592" y2="490.7444507645704" style="stroke:rgb(0,0,255);stroke-width:1"/>
<line x1="377.0223031544592" y1="490.7444507645704" x2="130.96983980851007" y2="364.3523701167976" style="stroke:rgb(0,0,255);stroke-width:1"/>
<line x1="130.96983980851007" y1="364.3523701167976" x2="377.0223031544592" y2="490.7444507645704" style="stroke:rgb(0,0,255);stroke-width:1"/>
<line x1="377.0223031544592" y1="490.7444507645704" x2="281.3290784891233" y2="620.3770381933297" style="stroke:rgb(0,0,255);stroke-width:1"/>
<line x1="281.3290784891233" y1="620.3770381933297" x2="377.0223031544592" y2="490.7444507645704" style="stroke:rgb(0,0,255);stroke-width:1"/>
<line x1="377.0223031544592" y1="490.7444507645704" x2="113.35587008911011" y2="565.9963041961464" style="stroke:rgb(0,0,255);stroke-width:1"/>
<line x1="113.35587008911011" y1="565.9963041961464" x2="377.0223031544592" y2="490.7444507645704" style="stroke:rgb(0,0,255);stroke-width:1"/>
<line x1="377.0223031544592" y1="490.7444507645704" x2="716.4876719957638" y2="435.6981365850369" style="stroke:rgb(0,0,255);stroke-width:1"/>
<line x1="716.4876719957638" y1="435.6981365850369" x2="377.0223031544592" y2="490.7444507645704" style="stroke:rgb(0,0,255);stroke-width:1"/>
<line x1="240.00418058240996" y1="493.532683081424" x2="490.32760989464737" y2="536.0816814942641" style="stroke:rgb(0,0,255);stroke-width:1"/>
<line x1="490.32760989464737" y1="536.0816814942641" x2="240.00418058240996" y2="493.532683081424" style="stroke:rgb(0,0,255);stroke-width:1"/>
<line x1="240.00418058240996" y1="493.532683081424" x2="303.49834209168205" y2="374.3841925722273" style="stroke:rgb(0,0,255);stroke-width:1"/>
<line x1="303.49834209168205" y1="374.3841925722273" x2="240.00418058240996" y2="493.532683081424" style="stroke:rgb(0,0,255);stroke-width:1"/>
<line x1="240.00418058240996" y1="493.532683081424" x2="452.55927071489646" y2="464.4994716235334" style="stroke:rgb(0,0,255);stroke-width:1"/>
<line x1="452.55927071489646" y1="464.4994716235334" x2="240.00418058240996" y2="493.532683081424" style="stroke:rgb(0,0,255);stroke-width:1"/>
<line x1="240.00418058240996" y1="493.532683081424" x2="323.18535751583613" y2="480.1465880032682" style="stroke:rgb(0,0,255);stroke-width:1"/>
<line x1="323.18535751583613" y1="480.1465880032682" x2="240.00418058240996" y2="493.532683081424" style="stroke:rgb(0,0,255);stroke-width:1"/>
<line x1="240.00418058240996" y1="493.532683081424" x2="130.96983980851007" y2="364.3523701167976" style="stroke:rgb(0,0,255);stroke-width:1"/>
<line x1="130.96983980851007" y1="364.3523701167976" x2="240.00418058240996" y2="493.532683081424" style="stroke:rgb(0,0,255);stroke-width:1"/>
<line x1="240.00418058240996" y1="493.532683081424" x2="281.3290784891233" y2="620.3770381933297" style="stroke:rgb(0,0,255);stroke-width:1"/>
<line x1="281.3290784891233" y1="620.3770381933297" x2="240.00418058240996" y2="493.532683081424" style="stroke:rgb(0,0,255);stroke-width:1"/>
<line x1="240.00418058240996" y1="493.532683081424" x2="113.35587008911011" y2="565.9963041961464" style="stroke:rgb(0,0,255);stroke-width:1"/>
<line x1="113.35587008911011" y1="565.9963041961464" x2="240.00418058240996" y2="493.532683081424" style="stroke:rgb(0,0,255);stroke-width:1"/>
<line x1="240.00418058240996" y1="493.532683081424" x2="428.23118590863464" y2="587.0637926159114" style="stroke:rgb(0,0,255);stroke-width:1"/>
<line x1="428.23118590863464" y1="587.0637926159114" x2="240.00418058240996" y2="493.532683081424" style="stroke:rgb(0,0,255);stroke-width:1"/>
<line x1="490.32760989464737" y1="536.0816814942641" x2="303.49834209168205" y2="374.3841925722273" style="stroke:rgb(0,0,255);stroke-width:1"/>
<line x1="303.49834209168205" y1="374.3841925722273" x2="490.32760989464737" y2="536.0816814942641" style="stroke:rgb(0,0,255);stroke-width:1"/>
<line x1="490.32760989464737" y1="536.0816814942641" x2="452.55927071489646" y2="464.4994716235334" style="stroke:rgb(0,0,255);stroke-width:1"/>
<line x1="452.55927071489646" y1="464.4994716235334" x2="490.32760989464737" y2="536.0816814942641" style="stroke:rgb(0,0,255);stroke-width:1"/>
<line x1="490.32760989464737" y1="536.0816814942641" x2="492.2610643723798" y2="390.81500513227206" style="stroke:rgb(0,0,255);stroke-width:1"/>
<line x1="492.2610643723798" y1="390.81500513227206" x2="490.32760989464737" y2="536.0816814942641" style="stroke:rgb(0,0,255);stroke-width:1"/>
<line x1="490.32760989464737" y1="536.0816814942641" x2="415.34708768243536" y2="751.1766897180552" style="stroke:rgb(0,0,255);stroke-width:1"/>
<line x1="415.34708768243536" y1="751.1766897180552" x2="490.32760989464737" y2="536.0816814942641" style="stroke:rgb(0,0,255);stroke-width:1"/>
<line x1="490.32760989464737" y1="536.0816814942641" x2="323.18535751583613" y2="480.1465880032682" style="stroke:rgb(0,0,255);stroke-width:1"/>
<line x1="323.18535751583613" y1="480.1465880032682" x2="490.32760989464737" y2="536.0816814942641" style="stroke:rgb(0,0,255);stroke-width:1"/>
<line x1="490.32760989464737" y1="536.0816814942641" x2="733.9739540098194" y2="643.7519305559707" style="stroke:rgb(0,0,255);stroke-width:1"/>
<line x1="733.9739540098194" y1="643.7519305559707" x2="490.32760989464737" y2="536.0816814942641" style="stroke:rgb(0,0,255);stroke-width:1"/>
<line x1="490.32760989464737" y1="536.0816814942641" x2="598.0556175240298" y2="309.6369845820538" style="stroke:rgb(0,0,255);stroke-width:1"/>
<line x1="598.0556175240298" y1="309.6369845820538" x2="490.32760989464737" y2="536.0816814942641" style="stroke:rgb(0,0,255);stroke-width:1"/>
<line x1="490.32760989464737" y1="536.0816814942641" x2="674.6323540269731" y2="513.2003691498" style="stroke:rgb(0,0,255);stroke-width:1"/>
<line x1="674.6323540269731" y1="513.2003691498" x2="490.32760989464737" y2="536.0816814942641" style="stroke:rgb(0,0,255);stroke-width:1"/>
<line x1="303.49834209168205" y1="374.3841925722273" x2="452.55927071489646" y2="464.4994716235334" style="stroke:rgb(0,0,255);stroke-width:1"/>
<line x1="452.55927071489646" y1="464.4994716235334" x2="303.49834209168205" y2="374.3841925722273" style="stroke:rgb(0,0,255);stroke-width:1"/>
<line x1="303.49834209168205" y1="374.3841925722273" x2="263.7846816196735" y2="245.98826685003007" style="stroke:rgb(0,0,255);stroke-width:1"/>
<line x1="263.7846816196735" y1="245.98826685003007" x2="303.49834209168205" y2="374.3841925722273" style="stroke:rgb(0,0,255);stroke-width:1"/>
<line x1="303.49834209168205" y1="374.3841925722273" x2="323.18535751583613" y2="480.1465880032682" style="stroke:rgb(0,0,255);stroke-width:1"/>
<line x1="323.18535751583613" y1="480.1465880032682" x2="303.49834209168205" y2="374.3841925722273" style="stroke:rgb(0,0,255);stroke-width:1"/>
<line x1="299.7678050125213" y1="737.0537728599832" x2="479.6075314960591" y2="675.7946053195822" style="stroke:rgb(0,0,255);stroke-width:1"/>
<line x1="479.6075314960591" y1="675.7946053195822" x2="299.7678050125213" y2="737.0537728599832" style="stroke:rgb(0,0,255);stroke-width:1"/>
<line x1="299.7678050125213" y1="737.0537728599832" x2="480.1224081751858" y2="793.9009272359843" style="stroke:rgb(0,0,255);stroke-width:1"/>
<line x1="480.1224081751858" y1="793.9009272359843" x2="299.7678050125213" y2="737.0537728599832" style="stroke:rgb(0,0,255);stroke-width:1"/>
<line x1="562.4415060568251" y1="651.557809257512" x2="479.6075314960591" y2="675.7946053195822" style="stroke:rgb(0,0,255);stroke-width:1"/>
<line x1="479.6075314960591" y1="675.7946053195822" x2="562.4415060568251" y2="651.557809257512" style="stroke:rgb(0,0,255);stroke-width:1"/>
<line x1="562.4415060568251" y1="651.557809257512" x2="480.1224081751858" y2="793.9009272359843" style="stroke:rgb(0,0,255);stroke-width:1"/>
<line x1="480.1224081751858" y1="793.9009272359843" x2="562.4415060568251" y2="651.557809257512" style="stroke:rgb(0,0,255);stroke-width:1"/>
<line x1="562.4415060568251" y1="651.557809257512" x2="582.4151376165399" y2="444.81431016988745" style="stroke:rgb(0,0,255);stroke-width:1"/>
<line x1="582.4151376165399" y1="444.81431016988745" x2="562.4415060568251" y2="651.557809257512" style="stroke:rgb(0,0,255);stroke-width:1"/>
<line x1="479.6075314960591" y1="675.7946053195822" x2="582.4151376165399" y2="444.81431016988745" style="stroke:rgb(0,0,255);stroke-width:1"/>
<line x1="582.4151376165399" y1="444.81431016988745" x2="479.6075314960591" y2="675.7946053195822" style="stroke:rgb(0,0,255);stroke-width:1"/>
<line x1="492.2610643723798" y1="390.81500513227206" x2="428.23118590863464" y2="587.0637926159114" style="stroke:rgb(0,0,255);stroke-width:1"/>
<line x1="428.23118590863464" y1="587.0637926159114" x2="492.2610643723798" y2="390.81500513227206" style="stroke:rgb(0,0,255);stroke-width:1"/>
<line x1="492.2610643723798" y1="390.81500513227206" x2="674.6323540269731" y2="513.2003691498" style="stroke:rgb(0,0,255);stroke-width:1"/>
<line x1="674.6323540269731" y1="513.2003691498" x2="492.2610643723798" y2="390.81500513227206" style="stroke:rgb(0,0,255);stroke-width:1"/>
<line x1="492.2610643723798" y1="390.81500513227206" x2="603.5601113408818" y2="520.6882873754782" style="stroke:rgb(0,0,255);stroke-width:1"/>
<line x1="603.5601113408818" y1="520.6882873754782" x2="492.2610643723798" y2="390.81500513227206" style="stroke:rgb(0,0,255);stroke-width:1"/>
<line x1="415.34708768243536" y1="751.1766897180552" x2="603.5601113408818" y2="520.6882873754782" style="stroke:rgb(0,0,255);stroke-width:1"/>
<line x1="603.5601113408818" y1="520.6882873754782" x2="415.34708768243536" y2="751.1766897180552" style="stroke:rgb(0,0,255);stroke-width:1"/>
<line x1="323.18535751583613" y1="480.1465880032682" x2="603.5601113408818" y2="520.6882873754782" style="stroke:rgb(0,0,255);stroke-width:1"/>
<line x1="603.5601113408818" y1="520.6882873754782" x2="323.18535751583613" y2="480.1465880032682" style="stroke:rgb(0,0,255);stroke-width:1"/>
<line x1="841.2991336888128" y1="387.88718040694005" x2="674.6323540269731" y2="513.2003691498" style="stroke:rgb(0,0,255);stroke-width:1"/>
<line x1="674.6323540269731" y1="513.2003691498" x2="841.2991336888128" y2="387.88718040694005" style="stroke:rgb(0,0,255);stroke-width:1"/>
<line x1="841.2991336888128" y1="387.88718040694005" x2="603.5601113408818" y2="520.6882873754782" style="stroke:rgb(0,0,255);stroke-width:1"/>
<line x1="603.5601113408818" y1="520.6882873754782" x2="841.2991336888128" y2="387.88718040694005" style="stroke:rgb(0,0,255);stroke-width:1"/>
<line x1="658.2882135950681" y1="763.2594958470584" x2="674.6323540269731" y2="513.2003691498" style="stroke:rgb(0,0,255);stroke-width:1"/>
<line x1="674.6323540269731" y1="513.2003691498" x2="658.2882135950681" y2="763.2594958470584" style="stroke:rgb(0,0,255);stroke-width:1"/>
<line x1="658.2882135950681" y1="763.2594958470584" x2="603.5601113408818" y2="520.6882873754782" style="stroke:rgb(0,0,255);stroke-width:1"/>
<line x1="603.5601113408818" y1="520.6882873754782" x2="658.2882135950681" y2="763.2594958470584" style="stroke:rgb(0,0,255);stroke-width:1"/>
<line x1="519.060442559758" y1="282.6218975976823" x2="674.6323540269731" y2="513.2003691498" style="stroke:rgb(0,0,255);stroke-width:1"/>
<line x1="674.6323540269731" y1="513.2003691498" x2="519.060442559758" y2="282.6218975976823" style="stroke:rgb(0,0,255);stroke-width:1"/>
<line x1="519.060442559758" y1="282.6218975976823" x2="603.5601113408818" y2="520.6882873754782" style="stroke:rgb(0,0,255);stroke-width:1"/>
<line x1="603.5601113408818" y1="520.6882873754782" x2="519.060442559758" y2="282.6218975976823" style="stroke:rgb(0,0,255);stroke-width:1"/>
<line x1="281.3290784891233" y1="620.3770381933297" x2="603.5601113408818" y2="520.6882873754782" style="stroke:rgb(0,0,255);stroke-width:1"/>
<line x1="603.5601113408818" y1="520.6882873754782" x2="281.3290784891233" y2="620.3770381933297" style="stroke:rgb(0,0,255);stroke-width:1"/>
<line x1="792.2902830150754" y1="298.93510642627416" x2="674.6323540269731" y2="513.2003691498" style="stroke:rgb(0,0,255);stroke-width:1"/>
<line x1="674.6323540269731" y1="513.2003691498" x2="792.2902830150754" y2="298.93510642627416" style="stroke:rgb(0,0,255);stroke-width:1"/>
<line x1="792.2902830150754" y1="298.93510642627416" x2="603.5601113408818" y2="520.6882873754782" style="stroke:rgb(0,0,255);stroke-width:1"/>
<line x1="603.5601113408818" y1="520.6882873754782" x2="792.2902830150754" y2="298.93510642627416" style="stroke:rgb(0,0,255);stroke-width:1"/>
<line x1="763.7932293324005" y1="738.0271669321962" x2="674.6323540269731" y2="513.2003691498" style="stroke:rgb(0,0,255);stroke-width:1"/>
<line x1="674.6323540269731" y1="513.2003691498" x2="763.7932293324005" y2="738.0271669321962" style="stroke:rgb(0,0,255);stroke-width:1"/>
<line x1="763.7932293324005" y1="738.0271669321962" x2="603.5601113408818" y2="520.6882873754782" style="stroke:rgb(0,0,255);stroke-width:1"/>
<line x1="603.5601113408818" y1="520.6882873754782" x2="763.7932293324005" y2="738.0271669321962" style="stroke:rgb(0,0,255);stroke-width:1"/>
<line x1="843.0256312032412" y1="576.9622489574382" x2="976.6652435500985" y2="460.330522334551" style="stroke:rgb(0,0,255);stroke-width:1"/>
<line x1="976.6652435500985" y1="460.330522334551" x2="843.0256312032412" y2="576.9622489574382" style="stroke:rgb(0,0,255);stroke-width:1"/>
<line x1="843.0256312032412" y1="576.9622489574382" x2="733.9739540098194" y2="643.7519305559707" style="stroke:rgb(0,0,255);stroke-width:1"/>
<line x1="733.9739540098194" y1="643.7519305559707" x2="843.0256312032412" y2="576.9622489574382" style="stroke:rgb(0,0,255);stroke-width:1"/>
<line x1="843.0256312032412" y1="576.9622489574382" x2="775.6206025902821" y2="492.0863871502237" style="stroke:rgb(0,0,255);stroke-width:1"/>
<line x1="775.6206025902821" y1="492.0863871502237" x2="843.0256312032412" y2="576.9622489574382" style="stroke:rgb(0,0,255);stroke-width:1"/>
<line x1="843.0256312032412" y1="576.9622489574382" x2="674.6323540269731" y2="513.2003691498" style="stroke:rgb(0,0,255);stroke-width:1"/>
<line x1="674.6323540269731" y1="513.2003691498" x2="843.0256312032412" y2="576.9622489574382" style="stroke:rgb(0,0,255);stroke-width:1"/>
<line x1="843.0256312032412" y1="576.9622489574382" x2="603.5601113408818" y2="520.6882873754782" style="stroke:rgb(0,0,255);stroke-width:1"/>
<line x1="603.5601113408818" y1="520.6882873754782" x2="843.0256312032412" y2="576.9622489574382" style="stroke:rgb(0,0,255);stroke-width:1"/>
<line x1="951.1380016825848" y1="606.2524044635747" x2="976.6652435500985" y2="460.330522334551" style="stroke:rgb(0,0,255);stroke-width:1"/>
<line x1="976.6652435500985" y1="460.330522334551" x2="951.1380016825848" y2="606.2524044635747" style="stroke:rgb(0,0,255);stroke-width:1"/>
<line x1="951.1380016825848" y1="606.2524044635747" x2="733.9739540098194" y2="643.7519305559707" style="stroke:rgb(0,0,255);stroke-width:1"/>
<line x1="733.9739540098194" y1="643.7519305559707" x2="951.1380016825848" y2="606.2524044635747" style="stroke:rgb(0,0,255);stroke-width:1"/>
<line x1="951.1380016825848" y1="606.2524044635747" x2="716.4876719957638" y2="435.6981365850369" style="stroke:rgb(0,0,255);stroke-width:1"/>
<line x1="716.4876719957638" y1="435.6981365850369" x2="951.1380016825848" y2="606.2524044635747" style="stroke:rgb(0,0,255);stroke-width:1"/>
<line x1="976.6652435500985" y1="460.330522334551" x2="716.4876719957638" y2="435.6981365850369" style="stroke:rgb(0,0,255);stroke-width:1"/>
<line x1="716.4876719957638" y1="435.6981365850369" x2="976.6652435500985" y2="460.330522334551" style="stroke:rgb(0,0,255);stroke-width:1"/>
<line x1="694.7753546270661" y1="252.6238439330059" x2="775.6206025902821" y2="492.0863871502237" style="stroke:rgb(0,0,255);stroke-width:1"/>
<line x1="775.6206025902821" y1="492.0863871502237" x2="694.7753546270661" y2="252.6238439330059" style="stroke:rgb(0,0,255);stroke-width:1"/>
<line x1="694.7753546270661" y1="252.6238439330059" x2="603.5601113408818" y2="520.6882873754782" style="stroke:rgb(0,0,255);stroke-width:1"/>
<line x1="603.5601113408818" y1="520.6882873754782" x2="694.7753546270661" y2="252.6238439330059" style="stroke:rgb(0,0,255);stroke-width:1"/>
<line x1="733.9739540098194" y1="643.7519305559707" x2="603.5601113408818" y2="520.6882873754782" style="stroke:rgb(0,0,255);stroke-width:1"/>
<line x1="603.5601113408818" y1="520.6882873754782" x2="733.9739540098194" y2="643.7519305559707" style="stroke:rgb(0,0,255);stroke-width:1"/>
<line x1="598.0556175240298" y1="309.6369845820538" x2="716.4876719957638" y2="435.6981365850369" style="stroke:rgb(0,0,255);stroke-width:1"/>
<line x1="716.4876719957638" y1="435.6981365850369" x2="598.0556175240298" y2="309.6369845820538" style="stroke:rgb(0,0,255);stroke-width:1"/>
<line x1="598.0556175240298" y1="309.6369845820538" x2="603.5601113408818" y2="520.6882873754782" style="stroke:rgb(0,0,255);stroke-width:1"/>
<line x1="603.5601113408818" y1="520.6882873754782" x2="598.0556175240298" y2="309.6369845820538" style="stroke:rgb(0,0,255);stroke-width:1"/>
<line x1="775.6206025902821" y1="492.0863871502237" x2="674.6323540269731" y2="513.2003691498" style="stroke:rgb(0,0,255);stroke-width:1"/>
<line x1="674.6323540269731" y1="513.2003691498" x2="775.6206025902821" y2="492.0863871502237" style="stroke:rgb(0,0,255);stroke-width:1"/>
<line x1="775.6206025902821" y1="492.0863871502237" x2="603.5601113408818" y2="520.6882873754782" style="stroke:rgb(0,0,255);stroke-width:1"/>
<line x1="603.5601113408818" y1="520.6882873754782" x2="775.6206025902821" y2="492.0863871502237" style="stroke:rgb(0,0,255);stroke-width:1"/>
<line x1="428.23118590863464" y1="587.0637926159114" x2="674.6323540269731" y2="513.2003691498" style="stroke:rgb(0,0,255);stroke-width:1"/>
<line x1="674.6323540269731" y1="513.2003691498" x2="428.23118590863464" y2="587.0637926159114" style="stroke:rgb(0,0,255);stroke-width:1"/>
<line x1="428.23118590863464" y1="587.0637926159114" x2="603.5601113408818" y2="520.6882873754782" style="stroke:rgb(0,0,255);stroke-width:1"/>
<line x1="603.5601113408818" y1="520.6882873754782" x2="428.23118590863464" y2="587.0637926159114" style="stroke:rgb(0,0,255);stroke-width:1"/>
<line x1="716.4876719957638" y1="435.6981365850369" x2="674.6323540269731" y2="513.2003691498" style="stroke:rgb(0,0,255);stroke-width:1"/>
<line x1="674.6323540269731" y1="513.2003691498" x2="716.4876719957638" y2="435.6981365850369" style="stroke:rgb(0,0,255);stroke-width:1"/>
<line x1="716.4876719957638" y1="435.6981365850369" x2="603.5601113408818" y2="520.6882873754782" style="stroke:rgb(0,0,255);stroke-width:1"/>
<line x1="603.5601113408818" y1="520.6882873754782" x2="716.4876719957638" y2="435.6981365850369" style="stroke:rgb(0,0,255);stroke-width:1"/>
<line x1="674.6323540269731" y1="513.2003691498" x2="603.5601113408818" y2="520.6882873754782" style="stroke:rgb(0,0,255);stroke-width:1"/>
<line x1="603.5601113408818" y1="520.6882873754782" x2="674.6323540269731" y2="513.2003691498" style="stroke:rgb(0,0,255);stroke-width:1"/>
</svg>
