<svg xmlns="http://www.w3.org/2000/svg" version="1.1" xmlns:xllink="http://www.w3.org/1999/xlink" width="1000" height="1000">
<ellipse cx="325.0223031544592" cy="538.7444507645704" rx="5.60" ry="5.60" style="fill:rgb(255,255,0);stroke:rgb(0,0,0);stroke-width:0.50;"/>
<ellipse cx="292.00418058240996" cy="475.532683081424" rx="5.60" ry="5.60" style="fill:rgb(255,255,0);stroke:rgb(0,0,0);stroke-width:0.50;"/>
<ellipse cx="514.3276098946474" cy="452.0816814942641" rx="5.60" ry="5.60" style="fill:rgb(255,255,0);stroke:rgb(0,0,0);stroke-width:0.50;"/>
<ellipse cx="274.49834209168205" cy="374.3841925722273" rx="5.60" ry="5.60" style="fill:rgb(255,255,0);stroke:rgb(0,0,0);stroke-width:0.50;"/>
<ellipse cx="148.7678050125213" cy="712.0537728599832" rx="5.60" ry="5.60" style="fill:rgb(255,255,0);stroke:rgb(0,0,0);stroke-width:0.50;"/>
<ellipse cx="370.4415060568251" cy="819.557809257512" rx="5.60" ry="5.60" style="fill:rgb(255,255,0);stroke:rgb(0,0,0);stroke-width:0.50;"/>
<ellipse cx="319.6075314960591" cy="716.7946053195822" rx="5.60" ry="5.60" style="fill:rgb(255,255,0);stroke:rgb(0,0,0);stroke-width:0.50;"/>
<ellipse cx="372.55927071489646" cy="332.4994716235334" rx="5.60" ry="5.60" style="fill:rgb(255,255,0);stroke:rgb(0,0,0);stroke-width:0.50;"/>
<ellipse cx="532.2610643723798" cy="366.81500513227206" rx="5.60" ry="5.60" style="fill:rgb(255,255,0);stroke:rgb(0,0,0);stroke-width:0.50;"/>
<ellipse cx="216.1224081751858" cy="801.9009272359843" rx="5.60" ry="5.60" style="fill:rgb(255,255,0);stroke:rgb(0,0,0);stroke-width:0.50;"/>
<ellipse cx="333.9570749376263" cy="216.10305969672982" rx="5.60" ry="5.60" style="fill:rgb(255,255,0);stroke:rgb(0,0,0);stroke-width:0.50;"/>
<ellipse cx="127.7846816196735" cy="333.9882668500301" rx="5.60" ry="5.60" style="fill:rgb(255,255,0);stroke:rgb(0,0,0);stroke-width:0.50;"/>
<ellipse cx="419.18535751583613" cy="450.1465880032682" rx="5.60" ry="5.60" style="fill:rgb(255,255,0);stroke:rgb(0,0,0);stroke-width:0.50;"/>
<ellipse cx="86.96983980851007" cy="472.3523701167976" rx="5.60" ry="5.60" style="fill:rgb(255,255,0);stroke:rgb(0,0,0);stroke-width:0.50;"/>
<ellipse cx="436.3290784891233" cy="578.3770381933297" rx="5.60" ry="5.60" style="fill:rgb(255,255,0);stroke:rgb(0,0,0);stroke-width:0.50;"/>
<ellipse cx="135.3558700891101" cy="579.9963041961464" rx="5.60" ry="5.60" style="fill:rgb(255,255,0);stroke:rgb(0,0,0);stroke-width:0.50;"/>
<ellipse cx="690.4876719957638" cy="567.6981365850369" rx="5.60" ry="5.60" style="fill:rgb(255,255,0);stroke:rgb(0,0,0);stroke-width:0.50;"/>
<ellipse cx="540.2311859086346" cy="523.0637926159114" rx="5.60" ry="5.60" style="fill:rgb(255,255,0);stroke:rgb(0,0,0);stroke-width:0.50;"/>
<ellipse cx="565.3470876824354" cy="649.1766897180552" rx="5.60" ry="5.60" style="fill:rgb(255,255,0);stroke:rgb(0,0,0);stroke-width:0.50;"/>
<ellipse cx="784.9739540098194" cy="541.7519305559707" rx="5.60" ry="5.60" style="fill:rgb(255,255,0);stroke:rgb(0,0,0);stroke-width:0.50;"/>
<ellipse cx="638.0556175240298" cy="333.6369845820538" rx="5.60" ry="5.60" style="fill:rgb(255,255,0);stroke:rgb(0,0,0);stroke-width:0.50;"/>
<ellipse cx="730.6323540269731" cy="435.20036914980005" rx="5.60" ry="5.60" style="fill:rgb(255,255,0);stroke:rgb(0,0,0);stroke-width:0.50;"/>
<ellipse cx="470.41513761653994" cy="768.8143101698874" rx="5.60" ry="5.60" style="fill:rgb(255,255,0);stroke:rgb(0,0,0);stroke-width:0.50;"/>
<ellipse cx="667.5601113408818" cy="444.68828737547824" rx="5.60" ry="5.60" style="fill:rgb(255,255,0);stroke:rgb(0,0,0);stroke-width:0.50;"/>
<ellipse cx="791.2991336888128" cy="305.88718040694005" rx="5.60" ry="5.60" style="fill:rgb(255,255,0);stroke:rgb(0,0,0);stroke-width:0.50;"/>
<ellipse cx="674.2882135950681" cy="685.2594958470584" rx="5.60" ry="5.60" style="fill:rgb(255,255,0);stroke:rgb(0,0,0);stroke-width:0.50;"/>
<ellipse cx="599.060442559758" cy="216.62189759768228" rx="5.60" ry="5.60" style="fill:rgb(255,255,0);stroke:rgb(0,0,0);stroke-width:0.50;"/>
<ellipse cx="712.2902830150754" cy="196.93510642627416" rx="5.60" ry="5.60" style="fill:rgb(255,255,0);stroke:rgb(0,0,0);stroke-width:0.50;"/>
<ellipse cx="771.7932293324005" cy="667.0271669321962" rx="5.60" ry="5.60" style="fill:rgb(255,255,0);stroke:rgb(0,0,0);stroke-width:0.50;"/>
<ellipse cx="915.0256312032412" cy="472.9622489574382" rx="5.60" ry="5.60" style="fill:rgb(255,255,0);stroke:rgb(0,0,0);stroke-width:0.50;"/>
<ellipse cx="952.6652435500985" cy="598.330522334551" rx="5.60" ry="5.60" style="fill:rgb(255,255,0);stroke:rgb(0,0,0);stroke-width:0.50;"/>
<ellipse cx="908.6206025902821" cy="358.0863871502237" rx="5.60" ry="5.60" style="fill:rgb(255,255,0);stroke:rgb(0,0,0);stroke-width:0.50;"/>
<ellipse cx="886.1380016825848" cy="720.2524044635747" rx="5.60" ry="5.60" style="fill:rgb(255,255,0);stroke:rgb(0,0,0);stroke-width:0.50;"/>
<ellipse cx="867.7753546270661" cy="223.6238439330059" rx="5.60" ry="5.60" style="fill:rgb(255,255,0);stroke:rgb(0,0,0);stroke-width:0.50;"/>
<line x1="325.0223031544592" y1="538.7444507645704" x2="292.00418058240996" y2="475.532683081424" style="stroke:rgb(0,0,255);stroke-width:1"/>
<line x1="292.00418058240996" y1="475.532683081424" x2="325.0223031544592" y2="538.7444507645704" style="stroke:rgb(0,0,255);stroke-width:1"/>
<line x1="325.0223031544592" y1="538.7444507645704" x2="514.3276098946474" y2="452.0816814942641" style="stroke:rgb(0,0,255);stroke-width:1"/>
<line x1="514.3276098946474" y1="452.0816814942641" x2="325.0223031544592" y2="538.7444507645704" style="stroke:rgb(0,0,255);stroke-width:1"/>
<line x1="325.0223031544592" y1="538.7444507645704" x2="274.49834209168205" y2="374.3841925722273" style="stroke:rgb(0,0,255);stroke-width:1"/>
<line x1="274.49834209168205" y1="374.3841925722273" x2="325.0223031544592" y2="538.7444507645704" style="stroke:rgb(0,0,255);stroke-width:1"/>
<line x1="325.0223031544592" y1="538.7444507645704" x2="148.7678050125213" y2="712.0537728599832" style="stroke:rgb(0,0,255);stroke-width:1"/>
<line x1="148.7678050125213" y1="712.0537728599832" x2="325.0223031544592" y2="538.7444507645704" style="stroke:rgb(0,0,255);stroke-width:1"/>
<line x1="325.0223031544592" y1="538.7444507645704" x2="370.4415060568251" y2="819.557809257512" style="stroke:rgb(0,0,255);stroke-width:1"/>
<line x1="370.4415060568251" y1="819.557809257512" x2="325.0223031544592" y2="538.7444507645704" style="stroke:rgb(0,0,255);stroke-width:1"/>
<line x1="325.0223031544592" y1="538.7444507645704" x2="319.6075314960591" y2="716.7946053195822" style="stroke:rgb(0,0,255);stroke-width:1"/>
<line x1="319.6075314960591" y1="716.7946053195822" x2="325.0223031544592" y2="538.7444507645704" style="stroke:rgb(0,0,255);stroke-width:1"/>
<line x1="325.0223031544592" y1="538.7444507645704" x2="372.55927071489646" y2="332.4994716235334" style="stroke:rgb(0,0,255);stroke-width:1"/>
<line x1="372.55927071489646" y1="332.4994716235334" x2="325.0223031544592" y2="538.7444507645704" style="stroke:rgb(0,0,255);stroke-width:1"/>
<line x1="325.0223031544592" y1="538.7444507645704" x2="532.2610643723798" y2="366.81500513227206" style="stroke:rgb(0,0,255);stroke-width:1"/>
<line x1="532.2610643723798" y1="366.81500513227206" x2="325.0223031544592" y2="538.7444507645704" style="stroke:rgb(0,0,255);stroke-width:1"/>
<line x1="325.0223031544592" y1="538.7444507645704" x2="216.1224081751858" y2="801.9009272359843" style="stroke:rgb(0,0,255);stroke-width:1"/>
<line x1="216.1224081751858" y1="801.9009272359843" x2="325.0223031544592" y2="538.7444507645704" style="stroke:rgb(0,0,255);stroke-width:1"/>
<line x1="325.0223031544592" y1="538.7444507645704" x2="333.9570749376263" y2="216.10305969672982" style="stroke:rgb(0,0,255);stroke-width:1"/>
<line x1="333.9570749376263" y1="216.10305969672982" x2="325.0223031544592" y2="538.7444507645704" style="stroke:rgb(0,0,255);stroke-width:1"/>
<line x1="325.0223031544592" y1="538.7444507645704" x2="127.7846816196735" y2="333.9882668500301" style="stroke:rgb(0,0,255);stroke-width:1"/>
<line x1="127.7846816196735" y1="333.9882668500301" x2="325.0223031544592" y2="538.7444507645704" style="stroke:rgb(0,0,255);stroke-width:1"/>
<line x1="325.0223031544592" y1="538.7444507645704" x2="419.18535751583613" y2="450.1465880032682" style="stroke:rgb(0,0,255);stroke-width:1"/>
<line x1="419.18535751583613" y1="450.1465880032682" x2="325.0223031544592" y2="538.7444507645704" style="stroke:rgb(0,0,255);stroke-width:1"/>
<line x1="325.0223031544592" y1="538.7444507645704" x2="86.96983980851007" y2="472.3523701167976" style="stroke:rgb(0,0,255);stroke-width:1"/>
<line x1="86.96983980851007" y1="472.3523701167976" x2="325.0223031544592" y2="538.7444507645704" style="stroke:rgb(0,0,255);stroke-width:1"/>
<line x1="325.0223031544592" y1="538.7444507645704" x2="436.3290784891233" y2="578.3770381933297" style="stroke:rgb(0,0,255);stroke-width:1"/>
<line x1="436.3290784891233" y1="578.3770381933297" x2="325.0223031544592" y2="538.7444507645704" style="stroke:rgb(0,0,255);stroke-width:1"/>
<line x1="325.0223031544592" y1="538.7444507645704" x2="135.3558700891101" y2="579.9963041961464" style="stroke:rgb(0,0,255);stroke-width:1"/>
<line x1="135.3558700891101" y1="579.9963041961464" x2="325.0223031544592" y2="538.7444507645704" style="stroke:rgb(0,0,255);stroke-width:1"/>
<line x1="325.0223031544592" y1="538.7444507645704" x2="690.4876719957638" y2="567.6981365850369" style="stroke:rgb(0,0,255);stroke-width:1"/>
<line x1="690.4876719957638" y1="567.6981365850369" x2="325.0223031544592" y2="538.7444507645704" style="stroke:rgb(0,0,255);stroke-width:1"/>
<line x1="292.00418058240996" y1="475.532683081424" x2="514.3276098946474" y2="452.0816814942641" style="stroke:rgb(0,0,255);stroke-width:1"/>
<line x1="514.3276098946474" y1="452.0816814942641" x2="292.00418058240996" y2="475.532683081424" style="stroke:rgb(0,0,255);stroke-width:1"/>
<line x1="292.00418058240996" y1="475.532683081424" x2="274.49834209168205" y2="374.3841925722273" style="stroke:rgb(0,0,255);stroke-width:1"/>
<line x1="274.49834209168205" y1="374.3841925722273" x2="292.00418058240996" y2="475.532683081424" style="stroke:rgb(0,0,255);stroke-width:1"/>
<line x1="292.00418058240996" y1="475.532683081424" x2="372.55927071489646" y2="332.4994716235334" style="stroke:rgb(0,0,255);stroke-width:1"/>
<line x1="372.55927071489646" y1="332.4994716235334" x2="292.00418058240996" y2="475.532683081424" style="stroke:rgb(0,0,255);stroke-width:1"/>
<line x1="292.00418058240996" y1="475.532683081424" x2="419.18535751583613" y2="450.1465880032682" style="stroke:rgb(0,0,255);stroke-width:1"/>
<line x1="419.18535751583613" y1="450.1465880032682" x2="292.00418058240996" y2="475.532683081424" style="stroke:rgb(0,0,255);stroke-width:1"/>
<line x1="292.00418058240996" y1="475.532683081424" x2="86.96983980851007" y2="472.3523701167976" style="stroke:rgb(0,0,255);stroke-width:1"/>
<line x1="86.96983980851007" y1="472.3523701167976" x2="292.00418058240996" y2="475.532683081424" style="stroke:rgb(0,0,255);stroke-width:1"/>
<line x1="292.00418058240996" y1="475.532683081424" x2="436.3290784891233" y2="578.3770381933297" style="stroke:rgb(0,0,255);stroke-width:1"/>
<line x1="436.3290784891233" y1="578.3770381933297" x2="292.00418058240996" y2="475.532683081424" style="stroke:rgb(0,0,255);stroke-width:1"/>
<line x1="292.00418058240996" y1="475.532683081424" x2="135.3558700891101" y2="579.9963041961464" style="stroke:rgb(0,0,255);stroke-width:1"/>
<line x1="135.3558700891101" y1="579.9963041961464" x2="292.00418058240996" y2="475.532683081424" style="stroke:rgb(0,0,255);stroke-width:1"/>
<line x1="292.00418058240996" y1="475.532683081424" x2="540.2311859086346" y2="523.0637926159114" style="stroke:rgb(0,0,255);stroke-width:1"/>
<line x1="540.2311859086346" y1="523.0637926159114" x2="292.00418058240996" y2="475.532683081424" style="stroke:rgb(0,0,255);stroke-width:1"/>
<line x1="514.3276098946474" y1="452.0816814942641" x2="274.49834209168205" y2="374.3841925722273" style="stroke:rgb(0,0,255);stroke-width:1"/>
<line x1="274.49834209168205" y1="374.3841925722273" x2="514.3276098946474" y2="452.0816814942641" style="stroke:rgb(0,0,255);stroke-width:1"/>
<line x1="514.3276098946474" y1="452.0816814942641" x2="372.55927071489646" y2="332.4994716235334" style="stroke:rgb(0,0,255);stroke-width:1"/>
<line x1="372.55927071489646" y1="332.4994716235334" x2="514.3276098946474" y2="452.0816814942641" style="stroke:rgb(0,0,255);stroke-width:1"/>
<line x1="514.3276098946474" y1="452.0816814942641" x2="532.2610643723798" y2="366.81500513227206" style="stroke:rgb(0,0,255);stroke-width:1"/>
<line x1="532.2610643723798" y1="366.81500513227206" x2="514.3276098946474" y2="452.0816814942641" style="stroke:rgb(0,0,255);stroke-width:1"/>
<line x1="514.3276098946474" y1="452.0816814942641" x2="565.3470876824354" y2="649.1766897180552" style="stroke:rgb(0,0,255);stroke-width:1"/>
<line x1="565.3470876824354" y1="649.1766897180552" x2="514.3276098946474" y2="452.0816814942641" style="stroke:rgb(0,0,255);stroke-width:1"/>
<line x1="514.3276098946474" y1="452.0816814942641" x2="419.18535751583613" y2="450.1465880032682" style="stroke:rgb(0,0,255);stroke-width:1"/>
<line x1="419.18535751583613" y1="450.1465880032682" x2="514.3276098946474" y2="452.0816814942641" style="stroke:rgb(0,0,255);stroke-width:1"/>
<line x1="514.3276098946474" y1="452.0816814942641" x2="784.9739540098194" y2="541.7519305559707" style="stroke:rgb(0,0,255);stroke-width:1"/>
<line x1="784.9739540098194" y1="541.7519305559707" x2="514.3276098946474" y2="452.0816814942641" style="stroke:rgb(0,0,255);stroke-width:1"/>
<line x1="514.3276098946474" y1="452.0816814942641" x2="638.0556175240298" y2="333.6369845820538" style="stroke:rgb(0,0,255);stroke-width:1"/>
<line x1="638.0556175240298" y1="333.6369845820538" x2="514.3276098946474" y2="452.0816814942641" style="stroke:rgb(0,0,255);stroke-width:1"/>
<line x1="514.3276098946474" y1="452.0816814942641" x2="730.6323540269731" y2="435.20036914980005" style="stroke:rgb(0,0,255);stroke-width:1"/>
<line x1="730.6323540269731" y1="435.20036914980005" x2="514.3276098946474" y2="452.0816814942641" style="stroke:rgb(0,0,255);stroke-width:1"/>
<line x1="274.49834209168205" y1="374.3841925722273" x2="372.55927071489646" y2="332.4994716235334" style="stroke:rgb(0,0,255);stroke-width:1"/>
<line x1="372.55927071489646" y1="332.4994716235334" x2="274.49834209168205" y2="374.3841925722273" style="stroke:rgb(0,0,255);stroke-width:1"/>
<line x1="274.49834209168205" y1="374.3841925722273" x2="127.7846816196735" y2="333.9882668500301" style="stroke:rgb(0,0,255);stroke-width:1"/>
<line x1="127.7846816196735" y1="333.9882668500301" x2="274.49834209168205" y2="374.3841925722273" style="stroke:rgb(0,0,255);stroke-width:1"/>
<line x1="274.49834209168205" y1="374.3841925722273" x2="419.18535751583613" y2="450.1465880032682" style="stroke:rgb(0,0,255);stroke-width:1"/>
<line x1="419.18535751583613" y1="450.1465880032682" x2="274.49834209168205" y2="374.3841925722273" style="stroke:rgb(0,0,255);stroke-width:1"/>
<line x1="148.7678050125213" y1="712.0537728599832" x2="319.6075314960591" y2="716.7946053195822" style="stroke:rgb(0,0,255);stroke-width:1"/>
<line x1="319.6075314960591" y1="716.7946053195822" x2="148.7678050125213" y2="712.0537728599832" style="stroke:rgb(0,0,255);stroke-width:1"/>
<line x1="148.7678050125213" y1="712.0537728599832" x2="216.1224081751858" y2="801.9009272359843" style="stroke:rgb(0,0,255);stroke-width:1"/>
<line x1="216.1224081751858" y1="801.9009272359843" x2="148.7678050125213" y2="712.0537728599832" style="stroke:rgb(0,0,255);stroke-width:1"/>
<line x1="370.4415060568251" y1="819.557809257512" x2="319.6075314960591" y2="716.7946053195822" style="stroke:rgb(0,0,255);stroke-width:1"/>
<line x1="319.6075314960591" y1="716.7946053195822" x2="370.4415060568251" y2="819.557809257512" style="stroke:rgb(0,0,255);stroke-width:1"/>
<line x1="370.4415060568251" y1="819.557809257512" x2="216.1224081751858" y2="801.9009272359843" style="stroke:rgb(0,0,255);stroke-width:1"/>
<line x1="216.1224081751858" y1="801.9009272359843" x2="370.4415060568251" y2="819.557809257512" style="stroke:rgb(0,0,255);stroke-width:1"/>
<line x1="370.4415060568251" y1="819.557809257512" x2="470.41513761653994" y2="768.8143101698874" style="stroke:rgb(0,0,255);stroke-width:1"/>
<line x1="470.41513761653994" y1="768.8143101698874" x2="370.4415060568251" y2="819.557809257512" style="stroke:rgb(0,0,255);stroke-width:1"/>
<line x1="319.6075314960591" y1="716.7946053195822" x2="470.41513761653994" y2="768.8143101698874" style="stroke:rgb(0,0,255);stroke-width:1"/>
<line x1="470.41513761653994" y1="768.8143101698874" x2="319.6075314960591" y2="716.7946053195822" style="stroke:rgb(0,0,255);stroke-width:1"/>
<line x1="532.2610643723798" y1="366.81500513227206" x2="540.2311859086346" y2="523.0637926159114" style="stroke:rgb(0,0,255);stroke-width:1"/>
<line x1="540.2311859086346" y1="523.0637926159114" x2="532.2610643723798" y2="366.81500513227206" style="stroke:rgb(0,0,255);stroke-width:1"/>
<line x1="532.2610643723798" y1="366.81500513227206" x2="730.6323540269731" y2="435.20036914980005" style="stroke:rgb(0,0,255);stroke-width:1"/>
<line x1="730.6323540269731" y1="435.20036914980005" x2="532.2610643723798" y2="366.81500513227206" style="stroke:rgb(0,0,255);stroke-width:1"/>
<line x1="532.2610643723798" y1="366.81500513227206" x2="667.5601113408818" y2="444.68828737547824" style="stroke:rgb(0,0,255);stroke-width:1"/>
<line x1="667.5601113408818" y1="444.68828737547824" x2="532.2610643723798" y2="366.81500513227206" style="stroke:rgb(0,0,255);stroke-width:1"/>
<line x1="565.3470876824354" y1="649.1766897180552" x2="667.5601113408818" y2="444.68828737547824" style="stroke:rgb(0,0,255);stroke-width:1"/>
<line x1="667.5601113408818" y1="444.68828737547824" x2="565.3470876824354" y2="649.1766897180552" style="stroke:rgb(0,0,255);stroke-width:1"/>
<line x1="419.18535751583613" y1="450.1465880032682" x2="667.5601113408818" y2="444.68828737547824" style="stroke:rgb(0,0,255);stroke-width:1"/>
<line x1="667.5601113408818" y1="444.68828737547824" x2="419.18535751583613" y2="450.1465880032682" style="stroke:rgb(0,0,255);stroke-width:1"/>
<line x1="791.2991336888128" y1="305.88718040694005" x2="730.6323540269731" y2="435.20036914980005" style="stroke:rgb(0,0,255);stroke-width:1"/>
<line x1="730.6323540269731" y1="435.20036914980005" x2="791.2991336888128" y2="305.88718040694005" style="stroke:rgb(0,0,255);stroke-width:1"/>
<line x1="791.2991336888128" y1="305.88718040694005" x2="667.5601113408818" y2="444.68828737547824" style="stroke:rgb(0,0,255);stroke-width:1"/>
<line x1="667.5601113408818" y1="444.68828737547824" x2="791.2991336888128" y2="305.88718040694005" style="stroke:rgb(0,0,255);stroke-width:1"/>
<line x1="674.2882135950681" y1="685.2594958470584" x2="730.6323540269731" y2="435.20036914980005" style="stroke:rgb(0,0,255);stroke-width:1"/>
<line x1="730.6323540269731" y1="435.20036914980005" x2="674.2882135950681" y2="685.2594958470584" style="stroke:rgb(0,0,255);stroke-width:1"/>
<line x1="674.2882135950681" y1="685.2594958470584" x2="667.5601113408818" y2="444.68828737547824" style="stroke:rgb(0,0,255);stroke-width:1"/>
<line x1="667.5601113408818" y1="444.68828737547824" x2="674.2882135950681" y2="685.2594958470584" style="stroke:rgb(0,0,255);stroke-width:1"/>
<line x1="599.060442559758" y1="216.62189759768228" x2="730.6323540269731" y2="435.20036914980005" style="stroke:rgb(0,0,255);stroke-width:1"/>
<line x1="730.6323540269731" y1="435.20036914980005" x2="599.060442559758" y2="216.62189759768228" style="stroke:rgb(0,0,255);stroke-width:1"/>
<line x1="599.060442559758" y1="216.62189759768228" x2="667.5601113408818" y2="444.68828737547824" style="stroke:rgb(0,0,255);stroke-width:1"/>
<line x1="667.5601113408818" y1="444.68828737547824" x2="599.060442559758" y2="216.62189759768228" style="stroke:rgb(0,0,255);stroke-width:1"/>
<line x1="436.3290784891233" y1="578.3770381933297" x2="667.5601113408818" y2="444.68828737547824" style="stroke:rgb(0,0,255);stroke-width:1"/>
<line x1="667.5601113408818" y1="444.68828737547824" x2="436.3290784891233" y2="578.3770381933297" style="stroke:rgb(0,0,255);stroke-width:1"/>
<line x1="712.2902830150754" y1="196.93510642627416" x2="730.6323540269731" y2="435.20036914980005" style="stroke:rgb(0,0,255);stroke-width:1"/>
<line x1="730.6323540269731" y1="435.20036914980005" x2="712.2902830150754" y2="196.93510642627416" style="stroke:rgb(0,0,255);stroke-width:1"/>
<line x1="712.2902830150754" y1="196.93510642627416" x2="667.5601113408818" y2="444.68828737547824" style="stroke:rgb(0,0,255);stroke-width:1"/>
<line x1="667.5601113408818" y1="444.68828737547824" x2="712.2902830150754" y2="196.93510642627416" style="stroke:rgb(0,0,255);stroke-width:1"/>
<line x1="771.7932293324005" y1="667.0271669321962" x2="730.6323540269731" y2="435.20036914980005" style="stroke:rgb(0,0,255);stroke-width:1"/>
<line x1="730.6323540269731" y1="435.20036914980005" x2="771.7932293324005" y2="667.0271669321962" style="stroke:rgb(0,0,255);stroke-width:1"/>
<line x1="771.7932293324005" y1="667.0271669321962" x2="667.5601113408818" y2="444.68828737547824" style="stroke:rgb(0,0,255);stroke-width:1"/>
<line x1="667.5601113408818" y1="444.68828737547824" x2="771.7932293324005" y2="667.0271669321962" style="stroke:rgb(0,0,255);stroke-width:1"/>
<line x1="915.0256312032412" y1="472.9622489574382" x2="952.6652435500985" y2="598.330522334551" style="stroke:rgb(0,0,255);stroke-width:1"/>
<line x1="952.6652435500985" y1="598.330522334551" x2="915.0256312032412" y2="472.9622489574382" style="stroke:rgb(0,0,255);stroke-width:1"/>
<line x1="915.0256312032412" y1="472.9622489574382" x2="784.9739540098194" y2="541.7519305559707" style="stroke:rgb(0,0,255);stroke-width:1"/>
<line x1="784.9739540098194" y1="541.7519305559707" x2="915.0256312032412" y2="472.9622489574382" style="stroke:rgb(0,0,255);stroke-width:1"/>
<line x1="915.0256312032412" y1="472.9622489574382" x2="908.6206025902821" y2="358.0863871502237" style="stroke:rgb(0,0,255);stroke-width:1"/>
<line x1="908.6206025902821" y1="358.0863871502237" x2="915.0256312032412" y2="472.9622489574382" style="stroke:rgb(0,0,255);stroke-width:1"/>
<line x1="915.0256312032412" y1="472.9622489574382" x2="730.6323540269731" y2="435.20036914980005" style="stroke:rgb(0,0,255);stroke-width:1"/>
<line x1="730.6323540269731" y1="435.20036914980005" x2="915.0256312032412" y2="472.9622489574382" style="stroke:rgb(0,0,255);stroke-width:1"/>
<line x1="915.0256312032412" y1="472.9622489574382" x2="667.5601113408818" y2="444.68828737547824" style="stroke:rgb(0,0,255);stroke-width:1"/>
<line x1="667.5601113408818" y1="444.68828737547824" x2="915.0256312032412" y2="472.9622489574382" style="stroke:rgb(0,0,255);stroke-width:1"/>
<line x1="886.1380016825848" y1="720.2524044635747" x2="952.6652435500985" y2="598.330522334551" style="stroke:rgb(0,0,255);stroke-width:1"/>
<line x1="952.6652435500985" y1="598.330522334551" x2="886.1380016825848" y2="720.2524044635747" style="stroke:rgb(0,0,255);stroke-width:1"/>
<line x1="886.1380016825848" y1="720.2524044635747" x2="784.9739540098194" y2="541.7519305559707" style="stroke:rgb(0,0,255);stroke-width:1"/>
<line x1="784.9739540098194" y1="541.7519305559707" x2="886.1380016825848" y2="720.2524044635747" style="stroke:rgb(0,0,255);stroke-width:1"/>
<line x1="886.1380016825848" y1="720.2524044635747" x2="690.4876719957638" y2="567.6981365850369" style="stroke:rgb(0,0,255);stroke-width:1"/>
<line x1="690.4876719957638" y1="567.6981365850369" x2="886.1380016825848" y2="720.2524044635747" style="stroke:rgb(0,0,255);stroke-width:1"/>
<line x1="952.6652435500985" y1="598.330522334551" x2="690.4876719957638" y2="567.6981365850369" style="stroke:rgb(0,0,255);stroke-width:1"/>
<line x1="690.4876719957638" y1="567.6981365850369" x2="952.6652435500985" y2="598.330522334551" style="stroke:rgb(0,0,255);stroke-width:1"/>
<line x1="867.7753546270661" y1="223.6238439330059" x2="908.6206025902821" y2="358.0863871502237" style="stroke:rgb(0,0,255);stroke-width:1"/>
<line x1="908.6206025902821" y1="358.0863871502237" x2="867.7753546270661" y2="223.6238439330059" style="stroke:rgb(0,0,255);stroke-width:1"/>
<line x1="867.7753546270661" y1="223.6238439330059" x2="667.5601113408818" y2="444.68828737547824" style="stroke:rgb(0,0,255);stroke-width:1"/>
<line x1="667.5601113408818" y1="444.68828737547824" x2="867.7753546270661" y2="223.6238439330059" style="stroke:rgb(0,0,255);stroke-width:1"/>
<line x1="784.9739540098194" y1="541.7519305559707" x2="667.5601113408818" y2="444.68828737547824" style="stroke:rgb(0,0,255);stroke-width:1"/>
<line x1="667.5601113408818" y1="444.68828737547824" x2="784.9739540098194" y2="541.7519305559707" style="stroke:rgb(0,0,255);stroke-width:1"/>
<line x1="638.0556175240298" y1="333.6369845820538" x2="690.4876719957638" y2="567.6981365850369" style="stroke:rgb(0,0,255);stroke-width:1"/>
<line x1="690.4876719957638" y1="567.6981365850369" x2="638.0556175240298" y2="333.6369845820538" style="stroke:rgb(0,0,255);stroke-width:1"/>
<line x1="638.0556175240298" y1="333.6369845820538" x2="667.5601113408818" y2="444.68828737547824" style="stroke:rgb(0,0,255);stroke-width:1"/>
<line x1="667.5601113408818" y1="444.68828737547824" x2="638.0556175240298" y2="333.6369845820538" style="stroke:rgb(0,0,255);stroke-width:1"/>
<line x1="908.6206025902821" y1="358.0863871502237" x2="730.6323540269731" y2="435.20036914980005" style="stroke:rgb(0,0,255);stroke-width:1"/>
<line x1="730.6323540269731" y1="435.20036914980005" x2="908.6206025902821" y2="358.0863871502237" style="stroke:rgb(0,0,255);stroke-width:1"/>
<line x1="908.6206025902821" y1="358.0863871502237" x2="667.5601113408818" y2="444.68828737547824" style="stroke:rgb(0,0,255);stroke-width:1"/>
<line x1="667.5601113408818" y1="444.68828737547824" x2="908.6206025902821" y2="358.0863871502237" style="stroke:rgb(0,0,255);stroke-width:1"/>
<line x1="540.2311859086346" y1="523.0637926159114" x2="730.6323540269731" y2="435.20036914980005" style="stroke:rgb(0,0,255);stroke-width:1"/>
<line x1="730.6323540269731" y1="435.20036914980005" x2="540.2311859086346" y2="523.0637926159114" style="stroke:rgb(0,0,255);stroke-width:1"/>
<line x1="540.2311859086346" y1="523.0637926159114" x2="667.5601113408818" y2="444.68828737547824" style="stroke:rgb(0,0,255);stroke-width:1"/>
<line x1="667.5601113408818" y1="444.68828737547824" x2="540.2311859086346" y2="523.0637926159114" style="stroke:rgb(0,0,255);stroke-width:1"/>
<line x1="690.4876719957638" y1="567.6981365850369" x2="730.6323540269731" y2="435.20036914980005" style="stroke:rgb(0,0,255);stroke-width:1"/>
<line x1="730.6323540269731" y1="435.20036914980005" x2="690.4876719957638" y2="567.6981365850369" style="stroke:rgb(0,0,255);stroke-width:1"/>
<line x1="690.4876719957638" y1="567.6981365850369" x2="667.5601113408818" y2="444.68828737547824" style="stroke:rgb(0,0,255);stroke-width:1"/>
<line x1="667.5601113408818" y1="444.68828737547824" x2="690.4876719957638" y2="567.6981365850369" style="stroke:rgb(0,0,255);stroke-width:1"/>
<line x1="730.6323540269731" y1="435.20036914980005" x2="667.5601113408818" y2="444.68828737547824" style="stroke:rgb(0,0,255);stroke-width:1"/>
<line x1="667.5601113408818" y1="444.68828737547824" x2="730.6323540269731" y2="435.20036914980005" style="stroke:rgb(0,0,255);stroke-width:1"/>
</svg>
