<svg xmlns="http://www.w3.org/2000/svg" version="1.1" xmlns:xllink="http://www.w3.org/1999/xlink" width="1000" height="1000">
<ellipse cx="325.0223031544592" cy="538.7444507645704" rx="5.60" ry="5.60" style="fill:rgb(255,255,0);stroke:rgb(0,0,0);stroke-width:0.50;"/>
<ellipse cx="292.00418058240996" cy="475.532683081424" rx="5.60" ry="5.60" style="fill:rgb(255,255,0);stroke:rgb(0,0,0);stroke-width:0.50;"/>
<ellipse cx="506.32760989464737" cy="452.0816814942641" rx="5.60" ry="5.60" style="fill:rgb(255,255,0);stroke:rgb(0,0,0);stroke-width:0.50;"/>
<ellipse cx="274.49834209168205" cy="368.3841925722273" rx="5.60" ry="5.60" style="fill:rgb(255,255,0);stroke:rgb(0,0,0);stroke-width:0.50;"/>
<ellipse cx="148.7678050125213" cy="712.0537728599832" rx="5.60" ry="5.60" style="fill:rgb(255,255,0);stroke:rgb(0,0,0);stroke-width:0.50;"/>
<ellipse cx="378.4415060568251" cy="813.557809257512" rx="5.60" ry="5.60" style="fill:rgb(255,255,0);stroke:rgb(0,0,0);stroke-width:0.50;"/>
<ellipse cx="335.6075314960591" cy="724.7946053195822" rx="5.60" ry="5.60" style="fill:rgb(255,255,0);stroke:rgb(0,0,0);stroke-width:0.50;"/>
<ellipse cx="372.55927071489646" cy="332.4994716235334" rx="5.60" ry="5.60" style="fill:rgb(255,255,0);stroke:rgb(0,0,0);stroke-width:0.50;"/>
<ellipse cx="524.2610643723798" cy="366.81500513227206" rx="5.60" ry="5.60" style="fill:rgb(255,255,0);stroke:rgb(0,0,0);stroke-width:0.50;"/>
<ellipse cx="239.1224081751858" cy="782.9009272359843" rx="5.60" ry="5.60" style="fill:rgb(255,255,0);stroke:rgb(0,0,0);stroke-width:0.50;"/>
<ellipse cx="333.9570749376263" cy="216.10305969672982" rx="5.60" ry="5.60" style="fill:rgb(255,255,0);stroke:rgb(0,0,0);stroke-width:0.50;"/>
<ellipse cx="127.7846816196735" cy="327.9882668500301" rx="5.60" ry="5.60" style="fill:rgb(255,255,0);stroke:rgb(0,0,0);stroke-width:0.50;"/>
<ellipse cx="411.18535751583613" cy="438.1465880032682" rx="5.60" ry="5.60" style="fill:rgb(255,255,0);stroke:rgb(0,0,0);stroke-width:0.50;"/>
<ellipse cx="86.96983980851007" cy="472.3523701167976" rx="5.60" ry="5.60" style="fill:rgb(255,255,0);stroke:rgb(0,0,0);stroke-width:0.50;"/>
<ellipse cx="436.3290784891233" cy="602.3770381933297" rx="5.60" ry="5.60" style="fill:rgb(255,255,0);stroke:rgb(0,0,0);stroke-width:0.50;"/>
<ellipse cx="135.3558700891101" cy="573.9963041961464" rx="5.60" ry="5.60" style="fill:rgb(255,255,0);stroke:rgb(0,0,0);stroke-width:0.50;"/>
<ellipse cx="682.4876719957638" cy="561.6981365850369" rx="5.60" ry="5.60" style="fill:rgb(255,255,0);stroke:rgb(0,0,0);stroke-width:0.50;"/>
<ellipse cx="540.2311859086346" cy="529.0637926159114" rx="5.60" ry="5.60" style="fill:rgb(255,255,0);stroke:rgb(0,0,0);stroke-width:0.50;"/>
<ellipse cx="559.3470876824354" cy="643.1766897180552" rx="5.60" ry="5.60" style="fill:rgb(255,255,0);stroke:rgb(0,0,0);stroke-width:0.50;"/>
<ellipse cx="784.9739540098194" cy="535.7519305559707" rx="5.60" ry="5.60" style="fill:rgb(255,255,0);stroke:rgb(0,0,0);stroke-width:0.50;"/>
<ellipse cx="638.0556175240298" cy="333.6369845820538" rx="5.60" ry="5.60" style="fill:rgb(255,255,0);stroke:rgb(0,0,0);stroke-width:0.50;"/>
<ellipse cx="730.6323540269731" cy="423.20036914980005" rx="5.60" ry="5.60" style="fill:rgb(255,255,0);stroke:rgb(0,0,0);stroke-width:0.50;"/>
<ellipse cx="481.41513761653994" cy="888.8143101698874" rx="5.60" ry="5.60" style="fill:rgb(255,255,0);stroke:rgb(0,0,0);stroke-width:0.50;"/>
<ellipse cx="667.5601113408818" cy="438.68828737547824" rx="5.60" ry="5.60" style="fill:rgb(255,255,0);stroke:rgb(0,0,0);stroke-width:0.50;"/>
<ellipse cx="783.2991336888128" cy="287.88718040694005" rx="5.60" ry="5.60" style="fill:rgb(255,255,0);stroke:rgb(0,0,0);stroke-width:0.50;"/>
<ellipse cx="658.2882135950681" cy="691.2594958470584" rx="5.60" ry="5.60" style="fill:rgb(255,255,0);stroke:rgb(0,0,0);stroke-width:0.50;"/>
<ellipse cx="591.060442559758" cy="210.62189759768228" rx="5.60" ry="5.60" style="fill:rgb(255,255,0);stroke:rgb(0,0,0);stroke-width:0.50;"/>
<ellipse cx="704.2902830150754" cy="196.93510642627416" rx="5.60" ry="5.60" style="fill:rgb(255,255,0);stroke:rgb(0,0,0);stroke-width:0.50;"/>
<ellipse cx="755.7932293324005" cy="673.0271669321962" rx="5.60" ry="5.60" style="fill:rgb(255,255,0);stroke:rgb(0,0,0);stroke-width:0.50;"/>
<ellipse cx="915.0256312032412" cy="472.9622489574382" rx="5.60" ry="5.60" style="fill:rgb(255,255,0);stroke:rgb(0,0,0);stroke-width:0.50;"/>
<ellipse cx="952.6652435500985" cy="598.330522334551" rx="5.60" ry="5.60" style="fill:rgb(255,255,0);stroke:rgb(0,0,0);stroke-width:0.50;"/>
<ellipse cx="908.6206025902821" cy="358.0863871502237" rx="5.60" ry="5.60" style="fill:rgb(255,255,0);stroke:rgb(0,0,0);stroke-width:0.50;"/>
<ellipse cx="878.1380016825848" cy="720.2524044635747" rx="5.60" ry="5.60" style="fill:rgb(255,255,0);stroke:rgb(0,0,0);stroke-width:0.50;"/>
<ellipse cx="891.7753546270661" cy="229.6238439330059" rx="5.60" ry="5.60" style="fill:rgb(255,255,0);stroke:rgb(0,0,0);stroke-width:0.50;"/>
<line x1="325.0223031544592" y1="538.7444507645704" x2="292.00418058240996" y2="475.532683081424" style="stroke:rgb(0,0,255);stroke-width:1"/>
<line x1="292.00418058240996" y1="475.532683081424" x2="325.0223031544592" y2="538.7444507645704" style="stroke:rgb(0,0,255);stroke-width:1"/>
<line x1="325.0223031544592" y1="538.7444507645704" x2="506.32760989464737" y2="452.0816814942641" style="stroke:rgb(0,0,255);stroke-width:1"/>
<line x1="506.32760989464737" y1="452.0816814942641" x2="325.0223031544592" y2="538.7444507645704" style="stroke:rgb(0,0,255);stroke-width:1"/>
<line x1="325.0223031544592" y1="538.7444507645704" x2="274.49834209168205" y2="368.3841925722273" style="stroke:rgb(0,0,255);stroke-width:1"/>
<line x1="274.49834209168205" y1="368.3841925722273" x2="325.0223031544592" y2="538.7444507645704" style="stroke:rgb(0,0,255);stroke-width:1"/>
<line x1="325.0223031544592" y1="538.7444507645704" x2="148.7678050125213" y2="712.0537728599832" style="stroke:rgb(0,0,255);stroke-width:1"/>
<line x1="148.7678050125213" y1="712.0537728599832" x2="325.0223031544592" y2="538.7444507645704" style="stroke:rgb(0,0,255);stroke-width:1"/>
<line x1="325.0223031544592" y1="538.7444507645704" x2="378.4415060568251" y2="813.557809257512" style="stroke:rgb(0,0,255);stroke-width:1"/>
<line x1="378.4415060568251" y1="813.557809257512" x2="325.0223031544592" y2="538.7444507645704" style="stroke:rgb(0,0,255);stroke-width:1"/>
<line x1="325.0223031544592" y1="538.7444507645704" x2="335.6075314960591" y2="724.7946053195822" style="stroke:rgb(0,0,255);stroke-width:1"/>
<line x1="335.6075314960591" y1="724.7946053195822" x2="325.0223031544592" y2="538.7444507645704" style="stroke:rgb(0,0,255);stroke-width:1"/>
<line x1="325.0223031544592" y1="538.7444507645704" x2="372.55927071489646" y2="332.4994716235334" style="stroke:rgb(0,0,255);stroke-width:1"/>
<line x1="372.55927071489646" y1="332.4994716235334" x2="325.0223031544592" y2="538.7444507645704" style="stroke:rgb(0,0,255);stroke-width:1"/>
<line x1="325.0223031544592" y1="538.7444507645704" x2="524.2610643723798" y2="366.81500513227206" style="stroke:rgb(0,0,255);stroke-width:1"/>
<line x1="524.2610643723798" y1="366.81500513227206" x2="325.0223031544592" y2="538.7444507645704" style="stroke:rgb(0,0,255);stroke-width:1"/>
<line x1="325.0223031544592" y1="538.7444507645704" x2="239.1224081751858" y2="782.9009272359843" style="stroke:rgb(0,0,255);stroke-width:1"/>
<line x1="239.1224081751858" y1="782.9009272359843" x2="325.0223031544592" y2="538.7444507645704" style="stroke:rgb(0,0,255);stroke-width:1"/>
<line x1="325.0223031544592" y1="538.7444507645704" x2="333.9570749376263" y2="216.10305969672982" style="stroke:rgb(0,0,255);stroke-width:1"/>
<line x1="333.9570749376263" y1="216.10305969672982" x2="325.0223031544592" y2="538.7444507645704" style="stroke:rgb(0,0,255);stroke-width:1"/>
<line x1="325.0223031544592" y1="538.7444507645704" x2="127.7846816196735" y2="327.9882668500301" style="stroke:rgb(0,0,255);stroke-width:1"/>
<line x1="127.7846816196735" y1="327.9882668500301" x2="325.0223031544592" y2="538.7444507645704" style="stroke:rgb(0,0,255);stroke-width:1"/>
<line x1="325.0223031544592" y1="538.7444507645704" x2="411.18535751583613" y2="438.1465880032682" style="stroke:rgb(0,0,255);stroke-width:1"/>
<line x1="411.18535751583613" y1="438.1465880032682" x2="325.0223031544592" y2="538.7444507645704" style="stroke:rgb(0,0,255);stroke-width:1"/>
<line x1="325.0223031544592" y1="538.7444507645704" x2="86.96983980851007" y2="472.3523701167976" style="stroke:rgb(0,0,255);stroke-width:1"/>
<line x1="86.96983980851007" y1="472.3523701167976" x2="325.0223031544592" y2="538.7444507645704" style="stroke:rgb(0,0,255);stroke-width:1"/>
<line x1="325.0223031544592" y1="538.7444507645704" x2="436.3290784891233" y2="602.3770381933297" style="stroke:rgb(0,0,255);stroke-width:1"/>
<line x1="436.3290784891233" y1="602.3770381933297" x2="325.0223031544592" y2="538.7444507645704" style="stroke:rgb(0,0,255);stroke-width:1"/>
<line x1="325.0223031544592" y1="538.7444507645704" x2="135.3558700891101" y2="573.9963041961464" style="stroke:rgb(0,0,255);stroke-width:1"/>
<line x1="135.3558700891101" y1="573.9963041961464" x2="325.0223031544592" y2="538.7444507645704" style="stroke:rgb(0,0,255);stroke-width:1"/>
<line x1="325.0223031544592" y1="538.7444507645704" x2="682.4876719957638" y2="561.6981365850369" style="stroke:rgb(0,0,255);stroke-width:1"/>
<line x1="682.4876719957638" y1="561.6981365850369" x2="325.0223031544592" y2="538.7444507645704" style="stroke:rgb(0,0,255);stroke-width:1"/>
<line x1="292.00418058240996" y1="475.532683081424" x2="506.32760989464737" y2="452.0816814942641" style="stroke:rgb(0,0,255);stroke-width:1"/>
<line x1="506.32760989464737" y1="452.0816814942641" x2="292.00418058240996" y2="475.532683081424" style="stroke:rgb(0,0,255);stroke-width:1"/>
<line x1="292.00418058240996" y1="475.532683081424" x2="274.49834209168205" y2="368.3841925722273" style="stroke:rgb(0,0,255);stroke-width:1"/>
<line x1="274.49834209168205" y1="368.3841925722273" x2="292.00418058240996" y2="475.532683081424" style="stroke:rgb(0,0,255);stroke-width:1"/>
<line x1="292.00418058240996" y1="475.532683081424" x2="372.55927071489646" y2="332.4994716235334" style="stroke:rgb(0,0,255);stroke-width:1"/>
<line x1="372.55927071489646" y1="332.4994716235334" x2="292.00418058240996" y2="475.532683081424" style="stroke:rgb(0,0,255);stroke-width:1"/>
<line x1="292.00418058240996" y1="475.532683081424" x2="411.18535751583613" y2="438.1465880032682" style="stroke:rgb(0,0,255);stroke-width:1"/>
<line x1="411.18535751583613" y1="438.1465880032682" x2="292.00418058240996" y2="475.532683081424" style="stroke:rgb(0,0,255);stroke-width:1"/>
<line x1="292.00418058240996" y1="475.532683081424" x2="86.96983980851007" y2="472.3523701167976" style="stroke:rgb(0,0,255);stroke-width:1"/>
<line x1="86.96983980851007" y1="472.3523701167976" x2="292.00418058240996" y2="475.532683081424" style="stroke:rgb(0,0,255);stroke-width:1"/>
<line x1="292.00418058240996" y1="475.532683081424" x2="436.3290784891233" y2="602.3770381933297" style="stroke:rgb(0,0,255);stroke-width:1"/>
<line x1="436.3290784891233" y1="602.3770381933297" x2="292.00418058240996" y2="475.532683081424" style="stroke:rgb(0,0,255);stroke-width:1"/>
<line x1="292.00418058240996" y1="475.532683081424" x2="135.3558700891101" y2="573.9963041961464" style="stroke:rgb(0,0,255);stroke-width:1"/>
<line x1="135.3558700891101" y1="573.9963041961464" x2="292.00418058240996" y2="475.532683081424" style="stroke:rgb(0,0,255);stroke-width:1"/>
<line x1="292.00418058240996" y1="475.532683081424" x2="540.2311859086346" y2="529.0637926159114" style="stroke:rgb(0,0,255);stroke-width:1"/>
<line x1="540.2311859086346" y1="529.0637926159114" x2="292.00418058240996" y2="475.532683081424" style="stroke:rgb(0,0,255);stroke-width:1"/>
<line x1="506.32760989464737" y1="452.0816814942641" x2="274.49834209168205" y2="368.3841925722273" style="stroke:rgb(0,0,255);stroke-width:1"/>
<line x1="274.49834209168205" y1="368.3841925722273" x2="506.32760989464737" y2="452.0816814942641" style="stroke:rgb(0,0,255);stroke-width:1"/>
<line x1="506.32760989464737" y1="452.0816814942641" x2="372.55927071489646" y2="332.4994716235334" style="stroke:rgb(0,0,255);stroke-width:1"/>
<line x1="372.55927071489646" y1="332.4994716235334" x2="506.32760989464737" y2="452.0816814942641" style="stroke:rgb(0,0,255);stroke-width:1"/>
<line x1="506.32760989464737" y1="452.0816814942641" x2="524.2610643723798" y2="366.81500513227206" style="stroke:rgb(0,0,255);stroke-width:1"/>
<line x1="524.2610643723798" y1="366.81500513227206" x2="506.32760989464737" y2="452.0816814942641" style="stroke:rgb(0,0,255);stroke-width:1"/>
<line x1="506.32760989464737" y1="452.0816814942641" x2="559.3470876824354" y2="643.1766897180552" style="stroke:rgb(0,0,255);stroke-width:1"/>
<line x1="559.3470876824354" y1="643.1766897180552" x2="506.32760989464737" y2="452.0816814942641" style="stroke:rgb(0,0,255);stroke-width:1"/>
<line x1="506.32760989464737" y1="452.0816814942641" x2="411.18535751583613" y2="438.1465880032682" style="stroke:rgb(0,0,255);stroke-width:1"/>
<line x1="411.18535751583613" y1="438.1465880032682" x2="506.32760989464737" y2="452.0816814942641" style="stroke:rgb(0,0,255);stroke-width:1"/>
<line x1="506.32760989464737" y1="452.0816814942641" x2="784.9739540098194" y2="535.7519305559707" style="stroke:rgb(0,0,255);stroke-width:1"/>
<line x1="784.9739540098194" y1="535.7519305559707" x2="506.32760989464737" y2="452.0816814942641" style="stroke:rgb(0,0,255);stroke-width:1"/>
<line x1="506.32760989464737" y1="452.0816814942641" x2="638.0556175240298" y2="333.6369845820538" style="stroke:rgb(0,0,255);stroke-width:1"/>
<line x1="638.0556175240298" y1="333.6369845820538" x2="506.32760989464737" y2="452.0816814942641" style="stroke:rgb(0,0,255);stroke-width:1"/>
<line x1="506.32760989464737" y1="452.0816814942641" x2="730.6323540269731" y2="423.20036914980005" style="stroke:rgb(0,0,255);stroke-width:1"/>
<line x1="730.6323540269731" y1="423.20036914980005" x2="506.32760989464737" y2="452.0816814942641" style="stroke:rgb(0,0,255);stroke-width:1"/>
<line x1="274.49834209168205" y1="368.3841925722273" x2="372.55927071489646" y2="332.4994716235334" style="stroke:rgb(0,0,255);stroke-width:1"/>
<line x1="372.55927071489646" y1="332.4994716235334" x2="274.49834209168205" y2="368.3841925722273" style="stroke:rgb(0,0,255);stroke-width:1"/>
<line x1="274.49834209168205" y1="368.3841925722273" x2="127.7846816196735" y2="327.9882668500301" style="stroke:rgb(0,0,255);stroke-width:1"/>
<line x1="127.7846816196735" y1="327.9882668500301" x2="274.49834209168205" y2="368.3841925722273" style="stroke:rgb(0,0,255);stroke-width:1"/>
<line x1="274.49834209168205" y1="368.3841925722273" x2="411.18535751583613" y2="438.1465880032682" style="stroke:rgb(0,0,255);stroke-width:1"/>
<line x1="411.18535751583613" y1="438.1465880032682" x2="274.49834209168205" y2="368.3841925722273" style="stroke:rgb(0,0,255);stroke-width:1"/>
<line x1="148.7678050125213" y1="712.0537728599832" x2="335.6075314960591" y2="724.7946053195822" style="stroke:rgb(0,0,255);stroke-width:1"/>
<line x1="335.6075314960591" y1="724.7946053195822" x2="148.7678050125213" y2="712.0537728599832" style="stroke:rgb(0,0,255);stroke-width:1"/>
<line x1="148.7678050125213" y1="712.0537728599832" x2="239.1224081751858" y2="782.9009272359843" style="stroke:rgb(0,0,255);stroke-width:1"/>
<line x1="239.1224081751858" y1="782.9009272359843" x2="148.7678050125213" y2="712.0537728599832" style="stroke:rgb(0,0,255);stroke-width:1"/>
<line x1="378.4415060568251" y1="813.557809257512" x2="335.6075314960591" y2="724.7946053195822" style="stroke:rgb(0,0,255);stroke-width:1"/>
<line x1="335.6075314960591" y1="724.7946053195822" x2="378.4415060568251" y2="813.557809257512" style="stroke:rgb(0,0,255);stroke-width:1"/>
<line x1="378.4415060568251" y1="813.557809257512" x2="239.1224081751858" y2="782.9009272359843" style="stroke:rgb(0,0,255);stroke-width:1"/>
<line x1="239.1224081751858" y1="782.9009272359843" x2="378.4415060568251" y2="813.557809257512" style="stroke:rgb(0,0,255);stroke-width:1"/>
<line x1="378.4415060568251" y1="813.557809257512" x2="481.41513761653994" y2="888.8143101698874" style="stroke:rgb(0,0,255);stroke-width:1"/>
<line x1="481.41513761653994" y1="888.8143101698874" x2="378.4415060568251" y2="813.557809257512" style="stroke:rgb(0,0,255);stroke-width:1"/>
<line x1="335.6075314960591" y1="724.7946053195822" x2="481.41513761653994" y2="888.8143101698874" style="stroke:rgb(0,0,255);stroke-width:1"/>
<line x1="481.41513761653994" y1="888.8143101698874" x2="335.6075314960591" y2="724.7946053195822" style="stroke:rgb(0,0,255);stroke-width:1"/>
<line x1="524.2610643723798" y1="366.81500513227206" x2="540.2311859086346" y2="529.0637926159114" style="stroke:rgb(0,0,255);stroke-width:1"/>
<line x1="540.2311859086346" y1="529.0637926159114" x2="524.2610643723798" y2="366.81500513227206" style="stroke:rgb(0,0,255);stroke-width:1"/>
<line x1="524.2610643723798" y1="366.81500513227206" x2="730.6323540269731" y2="423.20036914980005" style="stroke:rgb(0,0,255);stroke-width:1"/>
<line x1="730.6323540269731" y1="423.20036914980005" x2="524.2610643723798" y2="366.81500513227206" style="stroke:rgb(0,0,255);stroke-width:1"/>
<line x1="524.2610643723798" y1="366.81500513227206" x2="667.5601113408818" y2="438.68828737547824" style="stroke:rgb(0,0,255);stroke-width:1"/>
<line x1="667.5601113408818" y1="438.68828737547824" x2="524.2610643723798" y2="366.81500513227206" style="stroke:rgb(0,0,255);stroke-width:1"/>
<line x1="559.3470876824354" y1="643.1766897180552" x2="667.5601113408818" y2="438.68828737547824" style="stroke:rgb(0,0,255);stroke-width:1"/>
<line x1="667.5601113408818" y1="438.68828737547824" x2="559.3470876824354" y2="643.1766897180552" style="stroke:rgb(0,0,255);stroke-width:1"/>
<line x1="411.18535751583613" y1="438.1465880032682" x2="667.5601113408818" y2="438.68828737547824" style="stroke:rgb(0,0,255);stroke-width:1"/>
<line x1="667.5601113408818" y1="438.68828737547824" x2="411.18535751583613" y2="438.1465880032682" style="stroke:rgb(0,0,255);stroke-width:1"/>
<line x1="783.2991336888128" y1="287.88718040694005" x2="730.6323540269731" y2="423.20036914980005" style="stroke:rgb(0,0,255);stroke-width:1"/>
<line x1="730.6323540269731" y1="423.20036914980005" x2="783.2991336888128" y2="287.88718040694005" style="stroke:rgb(0,0,255);stroke-width:1"/>
<line x1="783.2991336888128" y1="287.88718040694005" x2="667.5601113408818" y2="438.68828737547824" style="stroke:rgb(0,0,255);stroke-width:1"/>
<line x1="667.5601113408818" y1="438.68828737547824" x2="783.2991336888128" y2="287.88718040694005" style="stroke:rgb(0,0,255);stroke-width:1"/>
<line x1="658.2882135950681" y1="691.2594958470584" x2="730.6323540269731" y2="423.20036914980005" style="stroke:rgb(0,0,255);stroke-width:1"/>
<line x1="730.6323540269731" y1="423.20036914980005" x2="658.2882135950681" y2="691.2594958470584" style="stroke:rgb(0,0,255);stroke-width:1"/>
<line x1="658.2882135950681" y1="691.2594958470584" x2="667.5601113408818" y2="438.68828737547824" style="stroke:rgb(0,0,255);stroke-width:1"/>
<line x1="667.5601113408818" y1="438.68828737547824" x2="658.2882135950681" y2="691.2594958470584" style="stroke:rgb(0,0,255);stroke-width:1"/>
<line x1="591.060442559758" y1="210.62189759768228" x2="730.6323540269731" y2="423.20036914980005" style="stroke:rgb(0,0,255);stroke-width:1"/>
<line x1="730.6323540269731" y1="423.20036914980005" x2="591.060442559758" y2="210.62189759768228" style="stroke:rgb(0,0,255);stroke-width:1"/>
<line x1="591.060442559758" y1="210.62189759768228" x2="667.5601113408818" y2="438.68828737547824" style="stroke:rgb(0,0,255);stroke-width:1"/>
<line x1="667.5601113408818" y1="438.68828737547824" x2="591.060442559758" y2="210.62189759768228" style="stroke:rgb(0,0,255);stroke-width:1"/>
<line x1="436.3290784891233" y1="602.3770381933297" x2="667.5601113408818" y2="438.68828737547824" style="stroke:rgb(0,0,255);stroke-width:1"/>
<line x1="667.5601113408818" y1="438.68828737547824" x2="436.3290784891233" y2="602.3770381933297" style="stroke:rgb(0,0,255);stroke-width:1"/>
<line x1="704.2902830150754" y1="196.93510642627416" x2="730.6323540269731" y2="423.20036914980005" style="stroke:rgb(0,0,255);stroke-width:1"/>
<line x1="730.6323540269731" y1="423.20036914980005" x2="704.2902830150754" y2="196.93510642627416" style="stroke:rgb(0,0,255);stroke-width:1"/>
<line x1="704.2902830150754" y1="196.93510642627416" x2="667.5601113408818" y2="438.68828737547824" style="stroke:rgb(0,0,255);stroke-width:1"/>
<line x1="667.5601113408818" y1="438.68828737547824" x2="704.2902830150754" y2="196.93510642627416" style="stroke:rgb(0,0,255);stroke-width:1"/>
<line x1="755.7932293324005" y1="673.0271669321962" x2="730.6323540269731" y2="423.20036914980005" style="stroke:rgb(0,0,255);stroke-width:1"/>
<line x1="730.6323540269731" y1="423.20036914980005" x2="755.7932293324005" y2="673.0271669321962" style="stroke:rgb(0,0,255);stroke-width:1"/>
<line x1="755.7932293324005" y1="673.0271669321962" x2="667.5601113408818" y2="438.68828737547824" style="stroke:rgb(0,0,255);stroke-width:1"/>
<line x1="667.5601113408818" y1="438.68828737547824" x2="755.7932293324005" y2="673.0271669321962" style="stroke:rgb(0,0,255);stroke-width:1"/>
<line x1="915.0256312032412" y1="472.9622489574382" x2="952.6652435500985" y2="598.330522334551" style="stroke:rgb(0,0,255);stroke-width:1"/>
<line x1="952.6652435500985" y1="598.330522334551" x2="915.0256312032412" y2="472.9622489574382" style="stroke:rgb(0,0,255);stroke-width:1"/>
<line x1="915.0256312032412" y1="472.9622489574382" x2="784.9739540098194" y2="535.7519305559707" style="stroke:rgb(0,0,255);stroke-width:1"/>
<line x1="784.9739540098194" y1="535.7519305559707" x2="915.0256312032412" y2="472.9622489574382" style="stroke:rgb(0,0,255);stroke-width:1"/>
<line x1="915.0256312032412" y1="472.9622489574382" x2="908.6206025902821" y2="358.0863871502237" style="stroke:rgb(0,0,255);stroke-width:1"/>
<line x1="908.6206025902821" y1="358.0863871502237" x2="915.0256312032412" y2="472.9622489574382" style="stroke:rgb(0,0,255);stroke-width:1"/>
<line x1="915.0256312032412" y1="472.9622489574382" x2="730.6323540269731" y2="423.20036914980005" style="stroke:rgb(0,0,255);stroke-width:1"/>
<line x1="730.6323540269731" y1="423.20036914980005" x2="915.0256312032412" y2="472.9622489574382" style="stroke:rgb(0,0,255);stroke-width:1"/>
<line x1="915.0256312032412" y1="472.9622489574382" x2="667.5601113408818" y2="438.68828737547824" style="stroke:rgb(0,0,255);stroke-width:1"/>
<line x1="667.5601113408818" y1="438.68828737547824" x2="915.0256312032412" y2="472.9622489574382" style="stroke:rgb(0,0,255);stroke-width:1"/>
<line x1="878.1380016825848" y1="720.2524044635747" x2="952.6652435500985" y2="598.330522334551" style="stroke:rgb(0,0,255);stroke-width:1"/>
<line x1="952.6652435500985" y1="598.330522334551" x2="878.1380016825848" y2="720.2524044635747" style="stroke:rgb(0,0,255);stroke-width:1"/>
<line x1="878.1380016825848" y1="720.2524044635747" x2="784.9739540098194" y2="535.7519305559707" style="stroke:rgb(0,0,255);stroke-width:1"/>
<line x1="784.9739540098194" y1="535.7519305559707" x2="878.1380016825848" y2="720.2524044635747" style="stroke:rgb(0,0,255);stroke-width:1"/>
<line x1="878.1380016825848" y1="720.2524044635747" x2="682.4876719957638" y2="561.6981365850369" style="stroke:rgb(0,0,255);stroke-width:1"/>
<line x1="682.4876719957638" y1="561.6981365850369" x2="878.1380016825848" y2="720.2524044635747" style="stroke:rgb(0,0,255);stroke-width:1"/>
<line x1="952.6652435500985" y1="598.330522334551" x2="682.4876719957638" y2="561.6981365850369" style="stroke:rgb(0,0,255);stroke-width:1"/>
<line x1="682.4876719957638" y1="561.6981365850369" x2="952.6652435500985" y2="598.330522334551" style="stroke:rgb(0,0,255);stroke-width:1"/>
<line x1="891.7753546270661" y1="229.6238439330059" x2="908.6206025902821" y2="358.0863871502237" style="stroke:rgb(0,0,255);stroke-width:1"/>
<line x1="908.6206025902821" y1="358.0863871502237" x2="891.7753546270661" y2="229.6238439330059" style="stroke:rgb(0,0,255);stroke-width:1"/>
<line x1="891.7753546270661" y1="229.6238439330059" x2="667.5601113408818" y2="438.68828737547824" style="stroke:rgb(0,0,255);stroke-width:1"/>
<line x1="667.5601113408818" y1="438.68828737547824" x2="891.7753546270661" y2="229.6238439330059" style="stroke:rgb(0,0,255);stroke-width:1"/>
<line x1="784.9739540098194" y1="535.7519305559707" x2="667.5601113408818" y2="438.68828737547824" style="stroke:rgb(0,0,255);stroke-width:1"/>
<line x1="667.5601113408818" y1="438.68828737547824" x2="784.9739540098194" y2="535.7519305559707" style="stroke:rgb(0,0,255);stroke-width:1"/>
<line x1="638.0556175240298" y1="333.6369845820538" x2="682.4876719957638" y2="561.6981365850369" style="stroke:rgb(0,0,255);stroke-width:1"/>
<line x1="682.4876719957638" y1="561.6981365850369" x2="638.0556175240298" y2="333.6369845820538" style="stroke:rgb(0,0,255);stroke-width:1"/>
<line x1="638.0556175240298" y1="333.6369845820538" x2="667.5601113408818" y2="438.68828737547824" style="stroke:rgb(0,0,255);stroke-width:1"/>
<line x1="667.5601113408818" y1="438.68828737547824" x2="638.0556175240298" y2="333.6369845820538" style="stroke:rgb(0,0,255);stroke-width:1"/>
<line x1="908.6206025902821" y1="358.0863871502237" x2="730.6323540269731" y2="423.20036914980005" style="stroke:rgb(0,0,255);stroke-width:1"/>
<line x1="730.6323540269731" y1="423.20036914980005" x2="908.6206025902821" y2="358.0863871502237" style="stroke:rgb(0,0,255);stroke-width:1"/>
<line x1="908.6206025902821" y1="358.0863871502237" x2="667.5601113408818" y2="438.68828737547824" style="stroke:rgb(0,0,255);stroke-width:1"/>
<line x1="667.5601113408818" y1="438.68828737547824" x2="908.6206025902821" y2="358.0863871502237" style="stroke:rgb(0,0,255);stroke-width:1"/>
<line x1="540.2311859086346" y1="529.0637926159114" x2="730.6323540269731" y2="423.20036914980005" style="stroke:rgb(0,0,255);stroke-width:1"/>
<line x1="730.6323540269731" y1="423.20036914980005" x2="540.2311859086346" y2="529.0637926159114" style="stroke:rgb(0,0,255);stroke-width:1"/>
<line x1="540.2311859086346" y1="529.0637926159114" x2="667.5601113408818" y2="438.68828737547824" style="stroke:rgb(0,0,255);stroke-width:1"/>
<line x1="667.5601113408818" y1="438.68828737547824" x2="540.2311859086346" y2="529.0637926159114" style="stroke:rgb(0,0,255);stroke-width:1"/>
<line x1="682.4876719957638" y1="561.6981365850369" x2="730.6323540269731" y2="423.20036914980005" style="stroke:rgb(0,0,255);stroke-width:1"/>
<line x1="730.6323540269731" y1="423.20036914980005" x2="682.4876719957638" y2="561.6981365850369" style="stroke:rgb(0,0,255);stroke-width:1"/>
<line x1="682.4876719957638" y1="561.6981365850369" x2="667.5601113408818" y2="438.68828737547824" style="stroke:rgb(0,0,255);stroke-width:1"/>
<line x1="667.5601113408818" y1="438.68828737547824" x2="682.4876719957638" y2="561.6981365850369" style="stroke:rgb(0,0,255);stroke-width:1"/>
<line x1="730.6323540269731" y1="423.20036914980005" x2="667.5601113408818" y2="438.68828737547824" style="stroke:rgb(0,0,255);stroke-width:1"/>
<line x1="667.5601113408818" y1="438.68828737547824" x2="730.6323540269731" y2="423.20036914980005" style="stroke:rgb(0,0,255);stroke-width:1"/>
</svg>
