<svg xmlns="http://www.w3.org/2000/svg" version="1.1" xmlns:xllink="http://www.w3.org/1999/xlink" width="1000" height="1000">
<ellipse cx="569.0223031544592" cy="538.7444507645704" rx="5.60" ry="5.60" style="fill:rgb(255,255,0);stroke:rgb(0,0,0);stroke-width:0.50;"/>
<ellipse cx="401.00418058240996" cy="547.532683081424" rx="5.60" ry="5.60" style="fill:rgb(255,255,0);stroke:rgb(0,0,0);stroke-width:0.50;"/>
<ellipse cx="513.3276098946474" cy="560.0816814942641" rx="5.60" ry="5.60" style="fill:rgb(255,255,0);stroke:rgb(0,0,0);stroke-width:0.50;"/>
<ellipse cx="410.49834209168205" cy="381.3841925722273" rx="5.60" ry="5.60" style="fill:rgb(255,255,0);stroke:rgb(0,0,0);stroke-width:0.50;"/>
<ellipse cx="481.7678050125213" cy="515.0537728599832" rx="5.60" ry="5.60" style="fill:rgb(255,255,0);stroke:rgb(0,0,0);stroke-width:0.50;"/>
<ellipse cx="731.4415060568251" cy="495.557809257512" rx="5.60" ry="5.60" style="fill:rgb(255,255,0);stroke:rgb(0,0,0);stroke-width:0.50;"/>
<ellipse cx="707.6075314960591" cy="621.7946053195822" rx="5.60" ry="5.60" style="fill:rgb(255,255,0);stroke:rgb(0,0,0);stroke-width:0.50;"/>
<ellipse cx="676.5592707148965" cy="542.4994716235334" rx="5.60" ry="5.60" style="fill:rgb(255,255,0);stroke:rgb(0,0,0);stroke-width:0.50;"/>
<ellipse cx="492.2610643723798" cy="402.81500513227206" rx="5.60" ry="5.60" style="fill:rgb(255,255,0);stroke:rgb(0,0,0);stroke-width:0.50;"/>
<ellipse cx="616.1224081751858" cy="709.9009272359843" rx="5.60" ry="5.60" style="fill:rgb(255,255,0);stroke:rgb(0,0,0);stroke-width:0.50;"/>
<ellipse cx="677.9570749376263" cy="288.1030596967298" rx="5.60" ry="5.60" style="fill:rgb(255,255,0);stroke:rgb(0,0,0);stroke-width:0.50;"/>
<ellipse cx="503.7846816196735" cy="299.9882668500301" rx="5.60" ry="5.60" style="fill:rgb(255,255,0);stroke:rgb(0,0,0);stroke-width:0.50;"/>
<ellipse cx="315.18535751583613" cy="504.1465880032682" rx="5.60" ry="5.60" style="fill:rgb(255,255,0);stroke:rgb(0,0,0);stroke-width:0.50;"/>
<ellipse cx="434.9698398085101" cy="292.3523701167976" rx="5.60" ry="5.60" style="fill:rgb(255,255,0);stroke:rgb(0,0,0);stroke-width:0.50;"/>
<ellipse cx="433.3290784891233" cy="710.3770381933297" rx="5.60" ry="5.60" style="fill:rgb(255,255,0);stroke:rgb(0,0,0);stroke-width:0.50;"/>
<ellipse cx="273.3558700891101" cy="596.9963041961464" rx="5.60" ry="5.60" style="fill:rgb(255,255,0);stroke:rgb(0,0,0);stroke-width:0.50;"/>
<ellipse cx="654.4876719957638" cy="430.6981365850369" rx="5.60" ry="5.60" style="fill:rgb(255,255,0);stroke:rgb(0,0,0);stroke-width:0.50;"/>
<ellipse cx="356.23118590863464" cy="623.0637926159114" rx="5.60" ry="5.60" style="fill:rgb(255,255,0);stroke:rgb(0,0,0);stroke-width:0.50;"/>
<ellipse cx="319.34708768243536" cy="713.1766897180552" rx="5.60" ry="5.60" style="fill:rgb(255,255,0);stroke:rgb(0,0,0);stroke-width:0.50;"/>
<ellipse cx="829.9739540098194" cy="490.7519305559707" rx="5.60" ry="5.60" style="fill:rgb(255,255,0);stroke:rgb(0,0,0);stroke-width:0.50;"/>
<ellipse cx="358.0556175240298" cy="303.6369845820538" rx="5.60" ry="5.60" style="fill:rgb(255,255,0);stroke:rgb(0,0,0);stroke-width:0.50;"/>
<ellipse cx="584.6323540269731" cy="501.20036914980005" rx="5.60" ry="5.60" style="fill:rgb(255,255,0);stroke:rgb(0,0,0);stroke-width:0.50;"/>
<ellipse cx="430.41513761653994" cy="456.81431016988745" rx="5.60" ry="5.60" style="fill:rgb(255,255,0);stroke:rgb(0,0,0);stroke-width:0.50;"/>
<ellipse cx="547.5601113408818" cy="466.6882873754782" rx="5.60" ry="5.60" style="fill:rgb(255,255,0);stroke:rgb(0,0,0);stroke-width:0.50;"/>
<ellipse cx="816.2991336888128" cy="369.88718040694005" rx="5.60" ry="5.60" style="fill:rgb(255,255,0);stroke:rgb(0,0,0);stroke-width:0.50;"/>
<ellipse cx="516.2882135950681" cy="703.2594958470584" rx="5.60" ry="5.60" style="fill:rgb(255,255,0);stroke:rgb(0,0,0);stroke-width:0.50;"/>
<ellipse cx="279.06044255975803" cy="432.6218975976823" rx="5.60" ry="5.60" style="fill:rgb(255,255,0);stroke:rgb(0,0,0);stroke-width:0.50;"/>
<ellipse cx="760.2902830150754" cy="286.93510642627416" rx="5.60" ry="5.60" style="fill:rgb(255,255,0);stroke:rgb(0,0,0);stroke-width:0.50;"/>
<ellipse cx="771.7932293324005" cy="708.0271669321962" rx="5.60" ry="5.60" style="fill:rgb(255,255,0);stroke:rgb(0,0,0);stroke-width:0.50;"/>
<ellipse cx="740.0256312032412" cy="390.9622489574382" rx="5.60" ry="5.60" style="fill:rgb(255,255,0);stroke:rgb(0,0,0);stroke-width:0.50;"/>
<ellipse cx="824.6652435500985" cy="578.330522334551" rx="5.60" ry="5.60" style="fill:rgb(255,255,0);stroke:rgb(0,0,0);stroke-width:0.50;"/>
<ellipse cx="559.6206025902821" cy="623.0863871502237" rx="5.60" ry="5.60" style="fill:rgb(255,255,0);stroke:rgb(0,0,0);stroke-width:0.50;"/>
<ellipse cx="725.1380016825848" cy="713.2524044635747" rx="5.60" ry="5.60" style="fill:rgb(255,255,0);stroke:rgb(0,0,0);stroke-width:0.50;"/>
<ellipse cx="602.7753546270661" cy="300.6238439330059" rx="5.60" ry="5.60" style="fill:rgb(255,255,0);stroke:rgb(0,0,0);stroke-width:0.50;"/>
<line x1="569.0223031544592" y1="538.7444507645704" x2="401.00418058240996" y2="547.532683081424" style="stroke:rgb(0,0,255);stroke-width:1"/>
<line x1="401.00418058240996" y1="547.532683081424" x2="569.0223031544592" y2="538.7444507645704" style="stroke:rgb(0,0,255);stroke-width:1"/>
<line x1="569.0223031544592" y1="538.7444507645704" x2="513.3276098946474" y2="560.0816814942641" style="stroke:rgb(0,0,255);stroke-width:1"/>
<line x1="513.3276098946474" y1="560.0816814942641" x2="569.0223031544592" y2="538.7444507645704" style="stroke:rgb(0,0,255);stroke-width:1"/>
<line x1="569.0223031544592" y1="538.7444507645704" x2="410.49834209168205" y2="381.3841925722273" style="stroke:rgb(0,0,255);stroke-width:1"/>
<line x1="410.49834209168205" y1="381.3841925722273" x2="569.0223031544592" y2="538.7444507645704" style="stroke:rgb(0,0,255);stroke-width:1"/>
<line x1="569.0223031544592" y1="538.7444507645704" x2="481.7678050125213" y2="515.0537728599832" style="stroke:rgb(0,0,255);stroke-width:1"/>
<line x1="481.7678050125213" y1="515.0537728599832" x2="569.0223031544592" y2="538.7444507645704" style="stroke:rgb(0,0,255);stroke-width:1"/>
<line x1="569.0223031544592" y1="538.7444507645704" x2="731.4415060568251" y2="495.557809257512" style="stroke:rgb(0,0,255);stroke-width:1"/>
<line x1="731.4415060568251" y1="495.557809257512" x2="569.0223031544592" y2="538.7444507645704" style="stroke:rgb(0,0,255);stroke-width:1"/>
<line x1="569.0223031544592" y1="538.7444507645704" x2="707.6075314960591" y2="621.7946053195822" style="stroke:rgb(0,0,255);stroke-width:1"/>
<line x1="707.6075314960591" y1="621.7946053195822" x2="569.0223031544592" y2="538.7444507645704" style="stroke:rgb(0,0,255);stroke-width:1"/>
<line x1="569.0223031544592" y1="538.7444507645704" x2="676.5592707148965" y2="542.4994716235334" style="stroke:rgb(0,0,255);stroke-width:1"/>
<line x1="676.5592707148965" y1="542.4994716235334" x2="569.0223031544592" y2="538.7444507645704" style="stroke:rgb(0,0,255);stroke-width:1"/>
<line x1="569.0223031544592" y1="538.7444507645704" x2="492.2610643723798" y2="402.81500513227206" style="stroke:rgb(0,0,255);stroke-width:1"/>
<line x1="492.2610643723798" y1="402.81500513227206" x2="569.0223031544592" y2="538.7444507645704" style="stroke:rgb(0,0,255);stroke-width:1"/>
<line x1="569.0223031544592" y1="538.7444507645704" x2="616.1224081751858" y2="709.9009272359843" style="stroke:rgb(0,0,255);stroke-width:1"/>
<line x1="616.1224081751858" y1="709.9009272359843" x2="569.0223031544592" y2="538.7444507645704" style="stroke:rgb(0,0,255);stroke-width:1"/>
<line x1="569.0223031544592" y1="538.7444507645704" x2="677.9570749376263" y2="288.1030596967298" style="stroke:rgb(0,0,255);stroke-width:1"/>
<line x1="677.9570749376263" y1="288.1030596967298" x2="569.0223031544592" y2="538.7444507645704" style="stroke:rgb(0,0,255);stroke-width:1"/>
<line x1="569.0223031544592" y1="538.7444507645704" x2="503.7846816196735" y2="299.9882668500301" style="stroke:rgb(0,0,255);stroke-width:1"/>
<line x1="503.7846816196735" y1="299.9882668500301" x2="569.0223031544592" y2="538.7444507645704" style="stroke:rgb(0,0,255);stroke-width:1"/>
<line x1="569.0223031544592" y1="538.7444507645704" x2="315.18535751583613" y2="504.1465880032682" style="stroke:rgb(0,0,255);stroke-width:1"/>
<line x1="315.18535751583613" y1="504.1465880032682" x2="569.0223031544592" y2="538.7444507645704" style="stroke:rgb(0,0,255);stroke-width:1"/>
<line x1="569.0223031544592" y1="538.7444507645704" x2="434.9698398085101" y2="292.3523701167976" style="stroke:rgb(0,0,255);stroke-width:1"/>
<line x1="434.9698398085101" y1="292.3523701167976" x2="569.0223031544592" y2="538.7444507645704" style="stroke:rgb(0,0,255);stroke-width:1"/>
<line x1="569.0223031544592" y1="538.7444507645704" x2="433.3290784891233" y2="710.3770381933297" style="stroke:rgb(0,0,255);stroke-width:1"/>
<line x1="433.3290784891233" y1="710.3770381933297" x2="569.0223031544592" y2="538.7444507645704" style="stroke:rgb(0,0,255);stroke-width:1"/>
<line x1="569.0223031544592" y1="538.7444507645704" x2="273.3558700891101" y2="596.9963041961464" style="stroke:rgb(0,0,255);stroke-width:1"/>
<line x1="273.3558700891101" y1="596.9963041961464" x2="569.0223031544592" y2="538.7444507645704" style="stroke:rgb(0,0,255);stroke-width:1"/>
<line x1="569.0223031544592" y1="538.7444507645704" x2="654.4876719957638" y2="430.6981365850369" style="stroke:rgb(0,0,255);stroke-width:1"/>
<line x1="654.4876719957638" y1="430.6981365850369" x2="569.0223031544592" y2="538.7444507645704" style="stroke:rgb(0,0,255);stroke-width:1"/>
<line x1="401.00418058240996" y1="547.532683081424" x2="513.3276098946474" y2="560.0816814942641" style="stroke:rgb(0,0,255);stroke-width:1"/>
<line x1="513.3276098946474" y1="560.0816814942641" x2="401.00418058240996" y2="547.532683081424" style="stroke:rgb(0,0,255);stroke-width:1"/>
<line x1="401.00418058240996" y1="547.532683081424" x2="410.49834209168205" y2="381.3841925722273" style="stroke:rgb(0,0,255);stroke-width:1"/>
<line x1="410.49834209168205" y1="381.3841925722273" x2="401.00418058240996" y2="547.532683081424" style="stroke:rgb(0,0,255);stroke-width:1"/>
<line x1="401.00418058240996" y1="547.532683081424" x2="676.5592707148965" y2="542.4994716235334" style="stroke:rgb(0,0,255);stroke-width:1"/>
<line x1="676.5592707148965" y1="542.4994716235334" x2="401.00418058240996" y2="547.532683081424" style="stroke:rgb(0,0,255);stroke-width:1"/>
<line x1="401.00418058240996" y1="547.532683081424" x2="315.18535751583613" y2="504.1465880032682" style="stroke:rgb(0,0,255);stroke-width:1"/>
<line x1="315.18535751583613" y1="504.1465880032682" x2="401.00418058240996" y2="547.532683081424" style="stroke:rgb(0,0,255);stroke-width:1"/>
<line x1="401.00418058240996" y1="547.532683081424" x2="434.9698398085101" y2="292.3523701167976" style="stroke:rgb(0,0,255);stroke-width:1"/>
<line x1="434.9698398085101" y1="292.3523701167976" x2="401.00418058240996" y2="547.532683081424" style="stroke:rgb(0,0,255);stroke-width:1"/>
<line x1="401.00418058240996" y1="547.532683081424" x2="433.3290784891233" y2="710.3770381933297" style="stroke:rgb(0,0,255);stroke-width:1"/>
<line x1="433.3290784891233" y1="710.3770381933297" x2="401.00418058240996" y2="547.532683081424" style="stroke:rgb(0,0,255);stroke-width:1"/>
<line x1="401.00418058240996" y1="547.532683081424" x2="273.3558700891101" y2="596.9963041961464" style="stroke:rgb(0,0,255);stroke-width:1"/>
<line x1="273.3558700891101" y1="596.9963041961464" x2="401.00418058240996" y2="547.532683081424" style="stroke:rgb(0,0,255);stroke-width:1"/>
<line x1="401.00418058240996" y1="547.532683081424" x2="356.23118590863464" y2="623.0637926159114" style="stroke:rgb(0,0,255);stroke-width:1"/>
<line x1="356.23118590863464" y1="623.0637926159114" x2="401.00418058240996" y2="547.532683081424" style="stroke:rgb(0,0,255);stroke-width:1"/>
<line x1="513.3276098946474" y1="560.0816814942641" x2="410.49834209168205" y2="381.3841925722273" style="stroke:rgb(0,0,255);stroke-width:1"/>
<line x1="410.49834209168205" y1="381.3841925722273" x2="513.3276098946474" y2="560.0816814942641" style="stroke:rgb(0,0,255);stroke-width:1"/>
<line x1="513.3276098946474" y1="560.0816814942641" x2="676.5592707148965" y2="542.4994716235334" style="stroke:rgb(0,0,255);stroke-width:1"/>
<line x1="676.5592707148965" y1="542.4994716235334" x2="513.3276098946474" y2="560.0816814942641" style="stroke:rgb(0,0,255);stroke-width:1"/>
<line x1="513.3276098946474" y1="560.0816814942641" x2="492.2610643723798" y2="402.81500513227206" style="stroke:rgb(0,0,255);stroke-width:1"/>
<line x1="492.2610643723798" y1="402.81500513227206" x2="513.3276098946474" y2="560.0816814942641" style="stroke:rgb(0,0,255);stroke-width:1"/>
<line x1="513.3276098946474" y1="560.0816814942641" x2="319.34708768243536" y2="713.1766897180552" style="stroke:rgb(0,0,255);stroke-width:1"/>
<line x1="319.34708768243536" y1="713.1766897180552" x2="513.3276098946474" y2="560.0816814942641" style="stroke:rgb(0,0,255);stroke-width:1"/>
<line x1="513.3276098946474" y1="560.0816814942641" x2="315.18535751583613" y2="504.1465880032682" style="stroke:rgb(0,0,255);stroke-width:1"/>
<line x1="315.18535751583613" y1="504.1465880032682" x2="513.3276098946474" y2="560.0816814942641" style="stroke:rgb(0,0,255);stroke-width:1"/>
<line x1="513.3276098946474" y1="560.0816814942641" x2="829.9739540098194" y2="490.7519305559707" style="stroke:rgb(0,0,255);stroke-width:1"/>
<line x1="829.9739540098194" y1="490.7519305559707" x2="513.3276098946474" y2="560.0816814942641" style="stroke:rgb(0,0,255);stroke-width:1"/>
<line x1="513.3276098946474" y1="560.0816814942641" x2="358.0556175240298" y2="303.6369845820538" style="stroke:rgb(0,0,255);stroke-width:1"/>
<line x1="358.0556175240298" y1="303.6369845820538" x2="513.3276098946474" y2="560.0816814942641" style="stroke:rgb(0,0,255);stroke-width:1"/>
<line x1="513.3276098946474" y1="560.0816814942641" x2="584.6323540269731" y2="501.20036914980005" style="stroke:rgb(0,0,255);stroke-width:1"/>
<line x1="584.6323540269731" y1="501.20036914980005" x2="513.3276098946474" y2="560.0816814942641" style="stroke:rgb(0,0,255);stroke-width:1"/>
<line x1="410.49834209168205" y1="381.3841925722273" x2="676.5592707148965" y2="542.4994716235334" style="stroke:rgb(0,0,255);stroke-width:1"/>
<line x1="676.5592707148965" y1="542.4994716235334" x2="410.49834209168205" y2="381.3841925722273" style="stroke:rgb(0,0,255);stroke-width:1"/>
<line x1="410.49834209168205" y1="381.3841925722273" x2="503.7846816196735" y2="299.9882668500301" style="stroke:rgb(0,0,255);stroke-width:1"/>
<line x1="503.7846816196735" y1="299.9882668500301" x2="410.49834209168205" y2="381.3841925722273" style="stroke:rgb(0,0,255);stroke-width:1"/>
<line x1="410.49834209168205" y1="381.3841925722273" x2="315.18535751583613" y2="504.1465880032682" style="stroke:rgb(0,0,255);stroke-width:1"/>
<line x1="315.18535751583613" y1="504.1465880032682" x2="410.49834209168205" y2="381.3841925722273" style="stroke:rgb(0,0,255);stroke-width:1"/>
<line x1="481.7678050125213" y1="515.0537728599832" x2="707.6075314960591" y2="621.7946053195822" style="stroke:rgb(0,0,255);stroke-width:1"/>
<line x1="707.6075314960591" y1="621.7946053195822" x2="481.7678050125213" y2="515.0537728599832" style="stroke:rgb(0,0,255);stroke-width:1"/>
<line x1="481.7678050125213" y1="515.0537728599832" x2="616.1224081751858" y2="709.9009272359843" style="stroke:rgb(0,0,255);stroke-width:1"/>
<line x1="616.1224081751858" y1="709.9009272359843" x2="481.7678050125213" y2="515.0537728599832" style="stroke:rgb(0,0,255);stroke-width:1"/>
<line x1="731.4415060568251" y1="495.557809257512" x2="707.6075314960591" y2="621.7946053195822" style="stroke:rgb(0,0,255);stroke-width:1"/>
<line x1="707.6075314960591" y1="621.7946053195822" x2="731.4415060568251" y2="495.557809257512" style="stroke:rgb(0,0,255);stroke-width:1"/>
<line x1="731.4415060568251" y1="495.557809257512" x2="616.1224081751858" y2="709.9009272359843" style="stroke:rgb(0,0,255);stroke-width:1"/>
<line x1="616.1224081751858" y1="709.9009272359843" x2="731.4415060568251" y2="495.557809257512" style="stroke:rgb(0,0,255);stroke-width:1"/>
<line x1="731.4415060568251" y1="495.557809257512" x2="430.41513761653994" y2="456.81431016988745" style="stroke:rgb(0,0,255);stroke-width:1"/>
<line x1="430.41513761653994" y1="456.81431016988745" x2="731.4415060568251" y2="495.557809257512" style="stroke:rgb(0,0,255);stroke-width:1"/>
<line x1="707.6075314960591" y1="621.7946053195822" x2="430.41513761653994" y2="456.81431016988745" style="stroke:rgb(0,0,255);stroke-width:1"/>
<line x1="430.41513761653994" y1="456.81431016988745" x2="707.6075314960591" y2="621.7946053195822" style="stroke:rgb(0,0,255);stroke-width:1"/>
<line x1="492.2610643723798" y1="402.81500513227206" x2="356.23118590863464" y2="623.0637926159114" style="stroke:rgb(0,0,255);stroke-width:1"/>
<line x1="356.23118590863464" y1="623.0637926159114" x2="492.2610643723798" y2="402.81500513227206" style="stroke:rgb(0,0,255);stroke-width:1"/>
<line x1="492.2610643723798" y1="402.81500513227206" x2="584.6323540269731" y2="501.20036914980005" style="stroke:rgb(0,0,255);stroke-width:1"/>
<line x1="584.6323540269731" y1="501.20036914980005" x2="492.2610643723798" y2="402.81500513227206" style="stroke:rgb(0,0,255);stroke-width:1"/>
<line x1="492.2610643723798" y1="402.81500513227206" x2="547.5601113408818" y2="466.6882873754782" style="stroke:rgb(0,0,255);stroke-width:1"/>
<line x1="547.5601113408818" y1="466.6882873754782" x2="492.2610643723798" y2="402.81500513227206" style="stroke:rgb(0,0,255);stroke-width:1"/>
<line x1="319.34708768243536" y1="713.1766897180552" x2="547.5601113408818" y2="466.6882873754782" style="stroke:rgb(0,0,255);stroke-width:1"/>
<line x1="547.5601113408818" y1="466.6882873754782" x2="319.34708768243536" y2="713.1766897180552" style="stroke:rgb(0,0,255);stroke-width:1"/>
<line x1="315.18535751583613" y1="504.1465880032682" x2="547.5601113408818" y2="466.6882873754782" style="stroke:rgb(0,0,255);stroke-width:1"/>
<line x1="547.5601113408818" y1="466.6882873754782" x2="315.18535751583613" y2="504.1465880032682" style="stroke:rgb(0,0,255);stroke-width:1"/>
<line x1="816.2991336888128" y1="369.88718040694005" x2="584.6323540269731" y2="501.20036914980005" style="stroke:rgb(0,0,255);stroke-width:1"/>
<line x1="584.6323540269731" y1="501.20036914980005" x2="816.2991336888128" y2="369.88718040694005" style="stroke:rgb(0,0,255);stroke-width:1"/>
<line x1="816.2991336888128" y1="369.88718040694005" x2="547.5601113408818" y2="466.6882873754782" style="stroke:rgb(0,0,255);stroke-width:1"/>
<line x1="547.5601113408818" y1="466.6882873754782" x2="816.2991336888128" y2="369.88718040694005" style="stroke:rgb(0,0,255);stroke-width:1"/>
<line x1="516.2882135950681" y1="703.2594958470584" x2="584.6323540269731" y2="501.20036914980005" style="stroke:rgb(0,0,255);stroke-width:1"/>
<line x1="584.6323540269731" y1="501.20036914980005" x2="516.2882135950681" y2="703.2594958470584" style="stroke:rgb(0,0,255);stroke-width:1"/>
<line x1="516.2882135950681" y1="703.2594958470584" x2="547.5601113408818" y2="466.6882873754782" style="stroke:rgb(0,0,255);stroke-width:1"/>
<line x1="547.5601113408818" y1="466.6882873754782" x2="516.2882135950681" y2="703.2594958470584" style="stroke:rgb(0,0,255);stroke-width:1"/>
<line x1="279.06044255975803" y1="432.6218975976823" x2="584.6323540269731" y2="501.20036914980005" style="stroke:rgb(0,0,255);stroke-width:1"/>
<line x1="584.6323540269731" y1="501.20036914980005" x2="279.06044255975803" y2="432.6218975976823" style="stroke:rgb(0,0,255);stroke-width:1"/>
<line x1="279.06044255975803" y1="432.6218975976823" x2="547.5601113408818" y2="466.6882873754782" style="stroke:rgb(0,0,255);stroke-width:1"/>
<line x1="547.5601113408818" y1="466.6882873754782" x2="279.06044255975803" y2="432.6218975976823" style="stroke:rgb(0,0,255);stroke-width:1"/>
<line x1="433.3290784891233" y1="710.3770381933297" x2="547.5601113408818" y2="466.6882873754782" style="stroke:rgb(0,0,255);stroke-width:1"/>
<line x1="547.5601113408818" y1="466.6882873754782" x2="433.3290784891233" y2="710.3770381933297" style="stroke:rgb(0,0,255);stroke-width:1"/>
<line x1="760.2902830150754" y1="286.93510642627416" x2="584.6323540269731" y2="501.20036914980005" style="stroke:rgb(0,0,255);stroke-width:1"/>
<line x1="584.6323540269731" y1="501.20036914980005" x2="760.2902830150754" y2="286.93510642627416" style="stroke:rgb(0,0,255);stroke-width:1"/>
<line x1="760.2902830150754" y1="286.93510642627416" x2="547.5601113408818" y2="466.6882873754782" style="stroke:rgb(0,0,255);stroke-width:1"/>
<line x1="547.5601113408818" y1="466.6882873754782" x2="760.2902830150754" y2="286.93510642627416" style="stroke:rgb(0,0,255);stroke-width:1"/>
<line x1="771.7932293324005" y1="708.0271669321962" x2="584.6323540269731" y2="501.20036914980005" style="stroke:rgb(0,0,255);stroke-width:1"/>
<line x1="584.6323540269731" y1="501.20036914980005" x2="771.7932293324005" y2="708.0271669321962" style="stroke:rgb(0,0,255);stroke-width:1"/>
<line x1="771.7932293324005" y1="708.0271669321962" x2="547.5601113408818" y2="466.6882873754782" style="stroke:rgb(0,0,255);stroke-width:1"/>
<line x1="547.5601113408818" y1="466.6882873754782" x2="771.7932293324005" y2="708.0271669321962" style="stroke:rgb(0,0,255);stroke-width:1"/>
<line x1="740.0256312032412" y1="390.9622489574382" x2="824.6652435500985" y2="578.330522334551" style="stroke:rgb(0,0,255);stroke-width:1"/>
<line x1="824.6652435500985" y1="578.330522334551" x2="740.0256312032412" y2="390.9622489574382" style="stroke:rgb(0,0,255);stroke-width:1"/>
<line x1="740.0256312032412" y1="390.9622489574382" x2="829.9739540098194" y2="490.7519305559707" style="stroke:rgb(0,0,255);stroke-width:1"/>
<line x1="829.9739540098194" y1="490.7519305559707" x2="740.0256312032412" y2="390.9622489574382" style="stroke:rgb(0,0,255);stroke-width:1"/>
<line x1="740.0256312032412" y1="390.9622489574382" x2="559.6206025902821" y2="623.0863871502237" style="stroke:rgb(0,0,255);stroke-width:1"/>
<line x1="559.6206025902821" y1="623.0863871502237" x2="740.0256312032412" y2="390.9622489574382" style="stroke:rgb(0,0,255);stroke-width:1"/>
<line x1="740.0256312032412" y1="390.9622489574382" x2="584.6323540269731" y2="501.20036914980005" style="stroke:rgb(0,0,255);stroke-width:1"/>
<line x1="584.6323540269731" y1="501.20036914980005" x2="740.0256312032412" y2="390.9622489574382" style="stroke:rgb(0,0,255);stroke-width:1"/>
<line x1="740.0256312032412" y1="390.9622489574382" x2="547.5601113408818" y2="466.6882873754782" style="stroke:rgb(0,0,255);stroke-width:1"/>
<line x1="547.5601113408818" y1="466.6882873754782" x2="740.0256312032412" y2="390.9622489574382" style="stroke:rgb(0,0,255);stroke-width:1"/>
<line x1="725.1380016825848" y1="713.2524044635747" x2="824.6652435500985" y2="578.330522334551" style="stroke:rgb(0,0,255);stroke-width:1"/>
<line x1="824.6652435500985" y1="578.330522334551" x2="725.1380016825848" y2="713.2524044635747" style="stroke:rgb(0,0,255);stroke-width:1"/>
<line x1="725.1380016825848" y1="713.2524044635747" x2="829.9739540098194" y2="490.7519305559707" style="stroke:rgb(0,0,255);stroke-width:1"/>
<line x1="829.9739540098194" y1="490.7519305559707" x2="725.1380016825848" y2="713.2524044635747" style="stroke:rgb(0,0,255);stroke-width:1"/>
<line x1="725.1380016825848" y1="713.2524044635747" x2="654.4876719957638" y2="430.6981365850369" style="stroke:rgb(0,0,255);stroke-width:1"/>
<line x1="654.4876719957638" y1="430.6981365850369" x2="725.1380016825848" y2="713.2524044635747" style="stroke:rgb(0,0,255);stroke-width:1"/>
<line x1="824.6652435500985" y1="578.330522334551" x2="654.4876719957638" y2="430.6981365850369" style="stroke:rgb(0,0,255);stroke-width:1"/>
<line x1="654.4876719957638" y1="430.6981365850369" x2="824.6652435500985" y2="578.330522334551" style="stroke:rgb(0,0,255);stroke-width:1"/>
<line x1="602.7753546270661" y1="300.6238439330059" x2="559.6206025902821" y2="623.0863871502237" style="stroke:rgb(0,0,255);stroke-width:1"/>
<line x1="559.6206025902821" y1="623.0863871502237" x2="602.7753546270661" y2="300.6238439330059" style="stroke:rgb(0,0,255);stroke-width:1"/>
<line x1="602.7753546270661" y1="300.6238439330059" x2="547.5601113408818" y2="466.6882873754782" style="stroke:rgb(0,0,255);stroke-width:1"/>
<line x1="547.5601113408818" y1="466.6882873754782" x2="602.7753546270661" y2="300.6238439330059" style="stroke:rgb(0,0,255);stroke-width:1"/>
<line x1="829.9739540098194" y1="490.7519305559707" x2="547.5601113408818" y2="466.6882873754782" style="stroke:rgb(0,0,255);stroke-width:1"/>
<line x1="547.5601113408818" y1="466.6882873754782" x2="829.9739540098194" y2="490.7519305559707" style="stroke:rgb(0,0,255);stroke-width:1"/>
<line x1="358.0556175240298" y1="303.6369845820538" x2="654.4876719957638" y2="430.6981365850369" style="stroke:rgb(0,0,255);stroke-width:1"/>
<line x1="654.4876719957638" y1="430.6981365850369" x2="358.0556175240298" y2="303.6369845820538" style="stroke:rgb(0,0,255);stroke-width:1"/>
<line x1="358.0556175240298" y1="303.6369845820538" x2="547.5601113408818" y2="466.6882873754782" style="stroke:rgb(0,0,255);stroke-width:1"/>
<line x1="547.5601113408818" y1="466.6882873754782" x2="358.0556175240298" y2="303.6369845820538" style="stroke:rgb(0,0,255);stroke-width:1"/>
<line x1="559.6206025902821" y1="623.0863871502237" x2="584.6323540269731" y2="501.20036914980005" style="stroke:rgb(0,0,255);stroke-width:1"/>
<line x1="584.6323540269731" y1="501.20036914980005" x2="559.6206025902821" y2="623.0863871502237" style="stroke:rgb(0,0,255);stroke-width:1"/>
<line x1="559.6206025902821" y1="623.0863871502237" x2="547.5601113408818" y2="466.6882873754782" style="stroke:rgb(0,0,255);stroke-width:1"/>
<line x1="547.5601113408818" y1="466.6882873754782" x2="559.6206025902821" y2="623.0863871502237" style="stroke:rgb(0,0,255);stroke-width:1"/>
<line x1="356.23118590863464" y1="623.0637926159114" x2="584.6323540269731" y2="501.20036914980005" style="stroke:rgb(0,0,255);stroke-width:1"/>
<line x1="584.6323540269731" y1="501.20036914980005" x2="356.23118590863464" y2="623.0637926159114" style="stroke:rgb(0,0,255);stroke-width:1"/>
<line x1="356.23118590863464" y1="623.0637926159114" x2="547.5601113408818" y2="466.6882873754782" style="stroke:rgb(0,0,255);stroke-width:1"/>
<line x1="547.5601113408818" y1="466.6882873754782" x2="356.23118590863464" y2="623.0637926159114" style="stroke:rgb(0,0,255);stroke-width:1"/>
<line x1="654.4876719957638" y1="430.6981365850369" x2="584.6323540269731" y2="501.20036914980005" style="stroke:rgb(0,0,255);stroke-width:1"/>
<line x1="584.6323540269731" y1="501.20036914980005" x2="654.4876719957638" y2="430.6981365850369" style="stroke:rgb(0,0,255);stroke-width:1"/>
<line x1="654.4876719957638" y1="430.6981365850369" x2="547.5601113408818" y2="466.6882873754782" style="stroke:rgb(0,0,255);stroke-width:1"/>
<line x1="547.5601113408818" y1="466.6882873754782" x2="654.4876719957638" y2="430.6981365850369" style="stroke:rgb(0,0,255);stroke-width:1"/>
<line x1="584.6323540269731" y1="501.20036914980005" x2="547.5601113408818" y2="466.6882873754782" style="stroke:rgb(0,0,255);stroke-width:1"/>
<line x1="547.5601113408818" y1="466.6882873754782" x2="584.6323540269731" y2="501.20036914980005" style="stroke:rgb(0,0,255);stroke-width:1"/>
</svg>
