<svg xmlns="http://www.w3.org/2000/svg" version="1.1" xmlns:xllink="http://www.w3.org/1999/xlink" width="1000" height="1000">
<ellipse cx="329.0223031544592" cy="541.7444507645704" rx="5.60" ry="5.60" style="fill:rgb(255,255,0);stroke:rgb(0,0,0);stroke-width:0.50;"/>
<ellipse cx="296.00418058240996" cy="478.532683081424" rx="5.60" ry="5.60" style="fill:rgb(255,255,0);stroke:rgb(0,0,0);stroke-width:0.50;"/>
<ellipse cx="510.32760989464737" cy="449.0816814942641" rx="5.60" ry="5.60" style="fill:rgb(255,255,0);stroke:rgb(0,0,0);stroke-width:0.50;"/>
<ellipse cx="270.49834209168205" cy="365.3841925722273" rx="5.60" ry="5.60" style="fill:rgb(255,255,0);stroke:rgb(0,0,0);stroke-width:0.50;"/>
<ellipse cx="152.7678050125213" cy="715.0537728599832" rx="5.60" ry="5.60" style="fill:rgb(255,255,0);stroke:rgb(0,0,0);stroke-width:0.50;"/>
<ellipse cx="374.4415060568251" cy="810.557809257512" rx="5.60" ry="5.60" style="fill:rgb(255,255,0);stroke:rgb(0,0,0);stroke-width:0.50;"/>
<ellipse cx="331.6075314960591" cy="721.7946053195822" rx="5.60" ry="5.60" style="fill:rgb(255,255,0);stroke:rgb(0,0,0);stroke-width:0.50;"/>
<ellipse cx="376.55927071489646" cy="329.4994716235334" rx="5.60" ry="5.60" style="fill:rgb(255,255,0);stroke:rgb(0,0,0);stroke-width:0.50;"/>
<ellipse cx="528.2610643723798" cy="369.81500513227206" rx="5.60" ry="5.60" style="fill:rgb(255,255,0);stroke:rgb(0,0,0);stroke-width:0.50;"/>
<ellipse cx="243.1224081751858" cy="779.9009272359843" rx="5.60" ry="5.60" style="fill:rgb(255,255,0);stroke:rgb(0,0,0);stroke-width:0.50;"/>
<ellipse cx="329.9570749376263" cy="213.10305969672982" rx="5.60" ry="5.60" style="fill:rgb(255,255,0);stroke:rgb(0,0,0);stroke-width:0.50;"/>
<ellipse cx="123.7846816196735" cy="324.9882668500301" rx="5.60" ry="5.60" style="fill:rgb(255,255,0);stroke:rgb(0,0,0);stroke-width:0.50;"/>
<ellipse cx="415.18535751583613" cy="441.1465880032682" rx="5.60" ry="5.60" style="fill:rgb(255,255,0);stroke:rgb(0,0,0);stroke-width:0.50;"/>
<ellipse cx="82.96983980851007" cy="469.3523701167976" rx="5.60" ry="5.60" style="fill:rgb(255,255,0);stroke:rgb(0,0,0);stroke-width:0.50;"/>
<ellipse cx="432.3290784891233" cy="599.3770381933297" rx="5.60" ry="5.60" style="fill:rgb(255,255,0);stroke:rgb(0,0,0);stroke-width:0.50;"/>
<ellipse cx="139.3558700891101" cy="576.9963041961464" rx="5.60" ry="5.60" style="fill:rgb(255,255,0);stroke:rgb(0,0,0);stroke-width:0.50;"/>
<ellipse cx="686.4876719957638" cy="558.6981365850369" rx="5.60" ry="5.60" style="fill:rgb(255,255,0);stroke:rgb(0,0,0);stroke-width:0.50;"/>
<ellipse cx="536.2311859086346" cy="526.0637926159114" rx="5.60" ry="5.60" style="fill:rgb(255,255,0);stroke:rgb(0,0,0);stroke-width:0.50;"/>
<ellipse cx="555.3470876824354" cy="646.1766897180552" rx="5.60" ry="5.60" style="fill:rgb(255,255,0);stroke:rgb(0,0,0);stroke-width:0.50;"/>
<ellipse cx="788.9739540098194" cy="538.7519305559707" rx="5.60" ry="5.60" style="fill:rgb(255,255,0);stroke:rgb(0,0,0);stroke-width:0.50;"/>
<ellipse cx="634.0556175240298" cy="330.6369845820538" rx="5.60" ry="5.60" style="fill:rgb(255,255,0);stroke:rgb(0,0,0);stroke-width:0.50;"/>
<ellipse cx="726.6323540269731" cy="426.20036914980005" rx="5.60" ry="5.60" style="fill:rgb(255,255,0);stroke:rgb(0,0,0);stroke-width:0.50;"/>
<ellipse cx="485.41513761653994" cy="885.8143101698874" rx="5.60" ry="5.60" style="fill:rgb(255,255,0);stroke:rgb(0,0,0);stroke-width:0.50;"/>
<ellipse cx="671.5601113408818" cy="441.68828737547824" rx="5.60" ry="5.60" style="fill:rgb(255,255,0);stroke:rgb(0,0,0);stroke-width:0.50;"/>
<ellipse cx="787.2991336888128" cy="284.88718040694005" rx="5.60" ry="5.60" style="fill:rgb(255,255,0);stroke:rgb(0,0,0);stroke-width:0.50;"/>
<ellipse cx="662.2882135950681" cy="688.2594958470584" rx="5.60" ry="5.60" style="fill:rgb(255,255,0);stroke:rgb(0,0,0);stroke-width:0.50;"/>
<ellipse cx="587.060442559758" cy="213.62189759768228" rx="5.60" ry="5.60" style="fill:rgb(255,255,0);stroke:rgb(0,0,0);stroke-width:0.50;"/>
<ellipse cx="708.2902830150754" cy="193.93510642627416" rx="5.60" ry="5.60" style="fill:rgb(255,255,0);stroke:rgb(0,0,0);stroke-width:0.50;"/>
<ellipse cx="759.7932293324005" cy="670.0271669321962" rx="5.60" ry="5.60" style="fill:rgb(255,255,0);stroke:rgb(0,0,0);stroke-width:0.50;"/>
<ellipse cx="911.0256312032412" cy="475.9622489574382" rx="5.60" ry="5.60" style="fill:rgb(255,255,0);stroke:rgb(0,0,0);stroke-width:0.50;"/>
<ellipse cx="948.6652435500985" cy="601.330522334551" rx="5.60" ry="5.60" style="fill:rgb(255,255,0);stroke:rgb(0,0,0);stroke-width:0.50;"/>
<ellipse cx="904.6206025902821" cy="355.0863871502237" rx="5.60" ry="5.60" style="fill:rgb(255,255,0);stroke:rgb(0,0,0);stroke-width:0.50;"/>
<ellipse cx="874.1380016825848" cy="717.2524044635747" rx="5.60" ry="5.60" style="fill:rgb(255,255,0);stroke:rgb(0,0,0);stroke-width:0.50;"/>
<ellipse cx="887.7753546270661" cy="232.6238439330059" rx="5.60" ry="5.60" style="fill:rgb(255,255,0);stroke:rgb(0,0,0);stroke-width:0.50;"/>
<line x1="329.0223031544592" y1="541.7444507645704" x2="296.00418058240996" y2="478.532683081424" style="stroke:rgb(0,0,255);stroke-width:1"/>
<line x1="296.00418058240996" y1="478.532683081424" x2="329.0223031544592" y2="541.7444507645704" style="stroke:rgb(0,0,255);stroke-width:1"/>
<line x1="329.0223031544592" y1="541.7444507645704" x2="510.32760989464737" y2="449.0816814942641" style="stroke:rgb(0,0,255);stroke-width:1"/>
<line x1="510.32760989464737" y1="449.0816814942641" x2="329.0223031544592" y2="541.7444507645704" style="stroke:rgb(0,0,255);stroke-width:1"/>
<line x1="329.0223031544592" y1="541.7444507645704" x2="270.49834209168205" y2="365.3841925722273" style="stroke:rgb(0,0,255);stroke-width:1"/>
<line x1="270.49834209168205" y1="365.3841925722273" x2="329.0223031544592" y2="541.7444507645704" style="stroke:rgb(0,0,255);stroke-width:1"/>
<line x1="329.0223031544592" y1="541.7444507645704" x2="152.7678050125213" y2="715.0537728599832" style="stroke:rgb(0,0,255);stroke-width:1"/>
<line x1="152.7678050125213" y1="715.0537728599832" x2="329.0223031544592" y2="541.7444507645704" style="stroke:rgb(0,0,255);stroke-width:1"/>
<line x1="329.0223031544592" y1="541.7444507645704" x2="374.4415060568251" y2="810.557809257512" style="stroke:rgb(0,0,255);stroke-width:1"/>
<line x1="374.4415060568251" y1="810.557809257512" x2="329.0223031544592" y2="541.7444507645704" style="stroke:rgb(0,0,255);stroke-width:1"/>
<line x1="329.0223031544592" y1="541.7444507645704" x2="331.6075314960591" y2="721.7946053195822" style="stroke:rgb(0,0,255);stroke-width:1"/>
<line x1="331.6075314960591" y1="721.7946053195822" x2="329.0223031544592" y2="541.7444507645704" style="stroke:rgb(0,0,255);stroke-width:1"/>
<line x1="329.0223031544592" y1="541.7444507645704" x2="376.55927071489646" y2="329.4994716235334" style="stroke:rgb(0,0,255);stroke-width:1"/>
<line x1="376.55927071489646" y1="329.4994716235334" x2="329.0223031544592" y2="541.7444507645704" style="stroke:rgb(0,0,255);stroke-width:1"/>
<line x1="329.0223031544592" y1="541.7444507645704" x2="528.2610643723798" y2="369.81500513227206" style="stroke:rgb(0,0,255);stroke-width:1"/>
<line x1="528.2610643723798" y1="369.81500513227206" x2="329.0223031544592" y2="541.7444507645704" style="stroke:rgb(0,0,255);stroke-width:1"/>
<line x1="329.0223031544592" y1="541.7444507645704" x2="243.1224081751858" y2="779.9009272359843" style="stroke:rgb(0,0,255);stroke-width:1"/>
<line x1="243.1224081751858" y1="779.9009272359843" x2="329.0223031544592" y2="541.7444507645704" style="stroke:rgb(0,0,255);stroke-width:1"/>
<line x1="329.0223031544592" y1="541.7444507645704" x2="329.9570749376263" y2="213.10305969672982" style="stroke:rgb(0,0,255);stroke-width:1"/>
<line x1="329.9570749376263" y1="213.10305969672982" x2="329.0223031544592" y2="541.7444507645704" style="stroke:rgb(0,0,255);stroke-width:1"/>
<line x1="329.0223031544592" y1="541.7444507645704" x2="123.7846816196735" y2="324.9882668500301" style="stroke:rgb(0,0,255);stroke-width:1"/>
<line x1="123.7846816196735" y1="324.9882668500301" x2="329.0223031544592" y2="541.7444507645704" style="stroke:rgb(0,0,255);stroke-width:1"/>
<line x1="329.0223031544592" y1="541.7444507645704" x2="415.18535751583613" y2="441.1465880032682" style="stroke:rgb(0,0,255);stroke-width:1"/>
<line x1="415.18535751583613" y1="441.1465880032682" x2="329.0223031544592" y2="541.7444507645704" style="stroke:rgb(0,0,255);stroke-width:1"/>
<line x1="329.0223031544592" y1="541.7444507645704" x2="82.96983980851007" y2="469.3523701167976" style="stroke:rgb(0,0,255);stroke-width:1"/>
<line x1="82.96983980851007" y1="469.3523701167976" x2="329.0223031544592" y2="541.7444507645704" style="stroke:rgb(0,0,255);stroke-width:1"/>
<line x1="329.0223031544592" y1="541.7444507645704" x2="432.3290784891233" y2="599.3770381933297" style="stroke:rgb(0,0,255);stroke-width:1"/>
<line x1="432.3290784891233" y1="599.3770381933297" x2="329.0223031544592" y2="541.7444507645704" style="stroke:rgb(0,0,255);stroke-width:1"/>
<line x1="329.0223031544592" y1="541.7444507645704" x2="139.3558700891101" y2="576.9963041961464" style="stroke:rgb(0,0,255);stroke-width:1"/>
<line x1="139.3558700891101" y1="576.9963041961464" x2="329.0223031544592" y2="541.7444507645704" style="stroke:rgb(0,0,255);stroke-width:1"/>
<line x1="329.0223031544592" y1="541.7444507645704" x2="686.4876719957638" y2="558.6981365850369" style="stroke:rgb(0,0,255);stroke-width:1"/>
<line x1="686.4876719957638" y1="558.6981365850369" x2="329.0223031544592" y2="541.7444507645704" style="stroke:rgb(0,0,255);stroke-width:1"/>
<line x1="296.00418058240996" y1="478.532683081424" x2="510.32760989464737" y2="449.0816814942641" style="stroke:rgb(0,0,255);stroke-width:1"/>
<line x1="510.32760989464737" y1="449.0816814942641" x2="296.00418058240996" y2="478.532683081424" style="stroke:rgb(0,0,255);stroke-width:1"/>
<line x1="296.00418058240996" y1="478.532683081424" x2="270.49834209168205" y2="365.3841925722273" style="stroke:rgb(0,0,255);stroke-width:1"/>
<line x1="270.49834209168205" y1="365.3841925722273" x2="296.00418058240996" y2="478.532683081424" style="stroke:rgb(0,0,255);stroke-width:1"/>
<line x1="296.00418058240996" y1="478.532683081424" x2="376.55927071489646" y2="329.4994716235334" style="stroke:rgb(0,0,255);stroke-width:1"/>
<line x1="376.55927071489646" y1="329.4994716235334" x2="296.00418058240996" y2="478.532683081424" style="stroke:rgb(0,0,255);stroke-width:1"/>
<line x1="296.00418058240996" y1="478.532683081424" x2="415.18535751583613" y2="441.1465880032682" style="stroke:rgb(0,0,255);stroke-width:1"/>
<line x1="415.18535751583613" y1="441.1465880032682" x2="296.00418058240996" y2="478.532683081424" style="stroke:rgb(0,0,255);stroke-width:1"/>
<line x1="296.00418058240996" y1="478.532683081424" x2="82.96983980851007" y2="469.3523701167976" style="stroke:rgb(0,0,255);stroke-width:1"/>
<line x1="82.96983980851007" y1="469.3523701167976" x2="296.00418058240996" y2="478.532683081424" style="stroke:rgb(0,0,255);stroke-width:1"/>
<line x1="296.00418058240996" y1="478.532683081424" x2="432.3290784891233" y2="599.3770381933297" style="stroke:rgb(0,0,255);stroke-width:1"/>
<line x1="432.3290784891233" y1="599.3770381933297" x2="296.00418058240996" y2="478.532683081424" style="stroke:rgb(0,0,255);stroke-width:1"/>
<line x1="296.00418058240996" y1="478.532683081424" x2="139.3558700891101" y2="576.9963041961464" style="stroke:rgb(0,0,255);stroke-width:1"/>
<line x1="139.3558700891101" y1="576.9963041961464" x2="296.00418058240996" y2="478.532683081424" style="stroke:rgb(0,0,255);stroke-width:1"/>
<line x1="296.00418058240996" y1="478.532683081424" x2="536.2311859086346" y2="526.0637926159114" style="stroke:rgb(0,0,255);stroke-width:1"/>
<line x1="536.2311859086346" y1="526.0637926159114" x2="296.00418058240996" y2="478.532683081424" style="stroke:rgb(0,0,255);stroke-width:1"/>
<line x1="510.32760989464737" y1="449.0816814942641" x2="270.49834209168205" y2="365.3841925722273" style="stroke:rgb(0,0,255);stroke-width:1"/>
<line x1="270.49834209168205" y1="365.3841925722273" x2="510.32760989464737" y2="449.0816814942641" style="stroke:rgb(0,0,255);stroke-width:1"/>
<line x1="510.32760989464737" y1="449.0816814942641" x2="376.55927071489646" y2="329.4994716235334" style="stroke:rgb(0,0,255);stroke-width:1"/>
<line x1="376.55927071489646" y1="329.4994716235334" x2="510.32760989464737" y2="449.0816814942641" style="stroke:rgb(0,0,255);stroke-width:1"/>
<line x1="510.32760989464737" y1="449.0816814942641" x2="528.2610643723798" y2="369.81500513227206" style="stroke:rgb(0,0,255);stroke-width:1"/>
<line x1="528.2610643723798" y1="369.81500513227206" x2="510.32760989464737" y2="449.0816814942641" style="stroke:rgb(0,0,255);stroke-width:1"/>
<line x1="510.32760989464737" y1="449.0816814942641" x2="555.3470876824354" y2="646.1766897180552" style="stroke:rgb(0,0,255);stroke-width:1"/>
<line x1="555.3470876824354" y1="646.1766897180552" x2="510.32760989464737" y2="449.0816814942641" style="stroke:rgb(0,0,255);stroke-width:1"/>
<line x1="510.32760989464737" y1="449.0816814942641" x2="415.18535751583613" y2="441.1465880032682" style="stroke:rgb(0,0,255);stroke-width:1"/>
<line x1="415.18535751583613" y1="441.1465880032682" x2="510.32760989464737" y2="449.0816814942641" style="stroke:rgb(0,0,255);stroke-width:1"/>
<line x1="510.32760989464737" y1="449.0816814942641" x2="788.9739540098194" y2="538.7519305559707" style="stroke:rgb(0,0,255);stroke-width:1"/>
<line x1="788.9739540098194" y1="538.7519305559707" x2="510.32760989464737" y2="449.0816814942641" style="stroke:rgb(0,0,255);stroke-width:1"/>
<line x1="510.32760989464737" y1="449.0816814942641" x2="634.0556175240298" y2="330.6369845820538" style="stroke:rgb(0,0,255);stroke-width:1"/>
<line x1="634.0556175240298" y1="330.6369845820538" x2="510.32760989464737" y2="449.0816814942641" style="stroke:rgb(0,0,255);stroke-width:1"/>
<line x1="510.32760989464737" y1="449.0816814942641" x2="726.6323540269731" y2="426.20036914980005" style="stroke:rgb(0,0,255);stroke-width:1"/>
<line x1="726.6323540269731" y1="426.20036914980005" x2="510.32760989464737" y2="449.0816814942641" style="stroke:rgb(0,0,255);stroke-width:1"/>
<line x1="270.49834209168205" y1="365.3841925722273" x2="376.55927071489646" y2="329.4994716235334" style="stroke:rgb(0,0,255);stroke-width:1"/>
<line x1="376.55927071489646" y1="329.4994716235334" x2="270.49834209168205" y2="365.3841925722273" style="stroke:rgb(0,0,255);stroke-width:1"/>
<line x1="270.49834209168205" y1="365.3841925722273" x2="123.7846816196735" y2="324.9882668500301" style="stroke:rgb(0,0,255);stroke-width:1"/>
<line x1="123.7846816196735" y1="324.9882668500301" x2="270.49834209168205" y2="365.3841925722273" style="stroke:rgb(0,0,255);stroke-width:1"/>
<line x1="270.49834209168205" y1="365.3841925722273" x2="415.18535751583613" y2="441.1465880032682" style="stroke:rgb(0,0,255);stroke-width:1"/>
<line x1="415.18535751583613" y1="441.1465880032682" x2="270.49834209168205" y2="365.3841925722273" style="stroke:rgb(0,0,255);stroke-width:1"/>
<line x1="152.7678050125213" y1="715.0537728599832" x2="331.6075314960591" y2="721.7946053195822" style="stroke:rgb(0,0,255);stroke-width:1"/>
<line x1="331.6075314960591" y1="721.7946053195822" x2="152.7678050125213" y2="715.0537728599832" style="stroke:rgb(0,0,255);stroke-width:1"/>
<line x1="152.7678050125213" y1="715.0537728599832" x2="243.1224081751858" y2="779.9009272359843" style="stroke:rgb(0,0,255);stroke-width:1"/>
<line x1="243.1224081751858" y1="779.9009272359843" x2="152.7678050125213" y2="715.0537728599832" style="stroke:rgb(0,0,255);stroke-width:1"/>
<line x1="374.4415060568251" y1="810.557809257512" x2="331.6075314960591" y2="721.7946053195822" style="stroke:rgb(0,0,255);stroke-width:1"/>
<line x1="331.6075314960591" y1="721.7946053195822" x2="374.4415060568251" y2="810.557809257512" style="stroke:rgb(0,0,255);stroke-width:1"/>
<line x1="374.4415060568251" y1="810.557809257512" x2="243.1224081751858" y2="779.9009272359843" style="stroke:rgb(0,0,255);stroke-width:1"/>
<line x1="243.1224081751858" y1="779.9009272359843" x2="374.4415060568251" y2="810.557809257512" style="stroke:rgb(0,0,255);stroke-width:1"/>
<line x1="374.4415060568251" y1="810.557809257512" x2="485.41513761653994" y2="885.8143101698874" style="stroke:rgb(0,0,255);stroke-width:1"/>
<line x1="485.41513761653994" y1="885.8143101698874" x2="374.4415060568251" y2="810.557809257512" style="stroke:rgb(0,0,255);stroke-width:1"/>
<line x1="331.6075314960591" y1="721.7946053195822" x2="485.41513761653994" y2="885.8143101698874" style="stroke:rgb(0,0,255);stroke-width:1"/>
<line x1="485.41513761653994" y1="885.8143101698874" x2="331.6075314960591" y2="721.7946053195822" style="stroke:rgb(0,0,255);stroke-width:1"/>
<line x1="528.2610643723798" y1="369.81500513227206" x2="536.2311859086346" y2="526.0637926159114" style="stroke:rgb(0,0,255);stroke-width:1"/>
<line x1="536.2311859086346" y1="526.0637926159114" x2="528.2610643723798" y2="369.81500513227206" style="stroke:rgb(0,0,255);stroke-width:1"/>
<line x1="528.2610643723798" y1="369.81500513227206" x2="726.6323540269731" y2="426.20036914980005" style="stroke:rgb(0,0,255);stroke-width:1"/>
<line x1="726.6323540269731" y1="426.20036914980005" x2="528.2610643723798" y2="369.81500513227206" style="stroke:rgb(0,0,255);stroke-width:1"/>
<line x1="528.2610643723798" y1="369.81500513227206" x2="671.5601113408818" y2="441.68828737547824" style="stroke:rgb(0,0,255);stroke-width:1"/>
<line x1="671.5601113408818" y1="441.68828737547824" x2="528.2610643723798" y2="369.81500513227206" style="stroke:rgb(0,0,255);stroke-width:1"/>
<line x1="555.3470876824354" y1="646.1766897180552" x2="671.5601113408818" y2="441.68828737547824" style="stroke:rgb(0,0,255);stroke-width:1"/>
<line x1="671.5601113408818" y1="441.68828737547824" x2="555.3470876824354" y2="646.1766897180552" style="stroke:rgb(0,0,255);stroke-width:1"/>
<line x1="415.18535751583613" y1="441.1465880032682" x2="671.5601113408818" y2="441.68828737547824" style="stroke:rgb(0,0,255);stroke-width:1"/>
<line x1="671.5601113408818" y1="441.68828737547824" x2="415.18535751583613" y2="441.1465880032682" style="stroke:rgb(0,0,255);stroke-width:1"/>
<line x1="787.2991336888128" y1="284.88718040694005" x2="726.6323540269731" y2="426.20036914980005" style="stroke:rgb(0,0,255);stroke-width:1"/>
<line x1="726.6323540269731" y1="426.20036914980005" x2="787.2991336888128" y2="284.88718040694005" style="stroke:rgb(0,0,255);stroke-width:1"/>
<line x1="787.2991336888128" y1="284.88718040694005" x2="671.5601113408818" y2="441.68828737547824" style="stroke:rgb(0,0,255);stroke-width:1"/>
<line x1="671.5601113408818" y1="441.68828737547824" x2="787.2991336888128" y2="284.88718040694005" style="stroke:rgb(0,0,255);stroke-width:1"/>
<line x1="662.2882135950681" y1="688.2594958470584" x2="726.6323540269731" y2="426.20036914980005" style="stroke:rgb(0,0,255);stroke-width:1"/>
<line x1="726.6323540269731" y1="426.20036914980005" x2="662.2882135950681" y2="688.2594958470584" style="stroke:rgb(0,0,255);stroke-width:1"/>
<line x1="662.2882135950681" y1="688.2594958470584" x2="671.5601113408818" y2="441.68828737547824" style="stroke:rgb(0,0,255);stroke-width:1"/>
<line x1="671.5601113408818" y1="441.68828737547824" x2="662.2882135950681" y2="688.2594958470584" style="stroke:rgb(0,0,255);stroke-width:1"/>
<line x1="587.060442559758" y1="213.62189759768228" x2="726.6323540269731" y2="426.20036914980005" style="stroke:rgb(0,0,255);stroke-width:1"/>
<line x1="726.6323540269731" y1="426.20036914980005" x2="587.060442559758" y2="213.62189759768228" style="stroke:rgb(0,0,255);stroke-width:1"/>
<line x1="587.060442559758" y1="213.62189759768228" x2="671.5601113408818" y2="441.68828737547824" style="stroke:rgb(0,0,255);stroke-width:1"/>
<line x1="671.5601113408818" y1="441.68828737547824" x2="587.060442559758" y2="213.62189759768228" style="stroke:rgb(0,0,255);stroke-width:1"/>
<line x1="432.3290784891233" y1="599.3770381933297" x2="671.5601113408818" y2="441.68828737547824" style="stroke:rgb(0,0,255);stroke-width:1"/>
<line x1="671.5601113408818" y1="441.68828737547824" x2="432.3290784891233" y2="599.3770381933297" style="stroke:rgb(0,0,255);stroke-width:1"/>
<line x1="708.2902830150754" y1="193.93510642627416" x2="726.6323540269731" y2="426.20036914980005" style="stroke:rgb(0,0,255);stroke-width:1"/>
<line x1="726.6323540269731" y1="426.20036914980005" x2="708.2902830150754" y2="193.93510642627416" style="stroke:rgb(0,0,255);stroke-width:1"/>
<line x1="708.2902830150754" y1="193.93510642627416" x2="671.5601113408818" y2="441.68828737547824" style="stroke:rgb(0,0,255);stroke-width:1"/>
<line x1="671.5601113408818" y1="441.68828737547824" x2="708.2902830150754" y2="193.93510642627416" style="stroke:rgb(0,0,255);stroke-width:1"/>
<line x1="759.7932293324005" y1="670.0271669321962" x2="726.6323540269731" y2="426.20036914980005" style="stroke:rgb(0,0,255);stroke-width:1"/>
<line x1="726.6323540269731" y1="426.20036914980005" x2="759.7932293324005" y2="670.0271669321962" style="stroke:rgb(0,0,255);stroke-width:1"/>
<line x1="759.7932293324005" y1="670.0271669321962" x2="671.5601113408818" y2="441.68828737547824" style="stroke:rgb(0,0,255);stroke-width:1"/>
<line x1="671.5601113408818" y1="441.68828737547824" x2="759.7932293324005" y2="670.0271669321962" style="stroke:rgb(0,0,255);stroke-width:1"/>
<line x1="911.0256312032412" y1="475.9622489574382" x2="948.6652435500985" y2="601.330522334551" style="stroke:rgb(0,0,255);stroke-width:1"/>
<line x1="948.6652435500985" y1="601.330522334551" x2="911.0256312032412" y2="475.9622489574382" style="stroke:rgb(0,0,255);stroke-width:1"/>
<line x1="911.0256312032412" y1="475.9622489574382" x2="788.9739540098194" y2="538.7519305559707" style="stroke:rgb(0,0,255);stroke-width:1"/>
<line x1="788.9739540098194" y1="538.7519305559707" x2="911.0256312032412" y2="475.9622489574382" style="stroke:rgb(0,0,255);stroke-width:1"/>
<line x1="911.0256312032412" y1="475.9622489574382" x2="904.6206025902821" y2="355.0863871502237" style="stroke:rgb(0,0,255);stroke-width:1"/>
<line x1="904.6206025902821" y1="355.0863871502237" x2="911.0256312032412" y2="475.9622489574382" style="stroke:rgb(0,0,255);stroke-width:1"/>
<line x1="911.0256312032412" y1="475.9622489574382" x2="726.6323540269731" y2="426.20036914980005" style="stroke:rgb(0,0,255);stroke-width:1"/>
<line x1="726.6323540269731" y1="426.20036914980005" x2="911.0256312032412" y2="475.9622489574382" style="stroke:rgb(0,0,255);stroke-width:1"/>
<line x1="911.0256312032412" y1="475.9622489574382" x2="671.5601113408818" y2="441.68828737547824" style="stroke:rgb(0,0,255);stroke-width:1"/>
<line x1="671.5601113408818" y1="441.68828737547824" x2="911.0256312032412" y2="475.9622489574382" style="stroke:rgb(0,0,255);stroke-width:1"/>
<line x1="874.1380016825848" y1="717.2524044635747" x2="948.6652435500985" y2="601.330522334551" style="stroke:rgb(0,0,255);stroke-width:1"/>
<line x1="948.6652435500985" y1="601.330522334551" x2="874.1380016825848" y2="717.2524044635747" style="stroke:rgb(0,0,255);stroke-width:1"/>
<line x1="874.1380016825848" y1="717.2524044635747" x2="788.9739540098194" y2="538.7519305559707" style="stroke:rgb(0,0,255);stroke-width:1"/>
<line x1="788.9739540098194" y1="538.7519305559707" x2="874.1380016825848" y2="717.2524044635747" style="stroke:rgb(0,0,255);stroke-width:1"/>
<line x1="874.1380016825848" y1="717.2524044635747" x2="686.4876719957638" y2="558.6981365850369" style="stroke:rgb(0,0,255);stroke-width:1"/>
<line x1="686.4876719957638" y1="558.6981365850369" x2="874.1380016825848" y2="717.2524044635747" style="stroke:rgb(0,0,255);stroke-width:1"/>
<line x1="948.6652435500985" y1="601.330522334551" x2="686.4876719957638" y2="558.6981365850369" style="stroke:rgb(0,0,255);stroke-width:1"/>
<line x1="686.4876719957638" y1="558.6981365850369" x2="948.6652435500985" y2="601.330522334551" style="stroke:rgb(0,0,255);stroke-width:1"/>
<line x1="887.7753546270661" y1="232.6238439330059" x2="904.6206025902821" y2="355.0863871502237" style="stroke:rgb(0,0,255);stroke-width:1"/>
<line x1="904.6206025902821" y1="355.0863871502237" x2="887.7753546270661" y2="232.6238439330059" style="stroke:rgb(0,0,255);stroke-width:1"/>
<line x1="887.7753546270661" y1="232.6238439330059" x2="671.5601113408818" y2="441.68828737547824" style="stroke:rgb(0,0,255);stroke-width:1"/>
<line x1="671.5601113408818" y1="441.68828737547824" x2="887.7753546270661" y2="232.6238439330059" style="stroke:rgb(0,0,255);stroke-width:1"/>
<line x1="788.9739540098194" y1="538.7519305559707" x2="671.5601113408818" y2="441.68828737547824" style="stroke:rgb(0,0,255);stroke-width:1"/>
<line x1="671.5601113408818" y1="441.68828737547824" x2="788.9739540098194" y2="538.7519305559707" style="stroke:rgb(0,0,255);stroke-width:1"/>
<line x1="634.0556175240298" y1="330.6369845820538" x2="686.4876719957638" y2="558.6981365850369" style="stroke:rgb(0,0,255);stroke-width:1"/>
<line x1="686.4876719957638" y1="558.6981365850369" x2="634.0556175240298" y2="330.6369845820538" style="stroke:rgb(0,0,255);stroke-width:1"/>
<line x1="634.0556175240298" y1="330.6369845820538" x2="671.5601113408818" y2="441.68828737547824" style="stroke:rgb(0,0,255);stroke-width:1"/>
<line x1="671.5601113408818" y1="441.68828737547824" x2="634.0556175240298" y2="330.6369845820538" style="stroke:rgb(0,0,255);stroke-width:1"/>
<line x1="904.6206025902821" y1="355.0863871502237" x2="726.6323540269731" y2="426.20036914980005" style="stroke:rgb(0,0,255);stroke-width:1"/>
<line x1="726.6323540269731" y1="426.20036914980005" x2="904.6206025902821" y2="355.0863871502237" style="stroke:rgb(0,0,255);stroke-width:1"/>
<line x1="904.6206025902821" y1="355.0863871502237" x2="671.5601113408818" y2="441.68828737547824" style="stroke:rgb(0,0,255);stroke-width:1"/>
<line x1="671.5601113408818" y1="441.68828737547824" x2="904.6206025902821" y2="355.0863871502237" style="stroke:rgb(0,0,255);stroke-width:1"/>
<line x1="536.2311859086346" y1="526.0637926159114" x2="726.6323540269731" y2="426.20036914980005" style="stroke:rgb(0,0,255);stroke-width:1"/>
<line x1="726.6323540269731" y1="426.20036914980005" x2="536.2311859086346" y2="526.0637926159114" style="stroke:rgb(0,0,255);stroke-width:1"/>
<line x1="536.2311859086346" y1="526.0637926159114" x2="671.5601113408818" y2="441.68828737547824" style="stroke:rgb(0,0,255);stroke-width:1"/>
<line x1="671.5601113408818" y1="441.68828737547824" x2="536.2311859086346" y2="526.0637926159114" style="stroke:rgb(0,0,255);stroke-width:1"/>
<line x1="686.4876719957638" y1="558.6981365850369" x2="726.6323540269731" y2="426.20036914980005" style="stroke:rgb(0,0,255);stroke-width:1"/>
<line x1="726.6323540269731" y1="426.20036914980005" x2="686.4876719957638" y2="558.6981365850369" style="stroke:rgb(0,0,255);stroke-width:1"/>
<line x1="686.4876719957638" y1="558.6981365850369" x2="671.5601113408818" y2="441.68828737547824" style="stroke:rgb(0,0,255);stroke-width:1"/>
<line x1="671.5601113408818" y1="441.68828737547824" x2="686.4876719957638" y2="558.6981365850369" style="stroke:rgb(0,0,255);stroke-width:1"/>
<line x1="726.6323540269731" y1="426.20036914980005" x2="671.5601113408818" y2="441.68828737547824" style="stroke:rgb(0,0,255);stroke-width:1"/>
<line x1="671.5601113408818" y1="441.68828737547824" x2="726.6323540269731" y2="426.20036914980005" style="stroke:rgb(0,0,255);stroke-width:1"/>
</svg>
