<svg xmlns="http://www.w3.org/2000/svg" version="1.1" xmlns:xllink="http://www.w3.org/1999/xlink" width="1000" height="1000">
<ellipse cx="573.0223031544592" cy="523.7444507645704" rx="5.60" ry="5.60" style="fill:rgb(255,255,0);stroke:rgb(0,0,0);stroke-width:0.50;"/>
<ellipse cx="533.00418058241" cy="496.53268308142395" rx="5.60" ry="5.60" style="fill:rgb(255,255,0);stroke:rgb(0,0,0);stroke-width:0.50;"/>
<ellipse cx="565.3276098946474" cy="515.0816814942641" rx="5.60" ry="5.60" style="fill:rgb(255,255,0);stroke:rgb(0,0,0);stroke-width:0.50;"/>
<ellipse cx="526.498342091682" cy="474.3841925722273" rx="5.60" ry="5.60" style="fill:rgb(255,255,0);stroke:rgb(0,0,0);stroke-width:0.50;"/>
<ellipse cx="531.7678050125213" cy="488.05377285998316" rx="5.60" ry="5.60" style="fill:rgb(255,255,0);stroke:rgb(0,0,0);stroke-width:0.50;"/>
<ellipse cx="575.4415060568251" cy="496.557809257512" rx="5.60" ry="5.60" style="fill:rgb(255,255,0);stroke:rgb(0,0,0);stroke-width:0.50;"/>
<ellipse cx="575.6075314960591" cy="516.7946053195822" rx="5.60" ry="5.60" style="fill:rgb(255,255,0);stroke:rgb(0,0,0);stroke-width:0.50;"/>
<ellipse cx="568.5592707148965" cy="514.4994716235334" rx="5.60" ry="5.60" style="fill:rgb(255,255,0);stroke:rgb(0,0,0);stroke-width:0.50;"/>
<ellipse cx="536.2610643723798" cy="489.81500513227206" rx="5.60" ry="5.60" style="fill:rgb(255,255,0);stroke:rgb(0,0,0);stroke-width:0.50;"/>
<ellipse cx="556.1224081751858" cy="520.9009272359843" rx="5.60" ry="5.60" style="fill:rgb(255,255,0);stroke:rgb(0,0,0);stroke-width:0.50;"/>
<ellipse cx="553.9570749376263" cy="477.1030596967298" rx="5.60" ry="5.60" style="fill:rgb(255,255,0);stroke:rgb(0,0,0);stroke-width:0.50;"/>
<ellipse cx="547.7846816196735" cy="488.9882668500301" rx="5.60" ry="5.60" style="fill:rgb(255,255,0);stroke:rgb(0,0,0);stroke-width:0.50;"/>
<ellipse cx="535.1853575158361" cy="507.1465880032682" rx="5.60" ry="5.60" style="fill:rgb(255,255,0);stroke:rgb(0,0,0);stroke-width:0.50;"/>
<ellipse cx="534.9698398085101" cy="481.3523701167976" rx="5.60" ry="5.60" style="fill:rgb(255,255,0);stroke:rgb(0,0,0);stroke-width:0.50;"/>
<ellipse cx="533.3290784891233" cy="521.3770381933297" rx="5.60" ry="5.60" style="fill:rgb(255,255,0);stroke:rgb(0,0,0);stroke-width:0.50;"/>
<ellipse cx="525.3558700891101" cy="509.9963041961464" rx="5.60" ry="5.60" style="fill:rgb(255,255,0);stroke:rgb(0,0,0);stroke-width:0.50;"/>
<ellipse cx="562.4876719957638" cy="487.6981365850369" rx="5.60" ry="5.60" style="fill:rgb(255,255,0);stroke:rgb(0,0,0);stroke-width:0.50;"/>
<ellipse cx="528.2311859086346" cy="518.0637926159114" rx="5.60" ry="5.60" style="fill:rgb(255,255,0);stroke:rgb(0,0,0);stroke-width:0.50;"/>
<ellipse cx="531.3470876824354" cy="524.1766897180552" rx="5.60" ry="5.60" style="fill:rgb(255,255,0);stroke:rgb(0,0,0);stroke-width:0.50;"/>
<ellipse cx="577.9739540098194" cy="487.7519305559707" rx="5.60" ry="5.60" style="fill:rgb(255,255,0);stroke:rgb(0,0,0);stroke-width:0.50;"/>
<ellipse cx="522.0556175240298" cy="480.6369845820538" rx="5.60" ry="5.60" style="fill:rgb(255,255,0);stroke:rgb(0,0,0);stroke-width:0.50;"/>
<ellipse cx="532.6323540269731" cy="516.2003691498" rx="5.60" ry="5.60" style="fill:rgb(255,255,0);stroke:rgb(0,0,0);stroke-width:0.50;"/>
<ellipse cx="522.4151376165399" cy="489.81431016988745" rx="5.60" ry="5.60" style="fill:rgb(255,255,0);stroke:rgb(0,0,0);stroke-width:0.50;"/>
<ellipse cx="543.5601113408818" cy="481.6882873754782" rx="5.60" ry="5.60" style="fill:rgb(255,255,0);stroke:rgb(0,0,0);stroke-width:0.50;"/>
<ellipse cx="564.2991336888128" cy="486.88718040694005" rx="5.60" ry="5.60" style="fill:rgb(255,255,0);stroke:rgb(0,0,0);stroke-width:0.50;"/>
<ellipse cx="552.2882135950681" cy="514.2594958470584" rx="5.60" ry="5.60" style="fill:rgb(255,255,0);stroke:rgb(0,0,0);stroke-width:0.50;"/>
<ellipse cx="531.060442559758" cy="504.6218975976823" rx="5.60" ry="5.60" style="fill:rgb(255,255,0);stroke:rgb(0,0,0);stroke-width:0.50;"/>
<ellipse cx="564.2902830150754" cy="475.93510642627416" rx="5.60" ry="5.60" style="fill:rgb(255,255,0);stroke:rgb(0,0,0);stroke-width:0.50;"/>
<ellipse cx="567.7932293324005" cy="519.0271669321962" rx="5.60" ry="5.60" style="fill:rgb(255,255,0);stroke:rgb(0,0,0);stroke-width:0.50;"/>
<ellipse cx="576.0256312032412" cy="477.9622489574382" rx="5.60" ry="5.60" style="fill:rgb(255,255,0);stroke:rgb(0,0,0);stroke-width:0.50;"/>
<ellipse cx="572.6652435500985" cy="503.33052233455095" rx="5.60" ry="5.60" style="fill:rgb(255,255,0);stroke:rgb(0,0,0);stroke-width:0.50;"/>
<ellipse cx="539.6206025902821" cy="524.0863871502237" rx="5.60" ry="5.60" style="fill:rgb(255,255,0);stroke:rgb(0,0,0);stroke-width:0.50;"/>
<ellipse cx="561.1380016825848" cy="524.2524044635747" rx="5.60" ry="5.60" style="fill:rgb(255,255,0);stroke:rgb(0,0,0);stroke-width:0.50;"/>
<ellipse cx="558.7753546270661" cy="489.6238439330059" rx="5.60" ry="5.60" style="fill:rgb(255,255,0);stroke:rgb(0,0,0);stroke-width:0.50;"/>
<line x1="573.0223031544592" y1="523.7444507645704" x2="533.00418058241" y2="496.53268308142395" style="stroke:rgb(0,0,255);stroke-width:1"/>
<line x1="533.00418058241" y1="496.53268308142395" x2="573.0223031544592" y2="523.7444507645704" style="stroke:rgb(0,0,255);stroke-width:1"/>
<line x1="573.0223031544592" y1="523.7444507645704" x2="565.3276098946474" y2="515.0816814942641" style="stroke:rgb(0,0,255);stroke-width:1"/>
<line x1="565.3276098946474" y1="515.0816814942641" x2="573.0223031544592" y2="523.7444507645704" style="stroke:rgb(0,0,255);stroke-width:1"/>
<line x1="573.0223031544592" y1="523.7444507645704" x2="526.498342091682" y2="474.3841925722273" style="stroke:rgb(0,0,255);stroke-width:1"/>
<line x1="526.498342091682" y1="474.3841925722273" x2="573.0223031544592" y2="523.7444507645704" style="stroke:rgb(0,0,255);stroke-width:1"/>
<line x1="573.0223031544592" y1="523.7444507645704" x2="531.7678050125213" y2="488.05377285998316" style="stroke:rgb(0,0,255);stroke-width:1"/>
<line x1="531.7678050125213" y1="488.05377285998316" x2="573.0223031544592" y2="523.7444507645704" style="stroke:rgb(0,0,255);stroke-width:1"/>
<line x1="573.0223031544592" y1="523.7444507645704" x2="575.4415060568251" y2="496.557809257512" style="stroke:rgb(0,0,255);stroke-width:1"/>
<line x1="575.4415060568251" y1="496.557809257512" x2="573.0223031544592" y2="523.7444507645704" style="stroke:rgb(0,0,255);stroke-width:1"/>
<line x1="573.0223031544592" y1="523.7444507645704" x2="575.6075314960591" y2="516.7946053195822" style="stroke:rgb(0,0,255);stroke-width:1"/>
<line x1="575.6075314960591" y1="516.7946053195822" x2="573.0223031544592" y2="523.7444507645704" style="stroke:rgb(0,0,255);stroke-width:1"/>
<line x1="573.0223031544592" y1="523.7444507645704" x2="568.5592707148965" y2="514.4994716235334" style="stroke:rgb(0,0,255);stroke-width:1"/>
<line x1="568.5592707148965" y1="514.4994716235334" x2="573.0223031544592" y2="523.7444507645704" style="stroke:rgb(0,0,255);stroke-width:1"/>
<line x1="573.0223031544592" y1="523.7444507645704" x2="536.2610643723798" y2="489.81500513227206" style="stroke:rgb(0,0,255);stroke-width:1"/>
<line x1="536.2610643723798" y1="489.81500513227206" x2="573.0223031544592" y2="523.7444507645704" style="stroke:rgb(0,0,255);stroke-width:1"/>
<line x1="573.0223031544592" y1="523.7444507645704" x2="556.1224081751858" y2="520.9009272359843" style="stroke:rgb(0,0,255);stroke-width:1"/>
<line x1="556.1224081751858" y1="520.9009272359843" x2="573.0223031544592" y2="523.7444507645704" style="stroke:rgb(0,0,255);stroke-width:1"/>
<line x1="573.0223031544592" y1="523.7444507645704" x2="553.9570749376263" y2="477.1030596967298" style="stroke:rgb(0,0,255);stroke-width:1"/>
<line x1="553.9570749376263" y1="477.1030596967298" x2="573.0223031544592" y2="523.7444507645704" style="stroke:rgb(0,0,255);stroke-width:1"/>
<line x1="573.0223031544592" y1="523.7444507645704" x2="547.7846816196735" y2="488.9882668500301" style="stroke:rgb(0,0,255);stroke-width:1"/>
<line x1="547.7846816196735" y1="488.9882668500301" x2="573.0223031544592" y2="523.7444507645704" style="stroke:rgb(0,0,255);stroke-width:1"/>
<line x1="573.0223031544592" y1="523.7444507645704" x2="535.1853575158361" y2="507.1465880032682" style="stroke:rgb(0,0,255);stroke-width:1"/>
<line x1="535.1853575158361" y1="507.1465880032682" x2="573.0223031544592" y2="523.7444507645704" style="stroke:rgb(0,0,255);stroke-width:1"/>
<line x1="573.0223031544592" y1="523.7444507645704" x2="534.9698398085101" y2="481.3523701167976" style="stroke:rgb(0,0,255);stroke-width:1"/>
<line x1="534.9698398085101" y1="481.3523701167976" x2="573.0223031544592" y2="523.7444507645704" style="stroke:rgb(0,0,255);stroke-width:1"/>
<line x1="573.0223031544592" y1="523.7444507645704" x2="533.3290784891233" y2="521.3770381933297" style="stroke:rgb(0,0,255);stroke-width:1"/>
<line x1="533.3290784891233" y1="521.3770381933297" x2="573.0223031544592" y2="523.7444507645704" style="stroke:rgb(0,0,255);stroke-width:1"/>
<line x1="573.0223031544592" y1="523.7444507645704" x2="525.3558700891101" y2="509.9963041961464" style="stroke:rgb(0,0,255);stroke-width:1"/>
<line x1="525.3558700891101" y1="509.9963041961464" x2="573.0223031544592" y2="523.7444507645704" style="stroke:rgb(0,0,255);stroke-width:1"/>
<line x1="573.0223031544592" y1="523.7444507645704" x2="562.4876719957638" y2="487.6981365850369" style="stroke:rgb(0,0,255);stroke-width:1"/>
<line x1="562.4876719957638" y1="487.6981365850369" x2="573.0223031544592" y2="523.7444507645704" style="stroke:rgb(0,0,255);stroke-width:1"/>
<line x1="533.00418058241" y1="496.53268308142395" x2="565.3276098946474" y2="515.0816814942641" style="stroke:rgb(0,0,255);stroke-width:1"/>
<line x1="565.3276098946474" y1="515.0816814942641" x2="533.00418058241" y2="496.53268308142395" style="stroke:rgb(0,0,255);stroke-width:1"/>
<line x1="533.00418058241" y1="496.53268308142395" x2="526.498342091682" y2="474.3841925722273" style="stroke:rgb(0,0,255);stroke-width:1"/>
<line x1="526.498342091682" y1="474.3841925722273" x2="533.00418058241" y2="496.53268308142395" style="stroke:rgb(0,0,255);stroke-width:1"/>
<line x1="533.00418058241" y1="496.53268308142395" x2="568.5592707148965" y2="514.4994716235334" style="stroke:rgb(0,0,255);stroke-width:1"/>
<line x1="568.5592707148965" y1="514.4994716235334" x2="533.00418058241" y2="496.53268308142395" style="stroke:rgb(0,0,255);stroke-width:1"/>
<line x1="533.00418058241" y1="496.53268308142395" x2="535.1853575158361" y2="507.1465880032682" style="stroke:rgb(0,0,255);stroke-width:1"/>
<line x1="535.1853575158361" y1="507.1465880032682" x2="533.00418058241" y2="496.53268308142395" style="stroke:rgb(0,0,255);stroke-width:1"/>
<line x1="533.00418058241" y1="496.53268308142395" x2="534.9698398085101" y2="481.3523701167976" style="stroke:rgb(0,0,255);stroke-width:1"/>
<line x1="534.9698398085101" y1="481.3523701167976" x2="533.00418058241" y2="496.53268308142395" style="stroke:rgb(0,0,255);stroke-width:1"/>
<line x1="533.00418058241" y1="496.53268308142395" x2="533.3290784891233" y2="521.3770381933297" style="stroke:rgb(0,0,255);stroke-width:1"/>
<line x1="533.3290784891233" y1="521.3770381933297" x2="533.00418058241" y2="496.53268308142395" style="stroke:rgb(0,0,255);stroke-width:1"/>
<line x1="533.00418058241" y1="496.53268308142395" x2="525.3558700891101" y2="509.9963041961464" style="stroke:rgb(0,0,255);stroke-width:1"/>
<line x1="525.3558700891101" y1="509.9963041961464" x2="533.00418058241" y2="496.53268308142395" style="stroke:rgb(0,0,255);stroke-width:1"/>
<line x1="533.00418058241" y1="496.53268308142395" x2="528.2311859086346" y2="518.0637926159114" style="stroke:rgb(0,0,255);stroke-width:1"/>
<line x1="528.2311859086346" y1="518.0637926159114" x2="533.00418058241" y2="496.53268308142395" style="stroke:rgb(0,0,255);stroke-width:1"/>
<line x1="565.3276098946474" y1="515.0816814942641" x2="526.498342091682" y2="474.3841925722273" style="stroke:rgb(0,0,255);stroke-width:1"/>
<line x1="526.498342091682" y1="474.3841925722273" x2="565.3276098946474" y2="515.0816814942641" style="stroke:rgb(0,0,255);stroke-width:1"/>
<line x1="565.3276098946474" y1="515.0816814942641" x2="568.5592707148965" y2="514.4994716235334" style="stroke:rgb(0,0,255);stroke-width:1"/>
<line x1="568.5592707148965" y1="514.4994716235334" x2="565.3276098946474" y2="515.0816814942641" style="stroke:rgb(0,0,255);stroke-width:1"/>
<line x1="565.3276098946474" y1="515.0816814942641" x2="536.2610643723798" y2="489.81500513227206" style="stroke:rgb(0,0,255);stroke-width:1"/>
<line x1="536.2610643723798" y1="489.81500513227206" x2="565.3276098946474" y2="515.0816814942641" style="stroke:rgb(0,0,255);stroke-width:1"/>
<line x1="565.3276098946474" y1="515.0816814942641" x2="531.3470876824354" y2="524.1766897180552" style="stroke:rgb(0,0,255);stroke-width:1"/>
<line x1="531.3470876824354" y1="524.1766897180552" x2="565.3276098946474" y2="515.0816814942641" style="stroke:rgb(0,0,255);stroke-width:1"/>
<line x1="565.3276098946474" y1="515.0816814942641" x2="535.1853575158361" y2="507.1465880032682" style="stroke:rgb(0,0,255);stroke-width:1"/>
<line x1="535.1853575158361" y1="507.1465880032682" x2="565.3276098946474" y2="515.0816814942641" style="stroke:rgb(0,0,255);stroke-width:1"/>
<line x1="565.3276098946474" y1="515.0816814942641" x2="577.9739540098194" y2="487.7519305559707" style="stroke:rgb(0,0,255);stroke-width:1"/>
<line x1="577.9739540098194" y1="487.7519305559707" x2="565.3276098946474" y2="515.0816814942641" style="stroke:rgb(0,0,255);stroke-width:1"/>
<line x1="565.3276098946474" y1="515.0816814942641" x2="522.0556175240298" y2="480.6369845820538" style="stroke:rgb(0,0,255);stroke-width:1"/>
<line x1="522.0556175240298" y1="480.6369845820538" x2="565.3276098946474" y2="515.0816814942641" style="stroke:rgb(0,0,255);stroke-width:1"/>
<line x1="565.3276098946474" y1="515.0816814942641" x2="532.6323540269731" y2="516.2003691498" style="stroke:rgb(0,0,255);stroke-width:1"/>
<line x1="532.6323540269731" y1="516.2003691498" x2="565.3276098946474" y2="515.0816814942641" style="stroke:rgb(0,0,255);stroke-width:1"/>
<line x1="526.498342091682" y1="474.3841925722273" x2="568.5592707148965" y2="514.4994716235334" style="stroke:rgb(0,0,255);stroke-width:1"/>
<line x1="568.5592707148965" y1="514.4994716235334" x2="526.498342091682" y2="474.3841925722273" style="stroke:rgb(0,0,255);stroke-width:1"/>
<line x1="526.498342091682" y1="474.3841925722273" x2="547.7846816196735" y2="488.9882668500301" style="stroke:rgb(0,0,255);stroke-width:1"/>
<line x1="547.7846816196735" y1="488.9882668500301" x2="526.498342091682" y2="474.3841925722273" style="stroke:rgb(0,0,255);stroke-width:1"/>
<line x1="526.498342091682" y1="474.3841925722273" x2="535.1853575158361" y2="507.1465880032682" style="stroke:rgb(0,0,255);stroke-width:1"/>
<line x1="535.1853575158361" y1="507.1465880032682" x2="526.498342091682" y2="474.3841925722273" style="stroke:rgb(0,0,255);stroke-width:1"/>
<line x1="531.7678050125213" y1="488.05377285998316" x2="575.6075314960591" y2="516.7946053195822" style="stroke:rgb(0,0,255);stroke-width:1"/>
<line x1="575.6075314960591" y1="516.7946053195822" x2="531.7678050125213" y2="488.05377285998316" style="stroke:rgb(0,0,255);stroke-width:1"/>
<line x1="531.7678050125213" y1="488.05377285998316" x2="556.1224081751858" y2="520.9009272359843" style="stroke:rgb(0,0,255);stroke-width:1"/>
<line x1="556.1224081751858" y1="520.9009272359843" x2="531.7678050125213" y2="488.05377285998316" style="stroke:rgb(0,0,255);stroke-width:1"/>
<line x1="575.4415060568251" y1="496.557809257512" x2="575.6075314960591" y2="516.7946053195822" style="stroke:rgb(0,0,255);stroke-width:1"/>
<line x1="575.6075314960591" y1="516.7946053195822" x2="575.4415060568251" y2="496.557809257512" style="stroke:rgb(0,0,255);stroke-width:1"/>
<line x1="575.4415060568251" y1="496.557809257512" x2="556.1224081751858" y2="520.9009272359843" style="stroke:rgb(0,0,255);stroke-width:1"/>
<line x1="556.1224081751858" y1="520.9009272359843" x2="575.4415060568251" y2="496.557809257512" style="stroke:rgb(0,0,255);stroke-width:1"/>
<line x1="575.4415060568251" y1="496.557809257512" x2="522.4151376165399" y2="489.81431016988745" style="stroke:rgb(0,0,255);stroke-width:1"/>
<line x1="522.4151376165399" y1="489.81431016988745" x2="575.4415060568251" y2="496.557809257512" style="stroke:rgb(0,0,255);stroke-width:1"/>
<line x1="575.6075314960591" y1="516.7946053195822" x2="522.4151376165399" y2="489.81431016988745" style="stroke:rgb(0,0,255);stroke-width:1"/>
<line x1="522.4151376165399" y1="489.81431016988745" x2="575.6075314960591" y2="516.7946053195822" style="stroke:rgb(0,0,255);stroke-width:1"/>
<line x1="536.2610643723798" y1="489.81500513227206" x2="528.2311859086346" y2="518.0637926159114" style="stroke:rgb(0,0,255);stroke-width:1"/>
<line x1="528.2311859086346" y1="518.0637926159114" x2="536.2610643723798" y2="489.81500513227206" style="stroke:rgb(0,0,255);stroke-width:1"/>
<line x1="536.2610643723798" y1="489.81500513227206" x2="532.6323540269731" y2="516.2003691498" style="stroke:rgb(0,0,255);stroke-width:1"/>
<line x1="532.6323540269731" y1="516.2003691498" x2="536.2610643723798" y2="489.81500513227206" style="stroke:rgb(0,0,255);stroke-width:1"/>
<line x1="536.2610643723798" y1="489.81500513227206" x2="543.5601113408818" y2="481.6882873754782" style="stroke:rgb(0,0,255);stroke-width:1"/>
<line x1="543.5601113408818" y1="481.6882873754782" x2="536.2610643723798" y2="489.81500513227206" style="stroke:rgb(0,0,255);stroke-width:1"/>
<line x1="531.3470876824354" y1="524.1766897180552" x2="543.5601113408818" y2="481.6882873754782" style="stroke:rgb(0,0,255);stroke-width:1"/>
<line x1="543.5601113408818" y1="481.6882873754782" x2="531.3470876824354" y2="524.1766897180552" style="stroke:rgb(0,0,255);stroke-width:1"/>
<line x1="535.1853575158361" y1="507.1465880032682" x2="543.5601113408818" y2="481.6882873754782" style="stroke:rgb(0,0,255);stroke-width:1"/>
<line x1="543.5601113408818" y1="481.6882873754782" x2="535.1853575158361" y2="507.1465880032682" style="stroke:rgb(0,0,255);stroke-width:1"/>
<line x1="564.2991336888128" y1="486.88718040694005" x2="532.6323540269731" y2="516.2003691498" style="stroke:rgb(0,0,255);stroke-width:1"/>
<line x1="532.6323540269731" y1="516.2003691498" x2="564.2991336888128" y2="486.88718040694005" style="stroke:rgb(0,0,255);stroke-width:1"/>
<line x1="564.2991336888128" y1="486.88718040694005" x2="543.5601113408818" y2="481.6882873754782" style="stroke:rgb(0,0,255);stroke-width:1"/>
<line x1="543.5601113408818" y1="481.6882873754782" x2="564.2991336888128" y2="486.88718040694005" style="stroke:rgb(0,0,255);stroke-width:1"/>
<line x1="552.2882135950681" y1="514.2594958470584" x2="532.6323540269731" y2="516.2003691498" style="stroke:rgb(0,0,255);stroke-width:1"/>
<line x1="532.6323540269731" y1="516.2003691498" x2="552.2882135950681" y2="514.2594958470584" style="stroke:rgb(0,0,255);stroke-width:1"/>
<line x1="552.2882135950681" y1="514.2594958470584" x2="543.5601113408818" y2="481.6882873754782" style="stroke:rgb(0,0,255);stroke-width:1"/>
<line x1="543.5601113408818" y1="481.6882873754782" x2="552.2882135950681" y2="514.2594958470584" style="stroke:rgb(0,0,255);stroke-width:1"/>
<line x1="531.060442559758" y1="504.6218975976823" x2="532.6323540269731" y2="516.2003691498" style="stroke:rgb(0,0,255);stroke-width:1"/>
<line x1="532.6323540269731" y1="516.2003691498" x2="531.060442559758" y2="504.6218975976823" style="stroke:rgb(0,0,255);stroke-width:1"/>
<line x1="531.060442559758" y1="504.6218975976823" x2="543.5601113408818" y2="481.6882873754782" style="stroke:rgb(0,0,255);stroke-width:1"/>
<line x1="543.5601113408818" y1="481.6882873754782" x2="531.060442559758" y2="504.6218975976823" style="stroke:rgb(0,0,255);stroke-width:1"/>
<line x1="533.3290784891233" y1="521.3770381933297" x2="543.5601113408818" y2="481.6882873754782" style="stroke:rgb(0,0,255);stroke-width:1"/>
<line x1="543.5601113408818" y1="481.6882873754782" x2="533.3290784891233" y2="521.3770381933297" style="stroke:rgb(0,0,255);stroke-width:1"/>
<line x1="564.2902830150754" y1="475.93510642627416" x2="532.6323540269731" y2="516.2003691498" style="stroke:rgb(0,0,255);stroke-width:1"/>
<line x1="532.6323540269731" y1="516.2003691498" x2="564.2902830150754" y2="475.93510642627416" style="stroke:rgb(0,0,255);stroke-width:1"/>
<line x1="564.2902830150754" y1="475.93510642627416" x2="543.5601113408818" y2="481.6882873754782" style="stroke:rgb(0,0,255);stroke-width:1"/>
<line x1="543.5601113408818" y1="481.6882873754782" x2="564.2902830150754" y2="475.93510642627416" style="stroke:rgb(0,0,255);stroke-width:1"/>
<line x1="567.7932293324005" y1="519.0271669321962" x2="532.6323540269731" y2="516.2003691498" style="stroke:rgb(0,0,255);stroke-width:1"/>
<line x1="532.6323540269731" y1="516.2003691498" x2="567.7932293324005" y2="519.0271669321962" style="stroke:rgb(0,0,255);stroke-width:1"/>
<line x1="567.7932293324005" y1="519.0271669321962" x2="543.5601113408818" y2="481.6882873754782" style="stroke:rgb(0,0,255);stroke-width:1"/>
<line x1="543.5601113408818" y1="481.6882873754782" x2="567.7932293324005" y2="519.0271669321962" style="stroke:rgb(0,0,255);stroke-width:1"/>
<line x1="576.0256312032412" y1="477.9622489574382" x2="572.6652435500985" y2="503.33052233455095" style="stroke:rgb(0,0,255);stroke-width:1"/>
<line x1="572.6652435500985" y1="503.33052233455095" x2="576.0256312032412" y2="477.9622489574382" style="stroke:rgb(0,0,255);stroke-width:1"/>
<line x1="576.0256312032412" y1="477.9622489574382" x2="577.9739540098194" y2="487.7519305559707" style="stroke:rgb(0,0,255);stroke-width:1"/>
<line x1="577.9739540098194" y1="487.7519305559707" x2="576.0256312032412" y2="477.9622489574382" style="stroke:rgb(0,0,255);stroke-width:1"/>
<line x1="576.0256312032412" y1="477.9622489574382" x2="539.6206025902821" y2="524.0863871502237" style="stroke:rgb(0,0,255);stroke-width:1"/>
<line x1="539.6206025902821" y1="524.0863871502237" x2="576.0256312032412" y2="477.9622489574382" style="stroke:rgb(0,0,255);stroke-width:1"/>
<line x1="576.0256312032412" y1="477.9622489574382" x2="532.6323540269731" y2="516.2003691498" style="stroke:rgb(0,0,255);stroke-width:1"/>
<line x1="532.6323540269731" y1="516.2003691498" x2="576.0256312032412" y2="477.9622489574382" style="stroke:rgb(0,0,255);stroke-width:1"/>
<line x1="576.0256312032412" y1="477.9622489574382" x2="543.5601113408818" y2="481.6882873754782" style="stroke:rgb(0,0,255);stroke-width:1"/>
<line x1="543.5601113408818" y1="481.6882873754782" x2="576.0256312032412" y2="477.9622489574382" style="stroke:rgb(0,0,255);stroke-width:1"/>
<line x1="561.1380016825848" y1="524.2524044635747" x2="572.6652435500985" y2="503.33052233455095" style="stroke:rgb(0,0,255);stroke-width:1"/>
<line x1="572.6652435500985" y1="503.33052233455095" x2="561.1380016825848" y2="524.2524044635747" style="stroke:rgb(0,0,255);stroke-width:1"/>
<line x1="561.1380016825848" y1="524.2524044635747" x2="577.9739540098194" y2="487.7519305559707" style="stroke:rgb(0,0,255);stroke-width:1"/>
<line x1="577.9739540098194" y1="487.7519305559707" x2="561.1380016825848" y2="524.2524044635747" style="stroke:rgb(0,0,255);stroke-width:1"/>
<line x1="561.1380016825848" y1="524.2524044635747" x2="562.4876719957638" y2="487.6981365850369" style="stroke:rgb(0,0,255);stroke-width:1"/>
<line x1="562.4876719957638" y1="487.6981365850369" x2="561.1380016825848" y2="524.2524044635747" style="stroke:rgb(0,0,255);stroke-width:1"/>
<line x1="572.6652435500985" y1="503.33052233455095" x2="562.4876719957638" y2="487.6981365850369" style="stroke:rgb(0,0,255);stroke-width:1"/>
<line x1="562.4876719957638" y1="487.6981365850369" x2="572.6652435500985" y2="503.33052233455095" style="stroke:rgb(0,0,255);stroke-width:1"/>
<line x1="558.7753546270661" y1="489.6238439330059" x2="539.6206025902821" y2="524.0863871502237" style="stroke:rgb(0,0,255);stroke-width:1"/>
<line x1="539.6206025902821" y1="524.0863871502237" x2="558.7753546270661" y2="489.6238439330059" style="stroke:rgb(0,0,255);stroke-width:1"/>
<line x1="558.7753546270661" y1="489.6238439330059" x2="543.5601113408818" y2="481.6882873754782" style="stroke:rgb(0,0,255);stroke-width:1"/>
<line x1="543.5601113408818" y1="481.6882873754782" x2="558.7753546270661" y2="489.6238439330059" style="stroke:rgb(0,0,255);stroke-width:1"/>
<line x1="577.9739540098194" y1="487.7519305559707" x2="543.5601113408818" y2="481.6882873754782" style="stroke:rgb(0,0,255);stroke-width:1"/>
<line x1="543.5601113408818" y1="481.6882873754782" x2="577.9739540098194" y2="487.7519305559707" style="stroke:rgb(0,0,255);stroke-width:1"/>
<line x1="522.0556175240298" y1="480.6369845820538" x2="562.4876719957638" y2="487.6981365850369" style="stroke:rgb(0,0,255);stroke-width:1"/>
<line x1="562.4876719957638" y1="487.6981365850369" x2="522.0556175240298" y2="480.6369845820538" style="stroke:rgb(0,0,255);stroke-width:1"/>
<line x1="522.0556175240298" y1="480.6369845820538" x2="543.5601113408818" y2="481.6882873754782" style="stroke:rgb(0,0,255);stroke-width:1"/>
<line x1="543.5601113408818" y1="481.6882873754782" x2="522.0556175240298" y2="480.6369845820538" style="stroke:rgb(0,0,255);stroke-width:1"/>
<line x1="539.6206025902821" y1="524.0863871502237" x2="532.6323540269731" y2="516.2003691498" style="stroke:rgb(0,0,255);stroke-width:1"/>
<line x1="532.6323540269731" y1="516.2003691498" x2="539.6206025902821" y2="524.0863871502237" style="stroke:rgb(0,0,255);stroke-width:1"/>
<line x1="539.6206025902821" y1="524.0863871502237" x2="543.5601113408818" y2="481.6882873754782" style="stroke:rgb(0,0,255);stroke-width:1"/>
<line x1="543.5601113408818" y1="481.6882873754782" x2="539.6206025902821" y2="524.0863871502237" style="stroke:rgb(0,0,255);stroke-width:1"/>
<line x1="528.2311859086346" y1="518.0637926159114" x2="532.6323540269731" y2="516.2003691498" style="stroke:rgb(0,0,255);stroke-width:1"/>
<line x1="532.6323540269731" y1="516.2003691498" x2="528.2311859086346" y2="518.0637926159114" style="stroke:rgb(0,0,255);stroke-width:1"/>
<line x1="528.2311859086346" y1="518.0637926159114" x2="543.5601113408818" y2="481.6882873754782" style="stroke:rgb(0,0,255);stroke-width:1"/>
<line x1="543.5601113408818" y1="481.6882873754782" x2="528.2311859086346" y2="518.0637926159114" style="stroke:rgb(0,0,255);stroke-width:1"/>
<line x1="562.4876719957638" y1="487.6981365850369" x2="532.6323540269731" y2="516.2003691498" style="stroke:rgb(0,0,255);stroke-width:1"/>
<line x1="532.6323540269731" y1="516.2003691498" x2="562.4876719957638" y2="487.6981365850369" style="stroke:rgb(0,0,255);stroke-width:1"/>
<line x1="562.4876719957638" y1="487.6981365850369" x2="543.5601113408818" y2="481.6882873754782" style="stroke:rgb(0,0,255);stroke-width:1"/>
<line x1="543.5601113408818" y1="481.6882873754782" x2="562.4876719957638" y2="487.6981365850369" style="stroke:rgb(0,0,255);stroke-width:1"/>
<line x1="532.6323540269731" y1="516.2003691498" x2="543.5601113408818" y2="481.6882873754782" style="stroke:rgb(0,0,255);stroke-width:1"/>
<line x1="543.5601113408818" y1="481.6882873754782" x2="532.6323540269731" y2="516.2003691498" style="stroke:rgb(0,0,255);stroke-width:1"/>
</svg>
