<svg xmlns="http://www.w3.org/2000/svg" version="1.1" xmlns:xllink="http://www.w3.org/1999/xlink" width="1000" height="1000">
<ellipse cx="633.0223031544592" cy="568.7444507645704" rx="5.60" ry="5.60" style="fill:rgb(255,255,0);stroke:rgb(0,0,0);stroke-width:0.50;"/>
<ellipse cx="473.00418058240996" cy="493.53268308142395" rx="5.60" ry="5.60" style="fill:rgb(255,255,0);stroke:rgb(0,0,0);stroke-width:0.50;"/>
<ellipse cx="593.3276098946474" cy="560.0816814942641" rx="5.60" ry="5.60" style="fill:rgb(255,255,0);stroke:rgb(0,0,0);stroke-width:0.50;"/>
<ellipse cx="466.49834209168205" cy="429.3841925722273" rx="5.60" ry="5.60" style="fill:rgb(255,255,0);stroke:rgb(0,0,0);stroke-width:0.50;"/>
<ellipse cx="471.7678050125213" cy="455.05377285998316" rx="5.60" ry="5.60" style="fill:rgb(255,255,0);stroke:rgb(0,0,0);stroke-width:0.50;"/>
<ellipse cx="635.4415060568251" cy="481.557809257512" rx="5.60" ry="5.60" style="fill:rgb(255,255,0);stroke:rgb(0,0,0);stroke-width:0.50;"/>
<ellipse cx="635.6075314960591" cy="549.7946053195822" rx="5.60" ry="5.60" style="fill:rgb(255,255,0);stroke:rgb(0,0,0);stroke-width:0.50;"/>
<ellipse cx="628.5592707148965" cy="529.4994716235334" rx="5.60" ry="5.60" style="fill:rgb(255,255,0);stroke:rgb(0,0,0);stroke-width:0.50;"/>
<ellipse cx="500.2610643723798" cy="444.81500513227206" rx="5.60" ry="5.60" style="fill:rgb(255,255,0);stroke:rgb(0,0,0);stroke-width:0.50;"/>
<ellipse cx="576.1224081751858" cy="565.9009272359843" rx="5.60" ry="5.60" style="fill:rgb(255,255,0);stroke:rgb(0,0,0);stroke-width:0.50;"/>
<ellipse cx="589.9570749376263" cy="432.1030596967298" rx="5.60" ry="5.60" style="fill:rgb(255,255,0);stroke:rgb(0,0,0);stroke-width:0.50;"/>
<ellipse cx="543.7846816196735" cy="443.9882668500301" rx="5.60" ry="5.60" style="fill:rgb(255,255,0);stroke:rgb(0,0,0);stroke-width:0.50;"/>
<ellipse cx="475.18535751583613" cy="534.1465880032682" rx="5.60" ry="5.60" style="fill:rgb(255,255,0);stroke:rgb(0,0,0);stroke-width:0.50;"/>
<ellipse cx="474.9698398085101" cy="436.3523701167976" rx="5.60" ry="5.60" style="fill:rgb(255,255,0);stroke:rgb(0,0,0);stroke-width:0.50;"/>
<ellipse cx="513.3290784891233" cy="566.3770381933297" rx="5.60" ry="5.60" style="fill:rgb(255,255,0);stroke:rgb(0,0,0);stroke-width:0.50;"/>
<ellipse cx="465.3558700891101" cy="548.9963041961464" rx="5.60" ry="5.60" style="fill:rgb(255,255,0);stroke:rgb(0,0,0);stroke-width:0.50;"/>
<ellipse cx="606.4876719957638" cy="442.6981365850369" rx="5.60" ry="5.60" style="fill:rgb(255,255,0);stroke:rgb(0,0,0);stroke-width:0.50;"/>
<ellipse cx="468.23118590863464" cy="563.0637926159114" rx="5.60" ry="5.60" style="fill:rgb(255,255,0);stroke:rgb(0,0,0);stroke-width:0.50;"/>
<ellipse cx="471.34708768243536" cy="569.1766897180552" rx="5.60" ry="5.60" style="fill:rgb(255,255,0);stroke:rgb(0,0,0);stroke-width:0.50;"/>
<ellipse cx="637.9739540098194" cy="448.7519305559707" rx="5.60" ry="5.60" style="fill:rgb(255,255,0);stroke:rgb(0,0,0);stroke-width:0.50;"/>
<ellipse cx="462.0556175240298" cy="435.6369845820538" rx="5.60" ry="5.60" style="fill:rgb(255,255,0);stroke:rgb(0,0,0);stroke-width:0.50;"/>
<ellipse cx="496.6323540269731" cy="561.2003691498" rx="5.60" ry="5.60" style="fill:rgb(255,255,0);stroke:rgb(0,0,0);stroke-width:0.50;"/>
<ellipse cx="462.41513761653994" cy="474.81431016988745" rx="5.60" ry="5.60" style="fill:rgb(255,255,0);stroke:rgb(0,0,0);stroke-width:0.50;"/>
<ellipse cx="523.5601113408818" cy="436.6882873754782" rx="5.60" ry="5.60" style="fill:rgb(255,255,0);stroke:rgb(0,0,0);stroke-width:0.50;"/>
<ellipse cx="624.2991336888128" cy="441.88718040694005" rx="5.60" ry="5.60" style="fill:rgb(255,255,0);stroke:rgb(0,0,0);stroke-width:0.50;"/>
<ellipse cx="548.2882135950681" cy="559.2594958470584" rx="5.60" ry="5.60" style="fill:rgb(255,255,0);stroke:rgb(0,0,0);stroke-width:0.50;"/>
<ellipse cx="471.06044255975803" cy="513.6218975976823" rx="5.60" ry="5.60" style="fill:rgb(255,255,0);stroke:rgb(0,0,0);stroke-width:0.50;"/>
<ellipse cx="624.2902830150754" cy="430.93510642627416" rx="5.60" ry="5.60" style="fill:rgb(255,255,0);stroke:rgb(0,0,0);stroke-width:0.50;"/>
<ellipse cx="627.7932293324005" cy="564.0271669321962" rx="5.60" ry="5.60" style="fill:rgb(255,255,0);stroke:rgb(0,0,0);stroke-width:0.50;"/>
<ellipse cx="636.0256312032412" cy="432.9622489574382" rx="5.60" ry="5.60" style="fill:rgb(255,255,0);stroke:rgb(0,0,0);stroke-width:0.50;"/>
<ellipse cx="632.6652435500985" cy="506.33052233455095" rx="5.60" ry="5.60" style="fill:rgb(255,255,0);stroke:rgb(0,0,0);stroke-width:0.50;"/>
<ellipse cx="535.6206025902821" cy="569.0863871502237" rx="5.60" ry="5.60" style="fill:rgb(255,255,0);stroke:rgb(0,0,0);stroke-width:0.50;"/>
<ellipse cx="613.1380016825848" cy="569.2524044635747" rx="5.60" ry="5.60" style="fill:rgb(255,255,0);stroke:rgb(0,0,0);stroke-width:0.50;"/>
<ellipse cx="562.7753546270661" cy="444.6238439330059" rx="5.60" ry="5.60" style="fill:rgb(255,255,0);stroke:rgb(0,0,0);stroke-width:0.50;"/>
<line x1="633.0223031544592" y1="568.7444507645704" x2="473.00418058240996" y2="493.53268308142395" style="stroke:rgb(0,0,255);stroke-width:1"/>
<line x1="473.00418058240996" y1="493.53268308142395" x2="633.0223031544592" y2="568.7444507645704" style="stroke:rgb(0,0,255);stroke-width:1"/>
<line x1="633.0223031544592" y1="568.7444507645704" x2="593.3276098946474" y2="560.0816814942641" style="stroke:rgb(0,0,255);stroke-width:1"/>
<line x1="593.3276098946474" y1="560.0816814942641" x2="633.0223031544592" y2="568.7444507645704" style="stroke:rgb(0,0,255);stroke-width:1"/>
<line x1="633.0223031544592" y1="568.7444507645704" x2="466.49834209168205" y2="429.3841925722273" style="stroke:rgb(0,0,255);stroke-width:1"/>
<line x1="466.49834209168205" y1="429.3841925722273" x2="633.0223031544592" y2="568.7444507645704" style="stroke:rgb(0,0,255);stroke-width:1"/>
<line x1="633.0223031544592" y1="568.7444507645704" x2="471.7678050125213" y2="455.05377285998316" style="stroke:rgb(0,0,255);stroke-width:1"/>
<line x1="471.7678050125213" y1="455.05377285998316" x2="633.0223031544592" y2="568.7444507645704" style="stroke:rgb(0,0,255);stroke-width:1"/>
<line x1="633.0223031544592" y1="568.7444507645704" x2="635.4415060568251" y2="481.557809257512" style="stroke:rgb(0,0,255);stroke-width:1"/>
<line x1="635.4415060568251" y1="481.557809257512" x2="633.0223031544592" y2="568.7444507645704" style="stroke:rgb(0,0,255);stroke-width:1"/>
<line x1="633.0223031544592" y1="568.7444507645704" x2="635.6075314960591" y2="549.7946053195822" style="stroke:rgb(0,0,255);stroke-width:1"/>
<line x1="635.6075314960591" y1="549.7946053195822" x2="633.0223031544592" y2="568.7444507645704" style="stroke:rgb(0,0,255);stroke-width:1"/>
<line x1="633.0223031544592" y1="568.7444507645704" x2="628.5592707148965" y2="529.4994716235334" style="stroke:rgb(0,0,255);stroke-width:1"/>
<line x1="628.5592707148965" y1="529.4994716235334" x2="633.0223031544592" y2="568.7444507645704" style="stroke:rgb(0,0,255);stroke-width:1"/>
<line x1="633.0223031544592" y1="568.7444507645704" x2="500.2610643723798" y2="444.81500513227206" style="stroke:rgb(0,0,255);stroke-width:1"/>
<line x1="500.2610643723798" y1="444.81500513227206" x2="633.0223031544592" y2="568.7444507645704" style="stroke:rgb(0,0,255);stroke-width:1"/>
<line x1="633.0223031544592" y1="568.7444507645704" x2="576.1224081751858" y2="565.9009272359843" style="stroke:rgb(0,0,255);stroke-width:1"/>
<line x1="576.1224081751858" y1="565.9009272359843" x2="633.0223031544592" y2="568.7444507645704" style="stroke:rgb(0,0,255);stroke-width:1"/>
<line x1="633.0223031544592" y1="568.7444507645704" x2="589.9570749376263" y2="432.1030596967298" style="stroke:rgb(0,0,255);stroke-width:1"/>
<line x1="589.9570749376263" y1="432.1030596967298" x2="633.0223031544592" y2="568.7444507645704" style="stroke:rgb(0,0,255);stroke-width:1"/>
<line x1="633.0223031544592" y1="568.7444507645704" x2="543.7846816196735" y2="443.9882668500301" style="stroke:rgb(0,0,255);stroke-width:1"/>
<line x1="543.7846816196735" y1="443.9882668500301" x2="633.0223031544592" y2="568.7444507645704" style="stroke:rgb(0,0,255);stroke-width:1"/>
<line x1="633.0223031544592" y1="568.7444507645704" x2="475.18535751583613" y2="534.1465880032682" style="stroke:rgb(0,0,255);stroke-width:1"/>
<line x1="475.18535751583613" y1="534.1465880032682" x2="633.0223031544592" y2="568.7444507645704" style="stroke:rgb(0,0,255);stroke-width:1"/>
<line x1="633.0223031544592" y1="568.7444507645704" x2="474.9698398085101" y2="436.3523701167976" style="stroke:rgb(0,0,255);stroke-width:1"/>
<line x1="474.9698398085101" y1="436.3523701167976" x2="633.0223031544592" y2="568.7444507645704" style="stroke:rgb(0,0,255);stroke-width:1"/>
<line x1="633.0223031544592" y1="568.7444507645704" x2="513.3290784891233" y2="566.3770381933297" style="stroke:rgb(0,0,255);stroke-width:1"/>
<line x1="513.3290784891233" y1="566.3770381933297" x2="633.0223031544592" y2="568.7444507645704" style="stroke:rgb(0,0,255);stroke-width:1"/>
<line x1="633.0223031544592" y1="568.7444507645704" x2="465.3558700891101" y2="548.9963041961464" style="stroke:rgb(0,0,255);stroke-width:1"/>
<line x1="465.3558700891101" y1="548.9963041961464" x2="633.0223031544592" y2="568.7444507645704" style="stroke:rgb(0,0,255);stroke-width:1"/>
<line x1="633.0223031544592" y1="568.7444507645704" x2="606.4876719957638" y2="442.6981365850369" style="stroke:rgb(0,0,255);stroke-width:1"/>
<line x1="606.4876719957638" y1="442.6981365850369" x2="633.0223031544592" y2="568.7444507645704" style="stroke:rgb(0,0,255);stroke-width:1"/>
<line x1="473.00418058240996" y1="493.53268308142395" x2="593.3276098946474" y2="560.0816814942641" style="stroke:rgb(0,0,255);stroke-width:1"/>
<line x1="593.3276098946474" y1="560.0816814942641" x2="473.00418058240996" y2="493.53268308142395" style="stroke:rgb(0,0,255);stroke-width:1"/>
<line x1="473.00418058240996" y1="493.53268308142395" x2="466.49834209168205" y2="429.3841925722273" style="stroke:rgb(0,0,255);stroke-width:1"/>
<line x1="466.49834209168205" y1="429.3841925722273" x2="473.00418058240996" y2="493.53268308142395" style="stroke:rgb(0,0,255);stroke-width:1"/>
<line x1="473.00418058240996" y1="493.53268308142395" x2="628.5592707148965" y2="529.4994716235334" style="stroke:rgb(0,0,255);stroke-width:1"/>
<line x1="628.5592707148965" y1="529.4994716235334" x2="473.00418058240996" y2="493.53268308142395" style="stroke:rgb(0,0,255);stroke-width:1"/>
<line x1="473.00418058240996" y1="493.53268308142395" x2="475.18535751583613" y2="534.1465880032682" style="stroke:rgb(0,0,255);stroke-width:1"/>
<line x1="475.18535751583613" y1="534.1465880032682" x2="473.00418058240996" y2="493.53268308142395" style="stroke:rgb(0,0,255);stroke-width:1"/>
<line x1="473.00418058240996" y1="493.53268308142395" x2="474.9698398085101" y2="436.3523701167976" style="stroke:rgb(0,0,255);stroke-width:1"/>
<line x1="474.9698398085101" y1="436.3523701167976" x2="473.00418058240996" y2="493.53268308142395" style="stroke:rgb(0,0,255);stroke-width:1"/>
<line x1="473.00418058240996" y1="493.53268308142395" x2="513.3290784891233" y2="566.3770381933297" style="stroke:rgb(0,0,255);stroke-width:1"/>
<line x1="513.3290784891233" y1="566.3770381933297" x2="473.00418058240996" y2="493.53268308142395" style="stroke:rgb(0,0,255);stroke-width:1"/>
<line x1="473.00418058240996" y1="493.53268308142395" x2="465.3558700891101" y2="548.9963041961464" style="stroke:rgb(0,0,255);stroke-width:1"/>
<line x1="465.3558700891101" y1="548.9963041961464" x2="473.00418058240996" y2="493.53268308142395" style="stroke:rgb(0,0,255);stroke-width:1"/>
<line x1="473.00418058240996" y1="493.53268308142395" x2="468.23118590863464" y2="563.0637926159114" style="stroke:rgb(0,0,255);stroke-width:1"/>
<line x1="468.23118590863464" y1="563.0637926159114" x2="473.00418058240996" y2="493.53268308142395" style="stroke:rgb(0,0,255);stroke-width:1"/>
<line x1="593.3276098946474" y1="560.0816814942641" x2="466.49834209168205" y2="429.3841925722273" style="stroke:rgb(0,0,255);stroke-width:1"/>
<line x1="466.49834209168205" y1="429.3841925722273" x2="593.3276098946474" y2="560.0816814942641" style="stroke:rgb(0,0,255);stroke-width:1"/>
<line x1="593.3276098946474" y1="560.0816814942641" x2="628.5592707148965" y2="529.4994716235334" style="stroke:rgb(0,0,255);stroke-width:1"/>
<line x1="628.5592707148965" y1="529.4994716235334" x2="593.3276098946474" y2="560.0816814942641" style="stroke:rgb(0,0,255);stroke-width:1"/>
<line x1="593.3276098946474" y1="560.0816814942641" x2="500.2610643723798" y2="444.81500513227206" style="stroke:rgb(0,0,255);stroke-width:1"/>
<line x1="500.2610643723798" y1="444.81500513227206" x2="593.3276098946474" y2="560.0816814942641" style="stroke:rgb(0,0,255);stroke-width:1"/>
<line x1="593.3276098946474" y1="560.0816814942641" x2="471.34708768243536" y2="569.1766897180552" style="stroke:rgb(0,0,255);stroke-width:1"/>
<line x1="471.34708768243536" y1="569.1766897180552" x2="593.3276098946474" y2="560.0816814942641" style="stroke:rgb(0,0,255);stroke-width:1"/>
<line x1="593.3276098946474" y1="560.0816814942641" x2="475.18535751583613" y2="534.1465880032682" style="stroke:rgb(0,0,255);stroke-width:1"/>
<line x1="475.18535751583613" y1="534.1465880032682" x2="593.3276098946474" y2="560.0816814942641" style="stroke:rgb(0,0,255);stroke-width:1"/>
<line x1="593.3276098946474" y1="560.0816814942641" x2="637.9739540098194" y2="448.7519305559707" style="stroke:rgb(0,0,255);stroke-width:1"/>
<line x1="637.9739540098194" y1="448.7519305559707" x2="593.3276098946474" y2="560.0816814942641" style="stroke:rgb(0,0,255);stroke-width:1"/>
<line x1="593.3276098946474" y1="560.0816814942641" x2="462.0556175240298" y2="435.6369845820538" style="stroke:rgb(0,0,255);stroke-width:1"/>
<line x1="462.0556175240298" y1="435.6369845820538" x2="593.3276098946474" y2="560.0816814942641" style="stroke:rgb(0,0,255);stroke-width:1"/>
<line x1="593.3276098946474" y1="560.0816814942641" x2="496.6323540269731" y2="561.2003691498" style="stroke:rgb(0,0,255);stroke-width:1"/>
<line x1="496.6323540269731" y1="561.2003691498" x2="593.3276098946474" y2="560.0816814942641" style="stroke:rgb(0,0,255);stroke-width:1"/>
<line x1="466.49834209168205" y1="429.3841925722273" x2="628.5592707148965" y2="529.4994716235334" style="stroke:rgb(0,0,255);stroke-width:1"/>
<line x1="628.5592707148965" y1="529.4994716235334" x2="466.49834209168205" y2="429.3841925722273" style="stroke:rgb(0,0,255);stroke-width:1"/>
<line x1="466.49834209168205" y1="429.3841925722273" x2="543.7846816196735" y2="443.9882668500301" style="stroke:rgb(0,0,255);stroke-width:1"/>
<line x1="543.7846816196735" y1="443.9882668500301" x2="466.49834209168205" y2="429.3841925722273" style="stroke:rgb(0,0,255);stroke-width:1"/>
<line x1="466.49834209168205" y1="429.3841925722273" x2="475.18535751583613" y2="534.1465880032682" style="stroke:rgb(0,0,255);stroke-width:1"/>
<line x1="475.18535751583613" y1="534.1465880032682" x2="466.49834209168205" y2="429.3841925722273" style="stroke:rgb(0,0,255);stroke-width:1"/>
<line x1="471.7678050125213" y1="455.05377285998316" x2="635.6075314960591" y2="549.7946053195822" style="stroke:rgb(0,0,255);stroke-width:1"/>
<line x1="635.6075314960591" y1="549.7946053195822" x2="471.7678050125213" y2="455.05377285998316" style="stroke:rgb(0,0,255);stroke-width:1"/>
<line x1="471.7678050125213" y1="455.05377285998316" x2="576.1224081751858" y2="565.9009272359843" style="stroke:rgb(0,0,255);stroke-width:1"/>
<line x1="576.1224081751858" y1="565.9009272359843" x2="471.7678050125213" y2="455.05377285998316" style="stroke:rgb(0,0,255);stroke-width:1"/>
<line x1="635.4415060568251" y1="481.557809257512" x2="635.6075314960591" y2="549.7946053195822" style="stroke:rgb(0,0,255);stroke-width:1"/>
<line x1="635.6075314960591" y1="549.7946053195822" x2="635.4415060568251" y2="481.557809257512" style="stroke:rgb(0,0,255);stroke-width:1"/>
<line x1="635.4415060568251" y1="481.557809257512" x2="576.1224081751858" y2="565.9009272359843" style="stroke:rgb(0,0,255);stroke-width:1"/>
<line x1="576.1224081751858" y1="565.9009272359843" x2="635.4415060568251" y2="481.557809257512" style="stroke:rgb(0,0,255);stroke-width:1"/>
<line x1="635.4415060568251" y1="481.557809257512" x2="462.41513761653994" y2="474.81431016988745" style="stroke:rgb(0,0,255);stroke-width:1"/>
<line x1="462.41513761653994" y1="474.81431016988745" x2="635.4415060568251" y2="481.557809257512" style="stroke:rgb(0,0,255);stroke-width:1"/>
<line x1="635.6075314960591" y1="549.7946053195822" x2="462.41513761653994" y2="474.81431016988745" style="stroke:rgb(0,0,255);stroke-width:1"/>
<line x1="462.41513761653994" y1="474.81431016988745" x2="635.6075314960591" y2="549.7946053195822" style="stroke:rgb(0,0,255);stroke-width:1"/>
<line x1="500.2610643723798" y1="444.81500513227206" x2="468.23118590863464" y2="563.0637926159114" style="stroke:rgb(0,0,255);stroke-width:1"/>
<line x1="468.23118590863464" y1="563.0637926159114" x2="500.2610643723798" y2="444.81500513227206" style="stroke:rgb(0,0,255);stroke-width:1"/>
<line x1="500.2610643723798" y1="444.81500513227206" x2="496.6323540269731" y2="561.2003691498" style="stroke:rgb(0,0,255);stroke-width:1"/>
<line x1="496.6323540269731" y1="561.2003691498" x2="500.2610643723798" y2="444.81500513227206" style="stroke:rgb(0,0,255);stroke-width:1"/>
<line x1="500.2610643723798" y1="444.81500513227206" x2="523.5601113408818" y2="436.6882873754782" style="stroke:rgb(0,0,255);stroke-width:1"/>
<line x1="523.5601113408818" y1="436.6882873754782" x2="500.2610643723798" y2="444.81500513227206" style="stroke:rgb(0,0,255);stroke-width:1"/>
<line x1="471.34708768243536" y1="569.1766897180552" x2="523.5601113408818" y2="436.6882873754782" style="stroke:rgb(0,0,255);stroke-width:1"/>
<line x1="523.5601113408818" y1="436.6882873754782" x2="471.34708768243536" y2="569.1766897180552" style="stroke:rgb(0,0,255);stroke-width:1"/>
<line x1="475.18535751583613" y1="534.1465880032682" x2="523.5601113408818" y2="436.6882873754782" style="stroke:rgb(0,0,255);stroke-width:1"/>
<line x1="523.5601113408818" y1="436.6882873754782" x2="475.18535751583613" y2="534.1465880032682" style="stroke:rgb(0,0,255);stroke-width:1"/>
<line x1="624.2991336888128" y1="441.88718040694005" x2="496.6323540269731" y2="561.2003691498" style="stroke:rgb(0,0,255);stroke-width:1"/>
<line x1="496.6323540269731" y1="561.2003691498" x2="624.2991336888128" y2="441.88718040694005" style="stroke:rgb(0,0,255);stroke-width:1"/>
<line x1="624.2991336888128" y1="441.88718040694005" x2="523.5601113408818" y2="436.6882873754782" style="stroke:rgb(0,0,255);stroke-width:1"/>
<line x1="523.5601113408818" y1="436.6882873754782" x2="624.2991336888128" y2="441.88718040694005" style="stroke:rgb(0,0,255);stroke-width:1"/>
<line x1="548.2882135950681" y1="559.2594958470584" x2="496.6323540269731" y2="561.2003691498" style="stroke:rgb(0,0,255);stroke-width:1"/>
<line x1="496.6323540269731" y1="561.2003691498" x2="548.2882135950681" y2="559.2594958470584" style="stroke:rgb(0,0,255);stroke-width:1"/>
<line x1="548.2882135950681" y1="559.2594958470584" x2="523.5601113408818" y2="436.6882873754782" style="stroke:rgb(0,0,255);stroke-width:1"/>
<line x1="523.5601113408818" y1="436.6882873754782" x2="548.2882135950681" y2="559.2594958470584" style="stroke:rgb(0,0,255);stroke-width:1"/>
<line x1="471.06044255975803" y1="513.6218975976823" x2="496.6323540269731" y2="561.2003691498" style="stroke:rgb(0,0,255);stroke-width:1"/>
<line x1="496.6323540269731" y1="561.2003691498" x2="471.06044255975803" y2="513.6218975976823" style="stroke:rgb(0,0,255);stroke-width:1"/>
<line x1="471.06044255975803" y1="513.6218975976823" x2="523.5601113408818" y2="436.6882873754782" style="stroke:rgb(0,0,255);stroke-width:1"/>
<line x1="523.5601113408818" y1="436.6882873754782" x2="471.06044255975803" y2="513.6218975976823" style="stroke:rgb(0,0,255);stroke-width:1"/>
<line x1="513.3290784891233" y1="566.3770381933297" x2="523.5601113408818" y2="436.6882873754782" style="stroke:rgb(0,0,255);stroke-width:1"/>
<line x1="523.5601113408818" y1="436.6882873754782" x2="513.3290784891233" y2="566.3770381933297" style="stroke:rgb(0,0,255);stroke-width:1"/>
<line x1="624.2902830150754" y1="430.93510642627416" x2="496.6323540269731" y2="561.2003691498" style="stroke:rgb(0,0,255);stroke-width:1"/>
<line x1="496.6323540269731" y1="561.2003691498" x2="624.2902830150754" y2="430.93510642627416" style="stroke:rgb(0,0,255);stroke-width:1"/>
<line x1="624.2902830150754" y1="430.93510642627416" x2="523.5601113408818" y2="436.6882873754782" style="stroke:rgb(0,0,255);stroke-width:1"/>
<line x1="523.5601113408818" y1="436.6882873754782" x2="624.2902830150754" y2="430.93510642627416" style="stroke:rgb(0,0,255);stroke-width:1"/>
<line x1="627.7932293324005" y1="564.0271669321962" x2="496.6323540269731" y2="561.2003691498" style="stroke:rgb(0,0,255);stroke-width:1"/>
<line x1="496.6323540269731" y1="561.2003691498" x2="627.7932293324005" y2="564.0271669321962" style="stroke:rgb(0,0,255);stroke-width:1"/>
<line x1="627.7932293324005" y1="564.0271669321962" x2="523.5601113408818" y2="436.6882873754782" style="stroke:rgb(0,0,255);stroke-width:1"/>
<line x1="523.5601113408818" y1="436.6882873754782" x2="627.7932293324005" y2="564.0271669321962" style="stroke:rgb(0,0,255);stroke-width:1"/>
<line x1="636.0256312032412" y1="432.9622489574382" x2="632.6652435500985" y2="506.33052233455095" style="stroke:rgb(0,0,255);stroke-width:1"/>
<line x1="632.6652435500985" y1="506.33052233455095" x2="636.0256312032412" y2="432.9622489574382" style="stroke:rgb(0,0,255);stroke-width:1"/>
<line x1="636.0256312032412" y1="432.9622489574382" x2="637.9739540098194" y2="448.7519305559707" style="stroke:rgb(0,0,255);stroke-width:1"/>
<line x1="637.9739540098194" y1="448.7519305559707" x2="636.0256312032412" y2="432.9622489574382" style="stroke:rgb(0,0,255);stroke-width:1"/>
<line x1="636.0256312032412" y1="432.9622489574382" x2="535.6206025902821" y2="569.0863871502237" style="stroke:rgb(0,0,255);stroke-width:1"/>
<line x1="535.6206025902821" y1="569.0863871502237" x2="636.0256312032412" y2="432.9622489574382" style="stroke:rgb(0,0,255);stroke-width:1"/>
<line x1="636.0256312032412" y1="432.9622489574382" x2="496.6323540269731" y2="561.2003691498" style="stroke:rgb(0,0,255);stroke-width:1"/>
<line x1="496.6323540269731" y1="561.2003691498" x2="636.0256312032412" y2="432.9622489574382" style="stroke:rgb(0,0,255);stroke-width:1"/>
<line x1="636.0256312032412" y1="432.9622489574382" x2="523.5601113408818" y2="436.6882873754782" style="stroke:rgb(0,0,255);stroke-width:1"/>
<line x1="523.5601113408818" y1="436.6882873754782" x2="636.0256312032412" y2="432.9622489574382" style="stroke:rgb(0,0,255);stroke-width:1"/>
<line x1="613.1380016825848" y1="569.2524044635747" x2="632.6652435500985" y2="506.33052233455095" style="stroke:rgb(0,0,255);stroke-width:1"/>
<line x1="632.6652435500985" y1="506.33052233455095" x2="613.1380016825848" y2="569.2524044635747" style="stroke:rgb(0,0,255);stroke-width:1"/>
<line x1="613.1380016825848" y1="569.2524044635747" x2="637.9739540098194" y2="448.7519305559707" style="stroke:rgb(0,0,255);stroke-width:1"/>
<line x1="637.9739540098194" y1="448.7519305559707" x2="613.1380016825848" y2="569.2524044635747" style="stroke:rgb(0,0,255);stroke-width:1"/>
<line x1="613.1380016825848" y1="569.2524044635747" x2="606.4876719957638" y2="442.6981365850369" style="stroke:rgb(0,0,255);stroke-width:1"/>
<line x1="606.4876719957638" y1="442.6981365850369" x2="613.1380016825848" y2="569.2524044635747" style="stroke:rgb(0,0,255);stroke-width:1"/>
<line x1="632.6652435500985" y1="506.33052233455095" x2="606.4876719957638" y2="442.6981365850369" style="stroke:rgb(0,0,255);stroke-width:1"/>
<line x1="606.4876719957638" y1="442.6981365850369" x2="632.6652435500985" y2="506.33052233455095" style="stroke:rgb(0,0,255);stroke-width:1"/>
<line x1="562.7753546270661" y1="444.6238439330059" x2="535.6206025902821" y2="569.0863871502237" style="stroke:rgb(0,0,255);stroke-width:1"/>
<line x1="535.6206025902821" y1="569.0863871502237" x2="562.7753546270661" y2="444.6238439330059" style="stroke:rgb(0,0,255);stroke-width:1"/>
<line x1="562.7753546270661" y1="444.6238439330059" x2="523.5601113408818" y2="436.6882873754782" style="stroke:rgb(0,0,255);stroke-width:1"/>
<line x1="523.5601113408818" y1="436.6882873754782" x2="562.7753546270661" y2="444.6238439330059" style="stroke:rgb(0,0,255);stroke-width:1"/>
<line x1="637.9739540098194" y1="448.7519305559707" x2="523.5601113408818" y2="436.6882873754782" style="stroke:rgb(0,0,255);stroke-width:1"/>
<line x1="523.5601113408818" y1="436.6882873754782" x2="637.9739540098194" y2="448.7519305559707" style="stroke:rgb(0,0,255);stroke-width:1"/>
<line x1="462.0556175240298" y1="435.6369845820538" x2="606.4876719957638" y2="442.6981365850369" style="stroke:rgb(0,0,255);stroke-width:1"/>
<line x1="606.4876719957638" y1="442.6981365850369" x2="462.0556175240298" y2="435.6369845820538" style="stroke:rgb(0,0,255);stroke-width:1"/>
<line x1="462.0556175240298" y1="435.6369845820538" x2="523.5601113408818" y2="436.6882873754782" style="stroke:rgb(0,0,255);stroke-width:1"/>
<line x1="523.5601113408818" y1="436.6882873754782" x2="462.0556175240298" y2="435.6369845820538" style="stroke:rgb(0,0,255);stroke-width:1"/>
<line x1="535.6206025902821" y1="569.0863871502237" x2="496.6323540269731" y2="561.2003691498" style="stroke:rgb(0,0,255);stroke-width:1"/>
<line x1="496.6323540269731" y1="561.2003691498" x2="535.6206025902821" y2="569.0863871502237" style="stroke:rgb(0,0,255);stroke-width:1"/>
<line x1="535.6206025902821" y1="569.0863871502237" x2="523.5601113408818" y2="436.6882873754782" style="stroke:rgb(0,0,255);stroke-width:1"/>
<line x1="523.5601113408818" y1="436.6882873754782" x2="535.6206025902821" y2="569.0863871502237" style="stroke:rgb(0,0,255);stroke-width:1"/>
<line x1="468.23118590863464" y1="563.0637926159114" x2="496.6323540269731" y2="561.2003691498" style="stroke:rgb(0,0,255);stroke-width:1"/>
<line x1="496.6323540269731" y1="561.2003691498" x2="468.23118590863464" y2="563.0637926159114" style="stroke:rgb(0,0,255);stroke-width:1"/>
<line x1="468.23118590863464" y1="563.0637926159114" x2="523.5601113408818" y2="436.6882873754782" style="stroke:rgb(0,0,255);stroke-width:1"/>
<line x1="523.5601113408818" y1="436.6882873754782" x2="468.23118590863464" y2="563.0637926159114" style="stroke:rgb(0,0,255);stroke-width:1"/>
<line x1="606.4876719957638" y1="442.6981365850369" x2="496.6323540269731" y2="561.2003691498" style="stroke:rgb(0,0,255);stroke-width:1"/>
<line x1="496.6323540269731" y1="561.2003691498" x2="606.4876719957638" y2="442.6981365850369" style="stroke:rgb(0,0,255);stroke-width:1"/>
<line x1="606.4876719957638" y1="442.6981365850369" x2="523.5601113408818" y2="436.6882873754782" style="stroke:rgb(0,0,255);stroke-width:1"/>
<line x1="523.5601113408818" y1="436.6882873754782" x2="606.4876719957638" y2="442.6981365850369" style="stroke:rgb(0,0,255);stroke-width:1"/>
<line x1="496.6323540269731" y1="561.2003691498" x2="523.5601113408818" y2="436.6882873754782" style="stroke:rgb(0,0,255);stroke-width:1"/>
<line x1="523.5601113408818" y1="436.6882873754782" x2="496.6323540269731" y2="561.2003691498" style="stroke:rgb(0,0,255);stroke-width:1"/>
</svg>
