<svg xmlns="http://www.w3.org/2000/svg" version="1.1" xmlns:xllink="http://www.w3.org/1999/xlink" width="1000" height="1000">
<ellipse cx="669.0223031544592" cy="595.7444507645704" rx="5.60" ry="5.60" style="fill:rgb(255,255,0);stroke:rgb(0,0,0);stroke-width:0.50;"/>
<ellipse cx="437.00418058240996" cy="496.53268308142395" rx="5.60" ry="5.60" style="fill:rgb(255,255,0);stroke:rgb(0,0,0);stroke-width:0.50;"/>
<ellipse cx="605.3276098946474" cy="587.0816814942641" rx="5.60" ry="5.60" style="fill:rgb(255,255,0);stroke:rgb(0,0,0);stroke-width:0.50;"/>
<ellipse cx="430.49834209168205" cy="402.3841925722273" rx="5.60" ry="5.60" style="fill:rgb(255,255,0);stroke:rgb(0,0,0);stroke-width:0.50;"/>
<ellipse cx="435.7678050125213" cy="440.05377285998316" rx="5.60" ry="5.60" style="fill:rgb(255,255,0);stroke:rgb(0,0,0);stroke-width:0.50;"/>
<ellipse cx="671.4415060568251" cy="478.557809257512" rx="5.60" ry="5.60" style="fill:rgb(255,255,0);stroke:rgb(0,0,0);stroke-width:0.50;"/>
<ellipse cx="671.6075314960591" cy="564.7946053195822" rx="5.60" ry="5.60" style="fill:rgb(255,255,0);stroke:rgb(0,0,0);stroke-width:0.50;"/>
<ellipse cx="664.5592707148965" cy="538.4994716235334" rx="5.60" ry="5.60" style="fill:rgb(255,255,0);stroke:rgb(0,0,0);stroke-width:0.50;"/>
<ellipse cx="488.2610643723798" cy="417.81500513227206" rx="5.60" ry="5.60" style="fill:rgb(255,255,0);stroke:rgb(0,0,0);stroke-width:0.50;"/>
<ellipse cx="580.1224081751858" cy="592.9009272359843" rx="5.60" ry="5.60" style="fill:rgb(255,255,0);stroke:rgb(0,0,0);stroke-width:0.50;"/>
<ellipse cx="601.9570749376263" cy="405.1030596967298" rx="5.60" ry="5.60" style="fill:rgb(255,255,0);stroke:rgb(0,0,0);stroke-width:0.50;"/>
<ellipse cx="539.7846816196735" cy="416.9882668500301" rx="5.60" ry="5.60" style="fill:rgb(255,255,0);stroke:rgb(0,0,0);stroke-width:0.50;"/>
<ellipse cx="439.18535751583613" cy="549.1465880032682" rx="5.60" ry="5.60" style="fill:rgb(255,255,0);stroke:rgb(0,0,0);stroke-width:0.50;"/>
<ellipse cx="454.9698398085101" cy="409.3523701167976" rx="5.60" ry="5.60" style="fill:rgb(255,255,0);stroke:rgb(0,0,0);stroke-width:0.50;"/>
<ellipse cx="501.3290784891233" cy="593.3770381933297" rx="5.60" ry="5.60" style="fill:rgb(255,255,0);stroke:rgb(0,0,0);stroke-width:0.50;"/>
<ellipse cx="429.3558700891101" cy="575.9963041961464" rx="5.60" ry="5.60" style="fill:rgb(255,255,0);stroke:rgb(0,0,0);stroke-width:0.50;"/>
<ellipse cx="626.4876719957638" cy="415.6981365850369" rx="5.60" ry="5.60" style="fill:rgb(255,255,0);stroke:rgb(0,0,0);stroke-width:0.50;"/>
<ellipse cx="432.23118590863464" cy="590.0637926159114" rx="5.60" ry="5.60" style="fill:rgb(255,255,0);stroke:rgb(0,0,0);stroke-width:0.50;"/>
<ellipse cx="435.34708768243536" cy="596.1766897180552" rx="5.60" ry="5.60" style="fill:rgb(255,255,0);stroke:rgb(0,0,0);stroke-width:0.50;"/>
<ellipse cx="673.9739540098194" cy="445.7519305559707" rx="5.60" ry="5.60" style="fill:rgb(255,255,0);stroke:rgb(0,0,0);stroke-width:0.50;"/>
<ellipse cx="426.0556175240298" cy="408.6369845820538" rx="5.60" ry="5.60" style="fill:rgb(255,255,0);stroke:rgb(0,0,0);stroke-width:0.50;"/>
<ellipse cx="484.6323540269731" cy="588.2003691498" rx="5.60" ry="5.60" style="fill:rgb(255,255,0);stroke:rgb(0,0,0);stroke-width:0.50;"/>
<ellipse cx="426.41513761653994" cy="465.81431016988745" rx="5.60" ry="5.60" style="fill:rgb(255,255,0);stroke:rgb(0,0,0);stroke-width:0.50;"/>
<ellipse cx="519.5601113408818" cy="409.6882873754782" rx="5.60" ry="5.60" style="fill:rgb(255,255,0);stroke:rgb(0,0,0);stroke-width:0.50;"/>
<ellipse cx="660.2991336888128" cy="420.88718040694005" rx="5.60" ry="5.60" style="fill:rgb(255,255,0);stroke:rgb(0,0,0);stroke-width:0.50;"/>
<ellipse cx="552.2882135950681" cy="586.2594958470584" rx="5.60" ry="5.60" style="fill:rgb(255,255,0);stroke:rgb(0,0,0);stroke-width:0.50;"/>
<ellipse cx="435.06044255975803" cy="522.6218975976823" rx="5.60" ry="5.60" style="fill:rgb(255,255,0);stroke:rgb(0,0,0);stroke-width:0.50;"/>
<ellipse cx="660.2902830150754" cy="403.93510642627416" rx="5.60" ry="5.60" style="fill:rgb(255,255,0);stroke:rgb(0,0,0);stroke-width:0.50;"/>
<ellipse cx="663.7932293324005" cy="591.0271669321962" rx="5.60" ry="5.60" style="fill:rgb(255,255,0);stroke:rgb(0,0,0);stroke-width:0.50;"/>
<ellipse cx="672.0256312032412" cy="405.9622489574382" rx="5.60" ry="5.60" style="fill:rgb(255,255,0);stroke:rgb(0,0,0);stroke-width:0.50;"/>
<ellipse cx="668.6652435500985" cy="503.33052233455095" rx="5.60" ry="5.60" style="fill:rgb(255,255,0);stroke:rgb(0,0,0);stroke-width:0.50;"/>
<ellipse cx="531.6206025902821" cy="596.0863871502237" rx="5.60" ry="5.60" style="fill:rgb(255,255,0);stroke:rgb(0,0,0);stroke-width:0.50;"/>
<ellipse cx="641.1380016825848" cy="596.2524044635747" rx="5.60" ry="5.60" style="fill:rgb(255,255,0);stroke:rgb(0,0,0);stroke-width:0.50;"/>
<ellipse cx="574.7753546270661" cy="417.6238439330059" rx="5.60" ry="5.60" style="fill:rgb(255,255,0);stroke:rgb(0,0,0);stroke-width:0.50;"/>
<line x1="669.0223031544592" y1="595.7444507645704" x2="437.00418058240996" y2="496.53268308142395" style="stroke:rgb(0,0,255);stroke-width:1"/>
<line x1="437.00418058240996" y1="496.53268308142395" x2="669.0223031544592" y2="595.7444507645704" style="stroke:rgb(0,0,255);stroke-width:1"/>
<line x1="669.0223031544592" y1="595.7444507645704" x2="605.3276098946474" y2="587.0816814942641" style="stroke:rgb(0,0,255);stroke-width:1"/>
<line x1="605.3276098946474" y1="587.0816814942641" x2="669.0223031544592" y2="595.7444507645704" style="stroke:rgb(0,0,255);stroke-width:1"/>
<line x1="669.0223031544592" y1="595.7444507645704" x2="430.49834209168205" y2="402.3841925722273" style="stroke:rgb(0,0,255);stroke-width:1"/>
<line x1="430.49834209168205" y1="402.3841925722273" x2="669.0223031544592" y2="595.7444507645704" style="stroke:rgb(0,0,255);stroke-width:1"/>
<line x1="669.0223031544592" y1="595.7444507645704" x2="435.7678050125213" y2="440.05377285998316" style="stroke:rgb(0,0,255);stroke-width:1"/>
<line x1="435.7678050125213" y1="440.05377285998316" x2="669.0223031544592" y2="595.7444507645704" style="stroke:rgb(0,0,255);stroke-width:1"/>
<line x1="669.0223031544592" y1="595.7444507645704" x2="671.4415060568251" y2="478.557809257512" style="stroke:rgb(0,0,255);stroke-width:1"/>
<line x1="671.4415060568251" y1="478.557809257512" x2="669.0223031544592" y2="595.7444507645704" style="stroke:rgb(0,0,255);stroke-width:1"/>
<line x1="669.0223031544592" y1="595.7444507645704" x2="671.6075314960591" y2="564.7946053195822" style="stroke:rgb(0,0,255);stroke-width:1"/>
<line x1="671.6075314960591" y1="564.7946053195822" x2="669.0223031544592" y2="595.7444507645704" style="stroke:rgb(0,0,255);stroke-width:1"/>
<line x1="669.0223031544592" y1="595.7444507645704" x2="664.5592707148965" y2="538.4994716235334" style="stroke:rgb(0,0,255);stroke-width:1"/>
<line x1="664.5592707148965" y1="538.4994716235334" x2="669.0223031544592" y2="595.7444507645704" style="stroke:rgb(0,0,255);stroke-width:1"/>
<line x1="669.0223031544592" y1="595.7444507645704" x2="488.2610643723798" y2="417.81500513227206" style="stroke:rgb(0,0,255);stroke-width:1"/>
<line x1="488.2610643723798" y1="417.81500513227206" x2="669.0223031544592" y2="595.7444507645704" style="stroke:rgb(0,0,255);stroke-width:1"/>
<line x1="669.0223031544592" y1="595.7444507645704" x2="580.1224081751858" y2="592.9009272359843" style="stroke:rgb(0,0,255);stroke-width:1"/>
<line x1="580.1224081751858" y1="592.9009272359843" x2="669.0223031544592" y2="595.7444507645704" style="stroke:rgb(0,0,255);stroke-width:1"/>
<line x1="669.0223031544592" y1="595.7444507645704" x2="601.9570749376263" y2="405.1030596967298" style="stroke:rgb(0,0,255);stroke-width:1"/>
<line x1="601.9570749376263" y1="405.1030596967298" x2="669.0223031544592" y2="595.7444507645704" style="stroke:rgb(0,0,255);stroke-width:1"/>
<line x1="669.0223031544592" y1="595.7444507645704" x2="539.7846816196735" y2="416.9882668500301" style="stroke:rgb(0,0,255);stroke-width:1"/>
<line x1="539.7846816196735" y1="416.9882668500301" x2="669.0223031544592" y2="595.7444507645704" style="stroke:rgb(0,0,255);stroke-width:1"/>
<line x1="669.0223031544592" y1="595.7444507645704" x2="439.18535751583613" y2="549.1465880032682" style="stroke:rgb(0,0,255);stroke-width:1"/>
<line x1="439.18535751583613" y1="549.1465880032682" x2="669.0223031544592" y2="595.7444507645704" style="stroke:rgb(0,0,255);stroke-width:1"/>
<line x1="669.0223031544592" y1="595.7444507645704" x2="454.9698398085101" y2="409.3523701167976" style="stroke:rgb(0,0,255);stroke-width:1"/>
<line x1="454.9698398085101" y1="409.3523701167976" x2="669.0223031544592" y2="595.7444507645704" style="stroke:rgb(0,0,255);stroke-width:1"/>
<line x1="669.0223031544592" y1="595.7444507645704" x2="501.3290784891233" y2="593.3770381933297" style="stroke:rgb(0,0,255);stroke-width:1"/>
<line x1="501.3290784891233" y1="593.3770381933297" x2="669.0223031544592" y2="595.7444507645704" style="stroke:rgb(0,0,255);stroke-width:1"/>
<line x1="669.0223031544592" y1="595.7444507645704" x2="429.3558700891101" y2="575.9963041961464" style="stroke:rgb(0,0,255);stroke-width:1"/>
<line x1="429.3558700891101" y1="575.9963041961464" x2="669.0223031544592" y2="595.7444507645704" style="stroke:rgb(0,0,255);stroke-width:1"/>
<line x1="669.0223031544592" y1="595.7444507645704" x2="626.4876719957638" y2="415.6981365850369" style="stroke:rgb(0,0,255);stroke-width:1"/>
<line x1="626.4876719957638" y1="415.6981365850369" x2="669.0223031544592" y2="595.7444507645704" style="stroke:rgb(0,0,255);stroke-width:1"/>
<line x1="437.00418058240996" y1="496.53268308142395" x2="605.3276098946474" y2="587.0816814942641" style="stroke:rgb(0,0,255);stroke-width:1"/>
<line x1="605.3276098946474" y1="587.0816814942641" x2="437.00418058240996" y2="496.53268308142395" style="stroke:rgb(0,0,255);stroke-width:1"/>
<line x1="437.00418058240996" y1="496.53268308142395" x2="430.49834209168205" y2="402.3841925722273" style="stroke:rgb(0,0,255);stroke-width:1"/>
<line x1="430.49834209168205" y1="402.3841925722273" x2="437.00418058240996" y2="496.53268308142395" style="stroke:rgb(0,0,255);stroke-width:1"/>
<line x1="437.00418058240996" y1="496.53268308142395" x2="664.5592707148965" y2="538.4994716235334" style="stroke:rgb(0,0,255);stroke-width:1"/>
<line x1="664.5592707148965" y1="538.4994716235334" x2="437.00418058240996" y2="496.53268308142395" style="stroke:rgb(0,0,255);stroke-width:1"/>
<line x1="437.00418058240996" y1="496.53268308142395" x2="439.18535751583613" y2="549.1465880032682" style="stroke:rgb(0,0,255);stroke-width:1"/>
<line x1="439.18535751583613" y1="549.1465880032682" x2="437.00418058240996" y2="496.53268308142395" style="stroke:rgb(0,0,255);stroke-width:1"/>
<line x1="437.00418058240996" y1="496.53268308142395" x2="454.9698398085101" y2="409.3523701167976" style="stroke:rgb(0,0,255);stroke-width:1"/>
<line x1="454.9698398085101" y1="409.3523701167976" x2="437.00418058240996" y2="496.53268308142395" style="stroke:rgb(0,0,255);stroke-width:1"/>
<line x1="437.00418058240996" y1="496.53268308142395" x2="501.3290784891233" y2="593.3770381933297" style="stroke:rgb(0,0,255);stroke-width:1"/>
<line x1="501.3290784891233" y1="593.3770381933297" x2="437.00418058240996" y2="496.53268308142395" style="stroke:rgb(0,0,255);stroke-width:1"/>
<line x1="437.00418058240996" y1="496.53268308142395" x2="429.3558700891101" y2="575.9963041961464" style="stroke:rgb(0,0,255);stroke-width:1"/>
<line x1="429.3558700891101" y1="575.9963041961464" x2="437.00418058240996" y2="496.53268308142395" style="stroke:rgb(0,0,255);stroke-width:1"/>
<line x1="437.00418058240996" y1="496.53268308142395" x2="432.23118590863464" y2="590.0637926159114" style="stroke:rgb(0,0,255);stroke-width:1"/>
<line x1="432.23118590863464" y1="590.0637926159114" x2="437.00418058240996" y2="496.53268308142395" style="stroke:rgb(0,0,255);stroke-width:1"/>
<line x1="605.3276098946474" y1="587.0816814942641" x2="430.49834209168205" y2="402.3841925722273" style="stroke:rgb(0,0,255);stroke-width:1"/>
<line x1="430.49834209168205" y1="402.3841925722273" x2="605.3276098946474" y2="587.0816814942641" style="stroke:rgb(0,0,255);stroke-width:1"/>
<line x1="605.3276098946474" y1="587.0816814942641" x2="664.5592707148965" y2="538.4994716235334" style="stroke:rgb(0,0,255);stroke-width:1"/>
<line x1="664.5592707148965" y1="538.4994716235334" x2="605.3276098946474" y2="587.0816814942641" style="stroke:rgb(0,0,255);stroke-width:1"/>
<line x1="605.3276098946474" y1="587.0816814942641" x2="488.2610643723798" y2="417.81500513227206" style="stroke:rgb(0,0,255);stroke-width:1"/>
<line x1="488.2610643723798" y1="417.81500513227206" x2="605.3276098946474" y2="587.0816814942641" style="stroke:rgb(0,0,255);stroke-width:1"/>
<line x1="605.3276098946474" y1="587.0816814942641" x2="435.34708768243536" y2="596.1766897180552" style="stroke:rgb(0,0,255);stroke-width:1"/>
<line x1="435.34708768243536" y1="596.1766897180552" x2="605.3276098946474" y2="587.0816814942641" style="stroke:rgb(0,0,255);stroke-width:1"/>
<line x1="605.3276098946474" y1="587.0816814942641" x2="439.18535751583613" y2="549.1465880032682" style="stroke:rgb(0,0,255);stroke-width:1"/>
<line x1="439.18535751583613" y1="549.1465880032682" x2="605.3276098946474" y2="587.0816814942641" style="stroke:rgb(0,0,255);stroke-width:1"/>
<line x1="605.3276098946474" y1="587.0816814942641" x2="673.9739540098194" y2="445.7519305559707" style="stroke:rgb(0,0,255);stroke-width:1"/>
<line x1="673.9739540098194" y1="445.7519305559707" x2="605.3276098946474" y2="587.0816814942641" style="stroke:rgb(0,0,255);stroke-width:1"/>
<line x1="605.3276098946474" y1="587.0816814942641" x2="426.0556175240298" y2="408.6369845820538" style="stroke:rgb(0,0,255);stroke-width:1"/>
<line x1="426.0556175240298" y1="408.6369845820538" x2="605.3276098946474" y2="587.0816814942641" style="stroke:rgb(0,0,255);stroke-width:1"/>
<line x1="605.3276098946474" y1="587.0816814942641" x2="484.6323540269731" y2="588.2003691498" style="stroke:rgb(0,0,255);stroke-width:1"/>
<line x1="484.6323540269731" y1="588.2003691498" x2="605.3276098946474" y2="587.0816814942641" style="stroke:rgb(0,0,255);stroke-width:1"/>
<line x1="430.49834209168205" y1="402.3841925722273" x2="664.5592707148965" y2="538.4994716235334" style="stroke:rgb(0,0,255);stroke-width:1"/>
<line x1="664.5592707148965" y1="538.4994716235334" x2="430.49834209168205" y2="402.3841925722273" style="stroke:rgb(0,0,255);stroke-width:1"/>
<line x1="430.49834209168205" y1="402.3841925722273" x2="539.7846816196735" y2="416.9882668500301" style="stroke:rgb(0,0,255);stroke-width:1"/>
<line x1="539.7846816196735" y1="416.9882668500301" x2="430.49834209168205" y2="402.3841925722273" style="stroke:rgb(0,0,255);stroke-width:1"/>
<line x1="430.49834209168205" y1="402.3841925722273" x2="439.18535751583613" y2="549.1465880032682" style="stroke:rgb(0,0,255);stroke-width:1"/>
<line x1="439.18535751583613" y1="549.1465880032682" x2="430.49834209168205" y2="402.3841925722273" style="stroke:rgb(0,0,255);stroke-width:1"/>
<line x1="435.7678050125213" y1="440.05377285998316" x2="671.6075314960591" y2="564.7946053195822" style="stroke:rgb(0,0,255);stroke-width:1"/>
<line x1="671.6075314960591" y1="564.7946053195822" x2="435.7678050125213" y2="440.05377285998316" style="stroke:rgb(0,0,255);stroke-width:1"/>
<line x1="435.7678050125213" y1="440.05377285998316" x2="580.1224081751858" y2="592.9009272359843" style="stroke:rgb(0,0,255);stroke-width:1"/>
<line x1="580.1224081751858" y1="592.9009272359843" x2="435.7678050125213" y2="440.05377285998316" style="stroke:rgb(0,0,255);stroke-width:1"/>
<line x1="671.4415060568251" y1="478.557809257512" x2="671.6075314960591" y2="564.7946053195822" style="stroke:rgb(0,0,255);stroke-width:1"/>
<line x1="671.6075314960591" y1="564.7946053195822" x2="671.4415060568251" y2="478.557809257512" style="stroke:rgb(0,0,255);stroke-width:1"/>
<line x1="671.4415060568251" y1="478.557809257512" x2="580.1224081751858" y2="592.9009272359843" style="stroke:rgb(0,0,255);stroke-width:1"/>
<line x1="580.1224081751858" y1="592.9009272359843" x2="671.4415060568251" y2="478.557809257512" style="stroke:rgb(0,0,255);stroke-width:1"/>
<line x1="671.4415060568251" y1="478.557809257512" x2="426.41513761653994" y2="465.81431016988745" style="stroke:rgb(0,0,255);stroke-width:1"/>
<line x1="426.41513761653994" y1="465.81431016988745" x2="671.4415060568251" y2="478.557809257512" style="stroke:rgb(0,0,255);stroke-width:1"/>
<line x1="671.6075314960591" y1="564.7946053195822" x2="426.41513761653994" y2="465.81431016988745" style="stroke:rgb(0,0,255);stroke-width:1"/>
<line x1="426.41513761653994" y1="465.81431016988745" x2="671.6075314960591" y2="564.7946053195822" style="stroke:rgb(0,0,255);stroke-width:1"/>
<line x1="488.2610643723798" y1="417.81500513227206" x2="432.23118590863464" y2="590.0637926159114" style="stroke:rgb(0,0,255);stroke-width:1"/>
<line x1="432.23118590863464" y1="590.0637926159114" x2="488.2610643723798" y2="417.81500513227206" style="stroke:rgb(0,0,255);stroke-width:1"/>
<line x1="488.2610643723798" y1="417.81500513227206" x2="484.6323540269731" y2="588.2003691498" style="stroke:rgb(0,0,255);stroke-width:1"/>
<line x1="484.6323540269731" y1="588.2003691498" x2="488.2610643723798" y2="417.81500513227206" style="stroke:rgb(0,0,255);stroke-width:1"/>
<line x1="488.2610643723798" y1="417.81500513227206" x2="519.5601113408818" y2="409.6882873754782" style="stroke:rgb(0,0,255);stroke-width:1"/>
<line x1="519.5601113408818" y1="409.6882873754782" x2="488.2610643723798" y2="417.81500513227206" style="stroke:rgb(0,0,255);stroke-width:1"/>
<line x1="435.34708768243536" y1="596.1766897180552" x2="519.5601113408818" y2="409.6882873754782" style="stroke:rgb(0,0,255);stroke-width:1"/>
<line x1="519.5601113408818" y1="409.6882873754782" x2="435.34708768243536" y2="596.1766897180552" style="stroke:rgb(0,0,255);stroke-width:1"/>
<line x1="439.18535751583613" y1="549.1465880032682" x2="519.5601113408818" y2="409.6882873754782" style="stroke:rgb(0,0,255);stroke-width:1"/>
<line x1="519.5601113408818" y1="409.6882873754782" x2="439.18535751583613" y2="549.1465880032682" style="stroke:rgb(0,0,255);stroke-width:1"/>
<line x1="660.2991336888128" y1="420.88718040694005" x2="484.6323540269731" y2="588.2003691498" style="stroke:rgb(0,0,255);stroke-width:1"/>
<line x1="484.6323540269731" y1="588.2003691498" x2="660.2991336888128" y2="420.88718040694005" style="stroke:rgb(0,0,255);stroke-width:1"/>
<line x1="660.2991336888128" y1="420.88718040694005" x2="519.5601113408818" y2="409.6882873754782" style="stroke:rgb(0,0,255);stroke-width:1"/>
<line x1="519.5601113408818" y1="409.6882873754782" x2="660.2991336888128" y2="420.88718040694005" style="stroke:rgb(0,0,255);stroke-width:1"/>
<line x1="552.2882135950681" y1="586.2594958470584" x2="484.6323540269731" y2="588.2003691498" style="stroke:rgb(0,0,255);stroke-width:1"/>
<line x1="484.6323540269731" y1="588.2003691498" x2="552.2882135950681" y2="586.2594958470584" style="stroke:rgb(0,0,255);stroke-width:1"/>
<line x1="552.2882135950681" y1="586.2594958470584" x2="519.5601113408818" y2="409.6882873754782" style="stroke:rgb(0,0,255);stroke-width:1"/>
<line x1="519.5601113408818" y1="409.6882873754782" x2="552.2882135950681" y2="586.2594958470584" style="stroke:rgb(0,0,255);stroke-width:1"/>
<line x1="435.06044255975803" y1="522.6218975976823" x2="484.6323540269731" y2="588.2003691498" style="stroke:rgb(0,0,255);stroke-width:1"/>
<line x1="484.6323540269731" y1="588.2003691498" x2="435.06044255975803" y2="522.6218975976823" style="stroke:rgb(0,0,255);stroke-width:1"/>
<line x1="435.06044255975803" y1="522.6218975976823" x2="519.5601113408818" y2="409.6882873754782" style="stroke:rgb(0,0,255);stroke-width:1"/>
<line x1="519.5601113408818" y1="409.6882873754782" x2="435.06044255975803" y2="522.6218975976823" style="stroke:rgb(0,0,255);stroke-width:1"/>
<line x1="501.3290784891233" y1="593.3770381933297" x2="519.5601113408818" y2="409.6882873754782" style="stroke:rgb(0,0,255);stroke-width:1"/>
<line x1="519.5601113408818" y1="409.6882873754782" x2="501.3290784891233" y2="593.3770381933297" style="stroke:rgb(0,0,255);stroke-width:1"/>
<line x1="660.2902830150754" y1="403.93510642627416" x2="484.6323540269731" y2="588.2003691498" style="stroke:rgb(0,0,255);stroke-width:1"/>
<line x1="484.6323540269731" y1="588.2003691498" x2="660.2902830150754" y2="403.93510642627416" style="stroke:rgb(0,0,255);stroke-width:1"/>
<line x1="660.2902830150754" y1="403.93510642627416" x2="519.5601113408818" y2="409.6882873754782" style="stroke:rgb(0,0,255);stroke-width:1"/>
<line x1="519.5601113408818" y1="409.6882873754782" x2="660.2902830150754" y2="403.93510642627416" style="stroke:rgb(0,0,255);stroke-width:1"/>
<line x1="663.7932293324005" y1="591.0271669321962" x2="484.6323540269731" y2="588.2003691498" style="stroke:rgb(0,0,255);stroke-width:1"/>
<line x1="484.6323540269731" y1="588.2003691498" x2="663.7932293324005" y2="591.0271669321962" style="stroke:rgb(0,0,255);stroke-width:1"/>
<line x1="663.7932293324005" y1="591.0271669321962" x2="519.5601113408818" y2="409.6882873754782" style="stroke:rgb(0,0,255);stroke-width:1"/>
<line x1="519.5601113408818" y1="409.6882873754782" x2="663.7932293324005" y2="591.0271669321962" style="stroke:rgb(0,0,255);stroke-width:1"/>
<line x1="672.0256312032412" y1="405.9622489574382" x2="668.6652435500985" y2="503.33052233455095" style="stroke:rgb(0,0,255);stroke-width:1"/>
<line x1="668.6652435500985" y1="503.33052233455095" x2="672.0256312032412" y2="405.9622489574382" style="stroke:rgb(0,0,255);stroke-width:1"/>
<line x1="672.0256312032412" y1="405.9622489574382" x2="673.9739540098194" y2="445.7519305559707" style="stroke:rgb(0,0,255);stroke-width:1"/>
<line x1="673.9739540098194" y1="445.7519305559707" x2="672.0256312032412" y2="405.9622489574382" style="stroke:rgb(0,0,255);stroke-width:1"/>
<line x1="672.0256312032412" y1="405.9622489574382" x2="531.6206025902821" y2="596.0863871502237" style="stroke:rgb(0,0,255);stroke-width:1"/>
<line x1="531.6206025902821" y1="596.0863871502237" x2="672.0256312032412" y2="405.9622489574382" style="stroke:rgb(0,0,255);stroke-width:1"/>
<line x1="672.0256312032412" y1="405.9622489574382" x2="484.6323540269731" y2="588.2003691498" style="stroke:rgb(0,0,255);stroke-width:1"/>
<line x1="484.6323540269731" y1="588.2003691498" x2="672.0256312032412" y2="405.9622489574382" style="stroke:rgb(0,0,255);stroke-width:1"/>
<line x1="672.0256312032412" y1="405.9622489574382" x2="519.5601113408818" y2="409.6882873754782" style="stroke:rgb(0,0,255);stroke-width:1"/>
<line x1="519.5601113408818" y1="409.6882873754782" x2="672.0256312032412" y2="405.9622489574382" style="stroke:rgb(0,0,255);stroke-width:1"/>
<line x1="641.1380016825848" y1="596.2524044635747" x2="668.6652435500985" y2="503.33052233455095" style="stroke:rgb(0,0,255);stroke-width:1"/>
<line x1="668.6652435500985" y1="503.33052233455095" x2="641.1380016825848" y2="596.2524044635747" style="stroke:rgb(0,0,255);stroke-width:1"/>
<line x1="641.1380016825848" y1="596.2524044635747" x2="673.9739540098194" y2="445.7519305559707" style="stroke:rgb(0,0,255);stroke-width:1"/>
<line x1="673.9739540098194" y1="445.7519305559707" x2="641.1380016825848" y2="596.2524044635747" style="stroke:rgb(0,0,255);stroke-width:1"/>
<line x1="641.1380016825848" y1="596.2524044635747" x2="626.4876719957638" y2="415.6981365850369" style="stroke:rgb(0,0,255);stroke-width:1"/>
<line x1="626.4876719957638" y1="415.6981365850369" x2="641.1380016825848" y2="596.2524044635747" style="stroke:rgb(0,0,255);stroke-width:1"/>
<line x1="668.6652435500985" y1="503.33052233455095" x2="626.4876719957638" y2="415.6981365850369" style="stroke:rgb(0,0,255);stroke-width:1"/>
<line x1="626.4876719957638" y1="415.6981365850369" x2="668.6652435500985" y2="503.33052233455095" style="stroke:rgb(0,0,255);stroke-width:1"/>
<line x1="574.7753546270661" y1="417.6238439330059" x2="531.6206025902821" y2="596.0863871502237" style="stroke:rgb(0,0,255);stroke-width:1"/>
<line x1="531.6206025902821" y1="596.0863871502237" x2="574.7753546270661" y2="417.6238439330059" style="stroke:rgb(0,0,255);stroke-width:1"/>
<line x1="574.7753546270661" y1="417.6238439330059" x2="519.5601113408818" y2="409.6882873754782" style="stroke:rgb(0,0,255);stroke-width:1"/>
<line x1="519.5601113408818" y1="409.6882873754782" x2="574.7753546270661" y2="417.6238439330059" style="stroke:rgb(0,0,255);stroke-width:1"/>
<line x1="673.9739540098194" y1="445.7519305559707" x2="519.5601113408818" y2="409.6882873754782" style="stroke:rgb(0,0,255);stroke-width:1"/>
<line x1="519.5601113408818" y1="409.6882873754782" x2="673.9739540098194" y2="445.7519305559707" style="stroke:rgb(0,0,255);stroke-width:1"/>
<line x1="426.0556175240298" y1="408.6369845820538" x2="626.4876719957638" y2="415.6981365850369" style="stroke:rgb(0,0,255);stroke-width:1"/>
<line x1="626.4876719957638" y1="415.6981365850369" x2="426.0556175240298" y2="408.6369845820538" style="stroke:rgb(0,0,255);stroke-width:1"/>
<line x1="426.0556175240298" y1="408.6369845820538" x2="519.5601113408818" y2="409.6882873754782" style="stroke:rgb(0,0,255);stroke-width:1"/>
<line x1="519.5601113408818" y1="409.6882873754782" x2="426.0556175240298" y2="408.6369845820538" style="stroke:rgb(0,0,255);stroke-width:1"/>
<line x1="531.6206025902821" y1="596.0863871502237" x2="484.6323540269731" y2="588.2003691498" style="stroke:rgb(0,0,255);stroke-width:1"/>
<line x1="484.6323540269731" y1="588.2003691498" x2="531.6206025902821" y2="596.0863871502237" style="stroke:rgb(0,0,255);stroke-width:1"/>
<line x1="531.6206025902821" y1="596.0863871502237" x2="519.5601113408818" y2="409.6882873754782" style="stroke:rgb(0,0,255);stroke-width:1"/>
<line x1="519.5601113408818" y1="409.6882873754782" x2="531.6206025902821" y2="596.0863871502237" style="stroke:rgb(0,0,255);stroke-width:1"/>
<line x1="432.23118590863464" y1="590.0637926159114" x2="484.6323540269731" y2="588.2003691498" style="stroke:rgb(0,0,255);stroke-width:1"/>
<line x1="484.6323540269731" y1="588.2003691498" x2="432.23118590863464" y2="590.0637926159114" style="stroke:rgb(0,0,255);stroke-width:1"/>
<line x1="432.23118590863464" y1="590.0637926159114" x2="519.5601113408818" y2="409.6882873754782" style="stroke:rgb(0,0,255);stroke-width:1"/>
<line x1="519.5601113408818" y1="409.6882873754782" x2="432.23118590863464" y2="590.0637926159114" style="stroke:rgb(0,0,255);stroke-width:1"/>
<line x1="626.4876719957638" y1="415.6981365850369" x2="484.6323540269731" y2="588.2003691498" style="stroke:rgb(0,0,255);stroke-width:1"/>
<line x1="484.6323540269731" y1="588.2003691498" x2="626.4876719957638" y2="415.6981365850369" style="stroke:rgb(0,0,255);stroke-width:1"/>
<line x1="626.4876719957638" y1="415.6981365850369" x2="519.5601113408818" y2="409.6882873754782" style="stroke:rgb(0,0,255);stroke-width:1"/>
<line x1="519.5601113408818" y1="409.6882873754782" x2="626.4876719957638" y2="415.6981365850369" style="stroke:rgb(0,0,255);stroke-width:1"/>
<line x1="484.6323540269731" y1="588.2003691498" x2="519.5601113408818" y2="409.6882873754782" style="stroke:rgb(0,0,255);stroke-width:1"/>
<line x1="519.5601113408818" y1="409.6882873754782" x2="484.6323540269731" y2="588.2003691498" style="stroke:rgb(0,0,255);stroke-width:1"/>
</svg>
