<svg xmlns="http://www.w3.org/2000/svg" version="1.1" xmlns:xllink="http://www.w3.org/1999/xlink" width="1000" height="1000">
<ellipse cx="357.0223031544592" cy="514.7444507645704" rx="5.60" ry="5.60" style="fill:rgb(255,255,0);stroke:rgb(0,0,0);stroke-width:0.50;"/>
<ellipse cx="268.00418058240996" cy="493.532683081424" rx="5.60" ry="5.60" style="fill:rgb(255,255,0);stroke:rgb(0,0,0);stroke-width:0.50;"/>
<ellipse cx="482.32760989464737" cy="476.0816814942641" rx="5.60" ry="5.60" style="fill:rgb(255,255,0);stroke:rgb(0,0,0);stroke-width:0.50;"/>
<ellipse cx="261.49834209168205" cy="368.3841925722273" rx="5.60" ry="5.60" style="fill:rgb(255,255,0);stroke:rgb(0,0,0);stroke-width:0.50;"/>
<ellipse cx="225.7678050125213" cy="737.0537728599832" rx="5.60" ry="5.60" style="fill:rgb(255,255,0);stroke:rgb(0,0,0);stroke-width:0.50;"/>
<ellipse cx="506.4415060568251" cy="764.557809257512" rx="5.60" ry="5.60" style="fill:rgb(255,255,0);stroke:rgb(0,0,0);stroke-width:0.50;"/>
<ellipse cx="383.6075314960591" cy="717.7946053195822" rx="5.60" ry="5.60" style="fill:rgb(255,255,0);stroke:rgb(0,0,0);stroke-width:0.50;"/>
<ellipse cx="356.55927071489646" cy="320.4994716235334" rx="5.60" ry="5.60" style="fill:rgb(255,255,0);stroke:rgb(0,0,0);stroke-width:0.50;"/>
<ellipse cx="524.2610643723798" cy="396.81500513227206" rx="5.60" ry="5.60" style="fill:rgb(255,255,0);stroke:rgb(0,0,0);stroke-width:0.50;"/>
<ellipse cx="320.1224081751858" cy="819.9009272359843" rx="5.60" ry="5.60" style="fill:rgb(255,255,0);stroke:rgb(0,0,0);stroke-width:0.50;"/>
<ellipse cx="381.9570749376263" cy="192.10305969672982" rx="5.60" ry="5.60" style="fill:rgb(255,255,0);stroke:rgb(0,0,0);stroke-width:0.50;"/>
<ellipse cx="159.7846816196735" cy="303.9882668500301" rx="5.60" ry="5.60" style="fill:rgb(255,255,0);stroke:rgb(0,0,0);stroke-width:0.50;"/>
<ellipse cx="403.18535751583613" cy="408.1465880032682" rx="5.60" ry="5.60" style="fill:rgb(255,255,0);stroke:rgb(0,0,0);stroke-width:0.50;"/>
<ellipse cx="106.96983980851007" cy="490.3523701167976" rx="5.60" ry="5.60" style="fill:rgb(255,255,0);stroke:rgb(0,0,0);stroke-width:0.50;"/>
<ellipse cx="364.3290784891233" cy="596.3770381933297" rx="5.60" ry="5.60" style="fill:rgb(255,255,0);stroke:rgb(0,0,0);stroke-width:0.50;"/>
<ellipse cx="121.35587008911011" cy="601.9963041961464" rx="5.60" ry="5.60" style="fill:rgb(255,255,0);stroke:rgb(0,0,0);stroke-width:0.50;"/>
<ellipse cx="746.4876719957638" cy="483.6981365850369" rx="5.60" ry="5.60" style="fill:rgb(255,255,0);stroke:rgb(0,0,0);stroke-width:0.50;"/>
<ellipse cx="492.23118590863464" cy="553.0637926159114" rx="5.60" ry="5.60" style="fill:rgb(255,255,0);stroke:rgb(0,0,0);stroke-width:0.50;"/>
<ellipse cx="511.34708768243536" cy="691.1766897180552" rx="5.60" ry="5.60" style="fill:rgb(255,255,0);stroke:rgb(0,0,0);stroke-width:0.50;"/>
<ellipse cx="724.9739540098194" cy="625.7519305559707" rx="5.60" ry="5.60" style="fill:rgb(255,255,0);stroke:rgb(0,0,0);stroke-width:0.50;"/>
<ellipse cx="622.0556175240298" cy="339.6369845820538" rx="5.60" ry="5.60" style="fill:rgb(255,255,0);stroke:rgb(0,0,0);stroke-width:0.50;"/>
<ellipse cx="698.6323540269731" cy="495.20036914980005" rx="5.60" ry="5.60" style="fill:rgb(255,255,0);stroke:rgb(0,0,0);stroke-width:0.50;"/>
<ellipse cx="574.4151376165399" cy="588.8143101698874" rx="5.60" ry="5.60" style="fill:rgb(255,255,0);stroke:rgb(0,0,0);stroke-width:0.50;"/>
<ellipse cx="635.5601113408818" cy="484.68828737547824" rx="5.60" ry="5.60" style="fill:rgb(255,255,0);stroke:rgb(0,0,0);stroke-width:0.50;"/>
<ellipse cx="871.2991336888128" cy="321.88718040694005" rx="5.60" ry="5.60" style="fill:rgb(255,255,0);stroke:rgb(0,0,0);stroke-width:0.50;"/>
<ellipse cx="682.2882135950681" cy="739.2594958470584" rx="5.60" ry="5.60" style="fill:rgb(255,255,0);stroke:rgb(0,0,0);stroke-width:0.50;"/>
<ellipse cx="599.060442559758" cy="258.6218975976823" rx="5.60" ry="5.60" style="fill:rgb(255,255,0);stroke:rgb(0,0,0);stroke-width:0.50;"/>
<ellipse cx="760.2902830150754" cy="322.93510642627416" rx="5.60" ry="5.60" style="fill:rgb(255,255,0);stroke:rgb(0,0,0);stroke-width:0.50;"/>
<ellipse cx="779.7932293324005" cy="727.0271669321962" rx="5.60" ry="5.60" style="fill:rgb(255,255,0);stroke:rgb(0,0,0);stroke-width:0.50;"/>
<ellipse cx="851.0256312032412" cy="556.9622489574382" rx="5.60" ry="5.60" style="fill:rgb(255,255,0);stroke:rgb(0,0,0);stroke-width:0.50;"/>
<ellipse cx="992.6652435500985" cy="544.330522334551" rx="5.60" ry="5.60" style="fill:rgb(255,255,0);stroke:rgb(0,0,0);stroke-width:0.50;"/>
<ellipse cx="868.6206025902821" cy="418.0863871502237" rx="5.60" ry="5.60" style="fill:rgb(255,255,0);stroke:rgb(0,0,0);stroke-width:0.50;"/>
<ellipse cx="925.1380016825848" cy="666.2524044635747" rx="5.60" ry="5.60" style="fill:rgb(255,255,0);stroke:rgb(0,0,0);stroke-width:0.50;"/>
<ellipse cx="769.7753546270661" cy="222.6238439330059" rx="5.60" ry="5.60" style="fill:rgb(255,255,0);stroke:rgb(0,0,0);stroke-width:0.50;"/>
<line x1="357.0223031544592" y1="514.7444507645704" x2="268.00418058240996" y2="493.532683081424" style="stroke:rgb(0,0,255);stroke-width:1"/>
<line x1="268.00418058240996" y1="493.532683081424" x2="357.0223031544592" y2="514.7444507645704" style="stroke:rgb(0,0,255);stroke-width:1"/>
<line x1="357.0223031544592" y1="514.7444507645704" x2="482.32760989464737" y2="476.0816814942641" style="stroke:rgb(0,0,255);stroke-width:1"/>
<line x1="482.32760989464737" y1="476.0816814942641" x2="357.0223031544592" y2="514.7444507645704" style="stroke:rgb(0,0,255);stroke-width:1"/>
<line x1="357.0223031544592" y1="514.7444507645704" x2="261.49834209168205" y2="368.3841925722273" style="stroke:rgb(0,0,255);stroke-width:1"/>
<line x1="261.49834209168205" y1="368.3841925722273" x2="357.0223031544592" y2="514.7444507645704" style="stroke:rgb(0,0,255);stroke-width:1"/>
<line x1="357.0223031544592" y1="514.7444507645704" x2="225.7678050125213" y2="737.0537728599832" style="stroke:rgb(0,0,255);stroke-width:1"/>
<line x1="225.7678050125213" y1="737.0537728599832" x2="357.0223031544592" y2="514.7444507645704" style="stroke:rgb(0,0,255);stroke-width:1"/>
<line x1="357.0223031544592" y1="514.7444507645704" x2="506.4415060568251" y2="764.557809257512" style="stroke:rgb(0,0,255);stroke-width:1"/>
<line x1="506.4415060568251" y1="764.557809257512" x2="357.0223031544592" y2="514.7444507645704" style="stroke:rgb(0,0,255);stroke-width:1"/>
<line x1="357.0223031544592" y1="514.7444507645704" x2="383.6075314960591" y2="717.7946053195822" style="stroke:rgb(0,0,255);stroke-width:1"/>
<line x1="383.6075314960591" y1="717.7946053195822" x2="357.0223031544592" y2="514.7444507645704" style="stroke:rgb(0,0,255);stroke-width:1"/>
<line x1="357.0223031544592" y1="514.7444507645704" x2="356.55927071489646" y2="320.4994716235334" style="stroke:rgb(0,0,255);stroke-width:1"/>
<line x1="356.55927071489646" y1="320.4994716235334" x2="357.0223031544592" y2="514.7444507645704" style="stroke:rgb(0,0,255);stroke-width:1"/>
<line x1="357.0223031544592" y1="514.7444507645704" x2="524.2610643723798" y2="396.81500513227206" style="stroke:rgb(0,0,255);stroke-width:1"/>
<line x1="524.2610643723798" y1="396.81500513227206" x2="357.0223031544592" y2="514.7444507645704" style="stroke:rgb(0,0,255);stroke-width:1"/>
<line x1="357.0223031544592" y1="514.7444507645704" x2="320.1224081751858" y2="819.9009272359843" style="stroke:rgb(0,0,255);stroke-width:1"/>
<line x1="320.1224081751858" y1="819.9009272359843" x2="357.0223031544592" y2="514.7444507645704" style="stroke:rgb(0,0,255);stroke-width:1"/>
<line x1="357.0223031544592" y1="514.7444507645704" x2="381.9570749376263" y2="192.10305969672982" style="stroke:rgb(0,0,255);stroke-width:1"/>
<line x1="381.9570749376263" y1="192.10305969672982" x2="357.0223031544592" y2="514.7444507645704" style="stroke:rgb(0,0,255);stroke-width:1"/>
<line x1="357.0223031544592" y1="514.7444507645704" x2="159.7846816196735" y2="303.9882668500301" style="stroke:rgb(0,0,255);stroke-width:1"/>
<line x1="159.7846816196735" y1="303.9882668500301" x2="357.0223031544592" y2="514.7444507645704" style="stroke:rgb(0,0,255);stroke-width:1"/>
<line x1="357.0223031544592" y1="514.7444507645704" x2="403.18535751583613" y2="408.1465880032682" style="stroke:rgb(0,0,255);stroke-width:1"/>
<line x1="403.18535751583613" y1="408.1465880032682" x2="357.0223031544592" y2="514.7444507645704" style="stroke:rgb(0,0,255);stroke-width:1"/>
<line x1="357.0223031544592" y1="514.7444507645704" x2="106.96983980851007" y2="490.3523701167976" style="stroke:rgb(0,0,255);stroke-width:1"/>
<line x1="106.96983980851007" y1="490.3523701167976" x2="357.0223031544592" y2="514.7444507645704" style="stroke:rgb(0,0,255);stroke-width:1"/>
<line x1="357.0223031544592" y1="514.7444507645704" x2="364.3290784891233" y2="596.3770381933297" style="stroke:rgb(0,0,255);stroke-width:1"/>
<line x1="364.3290784891233" y1="596.3770381933297" x2="357.0223031544592" y2="514.7444507645704" style="stroke:rgb(0,0,255);stroke-width:1"/>
<line x1="357.0223031544592" y1="514.7444507645704" x2="121.35587008911011" y2="601.9963041961464" style="stroke:rgb(0,0,255);stroke-width:1"/>
<line x1="121.35587008911011" y1="601.9963041961464" x2="357.0223031544592" y2="514.7444507645704" style="stroke:rgb(0,0,255);stroke-width:1"/>
<line x1="357.0223031544592" y1="514.7444507645704" x2="746.4876719957638" y2="483.6981365850369" style="stroke:rgb(0,0,255);stroke-width:1"/>
<line x1="746.4876719957638" y1="483.6981365850369" x2="357.0223031544592" y2="514.7444507645704" style="stroke:rgb(0,0,255);stroke-width:1"/>
<line x1="268.00418058240996" y1="493.532683081424" x2="482.32760989464737" y2="476.0816814942641" style="stroke:rgb(0,0,255);stroke-width:1"/>
<line x1="482.32760989464737" y1="476.0816814942641" x2="268.00418058240996" y2="493.532683081424" style="stroke:rgb(0,0,255);stroke-width:1"/>
<line x1="268.00418058240996" y1="493.532683081424" x2="261.49834209168205" y2="368.3841925722273" style="stroke:rgb(0,0,255);stroke-width:1"/>
<line x1="261.49834209168205" y1="368.3841925722273" x2="268.00418058240996" y2="493.532683081424" style="stroke:rgb(0,0,255);stroke-width:1"/>
<line x1="268.00418058240996" y1="493.532683081424" x2="356.55927071489646" y2="320.4994716235334" style="stroke:rgb(0,0,255);stroke-width:1"/>
<line x1="356.55927071489646" y1="320.4994716235334" x2="268.00418058240996" y2="493.532683081424" style="stroke:rgb(0,0,255);stroke-width:1"/>
<line x1="268.00418058240996" y1="493.532683081424" x2="403.18535751583613" y2="408.1465880032682" style="stroke:rgb(0,0,255);stroke-width:1"/>
<line x1="403.18535751583613" y1="408.1465880032682" x2="268.00418058240996" y2="493.532683081424" style="stroke:rgb(0,0,255);stroke-width:1"/>
<line x1="268.00418058240996" y1="493.532683081424" x2="106.96983980851007" y2="490.3523701167976" style="stroke:rgb(0,0,255);stroke-width:1"/>
<line x1="106.96983980851007" y1="490.3523701167976" x2="268.00418058240996" y2="493.532683081424" style="stroke:rgb(0,0,255);stroke-width:1"/>
<line x1="268.00418058240996" y1="493.532683081424" x2="364.3290784891233" y2="596.3770381933297" style="stroke:rgb(0,0,255);stroke-width:1"/>
<line x1="364.3290784891233" y1="596.3770381933297" x2="268.00418058240996" y2="493.532683081424" style="stroke:rgb(0,0,255);stroke-width:1"/>
<line x1="268.00418058240996" y1="493.532683081424" x2="121.35587008911011" y2="601.9963041961464" style="stroke:rgb(0,0,255);stroke-width:1"/>
<line x1="121.35587008911011" y1="601.9963041961464" x2="268.00418058240996" y2="493.532683081424" style="stroke:rgb(0,0,255);stroke-width:1"/>
<line x1="268.00418058240996" y1="493.532683081424" x2="492.23118590863464" y2="553.0637926159114" style="stroke:rgb(0,0,255);stroke-width:1"/>
<line x1="492.23118590863464" y1="553.0637926159114" x2="268.00418058240996" y2="493.532683081424" style="stroke:rgb(0,0,255);stroke-width:1"/>
<line x1="482.32760989464737" y1="476.0816814942641" x2="261.49834209168205" y2="368.3841925722273" style="stroke:rgb(0,0,255);stroke-width:1"/>
<line x1="261.49834209168205" y1="368.3841925722273" x2="482.32760989464737" y2="476.0816814942641" style="stroke:rgb(0,0,255);stroke-width:1"/>
<line x1="482.32760989464737" y1="476.0816814942641" x2="356.55927071489646" y2="320.4994716235334" style="stroke:rgb(0,0,255);stroke-width:1"/>
<line x1="356.55927071489646" y1="320.4994716235334" x2="482.32760989464737" y2="476.0816814942641" style="stroke:rgb(0,0,255);stroke-width:1"/>
<line x1="482.32760989464737" y1="476.0816814942641" x2="524.2610643723798" y2="396.81500513227206" style="stroke:rgb(0,0,255);stroke-width:1"/>
<line x1="524.2610643723798" y1="396.81500513227206" x2="482.32760989464737" y2="476.0816814942641" style="stroke:rgb(0,0,255);stroke-width:1"/>
<line x1="482.32760989464737" y1="476.0816814942641" x2="511.34708768243536" y2="691.1766897180552" style="stroke:rgb(0,0,255);stroke-width:1"/>
<line x1="511.34708768243536" y1="691.1766897180552" x2="482.32760989464737" y2="476.0816814942641" style="stroke:rgb(0,0,255);stroke-width:1"/>
<line x1="482.32760989464737" y1="476.0816814942641" x2="403.18535751583613" y2="408.1465880032682" style="stroke:rgb(0,0,255);stroke-width:1"/>
<line x1="403.18535751583613" y1="408.1465880032682" x2="482.32760989464737" y2="476.0816814942641" style="stroke:rgb(0,0,255);stroke-width:1"/>
<line x1="482.32760989464737" y1="476.0816814942641" x2="724.9739540098194" y2="625.7519305559707" style="stroke:rgb(0,0,255);stroke-width:1"/>
<line x1="724.9739540098194" y1="625.7519305559707" x2="482.32760989464737" y2="476.0816814942641" style="stroke:rgb(0,0,255);stroke-width:1"/>
<line x1="482.32760989464737" y1="476.0816814942641" x2="622.0556175240298" y2="339.6369845820538" style="stroke:rgb(0,0,255);stroke-width:1"/>
<line x1="622.0556175240298" y1="339.6369845820538" x2="482.32760989464737" y2="476.0816814942641" style="stroke:rgb(0,0,255);stroke-width:1"/>
<line x1="482.32760989464737" y1="476.0816814942641" x2="698.6323540269731" y2="495.20036914980005" style="stroke:rgb(0,0,255);stroke-width:1"/>
<line x1="698.6323540269731" y1="495.20036914980005" x2="482.32760989464737" y2="476.0816814942641" style="stroke:rgb(0,0,255);stroke-width:1"/>
<line x1="261.49834209168205" y1="368.3841925722273" x2="356.55927071489646" y2="320.4994716235334" style="stroke:rgb(0,0,255);stroke-width:1"/>
<line x1="356.55927071489646" y1="320.4994716235334" x2="261.49834209168205" y2="368.3841925722273" style="stroke:rgb(0,0,255);stroke-width:1"/>
<line x1="261.49834209168205" y1="368.3841925722273" x2="159.7846816196735" y2="303.9882668500301" style="stroke:rgb(0,0,255);stroke-width:1"/>
<line x1="159.7846816196735" y1="303.9882668500301" x2="261.49834209168205" y2="368.3841925722273" style="stroke:rgb(0,0,255);stroke-width:1"/>
<line x1="261.49834209168205" y1="368.3841925722273" x2="403.18535751583613" y2="408.1465880032682" style="stroke:rgb(0,0,255);stroke-width:1"/>
<line x1="403.18535751583613" y1="408.1465880032682" x2="261.49834209168205" y2="368.3841925722273" style="stroke:rgb(0,0,255);stroke-width:1"/>
<line x1="225.7678050125213" y1="737.0537728599832" x2="383.6075314960591" y2="717.7946053195822" style="stroke:rgb(0,0,255);stroke-width:1"/>
<line x1="383.6075314960591" y1="717.7946053195822" x2="225.7678050125213" y2="737.0537728599832" style="stroke:rgb(0,0,255);stroke-width:1"/>
<line x1="225.7678050125213" y1="737.0537728599832" x2="320.1224081751858" y2="819.9009272359843" style="stroke:rgb(0,0,255);stroke-width:1"/>
<line x1="320.1224081751858" y1="819.9009272359843" x2="225.7678050125213" y2="737.0537728599832" style="stroke:rgb(0,0,255);stroke-width:1"/>
<line x1="506.4415060568251" y1="764.557809257512" x2="383.6075314960591" y2="717.7946053195822" style="stroke:rgb(0,0,255);stroke-width:1"/>
<line x1="383.6075314960591" y1="717.7946053195822" x2="506.4415060568251" y2="764.557809257512" style="stroke:rgb(0,0,255);stroke-width:1"/>
<line x1="506.4415060568251" y1="764.557809257512" x2="320.1224081751858" y2="819.9009272359843" style="stroke:rgb(0,0,255);stroke-width:1"/>
<line x1="320.1224081751858" y1="819.9009272359843" x2="506.4415060568251" y2="764.557809257512" style="stroke:rgb(0,0,255);stroke-width:1"/>
<line x1="506.4415060568251" y1="764.557809257512" x2="574.4151376165399" y2="588.8143101698874" style="stroke:rgb(0,0,255);stroke-width:1"/>
<line x1="574.4151376165399" y1="588.8143101698874" x2="506.4415060568251" y2="764.557809257512" style="stroke:rgb(0,0,255);stroke-width:1"/>
<line x1="383.6075314960591" y1="717.7946053195822" x2="574.4151376165399" y2="588.8143101698874" style="stroke:rgb(0,0,255);stroke-width:1"/>
<line x1="574.4151376165399" y1="588.8143101698874" x2="383.6075314960591" y2="717.7946053195822" style="stroke:rgb(0,0,255);stroke-width:1"/>
<line x1="524.2610643723798" y1="396.81500513227206" x2="492.23118590863464" y2="553.0637926159114" style="stroke:rgb(0,0,255);stroke-width:1"/>
<line x1="492.23118590863464" y1="553.0637926159114" x2="524.2610643723798" y2="396.81500513227206" style="stroke:rgb(0,0,255);stroke-width:1"/>
<line x1="524.2610643723798" y1="396.81500513227206" x2="698.6323540269731" y2="495.20036914980005" style="stroke:rgb(0,0,255);stroke-width:1"/>
<line x1="698.6323540269731" y1="495.20036914980005" x2="524.2610643723798" y2="396.81500513227206" style="stroke:rgb(0,0,255);stroke-width:1"/>
<line x1="524.2610643723798" y1="396.81500513227206" x2="635.5601113408818" y2="484.68828737547824" style="stroke:rgb(0,0,255);stroke-width:1"/>
<line x1="635.5601113408818" y1="484.68828737547824" x2="524.2610643723798" y2="396.81500513227206" style="stroke:rgb(0,0,255);stroke-width:1"/>
<line x1="511.34708768243536" y1="691.1766897180552" x2="635.5601113408818" y2="484.68828737547824" style="stroke:rgb(0,0,255);stroke-width:1"/>
<line x1="635.5601113408818" y1="484.68828737547824" x2="511.34708768243536" y2="691.1766897180552" style="stroke:rgb(0,0,255);stroke-width:1"/>
<line x1="403.18535751583613" y1="408.1465880032682" x2="635.5601113408818" y2="484.68828737547824" style="stroke:rgb(0,0,255);stroke-width:1"/>
<line x1="635.5601113408818" y1="484.68828737547824" x2="403.18535751583613" y2="408.1465880032682" style="stroke:rgb(0,0,255);stroke-width:1"/>
<line x1="871.2991336888128" y1="321.88718040694005" x2="698.6323540269731" y2="495.20036914980005" style="stroke:rgb(0,0,255);stroke-width:1"/>
<line x1="698.6323540269731" y1="495.20036914980005" x2="871.2991336888128" y2="321.88718040694005" style="stroke:rgb(0,0,255);stroke-width:1"/>
<line x1="871.2991336888128" y1="321.88718040694005" x2="635.5601113408818" y2="484.68828737547824" style="stroke:rgb(0,0,255);stroke-width:1"/>
<line x1="635.5601113408818" y1="484.68828737547824" x2="871.2991336888128" y2="321.88718040694005" style="stroke:rgb(0,0,255);stroke-width:1"/>
<line x1="682.2882135950681" y1="739.2594958470584" x2="698.6323540269731" y2="495.20036914980005" style="stroke:rgb(0,0,255);stroke-width:1"/>
<line x1="698.6323540269731" y1="495.20036914980005" x2="682.2882135950681" y2="739.2594958470584" style="stroke:rgb(0,0,255);stroke-width:1"/>
<line x1="682.2882135950681" y1="739.2594958470584" x2="635.5601113408818" y2="484.68828737547824" style="stroke:rgb(0,0,255);stroke-width:1"/>
<line x1="635.5601113408818" y1="484.68828737547824" x2="682.2882135950681" y2="739.2594958470584" style="stroke:rgb(0,0,255);stroke-width:1"/>
<line x1="599.060442559758" y1="258.6218975976823" x2="698.6323540269731" y2="495.20036914980005" style="stroke:rgb(0,0,255);stroke-width:1"/>
<line x1="698.6323540269731" y1="495.20036914980005" x2="599.060442559758" y2="258.6218975976823" style="stroke:rgb(0,0,255);stroke-width:1"/>
<line x1="599.060442559758" y1="258.6218975976823" x2="635.5601113408818" y2="484.68828737547824" style="stroke:rgb(0,0,255);stroke-width:1"/>
<line x1="635.5601113408818" y1="484.68828737547824" x2="599.060442559758" y2="258.6218975976823" style="stroke:rgb(0,0,255);stroke-width:1"/>
<line x1="364.3290784891233" y1="596.3770381933297" x2="635.5601113408818" y2="484.68828737547824" style="stroke:rgb(0,0,255);stroke-width:1"/>
<line x1="635.5601113408818" y1="484.68828737547824" x2="364.3290784891233" y2="596.3770381933297" style="stroke:rgb(0,0,255);stroke-width:1"/>
<line x1="760.2902830150754" y1="322.93510642627416" x2="698.6323540269731" y2="495.20036914980005" style="stroke:rgb(0,0,255);stroke-width:1"/>
<line x1="698.6323540269731" y1="495.20036914980005" x2="760.2902830150754" y2="322.93510642627416" style="stroke:rgb(0,0,255);stroke-width:1"/>
<line x1="760.2902830150754" y1="322.93510642627416" x2="635.5601113408818" y2="484.68828737547824" style="stroke:rgb(0,0,255);stroke-width:1"/>
<line x1="635.5601113408818" y1="484.68828737547824" x2="760.2902830150754" y2="322.93510642627416" style="stroke:rgb(0,0,255);stroke-width:1"/>
<line x1="779.7932293324005" y1="727.0271669321962" x2="698.6323540269731" y2="495.20036914980005" style="stroke:rgb(0,0,255);stroke-width:1"/>
<line x1="698.6323540269731" y1="495.20036914980005" x2="779.7932293324005" y2="727.0271669321962" style="stroke:rgb(0,0,255);stroke-width:1"/>
<line x1="779.7932293324005" y1="727.0271669321962" x2="635.5601113408818" y2="484.68828737547824" style="stroke:rgb(0,0,255);stroke-width:1"/>
<line x1="635.5601113408818" y1="484.68828737547824" x2="779.7932293324005" y2="727.0271669321962" style="stroke:rgb(0,0,255);stroke-width:1"/>
<line x1="851.0256312032412" y1="556.9622489574382" x2="992.6652435500985" y2="544.330522334551" style="stroke:rgb(0,0,255);stroke-width:1"/>
<line x1="992.6652435500985" y1="544.330522334551" x2="851.0256312032412" y2="556.9622489574382" style="stroke:rgb(0,0,255);stroke-width:1"/>
<line x1="851.0256312032412" y1="556.9622489574382" x2="724.9739540098194" y2="625.7519305559707" style="stroke:rgb(0,0,255);stroke-width:1"/>
<line x1="724.9739540098194" y1="625.7519305559707" x2="851.0256312032412" y2="556.9622489574382" style="stroke:rgb(0,0,255);stroke-width:1"/>
<line x1="851.0256312032412" y1="556.9622489574382" x2="868.6206025902821" y2="418.0863871502237" style="stroke:rgb(0,0,255);stroke-width:1"/>
<line x1="868.6206025902821" y1="418.0863871502237" x2="851.0256312032412" y2="556.9622489574382" style="stroke:rgb(0,0,255);stroke-width:1"/>
<line x1="851.0256312032412" y1="556.9622489574382" x2="698.6323540269731" y2="495.20036914980005" style="stroke:rgb(0,0,255);stroke-width:1"/>
<line x1="698.6323540269731" y1="495.20036914980005" x2="851.0256312032412" y2="556.9622489574382" style="stroke:rgb(0,0,255);stroke-width:1"/>
<line x1="851.0256312032412" y1="556.9622489574382" x2="635.5601113408818" y2="484.68828737547824" style="stroke:rgb(0,0,255);stroke-width:1"/>
<line x1="635.5601113408818" y1="484.68828737547824" x2="851.0256312032412" y2="556.9622489574382" style="stroke:rgb(0,0,255);stroke-width:1"/>
<line x1="925.1380016825848" y1="666.2524044635747" x2="992.6652435500985" y2="544.330522334551" style="stroke:rgb(0,0,255);stroke-width:1"/>
<line x1="992.6652435500985" y1="544.330522334551" x2="925.1380016825848" y2="666.2524044635747" style="stroke:rgb(0,0,255);stroke-width:1"/>
<line x1="925.1380016825848" y1="666.2524044635747" x2="724.9739540098194" y2="625.7519305559707" style="stroke:rgb(0,0,255);stroke-width:1"/>
<line x1="724.9739540098194" y1="625.7519305559707" x2="925.1380016825848" y2="666.2524044635747" style="stroke:rgb(0,0,255);stroke-width:1"/>
<line x1="925.1380016825848" y1="666.2524044635747" x2="746.4876719957638" y2="483.6981365850369" style="stroke:rgb(0,0,255);stroke-width:1"/>
<line x1="746.4876719957638" y1="483.6981365850369" x2="925.1380016825848" y2="666.2524044635747" style="stroke:rgb(0,0,255);stroke-width:1"/>
<line x1="992.6652435500985" y1="544.330522334551" x2="746.4876719957638" y2="483.6981365850369" style="stroke:rgb(0,0,255);stroke-width:1"/>
<line x1="746.4876719957638" y1="483.6981365850369" x2="992.6652435500985" y2="544.330522334551" style="stroke:rgb(0,0,255);stroke-width:1"/>
<line x1="769.7753546270661" y1="222.6238439330059" x2="868.6206025902821" y2="418.0863871502237" style="stroke:rgb(0,0,255);stroke-width:1"/>
<line x1="868.6206025902821" y1="418.0863871502237" x2="769.7753546270661" y2="222.6238439330059" style="stroke:rgb(0,0,255);stroke-width:1"/>
<line x1="769.7753546270661" y1="222.6238439330059" x2="635.5601113408818" y2="484.68828737547824" style="stroke:rgb(0,0,255);stroke-width:1"/>
<line x1="635.5601113408818" y1="484.68828737547824" x2="769.7753546270661" y2="222.6238439330059" style="stroke:rgb(0,0,255);stroke-width:1"/>
<line x1="724.9739540098194" y1="625.7519305559707" x2="635.5601113408818" y2="484.68828737547824" style="stroke:rgb(0,0,255);stroke-width:1"/>
<line x1="635.5601113408818" y1="484.68828737547824" x2="724.9739540098194" y2="625.7519305559707" style="stroke:rgb(0,0,255);stroke-width:1"/>
<line x1="622.0556175240298" y1="339.6369845820538" x2="746.4876719957638" y2="483.6981365850369" style="stroke:rgb(0,0,255);stroke-width:1"/>
<line x1="746.4876719957638" y1="483.6981365850369" x2="622.0556175240298" y2="339.6369845820538" style="stroke:rgb(0,0,255);stroke-width:1"/>
<line x1="622.0556175240298" y1="339.6369845820538" x2="635.5601113408818" y2="484.68828737547824" style="stroke:rgb(0,0,255);stroke-width:1"/>
<line x1="635.5601113408818" y1="484.68828737547824" x2="622.0556175240298" y2="339.6369845820538" style="stroke:rgb(0,0,255);stroke-width:1"/>
<line x1="868.6206025902821" y1="418.0863871502237" x2="698.6323540269731" y2="495.20036914980005" style="stroke:rgb(0,0,255);stroke-width:1"/>
<line x1="698.6323540269731" y1="495.20036914980005" x2="868.6206025902821" y2="418.0863871502237" style="stroke:rgb(0,0,255);stroke-width:1"/>
<line x1="868.6206025902821" y1="418.0863871502237" x2="635.5601113408818" y2="484.68828737547824" style="stroke:rgb(0,0,255);stroke-width:1"/>
<line x1="635.5601113408818" y1="484.68828737547824" x2="868.6206025902821" y2="418.0863871502237" style="stroke:rgb(0,0,255);stroke-width:1"/>
<line x1="492.23118590863464" y1="553.0637926159114" x2="698.6323540269731" y2="495.20036914980005" style="stroke:rgb(0,0,255);stroke-width:1"/>
<line x1="698.6323540269731" y1="495.20036914980005" x2="492.23118590863464" y2="553.0637926159114" style="stroke:rgb(0,0,255);stroke-width:1"/>
<line x1="492.23118590863464" y1="553.0637926159114" x2="635.5601113408818" y2="484.68828737547824" style="stroke:rgb(0,0,255);stroke-width:1"/>
<line x1="635.5601113408818" y1="484.68828737547824" x2="492.23118590863464" y2="553.0637926159114" style="stroke:rgb(0,0,255);stroke-width:1"/>
<line x1="746.4876719957638" y1="483.6981365850369" x2="698.6323540269731" y2="495.20036914980005" style="stroke:rgb(0,0,255);stroke-width:1"/>
<line x1="698.6323540269731" y1="495.20036914980005" x2="746.4876719957638" y2="483.6981365850369" style="stroke:rgb(0,0,255);stroke-width:1"/>
<line x1="746.4876719957638" y1="483.6981365850369" x2="635.5601113408818" y2="484.68828737547824" style="stroke:rgb(0,0,255);stroke-width:1"/>
<line x1="635.5601113408818" y1="484.68828737547824" x2="746.4876719957638" y2="483.6981365850369" style="stroke:rgb(0,0,255);stroke-width:1"/>
<line x1="698.6323540269731" y1="495.20036914980005" x2="635.5601113408818" y2="484.68828737547824" style="stroke:rgb(0,0,255);stroke-width:1"/>
<line x1="635.5601113408818" y1="484.68828737547824" x2="698.6323540269731" y2="495.20036914980005" style="stroke:rgb(0,0,255);stroke-width:1"/>
</svg>
