<svg xmlns="http://www.w3.org/2000/svg" version="1.1" xmlns:xllink="http://www.w3.org/1999/xlink" width="1000" height="1000">
<ellipse cx="501.0223031544592" cy="505.7444507645704" rx="5.60" ry="5.60" style="fill:rgb(255,255,0);stroke:rgb(0,0,0);stroke-width:0.50;"/>
<ellipse cx="340.00418058240996" cy="532.532683081424" rx="5.60" ry="5.60" style="fill:rgb(255,255,0);stroke:rgb(0,0,0);stroke-width:0.50;"/>
<ellipse cx="485.32760989464737" cy="569.0816814942641" rx="5.60" ry="5.60" style="fill:rgb(255,255,0);stroke:rgb(0,0,0);stroke-width:0.50;"/>
<ellipse cx="382.49834209168205" cy="420.3841925722273" rx="5.60" ry="5.60" style="fill:rgb(255,255,0);stroke:rgb(0,0,0);stroke-width:0.50;"/>
<ellipse cx="421.7678050125213" cy="566.0537728599832" rx="5.60" ry="5.60" style="fill:rgb(255,255,0);stroke:rgb(0,0,0);stroke-width:0.50;"/>
<ellipse cx="702.4415060568251" cy="546.557809257512" rx="5.60" ry="5.60" style="fill:rgb(255,255,0);stroke:rgb(0,0,0);stroke-width:0.50;"/>
<ellipse cx="639.6075314960591" cy="672.7946053195822" rx="5.60" ry="5.60" style="fill:rgb(255,255,0);stroke:rgb(0,0,0);stroke-width:0.50;"/>
<ellipse cx="608.5592707148965" cy="533.4994716235334" rx="5.60" ry="5.60" style="fill:rgb(255,255,0);stroke:rgb(0,0,0);stroke-width:0.50;"/>
<ellipse cx="520.2610643723798" cy="375.81500513227206" rx="5.60" ry="5.60" style="fill:rgb(255,255,0);stroke:rgb(0,0,0);stroke-width:0.50;"/>
<ellipse cx="612.1224081751858" cy="760.9009272359843" rx="5.60" ry="5.60" style="fill:rgb(255,255,0);stroke:rgb(0,0,0);stroke-width:0.50;"/>
<ellipse cx="649.9570749376263" cy="237.10305969672982" rx="5.60" ry="5.60" style="fill:rgb(255,255,0);stroke:rgb(0,0,0);stroke-width:0.50;"/>
<ellipse cx="499.7846816196735" cy="248.98826685003007" rx="5.60" ry="5.60" style="fill:rgb(255,255,0);stroke:rgb(0,0,0);stroke-width:0.50;"/>
<ellipse cx="271.18535751583613" cy="501.1465880032682" rx="5.60" ry="5.60" style="fill:rgb(255,255,0);stroke:rgb(0,0,0);stroke-width:0.50;"/>
<ellipse cx="382.9698398085101" cy="241.3523701167976" rx="5.60" ry="5.60" style="fill:rgb(255,255,0);stroke:rgb(0,0,0);stroke-width:0.50;"/>
<ellipse cx="437.3290784891233" cy="731.3770381933297" rx="5.60" ry="5.60" style="fill:rgb(255,255,0);stroke:rgb(0,0,0);stroke-width:0.50;"/>
<ellipse cx="205.3558700891101" cy="623.9963041961464" rx="5.60" ry="5.60" style="fill:rgb(255,255,0);stroke:rgb(0,0,0);stroke-width:0.50;"/>
<ellipse cx="698.4876719957638" cy="427.6981365850369" rx="5.60" ry="5.60" style="fill:rgb(255,255,0);stroke:rgb(0,0,0);stroke-width:0.50;"/>
<ellipse cx="400.23118590863464" cy="632.0637926159114" rx="5.60" ry="5.60" style="fill:rgb(255,255,0);stroke:rgb(0,0,0);stroke-width:0.50;"/>
<ellipse cx="355.34708768243536" cy="760.1766897180552" rx="5.60" ry="5.60" style="fill:rgb(255,255,0);stroke:rgb(0,0,0);stroke-width:0.50;"/>
<ellipse cx="793.9739540098194" cy="541.7519305559707" rx="5.60" ry="5.60" style="fill:rgb(255,255,0);stroke:rgb(0,0,0);stroke-width:0.50;"/>
<ellipse cx="402.0556175240298" cy="330.6369845820538" rx="5.60" ry="5.60" style="fill:rgb(255,255,0);stroke:rgb(0,0,0);stroke-width:0.50;"/>
<ellipse cx="628.6323540269731" cy="468.20036914980005" rx="5.60" ry="5.60" style="fill:rgb(255,255,0);stroke:rgb(0,0,0);stroke-width:0.50;"/>
<ellipse cx="490.41513761653994" cy="453.81431016988745" rx="5.60" ry="5.60" style="fill:rgb(255,255,0);stroke:rgb(0,0,0);stroke-width:0.50;"/>
<ellipse cx="567.5601113408818" cy="499.6882873754782" rx="5.60" ry="5.60" style="fill:rgb(255,255,0);stroke:rgb(0,0,0);stroke-width:0.50;"/>
<ellipse cx="845.2991336888128" cy="330.88718040694005" rx="5.60" ry="5.60" style="fill:rgb(255,255,0);stroke:rgb(0,0,0);stroke-width:0.50;"/>
<ellipse cx="542.2882135950681" cy="748.2594958470584" rx="5.60" ry="5.60" style="fill:rgb(255,255,0);stroke:rgb(0,0,0);stroke-width:0.50;"/>
<ellipse cx="291.06044255975803" cy="381.6218975976823" rx="5.60" ry="5.60" style="fill:rgb(255,255,0);stroke:rgb(0,0,0);stroke-width:0.50;"/>
<ellipse cx="748.2902830150754" cy="295.93510642627416" rx="5.60" ry="5.60" style="fill:rgb(255,255,0);stroke:rgb(0,0,0);stroke-width:0.50;"/>
<ellipse cx="815.7932293324005" cy="669.0271669321962" rx="5.60" ry="5.60" style="fill:rgb(255,255,0);stroke:rgb(0,0,0);stroke-width:0.50;"/>
<ellipse cx="800.0256312032412" cy="441.9622489574382" rx="5.60" ry="5.60" style="fill:rgb(255,255,0);stroke:rgb(0,0,0);stroke-width:0.50;"/>
<ellipse cx="892.6652435500985" cy="571.330522334551" rx="5.60" ry="5.60" style="fill:rgb(255,255,0);stroke:rgb(0,0,0);stroke-width:0.50;"/>
<ellipse cx="627.6206025902821" cy="590.0863871502237" rx="5.60" ry="5.60" style="fill:rgb(255,255,0);stroke:rgb(0,0,0);stroke-width:0.50;"/>
<ellipse cx="785.1380016825848" cy="734.2524044635747" rx="5.60" ry="5.60" style="fill:rgb(255,255,0);stroke:rgb(0,0,0);stroke-width:0.50;"/>
<ellipse cx="598.7753546270661" cy="285.6238439330059" rx="5.60" ry="5.60" style="fill:rgb(255,255,0);stroke:rgb(0,0,0);stroke-width:0.50;"/>
<line x1="501.0223031544592" y1="505.7444507645704" x2="340.00418058240996" y2="532.532683081424" style="stroke:rgb(0,0,255);stroke-width:1"/>
<line x1="340.00418058240996" y1="532.532683081424" x2="501.0223031544592" y2="505.7444507645704" style="stroke:rgb(0,0,255);stroke-width:1"/>
<line x1="501.0223031544592" y1="505.7444507645704" x2="485.32760989464737" y2="569.0816814942641" style="stroke:rgb(0,0,255);stroke-width:1"/>
<line x1="485.32760989464737" y1="569.0816814942641" x2="501.0223031544592" y2="505.7444507645704" style="stroke:rgb(0,0,255);stroke-width:1"/>
<line x1="501.0223031544592" y1="505.7444507645704" x2="382.49834209168205" y2="420.3841925722273" style="stroke:rgb(0,0,255);stroke-width:1"/>
<line x1="382.49834209168205" y1="420.3841925722273" x2="501.0223031544592" y2="505.7444507645704" style="stroke:rgb(0,0,255);stroke-width:1"/>
<line x1="501.0223031544592" y1="505.7444507645704" x2="421.7678050125213" y2="566.0537728599832" style="stroke:rgb(0,0,255);stroke-width:1"/>
<line x1="421.7678050125213" y1="566.0537728599832" x2="501.0223031544592" y2="505.7444507645704" style="stroke:rgb(0,0,255);stroke-width:1"/>
<line x1="501.0223031544592" y1="505.7444507645704" x2="702.4415060568251" y2="546.557809257512" style="stroke:rgb(0,0,255);stroke-width:1"/>
<line x1="702.4415060568251" y1="546.557809257512" x2="501.0223031544592" y2="505.7444507645704" style="stroke:rgb(0,0,255);stroke-width:1"/>
<line x1="501.0223031544592" y1="505.7444507645704" x2="639.6075314960591" y2="672.7946053195822" style="stroke:rgb(0,0,255);stroke-width:1"/>
<line x1="639.6075314960591" y1="672.7946053195822" x2="501.0223031544592" y2="505.7444507645704" style="stroke:rgb(0,0,255);stroke-width:1"/>
<line x1="501.0223031544592" y1="505.7444507645704" x2="608.5592707148965" y2="533.4994716235334" style="stroke:rgb(0,0,255);stroke-width:1"/>
<line x1="608.5592707148965" y1="533.4994716235334" x2="501.0223031544592" y2="505.7444507645704" style="stroke:rgb(0,0,255);stroke-width:1"/>
<line x1="501.0223031544592" y1="505.7444507645704" x2="520.2610643723798" y2="375.81500513227206" style="stroke:rgb(0,0,255);stroke-width:1"/>
<line x1="520.2610643723798" y1="375.81500513227206" x2="501.0223031544592" y2="505.7444507645704" style="stroke:rgb(0,0,255);stroke-width:1"/>
<line x1="501.0223031544592" y1="505.7444507645704" x2="612.1224081751858" y2="760.9009272359843" style="stroke:rgb(0,0,255);stroke-width:1"/>
<line x1="612.1224081751858" y1="760.9009272359843" x2="501.0223031544592" y2="505.7444507645704" style="stroke:rgb(0,0,255);stroke-width:1"/>
<line x1="501.0223031544592" y1="505.7444507645704" x2="649.9570749376263" y2="237.10305969672982" style="stroke:rgb(0,0,255);stroke-width:1"/>
<line x1="649.9570749376263" y1="237.10305969672982" x2="501.0223031544592" y2="505.7444507645704" style="stroke:rgb(0,0,255);stroke-width:1"/>
<line x1="501.0223031544592" y1="505.7444507645704" x2="499.7846816196735" y2="248.98826685003007" style="stroke:rgb(0,0,255);stroke-width:1"/>
<line x1="499.7846816196735" y1="248.98826685003007" x2="501.0223031544592" y2="505.7444507645704" style="stroke:rgb(0,0,255);stroke-width:1"/>
<line x1="501.0223031544592" y1="505.7444507645704" x2="271.18535751583613" y2="501.1465880032682" style="stroke:rgb(0,0,255);stroke-width:1"/>
<line x1="271.18535751583613" y1="501.1465880032682" x2="501.0223031544592" y2="505.7444507645704" style="stroke:rgb(0,0,255);stroke-width:1"/>
<line x1="501.0223031544592" y1="505.7444507645704" x2="382.9698398085101" y2="241.3523701167976" style="stroke:rgb(0,0,255);stroke-width:1"/>
<line x1="382.9698398085101" y1="241.3523701167976" x2="501.0223031544592" y2="505.7444507645704" style="stroke:rgb(0,0,255);stroke-width:1"/>
<line x1="501.0223031544592" y1="505.7444507645704" x2="437.3290784891233" y2="731.3770381933297" style="stroke:rgb(0,0,255);stroke-width:1"/>
<line x1="437.3290784891233" y1="731.3770381933297" x2="501.0223031544592" y2="505.7444507645704" style="stroke:rgb(0,0,255);stroke-width:1"/>
<line x1="501.0223031544592" y1="505.7444507645704" x2="205.3558700891101" y2="623.9963041961464" style="stroke:rgb(0,0,255);stroke-width:1"/>
<line x1="205.3558700891101" y1="623.9963041961464" x2="501.0223031544592" y2="505.7444507645704" style="stroke:rgb(0,0,255);stroke-width:1"/>
<line x1="501.0223031544592" y1="505.7444507645704" x2="698.4876719957638" y2="427.6981365850369" style="stroke:rgb(0,0,255);stroke-width:1"/>
<line x1="698.4876719957638" y1="427.6981365850369" x2="501.0223031544592" y2="505.7444507645704" style="stroke:rgb(0,0,255);stroke-width:1"/>
<line x1="340.00418058240996" y1="532.532683081424" x2="485.32760989464737" y2="569.0816814942641" style="stroke:rgb(0,0,255);stroke-width:1"/>
<line x1="485.32760989464737" y1="569.0816814942641" x2="340.00418058240996" y2="532.532683081424" style="stroke:rgb(0,0,255);stroke-width:1"/>
<line x1="340.00418058240996" y1="532.532683081424" x2="382.49834209168205" y2="420.3841925722273" style="stroke:rgb(0,0,255);stroke-width:1"/>
<line x1="382.49834209168205" y1="420.3841925722273" x2="340.00418058240996" y2="532.532683081424" style="stroke:rgb(0,0,255);stroke-width:1"/>
<line x1="340.00418058240996" y1="532.532683081424" x2="608.5592707148965" y2="533.4994716235334" style="stroke:rgb(0,0,255);stroke-width:1"/>
<line x1="608.5592707148965" y1="533.4994716235334" x2="340.00418058240996" y2="532.532683081424" style="stroke:rgb(0,0,255);stroke-width:1"/>
<line x1="340.00418058240996" y1="532.532683081424" x2="271.18535751583613" y2="501.1465880032682" style="stroke:rgb(0,0,255);stroke-width:1"/>
<line x1="271.18535751583613" y1="501.1465880032682" x2="340.00418058240996" y2="532.532683081424" style="stroke:rgb(0,0,255);stroke-width:1"/>
<line x1="340.00418058240996" y1="532.532683081424" x2="382.9698398085101" y2="241.3523701167976" style="stroke:rgb(0,0,255);stroke-width:1"/>
<line x1="382.9698398085101" y1="241.3523701167976" x2="340.00418058240996" y2="532.532683081424" style="stroke:rgb(0,0,255);stroke-width:1"/>
<line x1="340.00418058240996" y1="532.532683081424" x2="437.3290784891233" y2="731.3770381933297" style="stroke:rgb(0,0,255);stroke-width:1"/>
<line x1="437.3290784891233" y1="731.3770381933297" x2="340.00418058240996" y2="532.532683081424" style="stroke:rgb(0,0,255);stroke-width:1"/>
<line x1="340.00418058240996" y1="532.532683081424" x2="205.3558700891101" y2="623.9963041961464" style="stroke:rgb(0,0,255);stroke-width:1"/>
<line x1="205.3558700891101" y1="623.9963041961464" x2="340.00418058240996" y2="532.532683081424" style="stroke:rgb(0,0,255);stroke-width:1"/>
<line x1="340.00418058240996" y1="532.532683081424" x2="400.23118590863464" y2="632.0637926159114" style="stroke:rgb(0,0,255);stroke-width:1"/>
<line x1="400.23118590863464" y1="632.0637926159114" x2="340.00418058240996" y2="532.532683081424" style="stroke:rgb(0,0,255);stroke-width:1"/>
<line x1="485.32760989464737" y1="569.0816814942641" x2="382.49834209168205" y2="420.3841925722273" style="stroke:rgb(0,0,255);stroke-width:1"/>
<line x1="382.49834209168205" y1="420.3841925722273" x2="485.32760989464737" y2="569.0816814942641" style="stroke:rgb(0,0,255);stroke-width:1"/>
<line x1="485.32760989464737" y1="569.0816814942641" x2="608.5592707148965" y2="533.4994716235334" style="stroke:rgb(0,0,255);stroke-width:1"/>
<line x1="608.5592707148965" y1="533.4994716235334" x2="485.32760989464737" y2="569.0816814942641" style="stroke:rgb(0,0,255);stroke-width:1"/>
<line x1="485.32760989464737" y1="569.0816814942641" x2="520.2610643723798" y2="375.81500513227206" style="stroke:rgb(0,0,255);stroke-width:1"/>
<line x1="520.2610643723798" y1="375.81500513227206" x2="485.32760989464737" y2="569.0816814942641" style="stroke:rgb(0,0,255);stroke-width:1"/>
<line x1="485.32760989464737" y1="569.0816814942641" x2="355.34708768243536" y2="760.1766897180552" style="stroke:rgb(0,0,255);stroke-width:1"/>
<line x1="355.34708768243536" y1="760.1766897180552" x2="485.32760989464737" y2="569.0816814942641" style="stroke:rgb(0,0,255);stroke-width:1"/>
<line x1="485.32760989464737" y1="569.0816814942641" x2="271.18535751583613" y2="501.1465880032682" style="stroke:rgb(0,0,255);stroke-width:1"/>
<line x1="271.18535751583613" y1="501.1465880032682" x2="485.32760989464737" y2="569.0816814942641" style="stroke:rgb(0,0,255);stroke-width:1"/>
<line x1="485.32760989464737" y1="569.0816814942641" x2="793.9739540098194" y2="541.7519305559707" style="stroke:rgb(0,0,255);stroke-width:1"/>
<line x1="793.9739540098194" y1="541.7519305559707" x2="485.32760989464737" y2="569.0816814942641" style="stroke:rgb(0,0,255);stroke-width:1"/>
<line x1="485.32760989464737" y1="569.0816814942641" x2="402.0556175240298" y2="330.6369845820538" style="stroke:rgb(0,0,255);stroke-width:1"/>
<line x1="402.0556175240298" y1="330.6369845820538" x2="485.32760989464737" y2="569.0816814942641" style="stroke:rgb(0,0,255);stroke-width:1"/>
<line x1="485.32760989464737" y1="569.0816814942641" x2="628.6323540269731" y2="468.20036914980005" style="stroke:rgb(0,0,255);stroke-width:1"/>
<line x1="628.6323540269731" y1="468.20036914980005" x2="485.32760989464737" y2="569.0816814942641" style="stroke:rgb(0,0,255);stroke-width:1"/>
<line x1="382.49834209168205" y1="420.3841925722273" x2="608.5592707148965" y2="533.4994716235334" style="stroke:rgb(0,0,255);stroke-width:1"/>
<line x1="608.5592707148965" y1="533.4994716235334" x2="382.49834209168205" y2="420.3841925722273" style="stroke:rgb(0,0,255);stroke-width:1"/>
<line x1="382.49834209168205" y1="420.3841925722273" x2="499.7846816196735" y2="248.98826685003007" style="stroke:rgb(0,0,255);stroke-width:1"/>
<line x1="499.7846816196735" y1="248.98826685003007" x2="382.49834209168205" y2="420.3841925722273" style="stroke:rgb(0,0,255);stroke-width:1"/>
<line x1="382.49834209168205" y1="420.3841925722273" x2="271.18535751583613" y2="501.1465880032682" style="stroke:rgb(0,0,255);stroke-width:1"/>
<line x1="271.18535751583613" y1="501.1465880032682" x2="382.49834209168205" y2="420.3841925722273" style="stroke:rgb(0,0,255);stroke-width:1"/>
<line x1="421.7678050125213" y1="566.0537728599832" x2="639.6075314960591" y2="672.7946053195822" style="stroke:rgb(0,0,255);stroke-width:1"/>
<line x1="639.6075314960591" y1="672.7946053195822" x2="421.7678050125213" y2="566.0537728599832" style="stroke:rgb(0,0,255);stroke-width:1"/>
<line x1="421.7678050125213" y1="566.0537728599832" x2="612.1224081751858" y2="760.9009272359843" style="stroke:rgb(0,0,255);stroke-width:1"/>
<line x1="612.1224081751858" y1="760.9009272359843" x2="421.7678050125213" y2="566.0537728599832" style="stroke:rgb(0,0,255);stroke-width:1"/>
<line x1="702.4415060568251" y1="546.557809257512" x2="639.6075314960591" y2="672.7946053195822" style="stroke:rgb(0,0,255);stroke-width:1"/>
<line x1="639.6075314960591" y1="672.7946053195822" x2="702.4415060568251" y2="546.557809257512" style="stroke:rgb(0,0,255);stroke-width:1"/>
<line x1="702.4415060568251" y1="546.557809257512" x2="612.1224081751858" y2="760.9009272359843" style="stroke:rgb(0,0,255);stroke-width:1"/>
<line x1="612.1224081751858" y1="760.9009272359843" x2="702.4415060568251" y2="546.557809257512" style="stroke:rgb(0,0,255);stroke-width:1"/>
<line x1="702.4415060568251" y1="546.557809257512" x2="490.41513761653994" y2="453.81431016988745" style="stroke:rgb(0,0,255);stroke-width:1"/>
<line x1="490.41513761653994" y1="453.81431016988745" x2="702.4415060568251" y2="546.557809257512" style="stroke:rgb(0,0,255);stroke-width:1"/>
<line x1="639.6075314960591" y1="672.7946053195822" x2="490.41513761653994" y2="453.81431016988745" style="stroke:rgb(0,0,255);stroke-width:1"/>
<line x1="490.41513761653994" y1="453.81431016988745" x2="639.6075314960591" y2="672.7946053195822" style="stroke:rgb(0,0,255);stroke-width:1"/>
<line x1="520.2610643723798" y1="375.81500513227206" x2="400.23118590863464" y2="632.0637926159114" style="stroke:rgb(0,0,255);stroke-width:1"/>
<line x1="400.23118590863464" y1="632.0637926159114" x2="520.2610643723798" y2="375.81500513227206" style="stroke:rgb(0,0,255);stroke-width:1"/>
<line x1="520.2610643723798" y1="375.81500513227206" x2="628.6323540269731" y2="468.20036914980005" style="stroke:rgb(0,0,255);stroke-width:1"/>
<line x1="628.6323540269731" y1="468.20036914980005" x2="520.2610643723798" y2="375.81500513227206" style="stroke:rgb(0,0,255);stroke-width:1"/>
<line x1="520.2610643723798" y1="375.81500513227206" x2="567.5601113408818" y2="499.6882873754782" style="stroke:rgb(0,0,255);stroke-width:1"/>
<line x1="567.5601113408818" y1="499.6882873754782" x2="520.2610643723798" y2="375.81500513227206" style="stroke:rgb(0,0,255);stroke-width:1"/>
<line x1="355.34708768243536" y1="760.1766897180552" x2="567.5601113408818" y2="499.6882873754782" style="stroke:rgb(0,0,255);stroke-width:1"/>
<line x1="567.5601113408818" y1="499.6882873754782" x2="355.34708768243536" y2="760.1766897180552" style="stroke:rgb(0,0,255);stroke-width:1"/>
<line x1="271.18535751583613" y1="501.1465880032682" x2="567.5601113408818" y2="499.6882873754782" style="stroke:rgb(0,0,255);stroke-width:1"/>
<line x1="567.5601113408818" y1="499.6882873754782" x2="271.18535751583613" y2="501.1465880032682" style="stroke:rgb(0,0,255);stroke-width:1"/>
<line x1="845.2991336888128" y1="330.88718040694005" x2="628.6323540269731" y2="468.20036914980005" style="stroke:rgb(0,0,255);stroke-width:1"/>
<line x1="628.6323540269731" y1="468.20036914980005" x2="845.2991336888128" y2="330.88718040694005" style="stroke:rgb(0,0,255);stroke-width:1"/>
<line x1="845.2991336888128" y1="330.88718040694005" x2="567.5601113408818" y2="499.6882873754782" style="stroke:rgb(0,0,255);stroke-width:1"/>
<line x1="567.5601113408818" y1="499.6882873754782" x2="845.2991336888128" y2="330.88718040694005" style="stroke:rgb(0,0,255);stroke-width:1"/>
<line x1="542.2882135950681" y1="748.2594958470584" x2="628.6323540269731" y2="468.20036914980005" style="stroke:rgb(0,0,255);stroke-width:1"/>
<line x1="628.6323540269731" y1="468.20036914980005" x2="542.2882135950681" y2="748.2594958470584" style="stroke:rgb(0,0,255);stroke-width:1"/>
<line x1="542.2882135950681" y1="748.2594958470584" x2="567.5601113408818" y2="499.6882873754782" style="stroke:rgb(0,0,255);stroke-width:1"/>
<line x1="567.5601113408818" y1="499.6882873754782" x2="542.2882135950681" y2="748.2594958470584" style="stroke:rgb(0,0,255);stroke-width:1"/>
<line x1="291.06044255975803" y1="381.6218975976823" x2="628.6323540269731" y2="468.20036914980005" style="stroke:rgb(0,0,255);stroke-width:1"/>
<line x1="628.6323540269731" y1="468.20036914980005" x2="291.06044255975803" y2="381.6218975976823" style="stroke:rgb(0,0,255);stroke-width:1"/>
<line x1="291.06044255975803" y1="381.6218975976823" x2="567.5601113408818" y2="499.6882873754782" style="stroke:rgb(0,0,255);stroke-width:1"/>
<line x1="567.5601113408818" y1="499.6882873754782" x2="291.06044255975803" y2="381.6218975976823" style="stroke:rgb(0,0,255);stroke-width:1"/>
<line x1="437.3290784891233" y1="731.3770381933297" x2="567.5601113408818" y2="499.6882873754782" style="stroke:rgb(0,0,255);stroke-width:1"/>
<line x1="567.5601113408818" y1="499.6882873754782" x2="437.3290784891233" y2="731.3770381933297" style="stroke:rgb(0,0,255);stroke-width:1"/>
<line x1="748.2902830150754" y1="295.93510642627416" x2="628.6323540269731" y2="468.20036914980005" style="stroke:rgb(0,0,255);stroke-width:1"/>
<line x1="628.6323540269731" y1="468.20036914980005" x2="748.2902830150754" y2="295.93510642627416" style="stroke:rgb(0,0,255);stroke-width:1"/>
<line x1="748.2902830150754" y1="295.93510642627416" x2="567.5601113408818" y2="499.6882873754782" style="stroke:rgb(0,0,255);stroke-width:1"/>
<line x1="567.5601113408818" y1="499.6882873754782" x2="748.2902830150754" y2="295.93510642627416" style="stroke:rgb(0,0,255);stroke-width:1"/>
<line x1="815.7932293324005" y1="669.0271669321962" x2="628.6323540269731" y2="468.20036914980005" style="stroke:rgb(0,0,255);stroke-width:1"/>
<line x1="628.6323540269731" y1="468.20036914980005" x2="815.7932293324005" y2="669.0271669321962" style="stroke:rgb(0,0,255);stroke-width:1"/>
<line x1="815.7932293324005" y1="669.0271669321962" x2="567.5601113408818" y2="499.6882873754782" style="stroke:rgb(0,0,255);stroke-width:1"/>
<line x1="567.5601113408818" y1="499.6882873754782" x2="815.7932293324005" y2="669.0271669321962" style="stroke:rgb(0,0,255);stroke-width:1"/>
<line x1="800.0256312032412" y1="441.9622489574382" x2="892.6652435500985" y2="571.330522334551" style="stroke:rgb(0,0,255);stroke-width:1"/>
<line x1="892.6652435500985" y1="571.330522334551" x2="800.0256312032412" y2="441.9622489574382" style="stroke:rgb(0,0,255);stroke-width:1"/>
<line x1="800.0256312032412" y1="441.9622489574382" x2="793.9739540098194" y2="541.7519305559707" style="stroke:rgb(0,0,255);stroke-width:1"/>
<line x1="793.9739540098194" y1="541.7519305559707" x2="800.0256312032412" y2="441.9622489574382" style="stroke:rgb(0,0,255);stroke-width:1"/>
<line x1="800.0256312032412" y1="441.9622489574382" x2="627.6206025902821" y2="590.0863871502237" style="stroke:rgb(0,0,255);stroke-width:1"/>
<line x1="627.6206025902821" y1="590.0863871502237" x2="800.0256312032412" y2="441.9622489574382" style="stroke:rgb(0,0,255);stroke-width:1"/>
<line x1="800.0256312032412" y1="441.9622489574382" x2="628.6323540269731" y2="468.20036914980005" style="stroke:rgb(0,0,255);stroke-width:1"/>
<line x1="628.6323540269731" y1="468.20036914980005" x2="800.0256312032412" y2="441.9622489574382" style="stroke:rgb(0,0,255);stroke-width:1"/>
<line x1="800.0256312032412" y1="441.9622489574382" x2="567.5601113408818" y2="499.6882873754782" style="stroke:rgb(0,0,255);stroke-width:1"/>
<line x1="567.5601113408818" y1="499.6882873754782" x2="800.0256312032412" y2="441.9622489574382" style="stroke:rgb(0,0,255);stroke-width:1"/>
<line x1="785.1380016825848" y1="734.2524044635747" x2="892.6652435500985" y2="571.330522334551" style="stroke:rgb(0,0,255);stroke-width:1"/>
<line x1="892.6652435500985" y1="571.330522334551" x2="785.1380016825848" y2="734.2524044635747" style="stroke:rgb(0,0,255);stroke-width:1"/>
<line x1="785.1380016825848" y1="734.2524044635747" x2="793.9739540098194" y2="541.7519305559707" style="stroke:rgb(0,0,255);stroke-width:1"/>
<line x1="793.9739540098194" y1="541.7519305559707" x2="785.1380016825848" y2="734.2524044635747" style="stroke:rgb(0,0,255);stroke-width:1"/>
<line x1="785.1380016825848" y1="734.2524044635747" x2="698.4876719957638" y2="427.6981365850369" style="stroke:rgb(0,0,255);stroke-width:1"/>
<line x1="698.4876719957638" y1="427.6981365850369" x2="785.1380016825848" y2="734.2524044635747" style="stroke:rgb(0,0,255);stroke-width:1"/>
<line x1="892.6652435500985" y1="571.330522334551" x2="698.4876719957638" y2="427.6981365850369" style="stroke:rgb(0,0,255);stroke-width:1"/>
<line x1="698.4876719957638" y1="427.6981365850369" x2="892.6652435500985" y2="571.330522334551" style="stroke:rgb(0,0,255);stroke-width:1"/>
<line x1="598.7753546270661" y1="285.6238439330059" x2="627.6206025902821" y2="590.0863871502237" style="stroke:rgb(0,0,255);stroke-width:1"/>
<line x1="627.6206025902821" y1="590.0863871502237" x2="598.7753546270661" y2="285.6238439330059" style="stroke:rgb(0,0,255);stroke-width:1"/>
<line x1="598.7753546270661" y1="285.6238439330059" x2="567.5601113408818" y2="499.6882873754782" style="stroke:rgb(0,0,255);stroke-width:1"/>
<line x1="567.5601113408818" y1="499.6882873754782" x2="598.7753546270661" y2="285.6238439330059" style="stroke:rgb(0,0,255);stroke-width:1"/>
<line x1="793.9739540098194" y1="541.7519305559707" x2="567.5601113408818" y2="499.6882873754782" style="stroke:rgb(0,0,255);stroke-width:1"/>
<line x1="567.5601113408818" y1="499.6882873754782" x2="793.9739540098194" y2="541.7519305559707" style="stroke:rgb(0,0,255);stroke-width:1"/>
<line x1="402.0556175240298" y1="330.6369845820538" x2="698.4876719957638" y2="427.6981365850369" style="stroke:rgb(0,0,255);stroke-width:1"/>
<line x1="698.4876719957638" y1="427.6981365850369" x2="402.0556175240298" y2="330.6369845820538" style="stroke:rgb(0,0,255);stroke-width:1"/>
<line x1="402.0556175240298" y1="330.6369845820538" x2="567.5601113408818" y2="499.6882873754782" style="stroke:rgb(0,0,255);stroke-width:1"/>
<line x1="567.5601113408818" y1="499.6882873754782" x2="402.0556175240298" y2="330.6369845820538" style="stroke:rgb(0,0,255);stroke-width:1"/>
<line x1="627.6206025902821" y1="590.0863871502237" x2="628.6323540269731" y2="468.20036914980005" style="stroke:rgb(0,0,255);stroke-width:1"/>
<line x1="628.6323540269731" y1="468.20036914980005" x2="627.6206025902821" y2="590.0863871502237" style="stroke:rgb(0,0,255);stroke-width:1"/>
<line x1="627.6206025902821" y1="590.0863871502237" x2="567.5601113408818" y2="499.6882873754782" style="stroke:rgb(0,0,255);stroke-width:1"/>
<line x1="567.5601113408818" y1="499.6882873754782" x2="627.6206025902821" y2="590.0863871502237" style="stroke:rgb(0,0,255);stroke-width:1"/>
<line x1="400.23118590863464" y1="632.0637926159114" x2="628.6323540269731" y2="468.20036914980005" style="stroke:rgb(0,0,255);stroke-width:1"/>
<line x1="628.6323540269731" y1="468.20036914980005" x2="400.23118590863464" y2="632.0637926159114" style="stroke:rgb(0,0,255);stroke-width:1"/>
<line x1="400.23118590863464" y1="632.0637926159114" x2="567.5601113408818" y2="499.6882873754782" style="stroke:rgb(0,0,255);stroke-width:1"/>
<line x1="567.5601113408818" y1="499.6882873754782" x2="400.23118590863464" y2="632.0637926159114" style="stroke:rgb(0,0,255);stroke-width:1"/>
<line x1="698.4876719957638" y1="427.6981365850369" x2="628.6323540269731" y2="468.20036914980005" style="stroke:rgb(0,0,255);stroke-width:1"/>
<line x1="628.6323540269731" y1="468.20036914980005" x2="698.4876719957638" y2="427.6981365850369" style="stroke:rgb(0,0,255);stroke-width:1"/>
<line x1="698.4876719957638" y1="427.6981365850369" x2="567.5601113408818" y2="499.6882873754782" style="stroke:rgb(0,0,255);stroke-width:1"/>
<line x1="567.5601113408818" y1="499.6882873754782" x2="698.4876719957638" y2="427.6981365850369" style="stroke:rgb(0,0,255);stroke-width:1"/>
<line x1="628.6323540269731" y1="468.20036914980005" x2="567.5601113408818" y2="499.6882873754782" style="stroke:rgb(0,0,255);stroke-width:1"/>
<line x1="567.5601113408818" y1="499.6882873754782" x2="628.6323540269731" y2="468.20036914980005" style="stroke:rgb(0,0,255);stroke-width:1"/>
</svg>
