<svg xmlns="http://www.w3.org/2000/svg" version="1.1" xmlns:xllink="http://www.w3.org/1999/xlink" width="1000" height="1000">
<ellipse cx="353.0223031544592" cy="523.7444507645704" rx="5.60" ry="5.60" style="fill:rgb(255,255,0);stroke:rgb(0,0,0);stroke-width:0.50;"/>
<ellipse cx="256.00418058240996" cy="508.532683081424" rx="5.60" ry="5.60" style="fill:rgb(255,255,0);stroke:rgb(0,0,0);stroke-width:0.50;"/>
<ellipse cx="470.32760989464737" cy="491.0816814942641" rx="5.60" ry="5.60" style="fill:rgb(255,255,0);stroke:rgb(0,0,0);stroke-width:0.50;"/>
<ellipse cx="287.49834209168205" cy="359.3841925722273" rx="5.60" ry="5.60" style="fill:rgb(255,255,0);stroke:rgb(0,0,0);stroke-width:0.50;"/>
<ellipse cx="253.7678050125213" cy="758.0537728599832" rx="5.60" ry="5.60" style="fill:rgb(255,255,0);stroke:rgb(0,0,0);stroke-width:0.50;"/>
<ellipse cx="526.4415060568251" cy="720.557809257512" rx="5.60" ry="5.60" style="fill:rgb(255,255,0);stroke:rgb(0,0,0);stroke-width:0.50;"/>
<ellipse cx="411.6075314960591" cy="672.7946053195822" rx="5.60" ry="5.60" style="fill:rgb(255,255,0);stroke:rgb(0,0,0);stroke-width:0.50;"/>
<ellipse cx="392.55927071489646" cy="389.4994716235334" rx="5.60" ry="5.60" style="fill:rgb(255,255,0);stroke:rgb(0,0,0);stroke-width:0.50;"/>
<ellipse cx="536.2610643723798" cy="399.81500513227206" rx="5.60" ry="5.60" style="fill:rgb(255,255,0);stroke:rgb(0,0,0);stroke-width:0.50;"/>
<ellipse cx="380.1224081751858" cy="826.9009272359843" rx="5.60" ry="5.60" style="fill:rgb(255,255,0);stroke:rgb(0,0,0);stroke-width:0.50;"/>
<ellipse cx="385.9570749376263" cy="195.10305969672982" rx="5.60" ry="5.60" style="fill:rgb(255,255,0);stroke:rgb(0,0,0);stroke-width:0.50;"/>
<ellipse cx="203.7846816196735" cy="258.9882668500301" rx="5.60" ry="5.60" style="fill:rgb(255,255,0);stroke:rgb(0,0,0);stroke-width:0.50;"/>
<ellipse cx="351.18535751583613" cy="435.1465880032682" rx="5.60" ry="5.60" style="fill:rgb(255,255,0);stroke:rgb(0,0,0);stroke-width:0.50;"/>
<ellipse cx="102.96983980851007" cy="439.3523701167976" rx="5.60" ry="5.60" style="fill:rgb(255,255,0);stroke:rgb(0,0,0);stroke-width:0.50;"/>
<ellipse cx="296.3290784891233" cy="617.3770381933297" rx="5.60" ry="5.60" style="fill:rgb(255,255,0);stroke:rgb(0,0,0);stroke-width:0.50;"/>
<ellipse cx="117.35587008911011" cy="586.9963041961464" rx="5.60" ry="5.60" style="fill:rgb(255,255,0);stroke:rgb(0,0,0);stroke-width:0.50;"/>
<ellipse cx="728.4876719957638" cy="468.6981365850369" rx="5.60" ry="5.60" style="fill:rgb(255,255,0);stroke:rgb(0,0,0);stroke-width:0.50;"/>
<ellipse cx="504.23118590863464" cy="584.0637926159114" rx="5.60" ry="5.60" style="fill:rgb(255,255,0);stroke:rgb(0,0,0);stroke-width:0.50;"/>
<ellipse cx="467.34708768243536" cy="736.1766897180552" rx="5.60" ry="5.60" style="fill:rgb(255,255,0);stroke:rgb(0,0,0);stroke-width:0.50;"/>
<ellipse cx="697.9739540098194" cy="646.7519305559707" rx="5.60" ry="5.60" style="fill:rgb(255,255,0);stroke:rgb(0,0,0);stroke-width:0.50;"/>
<ellipse cx="634.0556175240298" cy="306.6369845820538" rx="5.60" ry="5.60" style="fill:rgb(255,255,0);stroke:rgb(0,0,0);stroke-width:0.50;"/>
<ellipse cx="702.6323540269731" cy="522.2003691498" rx="5.60" ry="5.60" style="fill:rgb(255,255,0);stroke:rgb(0,0,0);stroke-width:0.50;"/>
<ellipse cx="554.4151376165399" cy="507.81431016988745" rx="5.60" ry="5.60" style="fill:rgb(255,255,0);stroke:rgb(0,0,0);stroke-width:0.50;"/>
<ellipse cx="631.5601113408818" cy="499.68828737547824" rx="5.60" ry="5.60" style="fill:rgb(255,255,0);stroke:rgb(0,0,0);stroke-width:0.50;"/>
<ellipse cx="875.2991336888128" cy="354.88718040694005" rx="5.60" ry="5.60" style="fill:rgb(255,255,0);stroke:rgb(0,0,0);stroke-width:0.50;"/>
<ellipse cx="678.2882135950681" cy="766.2594958470584" rx="5.60" ry="5.60" style="fill:rgb(255,255,0);stroke:rgb(0,0,0);stroke-width:0.50;"/>
<ellipse cx="571.060442559758" cy="267.6218975976823" rx="5.60" ry="5.60" style="fill:rgb(255,255,0);stroke:rgb(0,0,0);stroke-width:0.50;"/>
<ellipse cx="772.2902830150754" cy="337.93510642627416" rx="5.60" ry="5.60" style="fill:rgb(255,255,0);stroke:rgb(0,0,0);stroke-width:0.50;"/>
<ellipse cx="783.7932293324005" cy="712.0271669321962" rx="5.60" ry="5.60" style="fill:rgb(255,255,0);stroke:rgb(0,0,0);stroke-width:0.50;"/>
<ellipse cx="831.0256312032412" cy="577.9622489574382" rx="5.60" ry="5.60" style="fill:rgb(255,255,0);stroke:rgb(0,0,0);stroke-width:0.50;"/>
<ellipse cx="972.6652435500985" cy="511.330522334551" rx="5.60" ry="5.60" style="fill:rgb(255,255,0);stroke:rgb(0,0,0);stroke-width:0.50;"/>
<ellipse cx="827.6206025902821" cy="439.0863871502237" rx="5.60" ry="5.60" style="fill:rgb(255,255,0);stroke:rgb(0,0,0);stroke-width:0.50;"/>
<ellipse cx="917.1380016825848" cy="645.2524044635747" rx="5.60" ry="5.60" style="fill:rgb(255,255,0);stroke:rgb(0,0,0);stroke-width:0.50;"/>
<ellipse cx="746.7753546270661" cy="219.6238439330059" rx="5.60" ry="5.60" style="fill:rgb(255,255,0);stroke:rgb(0,0,0);stroke-width:0.50;"/>
<line x1="353.0223031544592" y1="523.7444507645704" x2="256.00418058240996" y2="508.532683081424" style="stroke:rgb(0,0,255);stroke-width:1"/>
<line x1="256.00418058240996" y1="508.532683081424" x2="353.0223031544592" y2="523.7444507645704" style="stroke:rgb(0,0,255);stroke-width:1"/>
<line x1="353.0223031544592" y1="523.7444507645704" x2="470.32760989464737" y2="491.0816814942641" style="stroke:rgb(0,0,255);stroke-width:1"/>
<line x1="470.32760989464737" y1="491.0816814942641" x2="353.0223031544592" y2="523.7444507645704" style="stroke:rgb(0,0,255);stroke-width:1"/>
<line x1="353.0223031544592" y1="523.7444507645704" x2="287.49834209168205" y2="359.3841925722273" style="stroke:rgb(0,0,255);stroke-width:1"/>
<line x1="287.49834209168205" y1="359.3841925722273" x2="353.0223031544592" y2="523.7444507645704" style="stroke:rgb(0,0,255);stroke-width:1"/>
<line x1="353.0223031544592" y1="523.7444507645704" x2="253.7678050125213" y2="758.0537728599832" style="stroke:rgb(0,0,255);stroke-width:1"/>
<line x1="253.7678050125213" y1="758.0537728599832" x2="353.0223031544592" y2="523.7444507645704" style="stroke:rgb(0,0,255);stroke-width:1"/>
<line x1="353.0223031544592" y1="523.7444507645704" x2="526.4415060568251" y2="720.557809257512" style="stroke:rgb(0,0,255);stroke-width:1"/>
<line x1="526.4415060568251" y1="720.557809257512" x2="353.0223031544592" y2="523.7444507645704" style="stroke:rgb(0,0,255);stroke-width:1"/>
<line x1="353.0223031544592" y1="523.7444507645704" x2="411.6075314960591" y2="672.7946053195822" style="stroke:rgb(0,0,255);stroke-width:1"/>
<line x1="411.6075314960591" y1="672.7946053195822" x2="353.0223031544592" y2="523.7444507645704" style="stroke:rgb(0,0,255);stroke-width:1"/>
<line x1="353.0223031544592" y1="523.7444507645704" x2="392.55927071489646" y2="389.4994716235334" style="stroke:rgb(0,0,255);stroke-width:1"/>
<line x1="392.55927071489646" y1="389.4994716235334" x2="353.0223031544592" y2="523.7444507645704" style="stroke:rgb(0,0,255);stroke-width:1"/>
<line x1="353.0223031544592" y1="523.7444507645704" x2="536.2610643723798" y2="399.81500513227206" style="stroke:rgb(0,0,255);stroke-width:1"/>
<line x1="536.2610643723798" y1="399.81500513227206" x2="353.0223031544592" y2="523.7444507645704" style="stroke:rgb(0,0,255);stroke-width:1"/>
<line x1="353.0223031544592" y1="523.7444507645704" x2="380.1224081751858" y2="826.9009272359843" style="stroke:rgb(0,0,255);stroke-width:1"/>
<line x1="380.1224081751858" y1="826.9009272359843" x2="353.0223031544592" y2="523.7444507645704" style="stroke:rgb(0,0,255);stroke-width:1"/>
<line x1="353.0223031544592" y1="523.7444507645704" x2="385.9570749376263" y2="195.10305969672982" style="stroke:rgb(0,0,255);stroke-width:1"/>
<line x1="385.9570749376263" y1="195.10305969672982" x2="353.0223031544592" y2="523.7444507645704" style="stroke:rgb(0,0,255);stroke-width:1"/>
<line x1="353.0223031544592" y1="523.7444507645704" x2="203.7846816196735" y2="258.9882668500301" style="stroke:rgb(0,0,255);stroke-width:1"/>
<line x1="203.7846816196735" y1="258.9882668500301" x2="353.0223031544592" y2="523.7444507645704" style="stroke:rgb(0,0,255);stroke-width:1"/>
<line x1="353.0223031544592" y1="523.7444507645704" x2="351.18535751583613" y2="435.1465880032682" style="stroke:rgb(0,0,255);stroke-width:1"/>
<line x1="351.18535751583613" y1="435.1465880032682" x2="353.0223031544592" y2="523.7444507645704" style="stroke:rgb(0,0,255);stroke-width:1"/>
<line x1="353.0223031544592" y1="523.7444507645704" x2="102.96983980851007" y2="439.3523701167976" style="stroke:rgb(0,0,255);stroke-width:1"/>
<line x1="102.96983980851007" y1="439.3523701167976" x2="353.0223031544592" y2="523.7444507645704" style="stroke:rgb(0,0,255);stroke-width:1"/>
<line x1="353.0223031544592" y1="523.7444507645704" x2="296.3290784891233" y2="617.3770381933297" style="stroke:rgb(0,0,255);stroke-width:1"/>
<line x1="296.3290784891233" y1="617.3770381933297" x2="353.0223031544592" y2="523.7444507645704" style="stroke:rgb(0,0,255);stroke-width:1"/>
<line x1="353.0223031544592" y1="523.7444507645704" x2="117.35587008911011" y2="586.9963041961464" style="stroke:rgb(0,0,255);stroke-width:1"/>
<line x1="117.35587008911011" y1="586.9963041961464" x2="353.0223031544592" y2="523.7444507645704" style="stroke:rgb(0,0,255);stroke-width:1"/>
<line x1="353.0223031544592" y1="523.7444507645704" x2="728.4876719957638" y2="468.6981365850369" style="stroke:rgb(0,0,255);stroke-width:1"/>
<line x1="728.4876719957638" y1="468.6981365850369" x2="353.0223031544592" y2="523.7444507645704" style="stroke:rgb(0,0,255);stroke-width:1"/>
<line x1="256.00418058240996" y1="508.532683081424" x2="470.32760989464737" y2="491.0816814942641" style="stroke:rgb(0,0,255);stroke-width:1"/>
<line x1="470.32760989464737" y1="491.0816814942641" x2="256.00418058240996" y2="508.532683081424" style="stroke:rgb(0,0,255);stroke-width:1"/>
<line x1="256.00418058240996" y1="508.532683081424" x2="287.49834209168205" y2="359.3841925722273" style="stroke:rgb(0,0,255);stroke-width:1"/>
<line x1="287.49834209168205" y1="359.3841925722273" x2="256.00418058240996" y2="508.532683081424" style="stroke:rgb(0,0,255);stroke-width:1"/>
<line x1="256.00418058240996" y1="508.532683081424" x2="392.55927071489646" y2="389.4994716235334" style="stroke:rgb(0,0,255);stroke-width:1"/>
<line x1="392.55927071489646" y1="389.4994716235334" x2="256.00418058240996" y2="508.532683081424" style="stroke:rgb(0,0,255);stroke-width:1"/>
<line x1="256.00418058240996" y1="508.532683081424" x2="351.18535751583613" y2="435.1465880032682" style="stroke:rgb(0,0,255);stroke-width:1"/>
<line x1="351.18535751583613" y1="435.1465880032682" x2="256.00418058240996" y2="508.532683081424" style="stroke:rgb(0,0,255);stroke-width:1"/>
<line x1="256.00418058240996" y1="508.532683081424" x2="102.96983980851007" y2="439.3523701167976" style="stroke:rgb(0,0,255);stroke-width:1"/>
<line x1="102.96983980851007" y1="439.3523701167976" x2="256.00418058240996" y2="508.532683081424" style="stroke:rgb(0,0,255);stroke-width:1"/>
<line x1="256.00418058240996" y1="508.532683081424" x2="296.3290784891233" y2="617.3770381933297" style="stroke:rgb(0,0,255);stroke-width:1"/>
<line x1="296.3290784891233" y1="617.3770381933297" x2="256.00418058240996" y2="508.532683081424" style="stroke:rgb(0,0,255);stroke-width:1"/>
<line x1="256.00418058240996" y1="508.532683081424" x2="117.35587008911011" y2="586.9963041961464" style="stroke:rgb(0,0,255);stroke-width:1"/>
<line x1="117.35587008911011" y1="586.9963041961464" x2="256.00418058240996" y2="508.532683081424" style="stroke:rgb(0,0,255);stroke-width:1"/>
<line x1="256.00418058240996" y1="508.532683081424" x2="504.23118590863464" y2="584.0637926159114" style="stroke:rgb(0,0,255);stroke-width:1"/>
<line x1="504.23118590863464" y1="584.0637926159114" x2="256.00418058240996" y2="508.532683081424" style="stroke:rgb(0,0,255);stroke-width:1"/>
<line x1="470.32760989464737" y1="491.0816814942641" x2="287.49834209168205" y2="359.3841925722273" style="stroke:rgb(0,0,255);stroke-width:1"/>
<line x1="287.49834209168205" y1="359.3841925722273" x2="470.32760989464737" y2="491.0816814942641" style="stroke:rgb(0,0,255);stroke-width:1"/>
<line x1="470.32760989464737" y1="491.0816814942641" x2="392.55927071489646" y2="389.4994716235334" style="stroke:rgb(0,0,255);stroke-width:1"/>
<line x1="392.55927071489646" y1="389.4994716235334" x2="470.32760989464737" y2="491.0816814942641" style="stroke:rgb(0,0,255);stroke-width:1"/>
<line x1="470.32760989464737" y1="491.0816814942641" x2="536.2610643723798" y2="399.81500513227206" style="stroke:rgb(0,0,255);stroke-width:1"/>
<line x1="536.2610643723798" y1="399.81500513227206" x2="470.32760989464737" y2="491.0816814942641" style="stroke:rgb(0,0,255);stroke-width:1"/>
<line x1="470.32760989464737" y1="491.0816814942641" x2="467.34708768243536" y2="736.1766897180552" style="stroke:rgb(0,0,255);stroke-width:1"/>
<line x1="467.34708768243536" y1="736.1766897180552" x2="470.32760989464737" y2="491.0816814942641" style="stroke:rgb(0,0,255);stroke-width:1"/>
<line x1="470.32760989464737" y1="491.0816814942641" x2="351.18535751583613" y2="435.1465880032682" style="stroke:rgb(0,0,255);stroke-width:1"/>
<line x1="351.18535751583613" y1="435.1465880032682" x2="470.32760989464737" y2="491.0816814942641" style="stroke:rgb(0,0,255);stroke-width:1"/>
<line x1="470.32760989464737" y1="491.0816814942641" x2="697.9739540098194" y2="646.7519305559707" style="stroke:rgb(0,0,255);stroke-width:1"/>
<line x1="697.9739540098194" y1="646.7519305559707" x2="470.32760989464737" y2="491.0816814942641" style="stroke:rgb(0,0,255);stroke-width:1"/>
<line x1="470.32760989464737" y1="491.0816814942641" x2="634.0556175240298" y2="306.6369845820538" style="stroke:rgb(0,0,255);stroke-width:1"/>
<line x1="634.0556175240298" y1="306.6369845820538" x2="470.32760989464737" y2="491.0816814942641" style="stroke:rgb(0,0,255);stroke-width:1"/>
<line x1="470.32760989464737" y1="491.0816814942641" x2="702.6323540269731" y2="522.2003691498" style="stroke:rgb(0,0,255);stroke-width:1"/>
<line x1="702.6323540269731" y1="522.2003691498" x2="470.32760989464737" y2="491.0816814942641" style="stroke:rgb(0,0,255);stroke-width:1"/>
<line x1="287.49834209168205" y1="359.3841925722273" x2="392.55927071489646" y2="389.4994716235334" style="stroke:rgb(0,0,255);stroke-width:1"/>
<line x1="392.55927071489646" y1="389.4994716235334" x2="287.49834209168205" y2="359.3841925722273" style="stroke:rgb(0,0,255);stroke-width:1"/>
<line x1="287.49834209168205" y1="359.3841925722273" x2="203.7846816196735" y2="258.9882668500301" style="stroke:rgb(0,0,255);stroke-width:1"/>
<line x1="203.7846816196735" y1="258.9882668500301" x2="287.49834209168205" y2="359.3841925722273" style="stroke:rgb(0,0,255);stroke-width:1"/>
<line x1="287.49834209168205" y1="359.3841925722273" x2="351.18535751583613" y2="435.1465880032682" style="stroke:rgb(0,0,255);stroke-width:1"/>
<line x1="351.18535751583613" y1="435.1465880032682" x2="287.49834209168205" y2="359.3841925722273" style="stroke:rgb(0,0,255);stroke-width:1"/>
<line x1="253.7678050125213" y1="758.0537728599832" x2="411.6075314960591" y2="672.7946053195822" style="stroke:rgb(0,0,255);stroke-width:1"/>
<line x1="411.6075314960591" y1="672.7946053195822" x2="253.7678050125213" y2="758.0537728599832" style="stroke:rgb(0,0,255);stroke-width:1"/>
<line x1="253.7678050125213" y1="758.0537728599832" x2="380.1224081751858" y2="826.9009272359843" style="stroke:rgb(0,0,255);stroke-width:1"/>
<line x1="380.1224081751858" y1="826.9009272359843" x2="253.7678050125213" y2="758.0537728599832" style="stroke:rgb(0,0,255);stroke-width:1"/>
<line x1="526.4415060568251" y1="720.557809257512" x2="411.6075314960591" y2="672.7946053195822" style="stroke:rgb(0,0,255);stroke-width:1"/>
<line x1="411.6075314960591" y1="672.7946053195822" x2="526.4415060568251" y2="720.557809257512" style="stroke:rgb(0,0,255);stroke-width:1"/>
<line x1="526.4415060568251" y1="720.557809257512" x2="380.1224081751858" y2="826.9009272359843" style="stroke:rgb(0,0,255);stroke-width:1"/>
<line x1="380.1224081751858" y1="826.9009272359843" x2="526.4415060568251" y2="720.557809257512" style="stroke:rgb(0,0,255);stroke-width:1"/>
<line x1="526.4415060568251" y1="720.557809257512" x2="554.4151376165399" y2="507.81431016988745" style="stroke:rgb(0,0,255);stroke-width:1"/>
<line x1="554.4151376165399" y1="507.81431016988745" x2="526.4415060568251" y2="720.557809257512" style="stroke:rgb(0,0,255);stroke-width:1"/>
<line x1="411.6075314960591" y1="672.7946053195822" x2="554.4151376165399" y2="507.81431016988745" style="stroke:rgb(0,0,255);stroke-width:1"/>
<line x1="554.4151376165399" y1="507.81431016988745" x2="411.6075314960591" y2="672.7946053195822" style="stroke:rgb(0,0,255);stroke-width:1"/>
<line x1="536.2610643723798" y1="399.81500513227206" x2="504.23118590863464" y2="584.0637926159114" style="stroke:rgb(0,0,255);stroke-width:1"/>
<line x1="504.23118590863464" y1="584.0637926159114" x2="536.2610643723798" y2="399.81500513227206" style="stroke:rgb(0,0,255);stroke-width:1"/>
<line x1="536.2610643723798" y1="399.81500513227206" x2="702.6323540269731" y2="522.2003691498" style="stroke:rgb(0,0,255);stroke-width:1"/>
<line x1="702.6323540269731" y1="522.2003691498" x2="536.2610643723798" y2="399.81500513227206" style="stroke:rgb(0,0,255);stroke-width:1"/>
<line x1="536.2610643723798" y1="399.81500513227206" x2="631.5601113408818" y2="499.68828737547824" style="stroke:rgb(0,0,255);stroke-width:1"/>
<line x1="631.5601113408818" y1="499.68828737547824" x2="536.2610643723798" y2="399.81500513227206" style="stroke:rgb(0,0,255);stroke-width:1"/>
<line x1="467.34708768243536" y1="736.1766897180552" x2="631.5601113408818" y2="499.68828737547824" style="stroke:rgb(0,0,255);stroke-width:1"/>
<line x1="631.5601113408818" y1="499.68828737547824" x2="467.34708768243536" y2="736.1766897180552" style="stroke:rgb(0,0,255);stroke-width:1"/>
<line x1="351.18535751583613" y1="435.1465880032682" x2="631.5601113408818" y2="499.68828737547824" style="stroke:rgb(0,0,255);stroke-width:1"/>
<line x1="631.5601113408818" y1="499.68828737547824" x2="351.18535751583613" y2="435.1465880032682" style="stroke:rgb(0,0,255);stroke-width:1"/>
<line x1="875.2991336888128" y1="354.88718040694005" x2="702.6323540269731" y2="522.2003691498" style="stroke:rgb(0,0,255);stroke-width:1"/>
<line x1="702.6323540269731" y1="522.2003691498" x2="875.2991336888128" y2="354.88718040694005" style="stroke:rgb(0,0,255);stroke-width:1"/>
<line x1="875.2991336888128" y1="354.88718040694005" x2="631.5601113408818" y2="499.68828737547824" style="stroke:rgb(0,0,255);stroke-width:1"/>
<line x1="631.5601113408818" y1="499.68828737547824" x2="875.2991336888128" y2="354.88718040694005" style="stroke:rgb(0,0,255);stroke-width:1"/>
<line x1="678.2882135950681" y1="766.2594958470584" x2="702.6323540269731" y2="522.2003691498" style="stroke:rgb(0,0,255);stroke-width:1"/>
<line x1="702.6323540269731" y1="522.2003691498" x2="678.2882135950681" y2="766.2594958470584" style="stroke:rgb(0,0,255);stroke-width:1"/>
<line x1="678.2882135950681" y1="766.2594958470584" x2="631.5601113408818" y2="499.68828737547824" style="stroke:rgb(0,0,255);stroke-width:1"/>
<line x1="631.5601113408818" y1="499.68828737547824" x2="678.2882135950681" y2="766.2594958470584" style="stroke:rgb(0,0,255);stroke-width:1"/>
<line x1="571.060442559758" y1="267.6218975976823" x2="702.6323540269731" y2="522.2003691498" style="stroke:rgb(0,0,255);stroke-width:1"/>
<line x1="702.6323540269731" y1="522.2003691498" x2="571.060442559758" y2="267.6218975976823" style="stroke:rgb(0,0,255);stroke-width:1"/>
<line x1="571.060442559758" y1="267.6218975976823" x2="631.5601113408818" y2="499.68828737547824" style="stroke:rgb(0,0,255);stroke-width:1"/>
<line x1="631.5601113408818" y1="499.68828737547824" x2="571.060442559758" y2="267.6218975976823" style="stroke:rgb(0,0,255);stroke-width:1"/>
<line x1="296.3290784891233" y1="617.3770381933297" x2="631.5601113408818" y2="499.68828737547824" style="stroke:rgb(0,0,255);stroke-width:1"/>
<line x1="631.5601113408818" y1="499.68828737547824" x2="296.3290784891233" y2="617.3770381933297" style="stroke:rgb(0,0,255);stroke-width:1"/>
<line x1="772.2902830150754" y1="337.93510642627416" x2="702.6323540269731" y2="522.2003691498" style="stroke:rgb(0,0,255);stroke-width:1"/>
<line x1="702.6323540269731" y1="522.2003691498" x2="772.2902830150754" y2="337.93510642627416" style="stroke:rgb(0,0,255);stroke-width:1"/>
<line x1="772.2902830150754" y1="337.93510642627416" x2="631.5601113408818" y2="499.68828737547824" style="stroke:rgb(0,0,255);stroke-width:1"/>
<line x1="631.5601113408818" y1="499.68828737547824" x2="772.2902830150754" y2="337.93510642627416" style="stroke:rgb(0,0,255);stroke-width:1"/>
<line x1="783.7932293324005" y1="712.0271669321962" x2="702.6323540269731" y2="522.2003691498" style="stroke:rgb(0,0,255);stroke-width:1"/>
<line x1="702.6323540269731" y1="522.2003691498" x2="783.7932293324005" y2="712.0271669321962" style="stroke:rgb(0,0,255);stroke-width:1"/>
<line x1="783.7932293324005" y1="712.0271669321962" x2="631.5601113408818" y2="499.68828737547824" style="stroke:rgb(0,0,255);stroke-width:1"/>
<line x1="631.5601113408818" y1="499.68828737547824" x2="783.7932293324005" y2="712.0271669321962" style="stroke:rgb(0,0,255);stroke-width:1"/>
<line x1="831.0256312032412" y1="577.9622489574382" x2="972.6652435500985" y2="511.330522334551" style="stroke:rgb(0,0,255);stroke-width:1"/>
<line x1="972.6652435500985" y1="511.330522334551" x2="831.0256312032412" y2="577.9622489574382" style="stroke:rgb(0,0,255);stroke-width:1"/>
<line x1="831.0256312032412" y1="577.9622489574382" x2="697.9739540098194" y2="646.7519305559707" style="stroke:rgb(0,0,255);stroke-width:1"/>
<line x1="697.9739540098194" y1="646.7519305559707" x2="831.0256312032412" y2="577.9622489574382" style="stroke:rgb(0,0,255);stroke-width:1"/>
<line x1="831.0256312032412" y1="577.9622489574382" x2="827.6206025902821" y2="439.0863871502237" style="stroke:rgb(0,0,255);stroke-width:1"/>
<line x1="827.6206025902821" y1="439.0863871502237" x2="831.0256312032412" y2="577.9622489574382" style="stroke:rgb(0,0,255);stroke-width:1"/>
<line x1="831.0256312032412" y1="577.9622489574382" x2="702.6323540269731" y2="522.2003691498" style="stroke:rgb(0,0,255);stroke-width:1"/>
<line x1="702.6323540269731" y1="522.2003691498" x2="831.0256312032412" y2="577.9622489574382" style="stroke:rgb(0,0,255);stroke-width:1"/>
<line x1="831.0256312032412" y1="577.9622489574382" x2="631.5601113408818" y2="499.68828737547824" style="stroke:rgb(0,0,255);stroke-width:1"/>
<line x1="631.5601113408818" y1="499.68828737547824" x2="831.0256312032412" y2="577.9622489574382" style="stroke:rgb(0,0,255);stroke-width:1"/>
<line x1="917.1380016825848" y1="645.2524044635747" x2="972.6652435500985" y2="511.330522334551" style="stroke:rgb(0,0,255);stroke-width:1"/>
<line x1="972.6652435500985" y1="511.330522334551" x2="917.1380016825848" y2="645.2524044635747" style="stroke:rgb(0,0,255);stroke-width:1"/>
<line x1="917.1380016825848" y1="645.2524044635747" x2="697.9739540098194" y2="646.7519305559707" style="stroke:rgb(0,0,255);stroke-width:1"/>
<line x1="697.9739540098194" y1="646.7519305559707" x2="917.1380016825848" y2="645.2524044635747" style="stroke:rgb(0,0,255);stroke-width:1"/>
<line x1="917.1380016825848" y1="645.2524044635747" x2="728.4876719957638" y2="468.6981365850369" style="stroke:rgb(0,0,255);stroke-width:1"/>
<line x1="728.4876719957638" y1="468.6981365850369" x2="917.1380016825848" y2="645.2524044635747" style="stroke:rgb(0,0,255);stroke-width:1"/>
<line x1="972.6652435500985" y1="511.330522334551" x2="728.4876719957638" y2="468.6981365850369" style="stroke:rgb(0,0,255);stroke-width:1"/>
<line x1="728.4876719957638" y1="468.6981365850369" x2="972.6652435500985" y2="511.330522334551" style="stroke:rgb(0,0,255);stroke-width:1"/>
<line x1="746.7753546270661" y1="219.6238439330059" x2="827.6206025902821" y2="439.0863871502237" style="stroke:rgb(0,0,255);stroke-width:1"/>
<line x1="827.6206025902821" y1="439.0863871502237" x2="746.7753546270661" y2="219.6238439330059" style="stroke:rgb(0,0,255);stroke-width:1"/>
<line x1="746.7753546270661" y1="219.6238439330059" x2="631.5601113408818" y2="499.68828737547824" style="stroke:rgb(0,0,255);stroke-width:1"/>
<line x1="631.5601113408818" y1="499.68828737547824" x2="746.7753546270661" y2="219.6238439330059" style="stroke:rgb(0,0,255);stroke-width:1"/>
<line x1="697.9739540098194" y1="646.7519305559707" x2="631.5601113408818" y2="499.68828737547824" style="stroke:rgb(0,0,255);stroke-width:1"/>
<line x1="631.5601113408818" y1="499.68828737547824" x2="697.9739540098194" y2="646.7519305559707" style="stroke:rgb(0,0,255);stroke-width:1"/>
<line x1="634.0556175240298" y1="306.6369845820538" x2="728.4876719957638" y2="468.6981365850369" style="stroke:rgb(0,0,255);stroke-width:1"/>
<line x1="728.4876719957638" y1="468.6981365850369" x2="634.0556175240298" y2="306.6369845820538" style="stroke:rgb(0,0,255);stroke-width:1"/>
<line x1="634.0556175240298" y1="306.6369845820538" x2="631.5601113408818" y2="499.68828737547824" style="stroke:rgb(0,0,255);stroke-width:1"/>
<line x1="631.5601113408818" y1="499.68828737547824" x2="634.0556175240298" y2="306.6369845820538" style="stroke:rgb(0,0,255);stroke-width:1"/>
<line x1="827.6206025902821" y1="439.0863871502237" x2="702.6323540269731" y2="522.2003691498" style="stroke:rgb(0,0,255);stroke-width:1"/>
<line x1="702.6323540269731" y1="522.2003691498" x2="827.6206025902821" y2="439.0863871502237" style="stroke:rgb(0,0,255);stroke-width:1"/>
<line x1="827.6206025902821" y1="439.0863871502237" x2="631.5601113408818" y2="499.68828737547824" style="stroke:rgb(0,0,255);stroke-width:1"/>
<line x1="631.5601113408818" y1="499.68828737547824" x2="827.6206025902821" y2="439.0863871502237" style="stroke:rgb(0,0,255);stroke-width:1"/>
<line x1="504.23118590863464" y1="584.0637926159114" x2="702.6323540269731" y2="522.2003691498" style="stroke:rgb(0,0,255);stroke-width:1"/>
<line x1="702.6323540269731" y1="522.2003691498" x2="504.23118590863464" y2="584.0637926159114" style="stroke:rgb(0,0,255);stroke-width:1"/>
<line x1="504.23118590863464" y1="584.0637926159114" x2="631.5601113408818" y2="499.68828737547824" style="stroke:rgb(0,0,255);stroke-width:1"/>
<line x1="631.5601113408818" y1="499.68828737547824" x2="504.23118590863464" y2="584.0637926159114" style="stroke:rgb(0,0,255);stroke-width:1"/>
<line x1="728.4876719957638" y1="468.6981365850369" x2="702.6323540269731" y2="522.2003691498" style="stroke:rgb(0,0,255);stroke-width:1"/>
<line x1="702.6323540269731" y1="522.2003691498" x2="728.4876719957638" y2="468.6981365850369" style="stroke:rgb(0,0,255);stroke-width:1"/>
<line x1="728.4876719957638" y1="468.6981365850369" x2="631.5601113408818" y2="499.68828737547824" style="stroke:rgb(0,0,255);stroke-width:1"/>
<line x1="631.5601113408818" y1="499.68828737547824" x2="728.4876719957638" y2="468.6981365850369" style="stroke:rgb(0,0,255);stroke-width:1"/>
<line x1="702.6323540269731" y1="522.2003691498" x2="631.5601113408818" y2="499.68828737547824" style="stroke:rgb(0,0,255);stroke-width:1"/>
<line x1="631.5601113408818" y1="499.68828737547824" x2="702.6323540269731" y2="522.2003691498" style="stroke:rgb(0,0,255);stroke-width:1"/>
</svg>
