<svg xmlns="http://www.w3.org/2000/svg" version="1.1" xmlns:xllink="http://www.w3.org/1999/xlink" width="1000" height="1000">
<ellipse cx="585.0223031544592" cy="532.7444507645704" rx="5.60" ry="5.60" style="fill:rgb(255,255,0);stroke:rgb(0,0,0);stroke-width:0.50;"/>
<ellipse cx="521.00418058241" cy="493.53268308142395" rx="5.60" ry="5.60" style="fill:rgb(255,255,0);stroke:rgb(0,0,0);stroke-width:0.50;"/>
<ellipse cx="569.3276098946474" cy="524.0816814942641" rx="5.60" ry="5.60" style="fill:rgb(255,255,0);stroke:rgb(0,0,0);stroke-width:0.50;"/>
<ellipse cx="514.498342091682" cy="465.3841925722273" rx="5.60" ry="5.60" style="fill:rgb(255,255,0);stroke:rgb(0,0,0);stroke-width:0.50;"/>
<ellipse cx="519.7678050125213" cy="479.05377285998316" rx="5.60" ry="5.60" style="fill:rgb(255,255,0);stroke:rgb(0,0,0);stroke-width:0.50;"/>
<ellipse cx="587.4415060568251" cy="487.557809257512" rx="5.60" ry="5.60" style="fill:rgb(255,255,0);stroke:rgb(0,0,0);stroke-width:0.50;"/>
<ellipse cx="587.6075314960591" cy="525.7946053195822" rx="5.60" ry="5.60" style="fill:rgb(255,255,0);stroke:rgb(0,0,0);stroke-width:0.50;"/>
<ellipse cx="580.5592707148965" cy="517.4994716235334" rx="5.60" ry="5.60" style="fill:rgb(255,255,0);stroke:rgb(0,0,0);stroke-width:0.50;"/>
<ellipse cx="532.2610643723798" cy="480.81500513227206" rx="5.60" ry="5.60" style="fill:rgb(255,255,0);stroke:rgb(0,0,0);stroke-width:0.50;"/>
<ellipse cx="560.1224081751858" cy="529.9009272359843" rx="5.60" ry="5.60" style="fill:rgb(255,255,0);stroke:rgb(0,0,0);stroke-width:0.50;"/>
<ellipse cx="565.9570749376263" cy="468.1030596967298" rx="5.60" ry="5.60" style="fill:rgb(255,255,0);stroke:rgb(0,0,0);stroke-width:0.50;"/>
<ellipse cx="551.7846816196735" cy="479.9882668500301" rx="5.60" ry="5.60" style="fill:rgb(255,255,0);stroke:rgb(0,0,0);stroke-width:0.50;"/>
<ellipse cx="523.1853575158361" cy="516.1465880032682" rx="5.60" ry="5.60" style="fill:rgb(255,255,0);stroke:rgb(0,0,0);stroke-width:0.50;"/>
<ellipse cx="522.9698398085101" cy="472.3523701167976" rx="5.60" ry="5.60" style="fill:rgb(255,255,0);stroke:rgb(0,0,0);stroke-width:0.50;"/>
<ellipse cx="521.3290784891233" cy="530.3770381933297" rx="5.60" ry="5.60" style="fill:rgb(255,255,0);stroke:rgb(0,0,0);stroke-width:0.50;"/>
<ellipse cx="513.3558700891101" cy="518.9963041961464" rx="5.60" ry="5.60" style="fill:rgb(255,255,0);stroke:rgb(0,0,0);stroke-width:0.50;"/>
<ellipse cx="566.4876719957638" cy="478.6981365850369" rx="5.60" ry="5.60" style="fill:rgb(255,255,0);stroke:rgb(0,0,0);stroke-width:0.50;"/>
<ellipse cx="516.2311859086346" cy="527.0637926159114" rx="5.60" ry="5.60" style="fill:rgb(255,255,0);stroke:rgb(0,0,0);stroke-width:0.50;"/>
<ellipse cx="519.3470876824354" cy="533.1766897180552" rx="5.60" ry="5.60" style="fill:rgb(255,255,0);stroke:rgb(0,0,0);stroke-width:0.50;"/>
<ellipse cx="589.9739540098194" cy="478.7519305559707" rx="5.60" ry="5.60" style="fill:rgb(255,255,0);stroke:rgb(0,0,0);stroke-width:0.50;"/>
<ellipse cx="510.0556175240298" cy="471.6369845820538" rx="5.60" ry="5.60" style="fill:rgb(255,255,0);stroke:rgb(0,0,0);stroke-width:0.50;"/>
<ellipse cx="520.6323540269731" cy="525.2003691498" rx="5.60" ry="5.60" style="fill:rgb(255,255,0);stroke:rgb(0,0,0);stroke-width:0.50;"/>
<ellipse cx="510.41513761653994" cy="480.81431016988745" rx="5.60" ry="5.60" style="fill:rgb(255,255,0);stroke:rgb(0,0,0);stroke-width:0.50;"/>
<ellipse cx="539.5601113408818" cy="472.6882873754782" rx="5.60" ry="5.60" style="fill:rgb(255,255,0);stroke:rgb(0,0,0);stroke-width:0.50;"/>
<ellipse cx="576.2991336888128" cy="477.88718040694005" rx="5.60" ry="5.60" style="fill:rgb(255,255,0);stroke:rgb(0,0,0);stroke-width:0.50;"/>
<ellipse cx="548.2882135950681" cy="523.2594958470584" rx="5.60" ry="5.60" style="fill:rgb(255,255,0);stroke:rgb(0,0,0);stroke-width:0.50;"/>
<ellipse cx="519.060442559758" cy="501.6218975976823" rx="5.60" ry="5.60" style="fill:rgb(255,255,0);stroke:rgb(0,0,0);stroke-width:0.50;"/>
<ellipse cx="576.2902830150754" cy="466.93510642627416" rx="5.60" ry="5.60" style="fill:rgb(255,255,0);stroke:rgb(0,0,0);stroke-width:0.50;"/>
<ellipse cx="579.7932293324005" cy="528.0271669321962" rx="5.60" ry="5.60" style="fill:rgb(255,255,0);stroke:rgb(0,0,0);stroke-width:0.50;"/>
<ellipse cx="588.0256312032412" cy="468.9622489574382" rx="5.60" ry="5.60" style="fill:rgb(255,255,0);stroke:rgb(0,0,0);stroke-width:0.50;"/>
<ellipse cx="584.6652435500985" cy="506.33052233455095" rx="5.60" ry="5.60" style="fill:rgb(255,255,0);stroke:rgb(0,0,0);stroke-width:0.50;"/>
<ellipse cx="535.6206025902821" cy="533.0863871502237" rx="5.60" ry="5.60" style="fill:rgb(255,255,0);stroke:rgb(0,0,0);stroke-width:0.50;"/>
<ellipse cx="573.1380016825848" cy="533.2524044635747" rx="5.60" ry="5.60" style="fill:rgb(255,255,0);stroke:rgb(0,0,0);stroke-width:0.50;"/>
<ellipse cx="554.7753546270661" cy="480.6238439330059" rx="5.60" ry="5.60" style="fill:rgb(255,255,0);stroke:rgb(0,0,0);stroke-width:0.50;"/>
<line x1="585.0223031544592" y1="532.7444507645704" x2="521.00418058241" y2="493.53268308142395" style="stroke:rgb(0,0,255);stroke-width:1"/>
<line x1="521.00418058241" y1="493.53268308142395" x2="585.0223031544592" y2="532.7444507645704" style="stroke:rgb(0,0,255);stroke-width:1"/>
<line x1="585.0223031544592" y1="532.7444507645704" x2="569.3276098946474" y2="524.0816814942641" style="stroke:rgb(0,0,255);stroke-width:1"/>
<line x1="569.3276098946474" y1="524.0816814942641" x2="585.0223031544592" y2="532.7444507645704" style="stroke:rgb(0,0,255);stroke-width:1"/>
<line x1="585.0223031544592" y1="532.7444507645704" x2="514.498342091682" y2="465.3841925722273" style="stroke:rgb(0,0,255);stroke-width:1"/>
<line x1="514.498342091682" y1="465.3841925722273" x2="585.0223031544592" y2="532.7444507645704" style="stroke:rgb(0,0,255);stroke-width:1"/>
<line x1="585.0223031544592" y1="532.7444507645704" x2="519.7678050125213" y2="479.05377285998316" style="stroke:rgb(0,0,255);stroke-width:1"/>
<line x1="519.7678050125213" y1="479.05377285998316" x2="585.0223031544592" y2="532.7444507645704" style="stroke:rgb(0,0,255);stroke-width:1"/>
<line x1="585.0223031544592" y1="532.7444507645704" x2="587.4415060568251" y2="487.557809257512" style="stroke:rgb(0,0,255);stroke-width:1"/>
<line x1="587.4415060568251" y1="487.557809257512" x2="585.0223031544592" y2="532.7444507645704" style="stroke:rgb(0,0,255);stroke-width:1"/>
<line x1="585.0223031544592" y1="532.7444507645704" x2="587.6075314960591" y2="525.7946053195822" style="stroke:rgb(0,0,255);stroke-width:1"/>
<line x1="587.6075314960591" y1="525.7946053195822" x2="585.0223031544592" y2="532.7444507645704" style="stroke:rgb(0,0,255);stroke-width:1"/>
<line x1="585.0223031544592" y1="532.7444507645704" x2="580.5592707148965" y2="517.4994716235334" style="stroke:rgb(0,0,255);stroke-width:1"/>
<line x1="580.5592707148965" y1="517.4994716235334" x2="585.0223031544592" y2="532.7444507645704" style="stroke:rgb(0,0,255);stroke-width:1"/>
<line x1="585.0223031544592" y1="532.7444507645704" x2="532.2610643723798" y2="480.81500513227206" style="stroke:rgb(0,0,255);stroke-width:1"/>
<line x1="532.2610643723798" y1="480.81500513227206" x2="585.0223031544592" y2="532.7444507645704" style="stroke:rgb(0,0,255);stroke-width:1"/>
<line x1="585.0223031544592" y1="532.7444507645704" x2="560.1224081751858" y2="529.9009272359843" style="stroke:rgb(0,0,255);stroke-width:1"/>
<line x1="560.1224081751858" y1="529.9009272359843" x2="585.0223031544592" y2="532.7444507645704" style="stroke:rgb(0,0,255);stroke-width:1"/>
<line x1="585.0223031544592" y1="532.7444507645704" x2="565.9570749376263" y2="468.1030596967298" style="stroke:rgb(0,0,255);stroke-width:1"/>
<line x1="565.9570749376263" y1="468.1030596967298" x2="585.0223031544592" y2="532.7444507645704" style="stroke:rgb(0,0,255);stroke-width:1"/>
<line x1="585.0223031544592" y1="532.7444507645704" x2="551.7846816196735" y2="479.9882668500301" style="stroke:rgb(0,0,255);stroke-width:1"/>
<line x1="551.7846816196735" y1="479.9882668500301" x2="585.0223031544592" y2="532.7444507645704" style="stroke:rgb(0,0,255);stroke-width:1"/>
<line x1="585.0223031544592" y1="532.7444507645704" x2="523.1853575158361" y2="516.1465880032682" style="stroke:rgb(0,0,255);stroke-width:1"/>
<line x1="523.1853575158361" y1="516.1465880032682" x2="585.0223031544592" y2="532.7444507645704" style="stroke:rgb(0,0,255);stroke-width:1"/>
<line x1="585.0223031544592" y1="532.7444507645704" x2="522.9698398085101" y2="472.3523701167976" style="stroke:rgb(0,0,255);stroke-width:1"/>
<line x1="522.9698398085101" y1="472.3523701167976" x2="585.0223031544592" y2="532.7444507645704" style="stroke:rgb(0,0,255);stroke-width:1"/>
<line x1="585.0223031544592" y1="532.7444507645704" x2="521.3290784891233" y2="530.3770381933297" style="stroke:rgb(0,0,255);stroke-width:1"/>
<line x1="521.3290784891233" y1="530.3770381933297" x2="585.0223031544592" y2="532.7444507645704" style="stroke:rgb(0,0,255);stroke-width:1"/>
<line x1="585.0223031544592" y1="532.7444507645704" x2="513.3558700891101" y2="518.9963041961464" style="stroke:rgb(0,0,255);stroke-width:1"/>
<line x1="513.3558700891101" y1="518.9963041961464" x2="585.0223031544592" y2="532.7444507645704" style="stroke:rgb(0,0,255);stroke-width:1"/>
<line x1="585.0223031544592" y1="532.7444507645704" x2="566.4876719957638" y2="478.6981365850369" style="stroke:rgb(0,0,255);stroke-width:1"/>
<line x1="566.4876719957638" y1="478.6981365850369" x2="585.0223031544592" y2="532.7444507645704" style="stroke:rgb(0,0,255);stroke-width:1"/>
<line x1="521.00418058241" y1="493.53268308142395" x2="569.3276098946474" y2="524.0816814942641" style="stroke:rgb(0,0,255);stroke-width:1"/>
<line x1="569.3276098946474" y1="524.0816814942641" x2="521.00418058241" y2="493.53268308142395" style="stroke:rgb(0,0,255);stroke-width:1"/>
<line x1="521.00418058241" y1="493.53268308142395" x2="514.498342091682" y2="465.3841925722273" style="stroke:rgb(0,0,255);stroke-width:1"/>
<line x1="514.498342091682" y1="465.3841925722273" x2="521.00418058241" y2="493.53268308142395" style="stroke:rgb(0,0,255);stroke-width:1"/>
<line x1="521.00418058241" y1="493.53268308142395" x2="580.5592707148965" y2="517.4994716235334" style="stroke:rgb(0,0,255);stroke-width:1"/>
<line x1="580.5592707148965" y1="517.4994716235334" x2="521.00418058241" y2="493.53268308142395" style="stroke:rgb(0,0,255);stroke-width:1"/>
<line x1="521.00418058241" y1="493.53268308142395" x2="523.1853575158361" y2="516.1465880032682" style="stroke:rgb(0,0,255);stroke-width:1"/>
<line x1="523.1853575158361" y1="516.1465880032682" x2="521.00418058241" y2="493.53268308142395" style="stroke:rgb(0,0,255);stroke-width:1"/>
<line x1="521.00418058241" y1="493.53268308142395" x2="522.9698398085101" y2="472.3523701167976" style="stroke:rgb(0,0,255);stroke-width:1"/>
<line x1="522.9698398085101" y1="472.3523701167976" x2="521.00418058241" y2="493.53268308142395" style="stroke:rgb(0,0,255);stroke-width:1"/>
<line x1="521.00418058241" y1="493.53268308142395" x2="521.3290784891233" y2="530.3770381933297" style="stroke:rgb(0,0,255);stroke-width:1"/>
<line x1="521.3290784891233" y1="530.3770381933297" x2="521.00418058241" y2="493.53268308142395" style="stroke:rgb(0,0,255);stroke-width:1"/>
<line x1="521.00418058241" y1="493.53268308142395" x2="513.3558700891101" y2="518.9963041961464" style="stroke:rgb(0,0,255);stroke-width:1"/>
<line x1="513.3558700891101" y1="518.9963041961464" x2="521.00418058241" y2="493.53268308142395" style="stroke:rgb(0,0,255);stroke-width:1"/>
<line x1="521.00418058241" y1="493.53268308142395" x2="516.2311859086346" y2="527.0637926159114" style="stroke:rgb(0,0,255);stroke-width:1"/>
<line x1="516.2311859086346" y1="527.0637926159114" x2="521.00418058241" y2="493.53268308142395" style="stroke:rgb(0,0,255);stroke-width:1"/>
<line x1="569.3276098946474" y1="524.0816814942641" x2="514.498342091682" y2="465.3841925722273" style="stroke:rgb(0,0,255);stroke-width:1"/>
<line x1="514.498342091682" y1="465.3841925722273" x2="569.3276098946474" y2="524.0816814942641" style="stroke:rgb(0,0,255);stroke-width:1"/>
<line x1="569.3276098946474" y1="524.0816814942641" x2="580.5592707148965" y2="517.4994716235334" style="stroke:rgb(0,0,255);stroke-width:1"/>
<line x1="580.5592707148965" y1="517.4994716235334" x2="569.3276098946474" y2="524.0816814942641" style="stroke:rgb(0,0,255);stroke-width:1"/>
<line x1="569.3276098946474" y1="524.0816814942641" x2="532.2610643723798" y2="480.81500513227206" style="stroke:rgb(0,0,255);stroke-width:1"/>
<line x1="532.2610643723798" y1="480.81500513227206" x2="569.3276098946474" y2="524.0816814942641" style="stroke:rgb(0,0,255);stroke-width:1"/>
<line x1="569.3276098946474" y1="524.0816814942641" x2="519.3470876824354" y2="533.1766897180552" style="stroke:rgb(0,0,255);stroke-width:1"/>
<line x1="519.3470876824354" y1="533.1766897180552" x2="569.3276098946474" y2="524.0816814942641" style="stroke:rgb(0,0,255);stroke-width:1"/>
<line x1="569.3276098946474" y1="524.0816814942641" x2="523.1853575158361" y2="516.1465880032682" style="stroke:rgb(0,0,255);stroke-width:1"/>
<line x1="523.1853575158361" y1="516.1465880032682" x2="569.3276098946474" y2="524.0816814942641" style="stroke:rgb(0,0,255);stroke-width:1"/>
<line x1="569.3276098946474" y1="524.0816814942641" x2="589.9739540098194" y2="478.7519305559707" style="stroke:rgb(0,0,255);stroke-width:1"/>
<line x1="589.9739540098194" y1="478.7519305559707" x2="569.3276098946474" y2="524.0816814942641" style="stroke:rgb(0,0,255);stroke-width:1"/>
<line x1="569.3276098946474" y1="524.0816814942641" x2="510.0556175240298" y2="471.6369845820538" style="stroke:rgb(0,0,255);stroke-width:1"/>
<line x1="510.0556175240298" y1="471.6369845820538" x2="569.3276098946474" y2="524.0816814942641" style="stroke:rgb(0,0,255);stroke-width:1"/>
<line x1="569.3276098946474" y1="524.0816814942641" x2="520.6323540269731" y2="525.2003691498" style="stroke:rgb(0,0,255);stroke-width:1"/>
<line x1="520.6323540269731" y1="525.2003691498" x2="569.3276098946474" y2="524.0816814942641" style="stroke:rgb(0,0,255);stroke-width:1"/>
<line x1="514.498342091682" y1="465.3841925722273" x2="580.5592707148965" y2="517.4994716235334" style="stroke:rgb(0,0,255);stroke-width:1"/>
<line x1="580.5592707148965" y1="517.4994716235334" x2="514.498342091682" y2="465.3841925722273" style="stroke:rgb(0,0,255);stroke-width:1"/>
<line x1="514.498342091682" y1="465.3841925722273" x2="551.7846816196735" y2="479.9882668500301" style="stroke:rgb(0,0,255);stroke-width:1"/>
<line x1="551.7846816196735" y1="479.9882668500301" x2="514.498342091682" y2="465.3841925722273" style="stroke:rgb(0,0,255);stroke-width:1"/>
<line x1="514.498342091682" y1="465.3841925722273" x2="523.1853575158361" y2="516.1465880032682" style="stroke:rgb(0,0,255);stroke-width:1"/>
<line x1="523.1853575158361" y1="516.1465880032682" x2="514.498342091682" y2="465.3841925722273" style="stroke:rgb(0,0,255);stroke-width:1"/>
<line x1="519.7678050125213" y1="479.05377285998316" x2="587.6075314960591" y2="525.7946053195822" style="stroke:rgb(0,0,255);stroke-width:1"/>
<line x1="587.6075314960591" y1="525.7946053195822" x2="519.7678050125213" y2="479.05377285998316" style="stroke:rgb(0,0,255);stroke-width:1"/>
<line x1="519.7678050125213" y1="479.05377285998316" x2="560.1224081751858" y2="529.9009272359843" style="stroke:rgb(0,0,255);stroke-width:1"/>
<line x1="560.1224081751858" y1="529.9009272359843" x2="519.7678050125213" y2="479.05377285998316" style="stroke:rgb(0,0,255);stroke-width:1"/>
<line x1="587.4415060568251" y1="487.557809257512" x2="587.6075314960591" y2="525.7946053195822" style="stroke:rgb(0,0,255);stroke-width:1"/>
<line x1="587.6075314960591" y1="525.7946053195822" x2="587.4415060568251" y2="487.557809257512" style="stroke:rgb(0,0,255);stroke-width:1"/>
<line x1="587.4415060568251" y1="487.557809257512" x2="560.1224081751858" y2="529.9009272359843" style="stroke:rgb(0,0,255);stroke-width:1"/>
<line x1="560.1224081751858" y1="529.9009272359843" x2="587.4415060568251" y2="487.557809257512" style="stroke:rgb(0,0,255);stroke-width:1"/>
<line x1="587.4415060568251" y1="487.557809257512" x2="510.41513761653994" y2="480.81431016988745" style="stroke:rgb(0,0,255);stroke-width:1"/>
<line x1="510.41513761653994" y1="480.81431016988745" x2="587.4415060568251" y2="487.557809257512" style="stroke:rgb(0,0,255);stroke-width:1"/>
<line x1="587.6075314960591" y1="525.7946053195822" x2="510.41513761653994" y2="480.81431016988745" style="stroke:rgb(0,0,255);stroke-width:1"/>
<line x1="510.41513761653994" y1="480.81431016988745" x2="587.6075314960591" y2="525.7946053195822" style="stroke:rgb(0,0,255);stroke-width:1"/>
<line x1="532.2610643723798" y1="480.81500513227206" x2="516.2311859086346" y2="527.0637926159114" style="stroke:rgb(0,0,255);stroke-width:1"/>
<line x1="516.2311859086346" y1="527.0637926159114" x2="532.2610643723798" y2="480.81500513227206" style="stroke:rgb(0,0,255);stroke-width:1"/>
<line x1="532.2610643723798" y1="480.81500513227206" x2="520.6323540269731" y2="525.2003691498" style="stroke:rgb(0,0,255);stroke-width:1"/>
<line x1="520.6323540269731" y1="525.2003691498" x2="532.2610643723798" y2="480.81500513227206" style="stroke:rgb(0,0,255);stroke-width:1"/>
<line x1="532.2610643723798" y1="480.81500513227206" x2="539.5601113408818" y2="472.6882873754782" style="stroke:rgb(0,0,255);stroke-width:1"/>
<line x1="539.5601113408818" y1="472.6882873754782" x2="532.2610643723798" y2="480.81500513227206" style="stroke:rgb(0,0,255);stroke-width:1"/>
<line x1="519.3470876824354" y1="533.1766897180552" x2="539.5601113408818" y2="472.6882873754782" style="stroke:rgb(0,0,255);stroke-width:1"/>
<line x1="539.5601113408818" y1="472.6882873754782" x2="519.3470876824354" y2="533.1766897180552" style="stroke:rgb(0,0,255);stroke-width:1"/>
<line x1="523.1853575158361" y1="516.1465880032682" x2="539.5601113408818" y2="472.6882873754782" style="stroke:rgb(0,0,255);stroke-width:1"/>
<line x1="539.5601113408818" y1="472.6882873754782" x2="523.1853575158361" y2="516.1465880032682" style="stroke:rgb(0,0,255);stroke-width:1"/>
<line x1="576.2991336888128" y1="477.88718040694005" x2="520.6323540269731" y2="525.2003691498" style="stroke:rgb(0,0,255);stroke-width:1"/>
<line x1="520.6323540269731" y1="525.2003691498" x2="576.2991336888128" y2="477.88718040694005" style="stroke:rgb(0,0,255);stroke-width:1"/>
<line x1="576.2991336888128" y1="477.88718040694005" x2="539.5601113408818" y2="472.6882873754782" style="stroke:rgb(0,0,255);stroke-width:1"/>
<line x1="539.5601113408818" y1="472.6882873754782" x2="576.2991336888128" y2="477.88718040694005" style="stroke:rgb(0,0,255);stroke-width:1"/>
<line x1="548.2882135950681" y1="523.2594958470584" x2="520.6323540269731" y2="525.2003691498" style="stroke:rgb(0,0,255);stroke-width:1"/>
<line x1="520.6323540269731" y1="525.2003691498" x2="548.2882135950681" y2="523.2594958470584" style="stroke:rgb(0,0,255);stroke-width:1"/>
<line x1="548.2882135950681" y1="523.2594958470584" x2="539.5601113408818" y2="472.6882873754782" style="stroke:rgb(0,0,255);stroke-width:1"/>
<line x1="539.5601113408818" y1="472.6882873754782" x2="548.2882135950681" y2="523.2594958470584" style="stroke:rgb(0,0,255);stroke-width:1"/>
<line x1="519.060442559758" y1="501.6218975976823" x2="520.6323540269731" y2="525.2003691498" style="stroke:rgb(0,0,255);stroke-width:1"/>
<line x1="520.6323540269731" y1="525.2003691498" x2="519.060442559758" y2="501.6218975976823" style="stroke:rgb(0,0,255);stroke-width:1"/>
<line x1="519.060442559758" y1="501.6218975976823" x2="539.5601113408818" y2="472.6882873754782" style="stroke:rgb(0,0,255);stroke-width:1"/>
<line x1="539.5601113408818" y1="472.6882873754782" x2="519.060442559758" y2="501.6218975976823" style="stroke:rgb(0,0,255);stroke-width:1"/>
<line x1="521.3290784891233" y1="530.3770381933297" x2="539.5601113408818" y2="472.6882873754782" style="stroke:rgb(0,0,255);stroke-width:1"/>
<line x1="539.5601113408818" y1="472.6882873754782" x2="521.3290784891233" y2="530.3770381933297" style="stroke:rgb(0,0,255);stroke-width:1"/>
<line x1="576.2902830150754" y1="466.93510642627416" x2="520.6323540269731" y2="525.2003691498" style="stroke:rgb(0,0,255);stroke-width:1"/>
<line x1="520.6323540269731" y1="525.2003691498" x2="576.2902830150754" y2="466.93510642627416" style="stroke:rgb(0,0,255);stroke-width:1"/>
<line x1="576.2902830150754" y1="466.93510642627416" x2="539.5601113408818" y2="472.6882873754782" style="stroke:rgb(0,0,255);stroke-width:1"/>
<line x1="539.5601113408818" y1="472.6882873754782" x2="576.2902830150754" y2="466.93510642627416" style="stroke:rgb(0,0,255);stroke-width:1"/>
<line x1="579.7932293324005" y1="528.0271669321962" x2="520.6323540269731" y2="525.2003691498" style="stroke:rgb(0,0,255);stroke-width:1"/>
<line x1="520.6323540269731" y1="525.2003691498" x2="579.7932293324005" y2="528.0271669321962" style="stroke:rgb(0,0,255);stroke-width:1"/>
<line x1="579.7932293324005" y1="528.0271669321962" x2="539.5601113408818" y2="472.6882873754782" style="stroke:rgb(0,0,255);stroke-width:1"/>
<line x1="539.5601113408818" y1="472.6882873754782" x2="579.7932293324005" y2="528.0271669321962" style="stroke:rgb(0,0,255);stroke-width:1"/>
<line x1="588.0256312032412" y1="468.9622489574382" x2="584.6652435500985" y2="506.33052233455095" style="stroke:rgb(0,0,255);stroke-width:1"/>
<line x1="584.6652435500985" y1="506.33052233455095" x2="588.0256312032412" y2="468.9622489574382" style="stroke:rgb(0,0,255);stroke-width:1"/>
<line x1="588.0256312032412" y1="468.9622489574382" x2="589.9739540098194" y2="478.7519305559707" style="stroke:rgb(0,0,255);stroke-width:1"/>
<line x1="589.9739540098194" y1="478.7519305559707" x2="588.0256312032412" y2="468.9622489574382" style="stroke:rgb(0,0,255);stroke-width:1"/>
<line x1="588.0256312032412" y1="468.9622489574382" x2="535.6206025902821" y2="533.0863871502237" style="stroke:rgb(0,0,255);stroke-width:1"/>
<line x1="535.6206025902821" y1="533.0863871502237" x2="588.0256312032412" y2="468.9622489574382" style="stroke:rgb(0,0,255);stroke-width:1"/>
<line x1="588.0256312032412" y1="468.9622489574382" x2="520.6323540269731" y2="525.2003691498" style="stroke:rgb(0,0,255);stroke-width:1"/>
<line x1="520.6323540269731" y1="525.2003691498" x2="588.0256312032412" y2="468.9622489574382" style="stroke:rgb(0,0,255);stroke-width:1"/>
<line x1="588.0256312032412" y1="468.9622489574382" x2="539.5601113408818" y2="472.6882873754782" style="stroke:rgb(0,0,255);stroke-width:1"/>
<line x1="539.5601113408818" y1="472.6882873754782" x2="588.0256312032412" y2="468.9622489574382" style="stroke:rgb(0,0,255);stroke-width:1"/>
<line x1="573.1380016825848" y1="533.2524044635747" x2="584.6652435500985" y2="506.33052233455095" style="stroke:rgb(0,0,255);stroke-width:1"/>
<line x1="584.6652435500985" y1="506.33052233455095" x2="573.1380016825848" y2="533.2524044635747" style="stroke:rgb(0,0,255);stroke-width:1"/>
<line x1="573.1380016825848" y1="533.2524044635747" x2="589.9739540098194" y2="478.7519305559707" style="stroke:rgb(0,0,255);stroke-width:1"/>
<line x1="589.9739540098194" y1="478.7519305559707" x2="573.1380016825848" y2="533.2524044635747" style="stroke:rgb(0,0,255);stroke-width:1"/>
<line x1="573.1380016825848" y1="533.2524044635747" x2="566.4876719957638" y2="478.6981365850369" style="stroke:rgb(0,0,255);stroke-width:1"/>
<line x1="566.4876719957638" y1="478.6981365850369" x2="573.1380016825848" y2="533.2524044635747" style="stroke:rgb(0,0,255);stroke-width:1"/>
<line x1="584.6652435500985" y1="506.33052233455095" x2="566.4876719957638" y2="478.6981365850369" style="stroke:rgb(0,0,255);stroke-width:1"/>
<line x1="566.4876719957638" y1="478.6981365850369" x2="584.6652435500985" y2="506.33052233455095" style="stroke:rgb(0,0,255);stroke-width:1"/>
<line x1="554.7753546270661" y1="480.6238439330059" x2="535.6206025902821" y2="533.0863871502237" style="stroke:rgb(0,0,255);stroke-width:1"/>
<line x1="535.6206025902821" y1="533.0863871502237" x2="554.7753546270661" y2="480.6238439330059" style="stroke:rgb(0,0,255);stroke-width:1"/>
<line x1="554.7753546270661" y1="480.6238439330059" x2="539.5601113408818" y2="472.6882873754782" style="stroke:rgb(0,0,255);stroke-width:1"/>
<line x1="539.5601113408818" y1="472.6882873754782" x2="554.7753546270661" y2="480.6238439330059" style="stroke:rgb(0,0,255);stroke-width:1"/>
<line x1="589.9739540098194" y1="478.7519305559707" x2="539.5601113408818" y2="472.6882873754782" style="stroke:rgb(0,0,255);stroke-width:1"/>
<line x1="539.5601113408818" y1="472.6882873754782" x2="589.9739540098194" y2="478.7519305559707" style="stroke:rgb(0,0,255);stroke-width:1"/>
<line x1="510.0556175240298" y1="471.6369845820538" x2="566.4876719957638" y2="478.6981365850369" style="stroke:rgb(0,0,255);stroke-width:1"/>
<line x1="566.4876719957638" y1="478.6981365850369" x2="510.0556175240298" y2="471.6369845820538" style="stroke:rgb(0,0,255);stroke-width:1"/>
<line x1="510.0556175240298" y1="471.6369845820538" x2="539.5601113408818" y2="472.6882873754782" style="stroke:rgb(0,0,255);stroke-width:1"/>
<line x1="539.5601113408818" y1="472.6882873754782" x2="510.0556175240298" y2="471.6369845820538" style="stroke:rgb(0,0,255);stroke-width:1"/>
<line x1="535.6206025902821" y1="533.0863871502237" x2="520.6323540269731" y2="525.2003691498" style="stroke:rgb(0,0,255);stroke-width:1"/>
<line x1="520.6323540269731" y1="525.2003691498" x2="535.6206025902821" y2="533.0863871502237" style="stroke:rgb(0,0,255);stroke-width:1"/>
<line x1="535.6206025902821" y1="533.0863871502237" x2="539.5601113408818" y2="472.6882873754782" style="stroke:rgb(0,0,255);stroke-width:1"/>
<line x1="539.5601113408818" y1="472.6882873754782" x2="535.6206025902821" y2="533.0863871502237" style="stroke:rgb(0,0,255);stroke-width:1"/>
<line x1="516.2311859086346" y1="527.0637926159114" x2="520.6323540269731" y2="525.2003691498" style="stroke:rgb(0,0,255);stroke-width:1"/>
<line x1="520.6323540269731" y1="525.2003691498" x2="516.2311859086346" y2="527.0637926159114" style="stroke:rgb(0,0,255);stroke-width:1"/>
<line x1="516.2311859086346" y1="527.0637926159114" x2="539.5601113408818" y2="472.6882873754782" style="stroke:rgb(0,0,255);stroke-width:1"/>
<line x1="539.5601113408818" y1="472.6882873754782" x2="516.2311859086346" y2="527.0637926159114" style="stroke:rgb(0,0,255);stroke-width:1"/>
<line x1="566.4876719957638" y1="478.6981365850369" x2="520.6323540269731" y2="525.2003691498" style="stroke:rgb(0,0,255);stroke-width:1"/>
<line x1="520.6323540269731" y1="525.2003691498" x2="566.4876719957638" y2="478.6981365850369" style="stroke:rgb(0,0,255);stroke-width:1"/>
<line x1="566.4876719957638" y1="478.6981365850369" x2="539.5601113408818" y2="472.6882873754782" style="stroke:rgb(0,0,255);stroke-width:1"/>
<line x1="539.5601113408818" y1="472.6882873754782" x2="566.4876719957638" y2="478.6981365850369" style="stroke:rgb(0,0,255);stroke-width:1"/>
<line x1="520.6323540269731" y1="525.2003691498" x2="539.5601113408818" y2="472.6882873754782" style="stroke:rgb(0,0,255);stroke-width:1"/>
<line x1="539.5601113408818" y1="472.6882873754782" x2="520.6323540269731" y2="525.2003691498" style="stroke:rgb(0,0,255);stroke-width:1"/>
</svg>
